<!-- Generator: Adobe Illustrator 21.1.0, SVG Export Plug-In  -->
<svg version="1.1"
	 xmlns="http://www.w3.org/2000/svg" xmlns:xlink="http://www.w3.org/1999/xlink" xmlns:a="http://ns.adobe.com/AdobeSVGViewerExtensions/3.0/"
	 x="0px" y="0px" width="297.9px" height="285.3px" viewBox="0 0 297.9 285.3" style="enable-background:new 0 0 297.9 285.3;"
	 xml:space="preserve">
<style type="text/css">
	.st0{fill:#EBEBEB;stroke:#000000;stroke-width:4;stroke-miterlimit:10;}
	.st1{fill:#FFFFFF;}
	.st2{fill:#2E2E2E;}
	.st3{fill:#FDEE1C;}
</style>
<defs>
</defs>
<circle class="st0" cx="148.9" cy="142.7" r="140.7"/>
<g>
	<g>
		<path class="st1" d="M222.4,68.4H31.2c-2.6,0-4.7,2.1-4.7,4.7v124.3c0,2.6,2.1,4.7,4.7,4.7h191.2c2.6,0,4.7-2.1,4.7-4.7V73.1
			C227,70.5,224.9,68.4,222.4,68.4z"/>
		<path class="st2" d="M222.4,66.5H31.2c-3.6,0-6.6,2.9-6.6,6.6v124.3c0,3.6,2.9,6.6,6.6,6.6h191.2c3.6,0,6.6-2.9,6.6-6.6V73.1
			C228.9,69.4,226,66.5,222.4,66.5z M225.2,197.4c0,1.6-1.3,2.8-2.8,2.8H31.2c-1.6,0-2.8-1.3-2.8-2.8V73.1c0-1.6,1.3-2.8,2.8-2.8
			h191.2c1.6,0,2.8,1.3,2.8,2.8V197.4z"/>
	</g>
	<g>
		<rect x="35" y="76.7" class="st1" width="183.5" height="117"/>
		<path class="st2" d="M218.5,74.8H35c-1,0-1.9,0.8-1.9,1.9v117c0,1,0.8,1.9,1.9,1.9h183.5c1,0,1.9-0.8,1.9-1.9v-117
			C220.4,75.7,219.5,74.8,218.5,74.8z M216.6,191.8H36.9V78.6h179.8V191.8z"/>
	</g>
	<rect x="42" y="92.2" class="st3" width="169.5" height="86"/>
	<g>
		<g>
			<path class="st1" d="M1.9,203.5c0,7.2,5.9,13,13,13h223.7c7.2,0,13-5.9,13-13v-1.7H1.9V203.5z"/>
			<path class="st2" d="M251.6,199.9H1.9c-1,0-1.9,0.8-1.9,1.9v1.7c0,8.2,6.7,14.9,14.9,14.9h223.7c8.2,0,14.9-6.7,14.9-14.9v-1.7
				C253.5,200.7,252.7,199.9,251.6,199.9z M238.6,214.6H14.9c-6.1,0-11.1-4.9-11.1-11h246C249.7,209.7,244.7,214.6,238.6,214.6z"/>
		</g>
		<path class="st2" d="M251.6,199.9H1.9c-1,0-1.9,0.8-1.9,1.9v1.7c0,8.2,6.7,14.9,14.9,14.9h223.7c8.2,0,14.9-6.7,14.9-14.9v-1.7
			C253.5,200.7,252.7,199.9,251.6,199.9z M238.6,214.6H14.9c-6.1,0-11.1-4.9-11.1-11h246C249.7,209.7,244.7,214.6,238.6,214.6z"/>
	</g>
	<g>
		<path class="st1" d="M128.7,129.2c-0.2-0.2-0.4-0.1-0.4,0.2l2.8,27.4c0,0.3,0.2,0.4,0.4,0.1l4.8-6.1c0.2-0.3,0.5-0.2,0.7,0.1
			l6.5,13.2c0.2,0.3,0.5,0.4,0.8,0.3l2.3-1.1c0.3-0.2,0.4-0.5,0.3-0.8l-6.5-13.2c-0.2-0.3,0-0.6,0.3-0.6l7.7-0.1
			c0.3,0,0.4-0.2,0.2-0.4L128.7,129.2z"/>
		<g>
			<path class="st2" d="M120.8,104c-1,0-1.9,0.8-1.9,1.9V116c0,1,0.8,1.9,1.9,1.9s1.9-0.8,1.9-1.9v-10.1
				C122.6,104.9,121.8,104,120.8,104z"/>
			<path class="st2" d="M120.8,126.2c-1,0-1.9,0.8-1.9,1.9v10.1c0,1,0.8,1.9,1.9,1.9s1.9-0.8,1.9-1.9v-10.1
				C122.6,127,121.8,126.2,120.8,126.2z"/>
			<path class="st2" d="M136.9,120.2h-10.1c-1,0-1.9,0.8-1.9,1.9s0.8,1.9,1.9,1.9h10.1c1,0,1.9-0.8,1.9-1.9S137.9,120.2,136.9,120.2
				z"/>
			<path class="st2" d="M114.7,120.2h-10.1c-1,0-1.9,0.8-1.9,1.9s0.8,1.9,1.9,1.9h10.1c1,0,1.9-0.8,1.9-1.9S115.8,120.2,114.7,120.2
				z"/>
		</g>
	</g>
	<path class="st2" d="M292.2,167.6h-10.3c-1,0-1.9,0.8-1.9,1.9c0,1,0.8,1.9,1.9,1.9h10.3c1,0,1.9,0.8,1.9,1.9v23.4
		c0,1-0.8,1.9-1.9,1.9h-10.3c-1,0-1.9,0.8-1.9,1.9s0.8,1.9,1.9,1.9h10.3c3.1,0,5.6-2.5,5.6-5.6v-23.4
		C297.9,170.1,295.3,167.6,292.2,167.6z"/>
	<g>
		<path class="st1" d="M245.6,160.8h-7v7V194v15.5c0,3.9,3.2,7,7,7h28.9c3.9,0,7-3.2,7-7V194v-26.1v-7h-7H245.6z"/>
		<path class="st2" d="M281.5,158.9h-43c-1,0-1.9,0.8-1.9,1.9v48.7c0,4.9,4,8.9,8.9,8.9h28.9c4.9,0,8.9-4,8.9-8.9v-48.7
			C283.4,159.7,282.6,158.9,281.5,158.9z M279.7,209.4c0,2.9-2.3,5.2-5.2,5.2h-28.9c-2.9,0-5.2-2.3-5.2-5.2v-46.8h39.2V209.4z"/>
	</g>
	<path class="st3" d="M243.2,206.3c0,3,2.5,5.5,5.5,5.5h22.6c3,0,5.5-2.5,5.5-5.5v-23.3h-33.6V206.3z"/>
	<path class="st2" d="M243.2,141.7c-1,0-1.9,0.8-1.9,1.9v7.6c0,1,0.8,1.9,1.9,1.9s1.9-0.8,1.9-1.9v-7.6
		C245.1,142.5,244.3,141.7,243.2,141.7z"/>
	<path class="st2" d="M243.2,125.8c-1,0-1.9,0.8-1.9,1.9v5c0,1,0.8,1.9,1.9,1.9s1.9-0.8,1.9-1.9v-5
		C245.1,126.6,244.3,125.8,243.2,125.8z"/>
	<path class="st2" d="M277.5,138.5c-1,0-1.9,0.8-1.9,1.9v5.2c0,1,0.8,1.9,1.9,1.9c1,0,1.9-0.8,1.9-1.9v-5.2
		C279.4,139.3,278.6,138.5,277.5,138.5z"/>
	<path class="st2" d="M277.5,126.1c-1,0-1.9,0.8-1.9,1.9v2.6c0,1,0.8,1.9,1.9,1.9c1,0,1.9-0.8,1.9-1.9V128
		C279.4,127,278.6,126.1,277.5,126.1z"/>
	<path class="st2" d="M254.5,132.3c-1,0-1.9,0.8-1.9,1.9v11.3c0,1,0.8,1.9,1.9,1.9s1.9-0.8,1.9-1.9v-11.3
		C256.3,133.1,255.5,132.3,254.5,132.3z"/>
	<path class="st2" d="M254.5,104.7c-1,0-1.9,0.8-1.9,1.9v6.8c0,1,0.8,1.9,1.9,1.9s1.9-0.8,1.9-1.9v-6.8
		C256.3,105.6,255.5,104.7,254.5,104.7z"/>
	<path class="st2" d="M265.7,143.6c-1,0-1.9,0.8-1.9,1.9v5.7c0,1,0.8,1.9,1.9,1.9s1.9-0.8,1.9-1.9v-5.7
		C267.6,144.5,266.7,143.6,265.7,143.6z"/>
	<path class="st2" d="M265.7,120c-1,0-1.9,0.8-1.9,1.9v7.5c0,1,0.8,1.9,1.9,1.9s1.9-0.8,1.9-1.9v-7.5
		C267.6,120.8,266.7,120,265.7,120z"/>
</g>
</svg>
