<!-- Generator: Adobe Illustrator 19.2.0, SVG Export Plug-In  -->
<svg version="1.1"
	 xmlns="http://www.w3.org/2000/svg" xmlns:xlink="http://www.w3.org/1999/xlink" xmlns:a="http://ns.adobe.com/AdobeSVGViewerExtensions/3.0/"
	 x="0px" y="0px" width="285.3px" height="285.3px" viewBox="0 0 285.3 285.3" style="enable-background:new 0 0 285.3 285.3;"
	 xml:space="preserve">
<style type="text/css">
	.st0{fill:#EEEDEA;stroke:#000000;stroke-width:4;stroke-miterlimit:10;}
	.st1{fill:#FFFFFF;}
	.st2{fill:#1E1819;}
	.st3{fill:#F5FA16;}
	.st4{fill:#070606;}
</style>
<defs>
</defs>
<circle class="st0" cx="142.7" cy="142.7" r="140.7"/>
<g>
	<path class="st1" d="M223.3,270.1h6.5c-1.4-6.4-7.2-11.1-13.9-11.1c-1.8,0-3.6,0.3-5.3,1c-0.9,0.4-1.9,0-2.4-0.9
		c-3.9-7.6-11.6-12.3-20.1-12.3l-0.5,0c-0.9,0-1.7-0.6-1.9-1.5c-1.9-8.3-9.2-14.1-17.7-14.1c-3.8,0-7.4,1.1-10.5,3.3
		c-0.6,0.4-1.3,0.5-1.9,0.1c-0.6-0.3-1-1-1-1.7v-41.5h-3.7c-2.6,10.6-5.1,20.7-6,24.4c-0.2,0.8-1,1.4-1.8,1.4s-1.6-0.6-1.8-1.4
		c-0.9-3.7-3.4-13.8-6-24.4h-3.7v28.6c0,0.7-0.3,1.3-0.9,1.6c-0.6,0.3-1.3,0.4-1.8,0.1c-3.3-1.8-7.1-2.7-10.9-2.7
		c-11.7,0-21.7,8.8-23.2,20.4c-0.1,0.6-0.4,1.1-0.9,1.4c-0.5,0.3-1.1,0.3-1.7,0.1c-3.3-1.4-6.8-2.1-10.4-2.1
		c-12.3,0-22.9,8.3-25.8,20.2c-0.1,0.6-0.6,1.1-1.1,1.3c-4.4,1.8-7.8,5.4-9.3,9.9h63.2c1,0,1.9,0.8,1.9,1.9v0h7.1v0
		c0-1,0.8-1.9,1.9-1.9h24.7c1,0,1.9,0.8,1.9,1.9v0h6v0c0-1,0.8-1.9,1.9-1.9h3.9c1,0,1.9,0.8,1.9,1.9v0h5.7v0c0-1,0.8-1.9,1.9-1.9
		h38.4c1,0,1.9,0.8,1.9,1.9v0h4.6v0c0-1,0.8-1.9,1.9-1.9h2.1c1,0,1.9,0.8,1.9,1.9v0h3.4v0C221.5,270.9,222.3,270.1,223.3,270.1z
		 M83.5,261c-0.3,0.2-0.6,0.3-1,0.3c-0.6,0-1.3-0.3-1.6-0.9c-0.2-0.3-0.6-0.7-1-1h-4.8c-0.5,0.3-0.8,0.6-1,1
		c-0.5,0.9-1.7,1.2-2.6,0.7c-0.9-0.5-1.2-1.7-0.7-2.6c1.2-2.1,3.8-3.4,6.6-3.4c2.9,0,5.4,1.3,6.6,3.4
		C84.6,259.3,84.3,260.4,83.5,261z M133.1,250.6c-0.2,0.1-0.5,0.2-0.8,0.2c-0.7,0-1.4-0.4-1.7-1.1c-0.1-0.3-0.2-0.5-0.4-0.8h-19
		c-0.1,0.2-0.3,0.5-0.4,0.8c-0.4,0.9-1.5,1.4-2.5,0.9c-0.9-0.4-1.4-1.5-0.9-2.5c2.3-5.2,7.6-8.6,13.3-8.6c5.7,0,10.9,3.4,13.3,8.6
		C134.5,249.1,134,250.2,133.1,250.6z M188.7,260.5c-0.2,0.1-0.5,0.2-0.8,0.2c-0.7,0-1.4-0.4-1.7-1.1c-0.1-0.3-0.3-0.5-0.5-0.8h-7.3
		c-0.2,0.2-0.3,0.5-0.5,0.8c-0.4,0.9-1.5,1.4-2.5,0.9c-0.9-0.4-1.4-1.5-0.9-2.5c1.3-3,4.3-4.9,7.5-4.9c3.2,0,6.2,1.9,7.5,4.9
		C190.1,258.9,189.7,260,188.7,260.5z"/>
	<path class="st2" d="M216,255.3c-1.7,0-3.5,0.3-5.1,0.7c-4.6-7.8-12.7-12.6-21.7-12.9c-2.8-9.2-11.2-15.6-21-15.6
		c-3.4,0-6.7,0.8-9.7,2.2v-38.3h-3.7V233c0,0.7,0.4,1.3,1,1.7c0.6,0.3,1.4,0.3,1.9-0.1c3.1-2.2,6.7-3.3,10.5-3.3
		c8.5,0,15.8,5.8,17.7,14.1c0.2,0.9,1,1.5,1.9,1.5l0.5,0c8.5,0,16.2,4.7,20.1,12.3c0.4,0.9,1.5,1.2,2.4,0.9c1.7-0.7,3.5-1,5.3-1
		c6.7,0,12.4,4.7,13.9,11.1h-6.5c-1,0-1.9,0.8-1.9,1.9v0c0,1,0.8,1.9,1.9,1.9h8.7c0.5,0,1-0.2,1.4-0.6c0.4-0.4,0.5-0.9,0.5-1.4
		C233.2,262.5,225.3,255.3,216,255.3z"/>
	<path class="st2" d="M108.8,270.1H45.6c1.5-4.4,4.9-8,9.3-9.9c0.5-0.2,1-0.7,1.1-1.3c2.9-11.9,13.6-20.2,25.8-20.2
		c3.6,0,7.1,0.7,10.4,2.1c0.5,0.2,1.2,0.2,1.7-0.1c0.5-0.3,0.8-0.8,0.9-1.4c1.5-11.6,11.5-20.4,23.2-20.4c3.8,0,7.6,0.9,10.9,2.7
		c0.6,0.3,1.3,0.3,1.8-0.1c0.6-0.3,0.9-0.9,0.9-1.6v-28.6h-3.7v25.6c-3.1-1.2-6.5-1.9-9.9-1.9c-12.8,0-23.8,9-26.5,21.3
		c-3.1-1-6.3-1.6-9.6-1.6c-13.7,0-25.6,9.1-29.2,22.1c-5.9,2.7-10,8.1-11.3,14.5c-0.1,0.5,0,1.1,0.4,1.5c0.4,0.4,0.9,0.7,1.4,0.7
		h65.7c1,0,1.9-0.8,1.9-1.9v0C110.7,270.9,109.9,270.1,108.8,270.1z"/>
	<path class="st2" d="M216.2,270.1h-2.1c-1,0-1.9,0.8-1.9,1.9v0c0,1,0.8,1.9,1.9,1.9h2.1c1,0,1.9-0.8,1.9-1.9v0
		C218,270.9,217.2,270.1,216.2,270.1z"/>
	<path class="st2" d="M205.8,270.1h-38.4c-1,0-1.9,0.8-1.9,1.9v0c0,1,0.8,1.9,1.9,1.9h38.4c1,0,1.9-0.8,1.9-1.9v0
		C207.6,270.9,206.8,270.1,205.8,270.1z"/>
	<path class="st2" d="M157.9,270.1H154c-1,0-1.9,0.8-1.9,1.9v0c0,1,0.8,1.9,1.9,1.9h3.9c1,0,1.9-0.8,1.9-1.9v0
		C159.8,270.9,159,270.1,157.9,270.1z"/>
	<path class="st2" d="M144.3,270.1h-24.7c-1,0-1.9,0.8-1.9,1.9v0c0,1,0.8,1.9,1.9,1.9h24.7c1,0,1.9-0.8,1.9-1.9v0
		C146.2,270.9,145.4,270.1,144.3,270.1z"/>
	<path class="st3" d="M173.1,194.8c1.6,4.4,2.5,9.1,2.9,13.8c17.5-11.3,25.3-35.6,17.8-56.9c-2.6-7.4-6.8-13.8-12.2-18.8
		c0,0,0,0.1,0,0.1c0,0.4-0.1,0.7-0.1,1.1c-0.1,0.9-0.1,1.8-0.2,2.6c0,0.5-0.1,1-0.2,1.5c-0.1,0.8-0.2,1.5-0.2,2.2
		c-0.1,0.5-0.1,1-0.2,1.6c-0.1,0.7-0.2,1.4-0.3,2.1c-0.1,0.5-0.2,1.1-0.2,1.6c-0.1,0.7-0.2,1.3-0.3,2c-0.1,0.5-0.2,1.1-0.3,1.6
		c-0.1,0.7-0.2,1.3-0.4,2c-0.1,0.5-0.2,1.1-0.3,1.6c-0.1,0.6-0.3,1.3-0.4,1.9c-0.1,0.5-0.2,1.1-0.4,1.6c-0.2,0.6-0.3,1.3-0.5,1.9
		c-0.1,0.5-0.3,1-0.4,1.5c-0.2,0.6-0.3,1.3-0.5,1.9c-0.1,0.5-0.3,1-0.4,1.5c-0.2,0.7-0.4,1.3-0.6,1.9c-0.1,0.5-0.3,0.9-0.4,1.4
		c-0.2,0.7-0.5,1.4-0.7,2.1c-0.1,0.4-0.2,0.7-0.4,1.1c-0.4,1-0.8,2.1-1.2,3.1c-0.1,0.3-0.2,0.6-0.3,0.9c-0.3,0.7-0.6,1.5-0.9,2.2
		c-0.2,0.4-0.3,0.8-0.5,1.2c-0.3,0.6-0.5,1.2-0.8,1.8c-0.2,0.4-0.4,0.8-0.6,1.2c-0.3,0.5-0.5,1.1-0.8,1.6c-0.2,0.4-0.4,0.8-0.6,1.2
		c-0.2,0.3-0.3,0.7-0.5,1C170,187.4,171.8,191,173.1,194.8z"/>
	<path class="st2" d="M181.7,133c0,0,0-0.1,0-0.1c5.4,5,9.6,11.4,12.2,18.8c7.5,21.3-0.3,45.6-17.8,56.9c-0.4-4.7-1.4-9.3-2.9-13.8
		c-1.3-3.8-3.1-7.4-5.3-10.8c0.2-0.3,0.4-0.7,0.5-1c-0.4,0.7-0.7,1.4-1.1,2c0,0,0,0,0,0c0,0,0,0.1-0.1,0.1c-0.3,0.5-0.9,0.8-1.6,0.8
		h-1c2,3.1,3.7,6.5,4.9,10.1c1.8,5.1,2.8,10.4,2.9,15.8c0,0.7,0.4,1.2,0.9,1.6c0.3,0.2,0.6,0.3,0.9,0.3c0.3,0,0.6-0.1,0.9-0.2
		c20.9-11.3,30.6-39,22.2-63c-3.1-8.9-8.5-16.6-15.5-22.2c0,0.3,0,0.6,0,1C181.8,130.5,181.8,131.7,181.7,133z"/>
	<path class="st2" d="M174.5,168.7c0.2-0.7,0.5-1.4,0.7-2.1C175,167.3,174.8,168,174.5,168.7z"/>
	<path class="st2" d="M175.7,165.2c0.2-0.6,0.4-1.3,0.6-1.9C176.1,164,175.9,164.6,175.7,165.2z"/>
	<path class="st2" d="M169.1,181.8c0.3-0.5,0.5-1.1,0.8-1.6C169.6,180.7,169.3,181.2,169.1,181.8z"/>
	<path class="st2" d="M171.8,176c0.3-0.7,0.6-1.5,0.9-2.2C172.4,174.5,172.1,175.2,171.8,176z"/>
	<path class="st2" d="M173,172.9c0.4-1,0.8-2.1,1.2-3.1C173.8,170.9,173.4,171.9,173,172.9z"/>
	<path class="st2" d="M170.4,178.9c0.3-0.6,0.5-1.2,0.8-1.8C171,177.7,170.7,178.3,170.4,178.9z"/>
	<path class="st2" d="M177.6,158.4c0.2-0.6,0.3-1.3,0.5-1.9C177.9,157.1,177.8,157.8,177.6,158.4z"/>
	<path class="st2" d="M176.7,161.8c0.2-0.6,0.4-1.3,0.5-1.9C177.1,160.6,176.9,161.2,176.7,161.8z"/>
	<path class="st2" d="M180.9,140.5c0.1-0.7,0.2-1.5,0.2-2.2C181.1,139,181,139.7,180.9,140.5z"/>
	<path class="st2" d="M181.3,136.8c0.1-0.9,0.2-1.8,0.2-2.6C181.5,135,181.4,135.9,181.3,136.8z"/>
	<path class="st2" d="M180.4,144.2c0.1-0.7,0.2-1.4,0.3-2.1C180.6,142.8,180.6,143.5,180.4,144.2z"/>
	<path class="st2" d="M179.2,151.4c0.1-0.7,0.3-1.3,0.4-2C179.5,150.1,179.3,150.7,179.2,151.4z"/>
	<path class="st2" d="M178.5,154.9c0.1-0.6,0.3-1.3,0.4-1.9C178.7,153.6,178.6,154.3,178.5,154.9z"/>
	<path class="st2" d="M179.9,147.8c0.1-0.7,0.2-1.3,0.3-2C180.1,146.5,180,147.1,179.9,147.8z"/>
	<path class="st3" d="M92.5,151.8c-7.4,21.3,0.5,45.6,18,56.9c0.4-4.7,1.3-9.3,2.9-13.8c1.3-3.8,3.1-7.4,5.2-10.7
		c-0.2-0.3-0.4-0.7-0.5-1c-0.2-0.4-0.4-0.8-0.6-1.2c-0.3-0.5-0.5-1.1-0.8-1.6c-0.2-0.4-0.4-0.8-0.6-1.2c-0.3-0.6-0.5-1.2-0.8-1.8
		c-0.2-0.4-0.3-0.8-0.5-1.2c-0.3-0.7-0.6-1.5-0.9-2.3c-0.1-0.3-0.2-0.5-0.3-0.8c-0.4-1-0.8-2.1-1.2-3.1c-0.1-0.4-0.3-0.7-0.4-1.1
		c-0.2-0.7-0.5-1.4-0.7-2.1c-0.1-0.4-0.3-0.9-0.4-1.4c-0.2-0.6-0.4-1.3-0.6-1.9c-0.1-0.5-0.3-1-0.4-1.5c-0.2-0.6-0.4-1.3-0.5-1.9
		c-0.1-0.5-0.3-1-0.4-1.5c-0.2-0.6-0.3-1.3-0.5-1.9c-0.1-0.5-0.2-1-0.4-1.6c-0.1-0.6-0.3-1.3-0.4-2c-0.1-0.5-0.2-1.1-0.3-1.6
		c-0.1-0.7-0.3-1.3-0.4-2c-0.1-0.5-0.2-1.1-0.3-1.6c-0.1-0.7-0.2-1.4-0.3-2c-0.1-0.5-0.2-1.1-0.2-1.6c-0.1-0.7-0.2-1.4-0.3-2.1
		c-0.1-0.5-0.1-1-0.2-1.6c-0.1-0.7-0.2-1.5-0.2-2.2c-0.1-0.5-0.1-1-0.2-1.5c-0.1-0.8-0.1-1.7-0.2-2.5c0-0.4-0.1-0.8-0.1-1.2
		c0,0,0-0.1,0-0.1C99.3,137.8,95,144.3,92.5,151.8z"/>
	<path class="st2" d="M119.1,185c-0.4-0.7-0.7-1.3-1.1-2c0.2,0.3,0.4,0.7,0.5,1c-2.1,3.3-3.9,6.9-5.2,10.7
		c-1.6,4.5-2.5,9.1-2.9,13.8c-17.6-11.2-25.5-35.5-18-56.9c2.6-7.4,6.8-13.9,12.3-18.9c0,0,0,0.1,0,0.1c-0.1-1.3-0.2-2.5-0.2-3.8
		c0-0.3,0-0.6,0-1c-7,5.7-12.4,13.4-15.5,22.4c-8.4,24,1.5,51.7,22.4,62.9c0.3,0.1,0.6,0.2,0.9,0.2c0.3,0,0.7-0.1,0.9-0.3
		c0.6-0.3,0.9-0.9,0.9-1.6c0.1-5.4,1-10.7,2.8-15.8c1.2-3.6,2.9-6.9,4.9-10.1h-1C120.1,186,119.4,185.6,119.1,185z"/>
	<path class="st2" d="M105.7,142c0.1,0.7,0.2,1.4,0.3,2.1C105.8,143.4,105.8,142.7,105.7,142z"/>
	<path class="st2" d="M113.7,173.7c0.3,0.8,0.6,1.5,0.9,2.3C114.3,175.2,114,174.5,113.7,173.7z"/>
	<path class="st2" d="M105.2,138.2c0.1,0.7,0.2,1.5,0.2,2.2C105.4,139.7,105.3,138.9,105.2,138.2z"/>
	<path class="st2" d="M106.8,149.4c0.1,0.7,0.2,1.3,0.4,2C107.1,150.7,106.9,150,106.8,149.4z"/>
	<path class="st2" d="M115.2,177.1c0.3,0.6,0.5,1.2,0.8,1.8C115.7,178.3,115.4,177.7,115.2,177.1z"/>
	<path class="st2" d="M116.6,180.2c0.3,0.5,0.5,1.1,0.8,1.6C117.1,181.3,116.8,180.7,116.6,180.2z"/>
	<path class="st2" d="M108.3,156.5c0.2,0.6,0.3,1.3,0.5,1.9C108.6,157.7,108.5,157.1,108.3,156.5z"/>
	<path class="st2" d="M104.8,134.1c0.1,0.8,0.1,1.7,0.2,2.5C105,135.8,104.9,135,104.8,134.1z"/>
	<path class="st2" d="M111.1,166.6c0.2,0.7,0.5,1.4,0.7,2.1C111.6,168,111.4,167.3,111.1,166.6z"/>
	<path class="st2" d="M112.2,169.8c0.4,1,0.8,2.1,1.2,3.1C113,171.9,112.6,170.9,112.2,169.8z"/>
	<path class="st2" d="M109.2,159.9c0.2,0.6,0.3,1.3,0.5,1.9C109.5,161.2,109.3,160.5,109.2,159.9z"/>
	<path class="st2" d="M106.2,145.7c0.1,0.7,0.2,1.4,0.3,2C106.4,147.1,106.3,146.4,106.2,145.7z"/>
	<path class="st2" d="M110.1,163.3c0.2,0.7,0.4,1.3,0.6,1.9C110.5,164.6,110.3,163.9,110.1,163.3z"/>
	<path class="st2" d="M107.5,152.9c0.1,0.7,0.3,1.3,0.4,2C107.8,154.2,107.7,153.6,107.5,152.9z"/>
	<polygon class="st1" points="143.2,123.4 143.2,123.4 143.2,123.4 	"/>
	<path class="st1" d="M127.9,158.6c0-12.6,6.7-22.5,15.3-22.5c8.6,0,15.3,9.9,15.3,22.5c0,1.5-2.4,12-5.2,23.6h8.7h2.6
		c7.8-14.3,12.6-33.2,13.6-53.3c0.1-2.6,0.2-5.1,0.2-7.6c0-22.3-7.3-43.1-13.7-57.2c-6.6,1.7-14,2.6-21.4,2.6
		c-7.4,0-14.8-0.9-21.4-2.6c-6.8,14.8-13.7,35.3-13.7,57.2c0,2.5,0.1,5,0.2,7.5c1,20.1,5.8,39,13.6,53.3h2.6h8.7
		C130.3,170.6,127.9,160.1,127.9,158.6z M143.2,88.2c10.2,0,18.6,8.3,18.6,18.5c0,10.2-8.3,18.6-18.5,18.6c0,0,0,0,0,0
		c-10.2,0-18.5-8.3-18.5-18.5C124.6,96.5,132.9,88.2,143.2,88.2z"/>
	<path class="st2" d="M142.8,25.9c0.1,0,0.3-0.1,0.4-0.1C143.1,25.9,143,25.9,142.8,25.9z"/>
	<path class="st2" d="M140.9,27.1c0.2-0.1,0.3-0.2,0.5-0.4C141.2,26.8,141.1,27,140.9,27.1z"/>
	<path class="st2" d="M142.4,26.1c0.1-0.1,0.2-0.1,0.3-0.1C142.6,26,142.5,26,142.4,26.1z"/>
	<path class="st2" d="M141.9,26.3c0.1-0.1,0.3-0.1,0.4-0.2C142.2,26.2,142.1,26.3,141.9,26.3z"/>
	<path class="st2" d="M167.4,62.8c-0.2,0.5-0.7,0.9-1.2,1c-0.5,0.1-1,0.3-1.6,0.4c6.4,14,13.7,34.9,13.7,57.2c0,2.5-0.1,5.1-0.2,7.6
		c-1,20.1-5.8,39-13.6,53.3H162c0.6,0,1.2,0.3,1.5,0.8c0.4,0.5,0.5,1.1,0.3,1.7l-0.4,1.3h1.3h1c0.6,0,1.2-0.3,1.6-0.8
		c0,0,0-0.1,0.1-0.1c0,0,0,0,0,0c0.4-0.7,0.7-1.3,1.1-2c0.2-0.4,0.4-0.8,0.6-1.2c0.3-0.5,0.5-1.1,0.8-1.6c0.2-0.4,0.4-0.8,0.6-1.2
		c0.3-0.6,0.5-1.2,0.8-1.8c0.2-0.4,0.4-0.8,0.5-1.2c0.3-0.7,0.6-1.5,0.9-2.2c0.1-0.3,0.2-0.6,0.3-0.9c0.4-1,0.8-2.1,1.2-3.1
		c0.1-0.4,0.2-0.7,0.4-1.1c0.2-0.7,0.5-1.4,0.7-2.1c0.1-0.4,0.3-0.9,0.4-1.4c0.2-0.6,0.4-1.3,0.6-1.9c0.1-0.5,0.3-1,0.4-1.5
		c0.2-0.6,0.4-1.3,0.5-1.9c0.1-0.5,0.3-1,0.4-1.5c0.2-0.6,0.3-1.3,0.5-1.9c0.1-0.5,0.2-1.1,0.4-1.6c0.1-0.6,0.3-1.3,0.4-1.9
		c0.1-0.5,0.2-1.1,0.3-1.6c0.1-0.6,0.3-1.3,0.4-2c0.1-0.5,0.2-1.1,0.3-1.6c0.1-0.7,0.2-1.3,0.3-2c0.1-0.5,0.2-1.1,0.2-1.6
		c0.1-0.7,0.2-1.4,0.3-2.1c0.1-0.5,0.1-1,0.2-1.6c0.1-0.7,0.2-1.5,0.2-2.2c0.1-0.5,0.1-1,0.2-1.5c0.1-0.9,0.2-1.8,0.2-2.6
		c0-0.4,0.1-0.7,0.1-1.1c0.1-1.3,0.2-2.6,0.2-3.8c0-0.3,0-0.6,0-1c0.1-2.3,0.2-4.6,0.2-6.8c0-23.7-8-45.8-14.7-60.2
		C167.6,61.7,167.6,62.3,167.4,62.8z"/>
	<path class="st2" d="M141.4,26.7c0.1-0.1,0.3-0.2,0.4-0.3C141.7,26.5,141.6,26.6,141.4,26.7z"/>
	<path class="st2" d="M122.9,183c0.4-0.5,0.9-0.8,1.5-0.8h-2.6c-7.8-14.3-12.6-33.2-13.6-53.3c-0.1-2.5-0.2-5.1-0.2-7.5
		c0-21.9,6.9-42.4,13.7-57.2c-0.5-0.1-1-0.2-1.5-0.4c-0.1,0-0.2-0.1-0.3-0.1c-0.3-0.1-0.6-0.4-0.8-0.7c-0.3-0.5-0.4-1.2-0.1-1.8
		c-7.3,15.5-14.7,37-14.7,60.2c0,2.2,0.1,4.5,0.2,6.8c0,0.3,0,0.6,0,1c0.1,1.3,0.1,2.6,0.2,3.8c0,0.4,0.1,0.8,0.1,1.2
		c0.1,0.8,0.1,1.7,0.2,2.5c0,0.5,0.1,1,0.2,1.5c0.1,0.7,0.2,1.5,0.2,2.2c0.1,0.5,0.1,1.1,0.2,1.6c0.1,0.7,0.2,1.4,0.3,2.1
		c0.1,0.5,0.2,1.1,0.2,1.6c0.1,0.7,0.2,1.4,0.3,2c0.1,0.5,0.2,1.1,0.3,1.6c0.1,0.7,0.2,1.3,0.4,2c0.1,0.5,0.2,1.1,0.3,1.6
		c0.1,0.7,0.3,1.3,0.4,2c0.1,0.5,0.2,1,0.4,1.6c0.2,0.6,0.3,1.3,0.5,1.9c0.1,0.5,0.3,1,0.4,1.5c0.2,0.6,0.3,1.3,0.5,1.9
		c0.1,0.5,0.3,1,0.4,1.5c0.2,0.7,0.4,1.3,0.6,1.9c0.1,0.5,0.3,0.9,0.4,1.4c0.2,0.7,0.5,1.4,0.7,2.1c0.1,0.4,0.3,0.7,0.4,1.1
		c0.4,1,0.8,2.1,1.2,3.1c0.1,0.3,0.2,0.5,0.3,0.8c0.3,0.8,0.6,1.5,0.9,2.3c0.2,0.4,0.3,0.8,0.5,1.2c0.3,0.6,0.5,1.2,0.8,1.8
		c0.2,0.4,0.4,0.8,0.6,1.2c0.3,0.5,0.5,1.1,0.8,1.6c0.2,0.4,0.4,0.8,0.6,1.2c0.4,0.7,0.7,1.4,1.1,2c0.3,0.6,1,1,1.7,1h1h1.2
		l-0.4-1.3C122.4,184.1,122.6,183.5,122.9,183z"/>
	<path class="st2" d="M119.2,60.9c0.2-0.4,0.4-0.9,0.6-1.3C119.6,60,119.4,60.5,119.2,60.9z"/>
	<path class="st2" d="M138.6,29.3c0-0.1,0.1-0.1,0.1-0.2C138.7,29.2,138.7,29.3,138.6,29.3z"/>
	<path class="st2" d="M121.8,55.5c-0.7,1.3-1.3,2.6-2,4c2.6-5.3,5.5-10.6,8.4-15.4C126,47.8,123.8,51.7,121.8,55.5z"/>
	<path class="st2" d="M139.8,28.1c0.1-0.1,0.3-0.3,0.4-0.4C140,27.9,139.9,28,139.8,28.1z"/>
	<path class="st2" d="M139.2,28.7c0.1-0.1,0.2-0.2,0.3-0.3C139.4,28.5,139.3,28.6,139.2,28.7z"/>
	<path class="st2" d="M140.3,27.6c0.2-0.1,0.3-0.3,0.4-0.4C140.6,27.3,140.5,27.4,140.3,27.6z"/>
	<path class="st2" d="M143.2,125.3c-10.2,0-18.5-8.3-18.5-18.5C124.7,117,133,125.3,143.2,125.3z"/>
	<path class="st1" d="M126.9,186l0.5,1.8h6.9c-0.1-0.6-0.3-1.2-0.4-1.8H126.9z"/>
	<path class="st1" d="M158.9,187.8l0.5-1.8h-7.1c-0.1,0.6-0.3,1.2-0.4,1.8H158.9z"/>
	<path class="st2" d="M131.6,191.5h3.7c-0.3-1.2-0.6-2.5-0.9-3.7h-6.9l-0.5-1.8h7.1c-0.3-1.3-0.6-2.5-0.9-3.7h-8.7
		c-0.6,0-1.2,0.3-1.5,0.8c-0.4,0.5-0.5,1.1-0.3,1.7l0.4,1.3l1.3,4.2c0.2,0.8,1,1.3,1.8,1.3h1.8H131.6z"/>
	<path class="st2" d="M163.5,183c-0.4-0.5-0.9-0.8-1.5-0.8h-8.7c-0.3,1.2-0.6,2.5-0.9,3.7h7.1l-0.5,1.8H152
		c-0.3,1.2-0.6,2.5-0.9,3.7h3.7h3.7h1.8c0.8,0,1.5-0.5,1.8-1.3l1.3-4.2l0.4-1.3C164,184.1,163.9,183.5,163.5,183z"/>
	<path class="st1" d="M143.2,121.5c8.2,0,14.8-6.7,14.8-14.8c0-8.1-6.7-14.8-14.8-14.8c-8.2,0-14.8,6.7-14.8,14.8
		C128.4,114.9,135.1,121.5,143.2,121.5l0,1.9l0,0L143.2,121.5z M132.7,106.7c0-5.8,4.7-10.5,10.4-10.5c5.8,0,10.5,4.7,10.5,10.4
		c0,5.8-4.7,10.5-10.4,10.5C137.4,117.2,132.8,112.5,132.7,106.7z"/>
	<path class="st2" d="M143.2,125.3C143.2,125.3,143.2,125.3,143.2,125.3c10.3,0,18.6-8.4,18.5-18.6c0-10.2-8.3-18.5-18.6-18.5
		c-10.2,0-18.5,8.4-18.5,18.6C124.7,117,133,125.3,143.2,125.3z M143.2,123.4l0-1.9c-8.2,0-14.8-6.6-14.8-14.8
		c0-8.2,6.6-14.8,14.8-14.8c8.1,0,14.8,6.6,14.8,14.8c0,8.2-6.6,14.8-14.8,14.8L143.2,123.4L143.2,123.4L143.2,123.4z"/>
	<path class="st3" d="M123.4,60.8c6.1,1.5,13,2.3,19.8,2.3c6.9,0,13.7-0.8,19.8-2.3c-8.5-17.5-17.2-28.6-19.8-30.9
		C140.6,32.2,131.8,43.2,123.4,60.8z"/>
	<path class="st2" d="M119.1,63c0.2,0.3,0.5,0.6,0.8,0.7c0.1,0.1,0.2,0.1,0.3,0.1c0.5,0.1,1,0.3,1.5,0.4c6.6,1.7,14,2.6,21.4,2.6
		c7.4,0,14.8-0.9,21.4-2.6c0.5-0.1,1-0.3,1.6-0.4c0.5-0.1,1-0.5,1.2-1c0.2-0.5,0.2-1.1,0-1.6c-8.2-17.5-20.4-35.3-24.2-35.3
		c-0.1,0-0.2,0-0.4,0.1c0,0-0.1,0-0.1,0c-0.1,0-0.2,0.1-0.3,0.1c0,0-0.1,0-0.1,0c-0.1,0.1-0.3,0.1-0.4,0.2c0,0-0.1,0-0.1,0
		c-0.1,0.1-0.3,0.2-0.4,0.3c0,0-0.1,0-0.1,0.1c-0.1,0.1-0.3,0.2-0.5,0.4c0,0-0.1,0.1-0.1,0.1c-0.1,0.1-0.3,0.3-0.4,0.4
		c-0.1,0.1-0.1,0.1-0.2,0.2c-0.1,0.1-0.3,0.3-0.4,0.4c-0.1,0.1-0.2,0.2-0.3,0.3c-0.1,0.1-0.2,0.2-0.3,0.3c-0.1,0.1-0.3,0.3-0.4,0.4
		c0,0.1-0.1,0.1-0.1,0.2c-2.9,3.3-6.7,8.6-10.4,14.8c-2.9,4.8-5.8,10.1-8.4,15.4c0,0,0,0.1-0.1,0.1c-0.2,0.4-0.4,0.9-0.6,1.3
		c0,0.1-0.1,0.2-0.1,0.3c0,0,0,0,0,0C118.8,61.8,118.8,62.5,119.1,63z M163,60.8c-6.1,1.5-13,2.3-19.8,2.3c-6.9,0-13.7-0.8-19.8-2.3
		c8.5-17.5,17.2-28.6,19.8-30.9C145.8,32.2,154.6,43.2,163,60.8z"/>
	
		<ellipse transform="matrix(1 -1.839913e-03 1.839913e-03 1 -0.1961 0.2637)" class="st3" cx="143.2" cy="106.7" rx="10.5" ry="10.5"/>
	<path class="st3" d="M131.6,158.6c0.1,2.3,6.5,28.9,11.6,49.1c5-20.2,11.5-46.8,11.6-49.1c0-10.2-5.3-18.8-11.6-18.8
		C136.9,139.8,131.6,148.4,131.6,158.6z"/>
	<path class="st2" d="M152,187.8c0.1-0.6,0.3-1.2,0.4-1.8c0.3-1.3,0.6-2.5,0.9-3.7c2.8-11.7,5.2-22.1,5.2-23.6
		c0-12.6-6.7-22.5-15.3-22.5c-8.6,0-15.3,9.9-15.3,22.5c0,1.5,2.4,12,5.2,23.6c0.3,1.2,0.6,2.5,0.9,3.7c0.1,0.6,0.3,1.2,0.4,1.8
		c0.3,1.2,0.6,2.5,0.9,3.7c2.6,10.6,5.1,20.7,6,24.4c0.2,0.8,1,1.4,1.8,1.4s1.6-0.6,1.8-1.4c0.9-3.7,3.4-13.8,6-24.4
		C151.4,190.3,151.7,189,152,187.8z M154.8,158.6c-0.1,2.3-6.5,28.9-11.6,49.1c-5-20.2-11.5-46.8-11.6-49.1
		c0-10.2,5.3-18.8,11.6-18.8C149.5,139.8,154.8,148.4,154.8,158.6z"/>
	<path class="st1" d="M120.7,243.2c-4,0-7.6,2.2-9.5,5.6h19C128.4,245.4,124.7,243.2,120.7,243.2z"/>
	<path class="st2" d="M120.7,239.5c-5.7,0-10.9,3.4-13.3,8.6c-0.4,0.9,0,2,0.9,2.5c0.9,0.4,2,0,2.5-0.9c0.1-0.3,0.2-0.5,0.4-0.8
		c1.9-3.5,5.5-5.6,9.5-5.6c4,0,7.6,2.2,9.5,5.6c0.1,0.2,0.3,0.5,0.4,0.8c0.3,0.7,1,1.1,1.7,1.1c0.3,0,0.5-0.1,0.8-0.2
		c0.9-0.4,1.4-1.5,0.9-2.5C131.7,242.9,126.5,239.5,120.7,239.5z"/>
	<path class="st1" d="M182.2,256.9c-1.5,0-2.8,0.7-3.6,1.9h7.3C185,257.6,183.6,256.9,182.2,256.9z"/>
	<path class="st2" d="M182.2,253.1c-3.2,0-6.2,1.9-7.5,4.9c-0.4,0.9,0,2,0.9,2.5c0.9,0.4,2,0,2.5-0.9c0.1-0.3,0.3-0.5,0.5-0.8
		c0.8-1.2,2.2-1.9,3.6-1.9c1.5,0,2.8,0.7,3.6,1.9c0.2,0.2,0.3,0.5,0.5,0.8c0.3,0.7,1,1.1,1.7,1.1c0.3,0,0.5-0.1,0.8-0.2
		c0.9-0.4,1.4-1.5,0.9-2.5C188.3,255,185.4,253.1,182.2,253.1z"/>
	<path class="st1" d="M75.1,259.4h4.8c-0.6-0.4-1.4-0.6-2.4-0.6C76.5,258.8,75.7,259,75.1,259.4z"/>
	<path class="st2" d="M77.5,255c-2.9,0-5.4,1.3-6.6,3.4c-0.5,0.9-0.2,2,0.7,2.6c0.9,0.5,2,0.2,2.6-0.7c0.2-0.3,0.6-0.7,1-1
		c0.6-0.4,1.4-0.6,2.4-0.6c1,0,1.8,0.2,2.4,0.6c0.5,0.3,0.8,0.6,1,1c0.3,0.6,1,0.9,1.6,0.9c0.3,0,0.7-0.1,1-0.3
		c0.9-0.5,1.2-1.7,0.7-2.6C82.9,256.3,80.3,255,77.5,255z"/>
	<g>
		<path class="st4" d="M172,20.8c1,0,1.9-0.8,1.9-1.9v-5.2c0-1-0.8-1.9-1.9-1.9s-1.9,0.8-1.9,1.9v5.2
			C170.1,19.9,170.9,20.8,172,20.8z"/>
		<path class="st4" d="M172,23.2c-1,0-1.9,0.8-1.9,1.9v5.2c0,1,0.8,1.9,1.9,1.9s1.9-0.8,1.9-1.9v-5.2C173.8,24.1,173,23.2,172,23.2z
			"/>
		<path class="st4" d="M173.2,22c0,1,0.8,1.9,1.9,1.9h5.2c1,0,1.9-0.8,1.9-1.9s-0.8-1.9-1.9-1.9h-5.2C174.1,20.1,173.2,21,173.2,22z
			"/>
		<path class="st4" d="M163.6,23.9h5.2c1,0,1.9-0.8,1.9-1.9s-0.8-1.9-1.9-1.9h-5.2c-1,0-1.9,0.8-1.9,1.9S162.6,23.9,163.6,23.9z"/>
		<path class="st4" d="M215.1,79.2c1,0,1.9-0.8,1.9-1.9V69c0-1-0.8-1.9-1.9-1.9c-1,0-1.9,0.8-1.9,1.9v8.3
			C213.3,78.4,214.1,79.2,215.1,79.2z"/>
		<path class="st4" d="M215.1,97.5c1,0,1.9-0.8,1.9-1.9v-8.3c0-1-0.8-1.9-1.9-1.9c-1,0-1.9,0.8-1.9,1.9v8.3
			C213.3,96.6,214.1,97.5,215.1,97.5z"/>
		<path class="st4" d="M220.1,84.2h8.3c1,0,1.9-0.8,1.9-1.9c0-1-0.8-1.9-1.9-1.9h-8.3c-1,0-1.9,0.8-1.9,1.9
			C218.2,83.3,219.1,84.2,220.1,84.2z"/>
		<path class="st4" d="M201.8,84.2h8.3c1,0,1.9-0.8,1.9-1.9c0-1-0.8-1.9-1.9-1.9h-8.3c-1,0-1.9,0.8-1.9,1.9
			C200,83.3,200.8,84.2,201.8,84.2z"/>
		<path class="st4" d="M63.9,117.5c1,0,1.9-0.8,1.9-1.9v-8.3c0-1-0.8-1.9-1.9-1.9s-1.9,0.8-1.9,1.9v8.3
			C62.1,116.7,62.9,117.5,63.9,117.5z"/>
		<path class="st4" d="M63.9,135.8c1,0,1.9-0.8,1.9-1.9v-8.3c0-1-0.8-1.9-1.9-1.9s-1.9,0.8-1.9,1.9v8.3
			C62.1,135,62.9,135.8,63.9,135.8z"/>
		<path class="st4" d="M68.9,122.5h8.3c1,0,1.9-0.8,1.9-1.9c0-1-0.8-1.9-1.9-1.9h-8.3c-1,0-1.9,0.8-1.9,1.9
			C67,121.7,67.9,122.5,68.9,122.5z"/>
		<path class="st4" d="M50.6,122.5H59c1,0,1.9-0.8,1.9-1.9c0-1-0.8-1.9-1.9-1.9h-8.3c-1,0-1.9,0.8-1.9,1.9
			C48.8,121.7,49.6,122.5,50.6,122.5z"/>
		<path class="st4" d="M93.8,44.4c1,0,1.9-0.8,1.9-1.9v-6.4c0-1-0.8-1.9-1.9-1.9c-1,0-1.9,0.8-1.9,1.9v6.4
			C91.9,43.5,92.8,44.4,93.8,44.4z"/>
		<path class="st4" d="M93.8,58.5c1,0,1.9-0.8,1.9-1.9v-6.4c0-1-0.8-1.9-1.9-1.9c-1,0-1.9,0.8-1.9,1.9v6.4
			C91.9,57.7,92.8,58.5,93.8,58.5z"/>
		<path class="st4" d="M97.6,48.2h6.4c1,0,1.9-0.8,1.9-1.9s-0.8-1.9-1.9-1.9h-6.4c-1,0-1.9,0.8-1.9,1.9S96.6,48.2,97.6,48.2z"/>
		<path class="st4" d="M83.5,48.2H90c1,0,1.9-0.8,1.9-1.9S91,44.5,90,44.5h-6.4c-1,0-1.9,0.8-1.9,1.9S82.5,48.2,83.5,48.2z"/>
		<path class="st4" d="M216.8,153.2c0,1,0.8,1.9,1.9,1.9s1.9-0.8,1.9-1.9v-5.9c0-1-0.8-1.9-1.9-1.9s-1.9,0.8-1.9,1.9V153.2z"/>
		<path class="st4" d="M218.7,168.1c1,0,1.9-0.8,1.9-1.9v-5.9c0-1-0.8-1.9-1.9-1.9s-1.9,0.8-1.9,1.9v5.9
			C216.8,167.2,217.7,168.1,218.7,168.1z"/>
		<path class="st4" d="M222.2,158.6h5.9c1,0,1.9-0.8,1.9-1.9c0-1-0.8-1.9-1.9-1.9h-5.9c-1,0-1.9,0.8-1.9,1.9
			C220.4,157.8,221.2,158.6,222.2,158.6z"/>
		<path class="st4" d="M215.2,154.9h-5.9c-1,0-1.9,0.8-1.9,1.9c0,1,0.8,1.9,1.9,1.9h5.9c1,0,1.9-0.8,1.9-1.9
			C217.1,155.7,216.2,154.9,215.2,154.9z"/>
	</g>
</g>
</svg>
