<!-- Generator: Adobe Illustrator 21.1.0, SVG Export Plug-In  -->
<svg version="1.1"
	 xmlns="http://www.w3.org/2000/svg" xmlns:xlink="http://www.w3.org/1999/xlink" xmlns:a="http://ns.adobe.com/AdobeSVGViewerExtensions/3.0/"
	 x="0px" y="0px" width="90px" height="76.6px" viewBox="0 0 90 76.6" style="enable-background:new 0 0 90 76.6;"
	 xml:space="preserve">
<style type="text/css">
	.st0{fill:none;}
</style>
<defs>
</defs>
<g>
	<path class="st0" d="M71.8,22.6c3.3-1.9,6.7-3.7,10.1-5.5c-2-0.1-4.1-0.2-6.1-0.1C74.2,18.8,72.9,20.6,71.8,22.6z"/>
	<path class="st0" d="M80,12.5c-1.5-1.3-2.9-2.7-4.4-4c0.2,1.3,0.4,2.7,0.7,4C77.5,12.4,78.7,12.4,80,12.5z"/>
	<path d="M88.7,13.1c-6.2-3-10.2-9.1-16-12.7c-2.5-1.6-5.4,2-2.9,3.6c0.3,0.2,0.5,0.4,0.8,0.5c0,0.1,0,0.1,0,0.2
		c0,2.7,0.4,5.3,1,7.9C56.2,13.5,41,18,27.9,26c-8.1,5-15.3,11.7-20.3,19.8C2.4,54.3,0.8,64.2,0,74c-0.2,2.9,4.3,3.7,4.6,0.7
		c0.8-9,2.1-18,6.6-26c4.5-7.9,11.8-14.2,19.5-19C42.2,22.5,56,18.3,69.8,17.2c-2.1,3-3.6,6.2-4.7,9.6c-0.2,0.1-0.3,0.2-0.5,0.4
		c-1.3,0.9-1.1,2.4-0.3,3.4c0.4,2.1,4,2.3,4.6-0.2c0-0.2,0.1-0.4,0.1-0.6c6.1-4.1,12.8-7.3,19.3-10.8c1-0.5,1.4-1.5,1.3-2.5
		C90.3,15.4,90.1,13.8,88.7,13.1z M80,12.5c-1.2,0-2.4,0-3.7,0c-0.3-1.3-0.6-2.6-0.7-4C77,9.8,78.5,11.2,80,12.5z M71.8,22.6
		c1.1-2,2.4-3.8,4-5.6c2.1,0,4.1,0,6.1,0.1C78.6,18.9,75.2,20.7,71.8,22.6z"/>
</g>
</svg>
