<!-- Generator: Adobe Illustrator 21.1.0, SVG Export Plug-In  -->
<svg version="1.1"
	 xmlns="http://www.w3.org/2000/svg" xmlns:xlink="http://www.w3.org/1999/xlink" xmlns:a="http://ns.adobe.com/AdobeSVGViewerExtensions/3.0/"
	 x="0px" y="0px" width="247.8px" height="208.7px" viewBox="0 0 247.8 208.7" style="enable-background:new 0 0 247.8 208.7;"
	 xml:space="preserve">
<style type="text/css">
	.st0{fill:#FFFFFF;}
	.st1{fill:#2E2E2E;}
	.st2{fill:#FCEE21;}
	.st3{fill:#44BA85;}
</style>
<defs>
</defs>
<g>
	<g>
		<circle class="st0" cx="143.5" cy="104.3" r="102.3"/>
		<path class="st1" d="M143.5,0C85.9,0,39.1,46.8,39.1,104.3s46.8,104.3,104.3,104.3s104.3-46.8,104.3-104.3S201,0,143.5,0z
			 M143.5,204.7c-55.3,0-100.3-45-100.3-100.3S88.2,4,143.5,4s100.3,45,100.3,100.3S198.8,204.7,143.5,204.7z"/>
	</g>
	<g>
		<path class="st2" d="M127.4,11.1c-1.1,0-2,0.9-2,2v2.4c0,1.1,0.9,2,2,2c1.1,0,2-0.9,2-2v-2.4C129.4,12,128.5,11.1,127.4,11.1z"/>
		<path class="st2" d="M127.4,20.7c-1.1,0-2,0.9-2,2v2.4c0,1.1,0.9,2,2,2c1.1,0,2-0.9,2-2v-2.4C129.4,21.6,128.5,20.7,127.4,20.7z"
			/>
		<path class="st2" d="M133.5,17.1H131c-1.1,0-2,0.9-2,2s0.9,2,2,2h2.4c1.1,0,2-0.9,2-2S134.6,17.1,133.5,17.1z"/>
		<path class="st2" d="M123.8,17.1h-2.4c-1.1,0-2,0.9-2,2s0.9,2,2,2h2.4c1.1,0,2-0.9,2-2S124.9,17.1,123.8,17.1z"/>
	</g>
	<g>
		<path class="st2" d="M98.6,18.3c-1.1,0-2,0.9-2,2v2.4c0,1.1,0.9,2,2,2s2-0.9,2-2v-2.4C100.6,19.2,99.7,18.3,98.6,18.3z"/>
		<path class="st2" d="M98.6,28c-1.1,0-2,0.9-2,2v2.4c0,1.1,0.9,2,2,2s2-0.9,2-2V30C100.6,28.9,99.7,28,98.6,28z"/>
		<path class="st2" d="M104.6,24.4h-2.4c-1.1,0-2,0.9-2,2s0.9,2,2,2h2.4c1.1,0,2-0.9,2-2S105.7,24.4,104.6,24.4z"/>
		<path class="st2" d="M95,24.4h-2.4c-1.1,0-2,0.9-2,2s0.9,2,2,2H95c1.1,0,2-0.9,2-2S96.1,24.4,95,24.4z"/>
	</g>
	<g>
		<path class="st2" d="M217,48.5c-1.1,0-2,0.9-2,2V53c0,1.1,0.9,2,2,2c1.1,0,2-0.9,2-2v-2.4C219,49.4,218.1,48.5,217,48.5z"/>
		<path class="st2" d="M217,58.1c-1.1,0-2,0.9-2,2v2.4c0,1.1,0.9,2,2,2c1.1,0,2-0.9,2-2v-2.4C219,59,218.1,58.1,217,58.1z"/>
		<path class="st2" d="M223,54.6h-2.4c-1.1,0-2,0.9-2,2s0.9,2,2,2h2.4c1.1,0,2-0.9,2-2S224.1,54.6,223,54.6z"/>
		<path class="st2" d="M213.4,54.6h-2.4c-1.1,0-2,0.9-2,2s0.9,2,2,2h2.4c1.1,0,2-0.9,2-2S214.5,54.6,213.4,54.6z"/>
	</g>
	<g>
		<path class="st3" d="M164.2,51c-1.1,0-2,0.9-2,2v2.4c0,1.1,0.9,2,2,2c1.1,0,2-0.9,2-2V53C166.2,51.9,165.3,51,164.2,51z"/>
		<path class="st3" d="M164.2,60.6c-1.1,0-2,0.9-2,2V65c0,1.1,0.9,2,2,2c1.1,0,2-0.9,2-2v-2.4C166.2,61.5,165.3,60.6,164.2,60.6z"/>
		<path class="st3" d="M170.2,57h-2.4c-1.1,0-2,0.9-2,2s0.9,2,2,2h2.4c1.1,0,2-0.9,2-2S171.3,57,170.2,57z"/>
		<path class="st3" d="M160.6,57h-2.4c-1.1,0-2,0.9-2,2s0.9,2,2,2h2.4c1.1,0,2-0.9,2-2S161.7,57,160.6,57z"/>
	</g>
	<g>
		<path class="st3" d="M143.2,32.7c-1.1,0-2,0.9-2,2v2.4c0,1.1,0.9,2,2,2c1.1,0,2-0.9,2-2v-2.4C145.2,33.6,144.3,32.7,143.2,32.7z"
			/>
		<path class="st3" d="M143.2,42.3c-1.1,0-2,0.9-2,2v2.4c0,1.1,0.9,2,2,2c1.1,0,2-0.9,2-2v-2.4C145.2,43.2,144.3,42.3,143.2,42.3z"
			/>
		<path class="st3" d="M149.2,38.8h-2.4c-1.1,0-2,0.9-2,2s0.9,2,2,2h2.4c1.1,0,2-0.9,2-2S150.3,38.8,149.2,38.8z"/>
		<path class="st3" d="M139.6,38.8h-2.4c-1.1,0-2,0.9-2,2s0.9,2,2,2h2.4c1.1,0,2-0.9,2-2S140.7,38.8,139.6,38.8z"/>
	</g>
	<g>
		<path class="st2" d="M79.7,38.8c-1.1,0-2,0.9-2,2v2.4c0,1.1,0.9,2,2,2s2-0.9,2-2v-2.4C81.7,39.6,80.8,38.8,79.7,38.8z"/>
		<path class="st2" d="M79.7,48.4c-1.1,0-2,0.9-2,2v2.4c0,1.1,0.9,2,2,2s2-0.9,2-2v-2.4C81.7,49.3,80.8,48.4,79.7,48.4z"/>
		<path class="st2" d="M85.7,44.8h-2.4c-1.1,0-2,0.9-2,2s0.9,2,2,2h2.4c1.1,0,2-0.9,2-2S86.8,44.8,85.7,44.8z"/>
		<path class="st2" d="M76.1,44.8h-2.4c-1.1,0-2,0.9-2,2s0.9,2,2,2h2.4c1.1,0,2-0.9,2-2S77.2,44.8,76.1,44.8z"/>
	</g>
	<g>
		<path class="st2" d="M62.8,128.2c-1.1,0-2,0.9-2,2v2.4c0,1.1,0.9,2,2,2c1.1,0,2-0.9,2-2v-2.4C64.8,129.1,63.9,128.2,62.8,128.2z"
			/>
		<path class="st2" d="M62.8,137.8c-1.1,0-2,0.9-2,2v2.4c0,1.1,0.9,2,2,2c1.1,0,2-0.9,2-2v-2.4C64.8,138.7,63.9,137.8,62.8,137.8z"
			/>
		<path class="st2" d="M68.9,134.2h-2.4c-1.1,0-2,0.9-2,2c0,1.1,0.9,2,2,2h2.4c1.1,0,2-0.9,2-2C70.9,135.1,70,134.2,68.9,134.2z"/>
		<path class="st2" d="M59.2,134.2h-2.4c-1.1,0-2,0.9-2,2c0,1.1,0.9,2,2,2h2.4c1.1,0,2-0.9,2-2C61.2,135.1,60.3,134.2,59.2,134.2z"
			/>
	</g>
	<g>
		<path class="st2" d="M70,100.9c-1.1,0-2,0.9-2,2v2.4c0,1.1,0.9,2,2,2c1.1,0,2-0.9,2-2v-2.4C72,101.8,71.1,100.9,70,100.9z"/>
		<path class="st2" d="M70,110.6c-1.1,0-2,0.9-2,2v2.4c0,1.1,0.9,2,2,2c1.1,0,2-0.9,2-2v-2.4C72,111.5,71.1,110.6,70,110.6z"/>
		<path class="st2" d="M76.1,107h-2.4c-1.1,0-2,0.9-2,2s0.9,2,2,2h2.4c1.1,0,2-0.9,2-2S77.2,107,76.1,107z"/>
		<path class="st2" d="M66.4,107H64c-1.1,0-2,0.9-2,2s0.9,2,2,2h2.4c1.1,0,2-0.9,2-2S67.5,107,66.4,107z"/>
	</g>
	<g>
		<path class="st2" d="M233,85.3c-1.1,0-2,0.9-2,2v2.4c0,1.1,0.9,2,2,2c1.1,0,2-0.9,2-2v-2.4C235,86.2,234.1,85.3,233,85.3z"/>
		<path class="st2" d="M233,94.9c-1.1,0-2,0.9-2,2v2.4c0,1.1,0.9,2,2,2c1.1,0,2-0.9,2-2v-2.4C235,95.8,234.1,94.9,233,94.9z"/>
		<path class="st2" d="M239,91.3h-2.4c-1.1,0-2,0.9-2,2s0.9,2,2,2h2.4c1.1,0,2-0.9,2-2S240.1,91.3,239,91.3z"/>
		<path class="st2" d="M229.4,91.3h-2.4c-1.1,0-2,0.9-2,2s0.9,2,2,2h2.4c1.1,0,2-0.9,2-2S230.5,91.3,229.4,91.3z"/>
	</g>
	<g>
		<path class="st2" d="M210.5,72.4c-1.1,0-2,0.9-2,2v2.4c0,1.1,0.9,2,2,2c1.1,0,2-0.9,2-2v-2.4C212.5,73.3,211.6,72.4,210.5,72.4z"
			/>
		<path class="st2" d="M210.5,82c-1.1,0-2,0.9-2,2v2.4c0,1.1,0.9,2,2,2c1.1,0,2-0.9,2-2V84C212.5,82.9,211.6,82,210.5,82z"/>
		<path class="st2" d="M216.5,78.4h-2.4c-1.1,0-2,0.9-2,2s0.9,2,2,2h2.4c1.1,0,2-0.9,2-2S217.6,78.4,216.5,78.4z"/>
		<path class="st2" d="M206.9,78.4h-2.4c-1.1,0-2,0.9-2,2s0.9,2,2,2h2.4c1.1,0,2-0.9,2-2S208,78.4,206.9,78.4z"/>
	</g>
	<g>
		<path class="st3" d="M192,55.8c-1.1,0-2,0.9-2,2v2.4c0,1.1,0.9,2,2,2c1.1,0,2-0.9,2-2v-2.4C194,56.7,193.1,55.8,192,55.8z"/>
		<path class="st3" d="M192,65.4c-1.1,0-2,0.9-2,2v2.4c0,1.1,0.9,2,2,2c1.1,0,2-0.9,2-2v-2.4C194,66.3,193.1,65.4,192,65.4z"/>
		<path class="st3" d="M198,61.8h-2.4c-1.1,0-2,0.9-2,2s0.9,2,2,2h2.4c1.1,0,2-0.9,2-2S199.1,61.8,198,61.8z"/>
		<path class="st3" d="M188.4,61.8H186c-1.1,0-2,0.9-2,2s0.9,2,2,2h2.4c1.1,0,2-0.9,2-2S189.5,61.8,188.4,61.8z"/>
	</g>
	<g>
		<path class="st2" d="M77.3,155.6c-1.1,0-2,0.9-2,2v2.4c0,1.1,0.9,2,2,2s2-0.9,2-2v-2.4C79.3,156.5,78.4,155.6,77.3,155.6z"/>
		<path class="st2" d="M77.3,165.2c-1.1,0-2,0.9-2,2v2.4c0,1.1,0.9,2,2,2s2-0.9,2-2v-2.4C79.3,166.1,78.4,165.2,77.3,165.2z"/>
		<path class="st2" d="M83.3,161.6h-2.4c-1.1,0-2,0.9-2,2c0,1.1,0.9,2,2,2h2.4c1.1,0,2-0.9,2-2C85.3,162.5,84.4,161.6,83.3,161.6z"
			/>
		<path class="st2" d="M73.7,161.6h-2.4c-1.1,0-2,0.9-2,2c0,1.1,0.9,2,2,2h2.4c1.1,0,2-0.9,2-2C75.7,162.5,74.8,161.6,73.7,161.6z"
			/>
	</g>
	<g>
		<path class="st2" d="M89,133c-1.1,0-2,0.9-2,2v2.4c0,1.1,0.9,2,2,2c1.1,0,2-0.9,2-2V135C91,133.9,90.1,133,89,133z"/>
		<path class="st2" d="M89,142.6c-1.1,0-2,0.9-2,2v2.4c0,1.1,0.9,2,2,2c1.1,0,2-0.9,2-2v-2.4C91,143.5,90.1,142.6,89,142.6z"/>
		<path class="st2" d="M95,139.1h-2.4c-1.1,0-2,0.9-2,2c0,1.1,0.9,2,2,2H95c1.1,0,2-0.9,2-2C97,139.9,96.1,139.1,95,139.1z"/>
		<path class="st2" d="M85.4,139.1h-2.4c-1.1,0-2,0.9-2,2c0,1.1,0.9,2,2,2h2.4c1.1,0,2-0.9,2-2C87.4,139.9,86.5,139.1,85.4,139.1z"
			/>
	</g>
	<g>
		<path class="st2" d="M162.2,11.1c-1.1,0-2,0.9-2,2v2.4c0,1.1,0.9,2,2,2c1.1,0,2-0.9,2-2v-2.4C164.2,12,163.3,11.1,162.2,11.1z"/>
		<path class="st2" d="M162.2,20.7c-1.1,0-2,0.9-2,2v2.4c0,1.1,0.9,2,2,2c1.1,0,2-0.9,2-2v-2.4C164.2,21.6,163.3,20.7,162.2,20.7z"
			/>
		<path class="st2" d="M168.3,17.1h-2.4c-1.1,0-2,0.9-2,2s0.9,2,2,2h2.4c1.1,0,2-0.9,2-2S169.4,17.1,168.3,17.1z"/>
		<path class="st2" d="M158.6,17.1h-2.4c-1.1,0-2,0.9-2,2s0.9,2,2,2h2.4c1.1,0,2-0.9,2-2S159.7,17.1,158.6,17.1z"/>
	</g>
	<g>
		<path class="st2" d="M202.5,155.6c-1.1,0-2,0.9-2,2v2.4c0,1.1,0.9,2,2,2c1.1,0,2-0.9,2-2v-2.4
			C204.5,156.5,203.6,155.6,202.5,155.6z"/>
		<path class="st2" d="M202.5,165.2c-1.1,0-2,0.9-2,2v2.4c0,1.1,0.9,2,2,2c1.1,0,2-0.9,2-2v-2.4
			C204.5,166.1,203.6,165.2,202.5,165.2z"/>
		<path class="st2" d="M208.6,161.6h-2.4c-1.1,0-2,0.9-2,2c0,1.1,0.9,2,2,2h2.4c1.1,0,2-0.9,2-2
			C210.6,162.5,209.7,161.6,208.6,161.6z"/>
		<path class="st2" d="M198.9,161.6h-2.4c-1.1,0-2,0.9-2,2c0,1.1,0.9,2,2,2h2.4c1.1,0,2-0.9,2-2C200.9,162.5,200,161.6,198.9,161.6z
			"/>
	</g>
	<g>
		<path class="st2" d="M85.7,73.2c-1.1,0-2,0.9-2,2v2.4c0,1.1,0.9,2,2,2s2-0.9,2-2v-2.4C87.7,74.1,86.8,73.2,85.7,73.2z"/>
		<path class="st2" d="M85.7,82.8c-1.1,0-2,0.9-2,2v2.4c0,1.1,0.9,2,2,2s2-0.9,2-2v-2.4C87.7,83.7,86.8,82.8,85.7,82.8z"/>
		<path class="st2" d="M91.7,79.2h-2.4c-1.1,0-2,0.9-2,2s0.9,2,2,2h2.4c1.1,0,2-0.9,2-2S92.8,79.2,91.7,79.2z"/>
		<path class="st2" d="M82.1,79.2h-2.4c-1.1,0-2,0.9-2,2s0.9,2,2,2h2.4c1.1,0,2-0.9,2-2S83.2,79.2,82.1,79.2z"/>
	</g>
	<g>
		<path class="st3" d="M98.6,106.3c-1.1,0-2,0.9-2,2v2.4c0,1.1,0.9,2,2,2s2-0.9,2-2v-2.4C100.6,107.2,99.7,106.3,98.6,106.3z"/>
		<path class="st3" d="M98.6,115.9c-1.1,0-2,0.9-2,2v2.4c0,1.1,0.9,2,2,2s2-0.9,2-2v-2.4C100.6,116.8,99.7,115.9,98.6,115.9z"/>
		<path class="st3" d="M104.6,112.3h-2.4c-1.1,0-2,0.9-2,2s0.9,2,2,2h2.4c1.1,0,2-0.9,2-2S105.7,112.3,104.6,112.3z"/>
		<path class="st3" d="M95,112.3h-2.4c-1.1,0-2,0.9-2,2s0.9,2,2,2H95c1.1,0,2-0.9,2-2S96.1,112.3,95,112.3z"/>
	</g>
	<g>
		<path class="st2" d="M226.9,131.8c-1.1,0-2,0.9-2,2v2.4c0,1.1,0.9,2,2,2c1.1,0,2-0.9,2-2v-2.4C228.9,132.7,228,131.8,226.9,131.8z
			"/>
		<path class="st2" d="M226.9,141.4c-1.1,0-2,0.9-2,2v2.4c0,1.1,0.9,2,2,2c1.1,0,2-0.9,2-2v-2.4C228.9,142.3,228,141.4,226.9,141.4z
			"/>
		<path class="st2" d="M233,137.8h-2.4c-1.1,0-2,0.9-2,2c0,1.1,0.9,2,2,2h2.4c1.1,0,2-0.9,2-2C235,138.7,234.1,137.8,233,137.8z"/>
		<path class="st2" d="M223.3,137.8h-2.4c-1.1,0-2,0.9-2,2c0,1.1,0.9,2,2,2h2.4c1.1,0,2-0.9,2-2
			C225.3,138.7,224.4,137.8,223.3,137.8z"/>
	</g>
	<g>
		<path class="st2" d="M193.2,119.3c-1.1,0-2,0.9-2,2v2.4c0,1.1,0.9,2,2,2c1.1,0,2-0.9,2-2v-2.4
			C195.2,120.2,194.3,119.3,193.2,119.3z"/>
		<path class="st2" d="M193.2,128.9c-1.1,0-2,0.9-2,2v2.4c0,1.1,0.9,2,2,2c1.1,0,2-0.9,2-2v-2.4
			C195.2,129.8,194.3,128.9,193.2,128.9z"/>
		<path class="st2" d="M199.2,125.3h-2.4c-1.1,0-2,0.9-2,2c0,1.1,0.9,2,2,2h2.4c1.1,0,2-0.9,2-2
			C201.2,126.2,200.3,125.3,199.2,125.3z"/>
		<path class="st2" d="M189.6,125.3h-2.4c-1.1,0-2,0.9-2,2c0,1.1,0.9,2,2,2h2.4c1.1,0,2-0.9,2-2
			C191.6,126.2,190.7,125.3,189.6,125.3z"/>
	</g>
	<g>
		<path class="st2" d="M220.6,107c-1.1,0-2,0.9-2,2v2.4c0,1.1,0.9,2,2,2c1.1,0,2-0.9,2-2V109C222.6,107.9,221.7,107,220.6,107z"/>
		<path class="st2" d="M220.6,116.6c-1.1,0-2,0.9-2,2v2.4c0,1.1,0.9,2,2,2c1.1,0,2-0.9,2-2v-2.4
			C222.6,117.5,221.7,116.6,220.6,116.6z"/>
		<path class="st2" d="M226.6,113h-2.4c-1.1,0-2,0.9-2,2s0.9,2,2,2h2.4c1.1,0,2-0.9,2-2S227.7,113,226.6,113z"/>
		<path class="st2" d="M217,113h-2.4c-1.1,0-2,0.9-2,2s0.9,2,2,2h2.4c1.1,0,2-0.9,2-2S218.1,113,217,113z"/>
	</g>
	<g>
		<path class="st2" d="M187.2,24.4c-1.1,0-2,0.9-2,2v2.4c0,1.1,0.9,2,2,2c1.1,0,2-0.9,2-2v-2.4C189.2,25.3,188.3,24.4,187.2,24.4z"
			/>
		<path class="st2" d="M187.2,34c-1.1,0-2,0.9-2,2v2.4c0,1.1,0.9,2,2,2c1.1,0,2-0.9,2-2V36C189.2,34.9,188.3,34,187.2,34z"/>
		<path class="st2" d="M193.2,30.4h-2.4c-1.1,0-2,0.9-2,2c0,1.1,0.9,2,2,2h2.4c1.1,0,2-0.9,2-2C195.2,31.3,194.3,30.4,193.2,30.4z"
			/>
		<path class="st2" d="M183.6,30.4h-2.4c-1.1,0-2,0.9-2,2c0,1.1,0.9,2,2,2h2.4c1.1,0,2-0.9,2-2C185.6,31.3,184.7,30.4,183.6,30.4z"
			/>
	</g>
	<g>
		<path class="st3" d="M99.4,53.3c-1.1,0-2,0.9-2,2v2.4c0,1.1,0.9,2,2,2s2-0.9,2-2v-2.4C101.4,54.2,100.5,53.3,99.4,53.3z"/>
		<path class="st3" d="M99.4,63c-1.1,0-2,0.9-2,2v2.4c0,1.1,0.9,2,2,2s2-0.9,2-2V65C101.4,63.9,100.5,63,99.4,63z"/>
		<path class="st3" d="M105.4,59.4H103c-1.1,0-2,0.9-2,2s0.9,2,2,2h2.4c1.1,0,2-0.9,2-2S106.5,59.4,105.4,59.4z"/>
		<path class="st3" d="M95.8,59.4h-2.4c-1.1,0-2,0.9-2,2s0.9,2,2,2h2.4c1.1,0,2-0.9,2-2S96.9,59.4,95.8,59.4z"/>
	</g>
	<g>
		<path class="st2" d="M143.5,21.6c-28.4,0-51.4,21-52,47h-0.2v123.9c8,4.8,16.7,8.4,25.9,10.9h52.4c9.2-2.4,17.9-6.1,25.9-10.9
			V68.6h-0.2C194.9,42.5,171.8,21.6,143.5,21.6z"/>
		<path class="st1" d="M181.2,33.8c-10.1-9.2-23.6-14.3-37.8-14.3s-27.6,5.1-37.8,14.3c-10,9-15.7,21-16.2,33.9
			c-0.1,0.3-0.2,0.6-0.2,0.9v123.9c0,0.7,0.4,1.4,1,1.7c8.3,4.9,17.2,8.6,26.4,11.1c0.2,0,0.3,0.1,0.5,0.1h52.4c0.2,0,0.3,0,0.5-0.1
			c9.3-2.5,18.2-6.2,26.4-11.1c0.6-0.4,1-1,1-1.7V68.6c0-0.3-0.1-0.6-0.2-0.9C196.9,54.8,191.2,42.8,181.2,33.8z M193.6,191.3
			c-7.6,4.4-15.7,7.8-24.2,10h-51.9c-8.5-2.3-16.6-5.6-24.2-10V69.4c0.1-0.2,0.2-0.5,0.2-0.8c0.5-24.8,23-45,50-45
			c27,0,49.4,20.2,50,45c0,0.3,0.1,0.5,0.2,0.8V191.3z"/>
	</g>
	<path class="st0" d="M143.5,20.6c-28.4,0-51.4,21-52,47h-0.2v10.7h4.2c1.4-25.3,24.1-45.5,51.9-45.5c21,0,39.1,11.5,47.3,28.1
		C190.8,38,169.4,20.6,143.5,20.6z"/>
	<g>
		<circle class="st0" cx="183.8" cy="92" r="7.4"/>
		<path class="st1" d="M183.8,82.6c-5.2,0-9.4,4.2-9.4,9.4c0,5.2,4.2,9.4,9.4,9.4s9.4-4.2,9.4-9.4C193.3,86.8,189,82.6,183.8,82.6z
			 M183.8,97.4c-3,0-5.4-2.4-5.4-5.4c0-3,2.4-5.4,5.4-5.4c3,0,5.4,2.4,5.4,5.4C189.3,95,186.8,97.4,183.8,97.4z"/>
	</g>
	<g>
		<circle class="st0" cx="103.5" cy="92" r="7.4"/>
		<path class="st1" d="M103.5,82.6c-5.2,0-9.4,4.2-9.4,9.4c0,5.2,4.2,9.4,9.4,9.4c5.2,0,9.4-4.2,9.4-9.4
			C112.9,86.8,108.6,82.6,103.5,82.6z M103.5,97.4c-3,0-5.4-2.4-5.4-5.4c0-3,2.4-5.4,5.4-5.4c3,0,5.4,2.4,5.4,5.4
			C108.9,95,106.4,97.4,103.5,97.4z"/>
	</g>
	<g>
		<path class="st0" d="M143.5,154.3c-24.6,0-45.8,14.9-55.3,36.2c16,10.3,35,16.2,55.3,16.2c20.4,0,39.4-6,55.3-16.2
			C189.3,169.2,168,154.3,143.5,154.3z"/>
		<path class="st1" d="M143.5,152.3c-24.6,0-47,14.7-57.2,37.4c-0.4,0.9-0.1,2,0.7,2.5c16.8,10.8,36.3,16.6,56.4,16.6
			c20.1,0,39.6-5.7,56.4-16.6c0.8-0.5,1.1-1.6,0.7-2.5C190.5,166.9,168,152.3,143.5,152.3z M143.5,204.7c-18.7,0-37-5.2-52.8-15
			c9.8-20.4,30.4-33.4,52.8-33.4s42.9,13.1,52.8,33.4C180.4,199.5,162.2,204.7,143.5,204.7z"/>
	</g>
	<g>
		<path class="st0" d="M124.7,170.6c0,6.8,8.4,12.2,18.8,12.2c10.4,0,18.8-5.5,18.8-12.2v-43.3h-37.5V170.6z"/>
		<path class="st1" d="M162.2,125.3h-37.5c-1.1,0-2,0.9-2,2v43.3c0,8,9.1,14.2,20.8,14.2c11.6,0,20.8-6.3,20.8-14.2v-43.3
			C164.2,126.2,163.3,125.3,162.2,125.3z M160.2,170.6c0,5.6-7.7,10.2-16.8,10.2c-9.1,0-16.8-4.7-16.8-10.2v-41.3h33.5V170.6z"/>
	</g>
	<g>
		<path class="st0" d="M145.1,42h-3.3c-21.1,0-38.4,17.3-38.4,38.4v29.3c0,21.1,17.3,38.4,38.4,38.4h3.3c21.1,0,38.4-17.3,38.4-38.4
			V80.4C183.5,59.3,166.2,42,145.1,42z"/>
		<g>
			<path class="st0" d="M103.5,109.7c0,21.1,17.3,38.4,38.4,38.4h3.3c21.1,0,38.4-17.3,38.4-38.4V80.4h-80.1V109.7z"/>
			<path class="st1" d="M183.5,78.4c-1.1,0-2,0.9-2,2v29.3c0,20.1-16.3,36.4-36.4,36.4h-3.3c-20.1,0-36.4-16.3-36.4-36.4V80.4
				c0-1.1-0.9-2-2-2s-2,0.9-2,2v29.3c0,22.3,18.1,40.4,40.4,40.4h3.3c22.3,0,40.4-18.1,40.4-40.4V80.4
				C185.5,79.3,184.6,78.4,183.5,78.4z"/>
		</g>
	</g>
	<g>
		<path class="st2" d="M145.1,42h-3.3c-20.5,0-37.3,16.3-38.3,36.5c0,0,14.4,1.2,29-2.9c14.6-4.1,24-11.8,24-11.8s4.1,7.6,12.5,11.4
			c8.4,3.8,14.5,3.3,14.5,3.3C182.5,58.3,165.6,42,145.1,42z"/>
	</g>
	<g>
		<path class="st1" d="M183.3,76.5c-0.1,0-5.7,0.4-13.5-3.2c-7.7-3.5-11.5-10.5-11.6-10.5c-0.3-0.5-0.8-0.9-1.4-1
			c-0.6-0.1-1.2,0-1.7,0.4c-0.1,0.1-9.3,7.5-23.3,11.4c-14,4-28.1,2.9-28.2,2.9c-1.1-0.1-2.1,0.7-2.2,1.8c-0.1,1.1,0.7,2.1,1.8,2.2
			c0.2,0,2.2,0.2,5.3,0.2c5.6,0,14.9-0.5,24.4-3.2c11.3-3.2,19.5-8.4,22.9-10.8c1.9,2.7,5.9,7.5,12.2,10.4c8.8,4,15.2,3.5,15.5,3.5
			c1.1-0.1,1.9-1.1,1.8-2.2C185.4,77.3,184.4,76.5,183.3,76.5z"/>
	</g>
	<path class="st1" d="M154.5,107.5h-22c-1.1,0-2,0.9-2,2c0,7.2,5.8,13,13,13s13-5.8,13-13C156.5,108.4,155.6,107.5,154.5,107.5z
		 M143.5,118.5c-4.3,0-7.9-3-8.8-7h17.6C151.4,115.5,147.8,118.5,143.5,118.5z"/>
	<g>
		<circle class="st1" cx="162.6" cy="92" r="3.1"/>
		<circle class="st1" cx="124.3" cy="92" r="3.1"/>
	</g>
	<path class="st1" d="M181.2,33.8c-10.1-9.2-23.6-14.3-37.8-14.3s-27.6,5.1-37.8,14.3c-10,9-15.7,21-16.2,33.9
		c-0.1,0.3-0.2,0.6-0.2,0.9v115.7c0,1.1,0.9,2,2,2c1.1,0,2-0.9,2-2V69.4c0.1-0.2,0.2-0.5,0.2-0.8c0.5-24.8,23-45,50-45
		c27,0,49.4,20.2,50,45c0,0.3,0.1,0.5,0.2,0.8v114.9c0,1.1,0.9,2,2,2c1.1,0,2-0.9,2-2V68.6c0-0.3-0.1-0.6-0.2-0.9
		C196.9,54.8,191.2,42.8,181.2,33.8z"/>
	<path class="st1" d="M143.5,20.4c-31.3,0-56.8,25.5-56.8,56.8v7.3c0,2.8,2.2,5,5,5c2.8,0,5-2.2,5-5v-7.3c0-25.8,21-46.8,46.8-46.8
		c25.8,0,46.8,21,46.8,46.8v7.3c0,2.8,2.2,5,5,5c2.8,0,5-2.2,5-5v-7.3C200.3,45.9,174.8,20.4,143.5,20.4z"/>
	<g>
		<path class="st2" d="M76.1,98.3c0,10.6,8.6,19.3,19.3,19.3V79C84.7,79,76.1,87.7,76.1,98.3z"/>
		<path class="st0" d="M76.1,98.3c0,7.2,4,13.5,9.8,16.8c-3.6-3.5-5.8-8.4-5.8-13.8c0-9.3,6.6-17,15.3-18.9V79
			C84.7,79,76.1,87.7,76.1,98.3z"/>
		<path class="st1" d="M95.3,77c-11.7,0-21.3,9.5-21.3,21.3s9.5,21.3,21.3,21.3c1.1,0,2-0.9,2-2V79C97.3,77.9,96.4,77,95.3,77z
			 M93.3,115.5c-8.6-1-15.3-8.3-15.3-17.2s6.7-16.2,15.3-17.2V115.5z"/>
		<g>
			<rect x="95.3" y="75.9" class="st0" width="8.1" height="44.7"/>
			<path class="st1" d="M103.4,73.9h-8.1c-1.1,0-2,0.9-2,2v44.7c0,1.1,0.9,2,2,2h8.1c1.1,0,2-0.9,2-2V75.9
				C105.4,74.8,104.5,73.9,103.4,73.9z M101.4,118.7h-4.1V77.9h4.1V118.7z"/>
		</g>
	</g>
	<g>
		<g>
			<path class="st2" d="M191.2,79v38.6c10.6,0,19.3-8.6,19.3-19.3S201.9,79,191.2,79z"/>
			<path class="st1" d="M191.2,77c-1.1,0-2,0.9-2,2v38.6c0,1.1,0.9,2,2,2c11.7,0,21.3-9.5,21.3-21.3S202.9,77,191.2,77z
				 M193.2,115.5V81.1c8.6,1,15.3,8.3,15.3,17.2S201.8,114.5,193.2,115.5z"/>
		</g>
		<g>
			<rect x="183.2" y="75.9" class="st0" width="8.1" height="44.7"/>
			<path class="st1" d="M191.2,73.9h-8.1c-1.1,0-2,0.9-2,2v44.7c0,1.1,0.9,2,2,2h8.1c1.1,0,2-0.9,2-2V75.9
				C193.2,74.8,192.3,73.9,191.2,73.9z M189.2,118.7h-4.1V77.9h4.1V118.7z"/>
		</g>
	</g>
	<path class="st1" d="M187.2,119.5c-1.1,0-2,0.9-2,2v3.8h-28.7c-1.1,0-2,0.9-2,2c0,1.1,0.9,2,2,2h30.7c1.1,0,2-0.9,2-2v-5.8
		C189.2,120.4,188.3,119.5,187.2,119.5z"/>
	<path class="st1" d="M160.1,123.4h-5.9c-2.8,0-5,1.7-5,3.8c0,2.1,2.2,3.8,5,3.8h5.9c2.8,0,5-1.7,5-3.8
		C165.1,125.2,162.9,123.4,160.1,123.4z"/>
	<g>
		<g>
			<path class="st0" d="M66.4,103.4c1.8,0,3.3-1.5,3.3-3.3v-50c0-1.8-1.5-3.3-3.3-3.3H5.3c-1.8,0-3.3,1.5-3.3,3.3v50
				c0,1.8,1.5,3.3,3.3,3.3H28l43,16.8l-14.6-16.8H66.4z"/>
			<path class="st1" d="M60.8,105.4h5.6c2.9,0,5.3-2.4,5.3-5.3v-50c0-2.9-2.4-5.3-5.3-5.3H5.3c-2.9,0-5.3,2.4-5.3,5.3v50
				c0,2.9,2.4,5.3,5.3,5.3h22.3l42.7,16.6c0.2,0.1,0.5,0.1,0.7,0.1c0,0,0,0,0,0c1.1,0,2-0.9,2-2c0-0.6-0.3-1.1-0.7-1.5L60.8,105.4z
				 M28.7,101.6c-0.2-0.1-0.5-0.1-0.7-0.1H5.3c-0.7,0-1.3-0.6-1.3-1.3v-50c0-0.7,0.6-1.3,1.3-1.3h61.1c0.7,0,1.3,0.6,1.3,1.3v50
				c0,0.7-0.6,1.3-1.3,1.3h-10c-0.8,0-1.5,0.5-1.8,1.2c-0.3,0.7-0.2,1.6,0.3,2.1l9.3,10.6L28.7,101.6z"/>
		</g>
		<path class="st1" d="M59.1,59.6H12.8c-1.1,0-2,0.9-2,2s0.9,2,2,2h46.4c1.1,0,2-0.9,2-2S60.2,59.6,59.1,59.6z"/>
		<path class="st1" d="M59.1,72.4H12.8c-1.1,0-2,0.9-2,2s0.9,2,2,2h46.4c1.1,0,2-0.9,2-2S60.2,72.4,59.1,72.4z"/>
		<path class="st1" d="M59.1,85.3H12.8c-1.1,0-2,0.9-2,2s0.9,2,2,2h46.4c1.1,0,2-0.9,2-2S60.2,85.3,59.1,85.3z"/>
	</g>
</g>
</svg>
