<!-- Generator: Adobe Illustrator 21.1.0, SVG Export Plug-In  -->
<svg version="1.1"
	 xmlns="http://www.w3.org/2000/svg" xmlns:xlink="http://www.w3.org/1999/xlink" xmlns:a="http://ns.adobe.com/AdobeSVGViewerExtensions/3.0/"
	 x="0px" y="0px" width="296.8px" height="285.3px" viewBox="0 0 296.8 285.3" style="enable-background:new 0 0 296.8 285.3;"
	 xml:space="preserve">
<style type="text/css">
	.st0{fill:#EBEBEB;stroke:#000000;stroke-width:4;stroke-miterlimit:10;}
	.st1{fill:#FCEE21;}
	.st2{fill:#FFFFFF;}
	.st3{fill:#2E2E2E;}
</style>
<defs>
</defs>
<circle class="st0" cx="148.4" cy="142.7" r="140.7"/>
<g>
	<circle class="st1" cx="183.2" cy="82.3" r="44.4"/>
	<g>
		<rect x="248.8" y="161.6" class="st2" width="8.8" height="72.2"/>
		<path class="st3" d="M257.6,159.6h-8.8c-1.1,0-2,0.9-2,2v72.2c0,1.1,0.9,2,2,2h8.8c1.1,0,2-0.9,2-2v-72.2
			C259.6,160.5,258.7,159.6,257.6,159.6z M255.6,231.7h-4.8v-68.2h4.8V231.7z"/>
	</g>
	<circle class="st1" cx="253.2" cy="125.5" r="43.6"/>
	<path class="st3" d="M257.6,175.4h-3.7c-1.1,0-2,0.9-2,2c0,1.1,0.9,2,2,2h3.7c1.1,0,2-0.9,2-2C259.6,176.3,258.7,175.4,257.6,175.4
		z"/>
	<path class="st3" d="M252.5,185.3h-3.7c-1.1,0-2,0.9-2,2c0,1.1,0.9,2,2,2h3.7c1.1,0,2-0.9,2-2C254.5,186.2,253.7,185.3,252.5,185.3
		z"/>
	<path class="st3" d="M252,221.6h-3.1c-1.1,0-2,0.9-2,2c0,1.1,0.9,2,2,2h3.1c1.1,0,2-0.9,2-2C254,222.5,253.1,221.6,252,221.6z"/>
	<path class="st3" d="M257.3,207.9h-3.7c-1.1,0-2,0.9-2,2c0,1.1,0.9,2,2,2h3.7c1.1,0,2-0.9,2-2C259.3,208.8,258.4,207.9,257.3,207.9
		z"/>
	<path class="st3" d="M252,196.9h-2.5c-1.1,0-2,0.9-2,2c0,1.1,0.9,2,2,2h2.5c1.1,0,2-0.9,2-2C254,197.8,253.1,196.9,252,196.9z"/>
	<g>
		<rect x="117.9" y="136.7" class="st2" width="120.3" height="97"/>
		<path class="st3" d="M238.3,134.7H117.9c-1.1,0-2,0.9-2,2v97c0,1.1,0.9,2,2,2h120.3c1.1,0,2-0.9,2-2v-97
			C240.3,135.6,239.4,134.7,238.3,134.7z M236.3,231.7H119.9v-93h116.3V231.7z"/>
	</g>
	<g>
		<polygon class="st2" points="73.9,68.5 30.4,136.7 30.4,233.7 117.9,233.7 117.9,136.7 117.4,136.7 		"/>
		<path class="st3" d="M118.6,134.9l-43-67.5c-0.4-0.6-1-0.9-1.7-0.9c-0.7,0-1.3,0.3-1.7,0.9l-43.5,68.3c-0.2,0.3-0.3,0.7-0.3,1.1
			v97c0,1.1,0.9,2,2,2h87.5c1.1,0,2-0.9,2-2v-97C119.9,135.9,119.4,135.1,118.6,134.9z M115.9,231.7H32.4v-94.4l41.5-65.1l41.8,65.6
			c0.1,0.1,0.1,0.2,0.2,0.2V231.7z"/>
	</g>
	<g>
		<polygon class="st2" points="73.9,68.5 117.4,136.7 238.3,136.7 194.7,68.5 		"/>
		<path class="st3" d="M196.4,67.4c-0.4-0.6-1-0.9-1.7-0.9H73.9c-0.7,0-1.4,0.4-1.8,1c-0.4,0.6-0.3,1.4,0.1,2l43.5,68.3
			c0.4,0.6,1,0.9,1.7,0.9h120.8c0.7,0,1.4-0.4,1.8-1c0.4-0.6,0.3-1.4-0.1-2L196.4,67.4z M118.5,134.7l-41-64.3h116.1l41,64.3H118.5z
			"/>
	</g>
	<path class="st3" d="M238.3,134.7H117.9c-1.1,0-2,0.9-2,2s0.9,2,2,2h120.3c1.1,0,2-0.9,2-2S239.4,134.7,238.3,134.7z"/>
	<path class="st3" d="M238.3,215.6H117.9c-1.1,0-2,0.9-2,2c0,1.1,0.9,2,2,2h120.3c1.1,0,2-0.9,2-2
		C240.3,216.5,239.4,215.6,238.3,215.6z"/>
	<path class="st3" d="M238.3,199.4H117.9c-1.1,0-2,0.9-2,2c0,1.1,0.9,2,2,2h120.3c1.1,0,2-0.9,2-2
		C240.3,200.3,239.4,199.4,238.3,199.4z"/>
	<path class="st3" d="M238.3,183.2H117.9c-1.1,0-2,0.9-2,2c0,1.1,0.9,2,2,2h120.3c1.1,0,2-0.9,2-2
		C240.3,184.1,239.4,183.2,238.3,183.2z"/>
	<path class="st3" d="M238.3,167.1H117.9c-1.1,0-2,0.9-2,2c0,1.1,0.9,2,2,2h120.3c1.1,0,2-0.9,2-2
		C240.3,168,239.4,167.1,238.3,167.1z"/>
	<path class="st3" d="M238.3,150.9H117.9c-1.1,0-2,0.9-2,2c0,1.1,0.9,2,2,2h120.3c1.1,0,2-0.9,2-2
		C240.3,151.8,239.4,150.9,238.3,150.9z"/>
	<path class="st3" d="M238.3,135.2H117.9c-1.1,0-2,0.9-2,2c0,1.1,0.9,2,2,2h120.3c1.1,0,2-0.9,2-2
		C240.3,136.1,239.4,135.2,238.3,135.2z"/>
	<circle class="st1" cx="74.2" cy="112.7" r="14.9"/>
	<path class="st3" d="M74.2,95.8c-9.3,0-16.9,7.6-16.9,16.9c0,9.3,7.6,16.9,16.9,16.9c9.3,0,16.9-7.6,16.9-16.9
		C91,103.4,83.5,95.8,74.2,95.8z M74.2,125.5c-7.1,0-12.9-5.8-12.9-12.9c0-7.1,5.8-12.9,12.9-12.9c7.1,0,12.9,5.8,12.9,12.9
		C87,119.8,81.3,125.5,74.2,125.5z"/>
	<path class="st3" d="M74.2,95.8c-1.1,0-2,0.9-2,2v29.7c0,1.1,0.9,2,2,2s2-0.9,2-2V97.8C76.2,96.7,75.3,95.8,74.2,95.8z"/>
	<path class="st3" d="M89,110.7H59.3c-1.1,0-2,0.9-2,2s0.9,2,2,2H89c1.1,0,2-0.9,2-2S90.1,110.7,89,110.7z"/>
	<g>
		<rect x="138.3" y="174.7" class="st2" width="31.6" height="59"/>
		<path class="st3" d="M169.9,172.7h-31.6c-1.1,0-2,0.9-2,2v59c0,1.1,0.9,2,2,2h31.6c1.1,0,2-0.9,2-2v-59
			C171.9,173.6,171,172.7,169.9,172.7z M167.9,231.7h-27.6v-55h27.6V231.7z"/>
	</g>
	<rect x="141.9" y="178.1" class="st1" width="24.3" height="51.3"/>
	<rect x="133.8" y="225.3" class="st1" width="40.6" height="8.4"/>
	<path class="st3" d="M174.4,223.3h-40.6c-1.1,0-2,0.9-2,2v8.4c0,1.1,0.9,2,2,2h40.6c1.1,0,2-0.9,2-2v-8.4
		C176.4,224.2,175.5,223.3,174.4,223.3z M172.4,231.7h-36.6v-4.4h36.6V231.7z"/>
	<circle class="st3" cx="164" cy="200.7" r="1.8"/>
	<path class="st2" d="M213.4,197c-4.1-4.5-6.7-9.7-7.6-14.4c-1,4.8-3.5,9.9-7.6,14.4c-3.8,4.3-8.3,7.3-12.7,8.8v1h40.6v-1
		C221.7,204.3,217.2,201.3,213.4,197z"/>
	<path class="st2" d="M205.8,175c0-0.1,0.1-0.2,0.1-0.3h-0.1C205.7,174.8,205.8,174.9,205.8,175z"/>
	<path class="st1" d="M205.7,174.7h-20.2v31.1c4.4-1.6,8.9-4.6,12.7-8.8c4.1-4.5,6.7-9.7,7.6-14.4c1,4.8,3.5,9.9,7.6,14.4
		c3.8,4.3,8.3,7.3,12.7,8.8v-31.1h-20.2C205.8,174.8,205.7,174.8,205.7,174.7z"/>
	<path class="st3" d="M226.1,172.7h-40.6c-1.1,0-2,0.9-2,2v32.2c0,1.1,0.9,2,2,2h40.6c1.1,0,2-0.9,2-2v-32.2
		C228.1,173.6,227.2,172.7,226.1,172.7z M224.1,204.9h-36.6v-28.2h36.6V204.9z"/>
	<g>
		<path class="st3" d="M112,75.2c-1.1,0-2,0.9-2,2c0,4.5-3.7,8.2-8.2,8.2c-4.5,0-8.2-3.7-8.2-8.2c0-1.1-0.9-2-2-2s-2,0.9-2,2
			c0,6.7,5.5,12.2,12.2,12.2c6.7,0,12.2-5.5,12.2-12.2C114,76.1,113.1,75.2,112,75.2z"/>
		<path class="st3" d="M132.3,75.2c-1.1,0-2,0.9-2,2c0,4.5-3.7,8.2-8.2,8.2s-8.2-3.7-8.2-8.2c0-1.1-0.9-2-2-2s-2,0.9-2,2
			c0,6.7,5.5,12.2,12.2,12.2c6.7,0,12.2-5.5,12.2-12.2C134.3,76.1,133.4,75.2,132.3,75.2z"/>
		<path class="st3" d="M152.7,75.2c-1.1,0-2,0.9-2,2c0,4.5-3.7,8.2-8.2,8.2c-4.5,0-8.2-3.7-8.2-8.2c0-1.1-0.9-2-2-2
			c-1.1,0-2,0.9-2,2c0,6.7,5.5,12.2,12.2,12.2c6.7,0,12.2-5.5,12.2-12.2C154.7,76.1,153.8,75.2,152.7,75.2z"/>
		<path class="st3" d="M173.1,75.2c-1.1,0-2,0.9-2,2c0,4.5-3.7,8.2-8.2,8.2c-4.5,0-8.2-3.7-8.2-8.2c0-1.1-0.9-2-2-2
			c-1.1,0-2,0.9-2,2c0,6.7,5.5,12.2,12.2,12.2c6.7,0,12.2-5.5,12.2-12.2C175.1,76.1,174.2,75.2,173.1,75.2z"/>
		<path class="st3" d="M193.4,75.2c-1.1,0-2,0.9-2,2c0,4.5-3.7,8.2-8.2,8.2c-4.5,0-8.2-3.7-8.2-8.2c0-1.1-0.9-2-2-2
			c-1.1,0-2,0.9-2,2c0,6.7,5.5,12.2,12.2,12.2c6.7,0,12.2-5.5,12.2-12.2C195.4,76.1,194.5,75.2,193.4,75.2z"/>
	</g>
	<g>
		<path class="st3" d="M122.2,93.8c-1.1,0-2,0.9-2,2c0,4.5-3.7,8.2-8.2,8.2c-4.5,0-8.2-3.7-8.2-8.2c0-1.1-0.9-2-2-2s-2,0.9-2,2
			c0,6.7,5.5,12.2,12.2,12.2c6.7,0,12.2-5.5,12.2-12.2C124.2,94.7,123.3,93.8,122.2,93.8z"/>
		<path class="st3" d="M142.5,93.8c-1.1,0-2,0.9-2,2c0,4.5-3.7,8.2-8.2,8.2c-4.5,0-8.2-3.7-8.2-8.2c0-1.1-0.9-2-2-2s-2,0.9-2,2
			c0,6.7,5.5,12.2,12.2,12.2c6.7,0,12.2-5.5,12.2-12.2C144.5,94.7,143.7,93.8,142.5,93.8z"/>
		<path class="st3" d="M162.9,93.8c-1.1,0-2,0.9-2,2c0,4.5-3.7,8.2-8.2,8.2c-4.5,0-8.2-3.7-8.2-8.2c0-1.1-0.9-2-2-2
			c-1.1,0-2,0.9-2,2c0,6.7,5.5,12.2,12.2,12.2c6.7,0,12.2-5.5,12.2-12.2C164.9,94.7,164,93.8,162.9,93.8z"/>
		<path class="st3" d="M183.3,93.8c-1.1,0-2,0.9-2,2c0,4.5-3.7,8.2-8.2,8.2c-4.5,0-8.2-3.7-8.2-8.2c0-1.1-0.9-2-2-2
			c-1.1,0-2,0.9-2,2c0,6.7,5.5,12.2,12.2,12.2c6.7,0,12.2-5.5,12.2-12.2C185.3,94.7,184.4,93.8,183.3,93.8z"/>
		<path class="st3" d="M203.6,93.8c-1.1,0-2,0.9-2,2c0,4.5-3.7,8.2-8.2,8.2c-4.5,0-8.2-3.7-8.2-8.2c0-1.1-0.9-2-2-2
			c-1.1,0-2,0.9-2,2c0,6.7,5.5,12.2,12.2,12.2c6.7,0,12.2-5.5,12.2-12.2C205.6,94.7,204.7,93.8,203.6,93.8z"/>
	</g>
	<g>
		<path class="st3" d="M132.4,112.4c-1.1,0-2,0.9-2,2c0,4.5-3.7,8.2-8.2,8.2c-4.5,0-8.2-3.7-8.2-8.2c0-1.1-0.9-2-2-2s-2,0.9-2,2
			c0,6.7,5.5,12.2,12.2,12.2c6.7,0,12.2-5.5,12.2-12.2C134.4,113.3,133.5,112.4,132.4,112.4z"/>
		<path class="st3" d="M152.7,112.4c-1.1,0-2,0.9-2,2c0,4.5-3.7,8.2-8.2,8.2c-4.5,0-8.2-3.7-8.2-8.2c0-1.1-0.9-2-2-2
			c-1.1,0-2,0.9-2,2c0,6.7,5.5,12.2,12.2,12.2s12.2-5.5,12.2-12.2C154.7,113.3,153.8,112.4,152.7,112.4z"/>
		<path class="st3" d="M173.1,112.4c-1.1,0-2,0.9-2,2c0,4.5-3.7,8.2-8.2,8.2c-4.5,0-8.2-3.7-8.2-8.2c0-1.1-0.9-2-2-2
			c-1.1,0-2,0.9-2,2c0,6.7,5.5,12.2,12.2,12.2c6.7,0,12.2-5.5,12.2-12.2C175.1,113.3,174.2,112.4,173.1,112.4z"/>
		<path class="st3" d="M193.5,112.4c-1.1,0-2,0.9-2,2c0,4.5-3.7,8.2-8.2,8.2c-4.5,0-8.2-3.7-8.2-8.2c0-1.1-0.9-2-2-2
			c-1.1,0-2,0.9-2,2c0,6.7,5.5,12.2,12.2,12.2c6.7,0,12.2-5.5,12.2-12.2C195.5,113.3,194.6,112.4,193.5,112.4z"/>
		<path class="st3" d="M213.8,112.4c-1.1,0-2,0.9-2,2c0,4.5-3.7,8.2-8.2,8.2c-4.5,0-8.2-3.7-8.2-8.2c0-1.1-0.9-2-2-2
			c-1.1,0-2,0.9-2,2c0,6.7,5.5,12.2,12.2,12.2c6.7,0,12.2-5.5,12.2-12.2C215.8,113.3,214.9,112.4,213.8,112.4z"/>
	</g>
	<g>
		<rect x="26" y="184.3" class="st2" width="8.8" height="49.4"/>
		<path class="st3" d="M34.8,182.3H26c-1.1,0-2,0.9-2,2v49.4c0,1.1,0.9,2,2,2h8.8c1.1,0,2-0.9,2-2v-49.4
			C36.8,183.2,35.9,182.3,34.8,182.3z M32.8,231.7H28v-45.4h4.8V231.7z"/>
	</g>
	<circle class="st1" cx="30.4" cy="162.1" r="30.4"/>
	<path class="st3" d="M28.8,199.9H26c-1.1,0-2,0.9-2,2c0,1.1,0.9,2,2,2h2.8c1.1,0,2-0.9,2-2C30.8,200.8,29.9,199.9,28.8,199.9z"/>
	<path class="st3" d="M33.2,212.4h-2.8c-1.1,0-2,0.9-2,2c0,1.1,0.9,2,2,2h2.8c1.1,0,2-0.9,2-2C35.2,213.3,34.3,212.4,33.2,212.4z"/>
	<path class="st3" d="M28.8,221.9H26c-1.1,0-2,0.9-2,2c0,1.1,0.9,2,2,2h2.8c1.1,0,2-0.9,2-2C30.8,222.8,29.9,221.9,28.8,221.9z"/>
</g>
</svg>
