<?xml version="1.0" encoding="utf-8"?>
<!-- Generator: Adobe Illustrator 19.2.0, SVG Export Plug-In . SVG Version: 6.00 Build 0)  -->
<svg version="1.1" id="Слой_1" xmlns="http://www.w3.org/2000/svg" xmlns:xlink="http://www.w3.org/1999/xlink" x="0px" y="0px"
	 viewBox="0 0 57.2 57.2" style="enable-background:new 0 0 57.2 57.2;" xml:space="preserve">
<style type="text/css">
	.st0{fill:#CCCCCC;}
</style>
<g>
	<path class="st0" d="M1.3,55.9c0.8,0.8,1.8,1.2,2.8,1.2s2-0.4,2.8-1.2l21.7-21.6L50.3,56c0.8,0.8,1.8,1.2,2.8,1.2s2-0.4,2.8-1.2
		c1.6-1.6,1.6-4.1,0-5.7L34.3,28.6L56,6.9c1.6-1.6,1.6-4.1,0-5.7s-4.1-1.6-5.7,0L28.6,22.9L6.9,1.3c-1.6-1.6-4.1-1.6-5.7,0
		s-1.6,4.1,0,5.7l21.7,21.6L1.3,50.3C-0.3,51.8-0.3,54.4,1.3,55.9z"/>
</g>
</svg>
