<!-- Generator: Adobe Illustrator 21.1.0, SVG Export Plug-In  -->
<svg version="1.1"
	 xmlns="http://www.w3.org/2000/svg" xmlns:xlink="http://www.w3.org/1999/xlink" xmlns:a="http://ns.adobe.com/AdobeSVGViewerExtensions/3.0/"
	 x="0px" y="0px" width="83.9px" height="87.9px" viewBox="0 0 83.9 87.9" style="enable-background:new 0 0 83.9 87.9;"
	 xml:space="preserve">
<defs>
</defs>
<g transform="translate(0,-952.36218)">
	<path d="M22,952.4c-1.1,0-2,0.9-2,2v9.3c-2.9,0.9-5,3.5-5,6.7c0,3.8,3.2,7,7,7s7-3.2,7-7c0-3.1-2.1-5.8-5-6.7v-9.3
		C24,953.3,23.1,952.4,22,952.4z M62,952.4c-1.1,0-2,0.9-2,2v9.3c-2.9,0.9-5,3.5-5,6.7c0,3.8,3.2,7,7,7s7-3.2,7-7
		c0-3.1-2.1-5.8-5-6.7v-9.3C64,953.3,63.1,952.4,62,952.4z M10,956.4c-5.5,0-10,4.5-10,10v63.9c0,5.5,4.5,10,10,10h63.9
		c5.5,0,10-4.5,10-10v-63.9c0-5.5-4.5-10-10-10h-6c-1.1,0-2,0.9-2,2s1,2,2,2h6c3.4,0,6,2.7,6,6v14h-76v-14c0-3.4,2.7-6,6-6h6
		c1.1,0,2-0.9,2-2s-1-2-2-2H10z M27.8,956.4c-1,0-2,1-1.9,2.1c0,1,1,2,2.1,1.9h28c1.1,0,2-0.9,2-2s-1-2-2-2H27.8z M22,967.4
		c1.7,0,3,1.3,3,3s-1.3,3-3,3s-3-1.3-3-3S20.3,967.4,22,967.4z M62,967.4c1.7,0,3,1.3,3,3s-1.3,3-3,3s-3-1.3-3-3
		S60.3,967.4,62,967.4z M4,984.4h76v46c0,3.4-2.7,6-6,6H10c-3.4,0-6-2.7-6-6V984.4z M38,999.4c-0.5,0-1,0.2-1.4,0.6
		c-3.2,3.3-6.7,6.6-9.9,9.9c-0.4,0.4-0.7,0.9-0.7,1.5s0.3,1.1,0.7,1.5c3.3,3.3,6.6,6.6,9.9,9.9c0.8,0.8,2,0.8,2.8,0s0.8-2,0-2.8
		l-6.6-6.6H56c1.1,0,2-0.9,2-2s-0.9-2-2-2H32.8l6.6-6.6c0.8-0.8,0.8-2,0-2.8C39,999.6,38.5,999.4,38,999.4L38,999.4z"/>
</g>
</svg>
