<?xml version="1.0" encoding="utf-8"?>
<!-- Generator: Adobe Illustrator 19.0.1, SVG Export Plug-In . SVG Version: 6.00 Build 0)  -->
<svg version="1.1" id="Layer_1" xmlns="http://www.w3.org/2000/svg" xmlns:xlink="http://www.w3.org/1999/xlink" x="0px" y="0px"
	 viewBox="89.3 346 780 102" style="enable-background:new 89.3 346 780 102;" xml:space="preserve">
<style type="text/css">
	.st0{fill:#FFFFFF;}
	.st1{fill:#2E2E2E;}
	.st2{fill:#FFE500;}
</style>
<g id="Layer_1_1_">
	
		<image style="display:none;overflow:visible;enable-background:new    ;" width="4676" height="94" xlink:href="8934DC00.png"  transform="matrix(1 0 0 1 -1921.6666 379.3333)">
	</image>
</g>
<g id="Layer_2">
	<g>
		<g>
			<path class="st0" d="M154.7,390.4c-0.5,0-0.9,0.1-1.3,0.2c-0.3-1.9-1.9-3.3-3.9-3.3c-1.1,0-2,0.4-2.7,1.1
				c-0.9-1.1-2.2-1.8-3.7-1.8c-2.3,0-4.1,1.6-4.6,3.7c-2,0.1-3.5,1.7-3.7,3.7h23.7C158.4,391.9,156.7,390.4,154.7,390.4z"/>
			<path class="st1" d="M158.5,394.6h-23.7c-0.2,0-0.4-0.1-0.5-0.2c-0.1-0.1-0.2-0.3-0.2-0.5c0.1-2.1,1.8-3.9,3.8-4.2
				c0.7-2.2,2.8-3.8,5.1-3.8c1.4,0,2.8,0.6,3.8,1.5c0.8-0.5,1.7-0.8,2.6-0.8c2,0,3.8,1.3,4.4,3.2c0.3,0,0.5-0.1,0.8-0.1
				c2.4,0,4.3,1.8,4.5,4.2c0,0.2-0.1,0.4-0.2,0.5C158.9,394.5,158.7,394.6,158.5,394.6z M135.6,393.2h22.1c-0.4-1.3-1.6-2.2-3-2.2
				c-0.4,0-0.7,0.1-1.1,0.2c-0.2,0.1-0.4,0-0.6-0.1s-0.3-0.3-0.3-0.5c-0.2-1.6-1.6-2.8-3.2-2.8c-0.8,0-1.6,0.3-2.2,0.9
				c-0.1,0.1-0.3,0.2-0.5,0.2c-0.2,0-0.4-0.1-0.5-0.3c-0.8-1-1.9-1.5-3.2-1.5c-1.9,0-3.5,1.3-3.9,3.2c-0.1,0.3-0.3,0.5-0.6,0.5
				C137.2,391,136,392,135.6,393.2z"/>
		</g>
		<g>
			<path class="st0" d="M141.3,374.3c-1,0-2,0.3-2.9,0.7c-1.1-1.1-2.5-1.8-4.2-1.8c-2.6,0-4.8,1.7-5.5,4c-0.5-0.2-0.9-0.3-1.5-0.3
				c-2,0-3.7,1.4-4.2,3.3h15.4h9C147.4,377,144.6,374.3,141.3,374.3z"/>
			<path class="st1" d="M147.5,381h-24.4c-0.2,0-0.4-0.1-0.5-0.3c-0.1-0.2-0.2-0.4-0.1-0.6c0.5-2.3,2.5-3.8,4.8-3.8
				c0.4,0,0.7,0,1,0.1c1-2.3,3.3-3.9,5.9-3.9c1.6,0,3.1,0.6,4.3,1.6c0.9-0.4,1.8-0.6,2.7-0.6c3.7,0,6.8,2.9,7,6.6
				c0,0.2-0.1,0.4-0.2,0.5C147.9,380.9,147.7,381,147.5,381z M124,379.6h22.7c-0.4-2.6-2.7-4.6-5.4-4.6c-0.9,0-1.8,0.2-2.6,0.6
				c-0.3,0.1-0.6,0.1-0.8-0.1c-1-1-2.3-1.6-3.7-1.6c-2.2,0-4.2,1.4-4.9,3.5c-0.1,0.2-0.2,0.3-0.3,0.4c-0.2,0.1-0.4,0.1-0.5,0
				c-0.4-0.1-0.8-0.2-1.2-0.2C125.8,377.7,124.6,378.5,124,379.6z"/>
		</g>
		<g>
			<g>
				<g>
					<rect x="106.4" y="402.4" class="st0" width="25" height="40.6"/>
					<path class="st1" d="M131.4,443.7h-25c-0.4,0-0.7-0.3-0.7-0.7v-40.6c0-0.4,0.3-0.7,0.7-0.7h25c0.4,0,0.7,0.3,0.7,0.7V443
						C132.1,443.4,131.8,443.7,131.4,443.7z M107.1,442.3h23.6v-39.2h-23.6V442.3z"/>
				</g>
				<g>
					<rect x="96.1" y="402.4" class="st2" width="10.3" height="40.6"/>
					<path class="st1" d="M106.4,443.7H96.1c-0.4,0-0.7-0.3-0.7-0.7v-40.6c0-0.4,0.3-0.7,0.7-0.7h10.3c0.4,0,0.7,0.3,0.7,0.7V443
						C107.1,443.4,106.8,443.7,106.4,443.7z M96.7,442.3h9v-39.2h-9C96.7,403.1,96.7,442.3,96.7,442.3z"/>
				</g>
			</g>
			<g>
				<g>
					<rect x="107.3" y="384.9" class="st0" width="22" height="17.5"/>
					<path class="st1" d="M129.3,403.1h-22c-0.4,0-0.7-0.3-0.7-0.7v-17.5c0-0.4,0.3-0.7,0.7-0.7h22c0.4,0,0.7,0.3,0.7,0.7v17.5
						C129.9,402.8,129.6,403.1,129.3,403.1z M108,401.7h20.6v-16.1H108V401.7z"/>
				</g>
				<g>
					<rect x="98.2" y="384.9" class="st2" width="9.1" height="17.5"/>
					<path class="st1" d="M107.3,403.1h-9.1c-0.4,0-0.7-0.3-0.7-0.7v-17.5c0-0.4,0.3-0.7,0.7-0.7h9.1c0.4,0,0.7,0.3,0.7,0.7v17.5
						C108,402.8,107.7,403.1,107.3,403.1z M98.9,401.7h7.7v-16.1h-7.7C98.9,385.6,98.9,401.7,98.9,401.7z"/>
				</g>
			</g>
			<g>
				<g>
					<rect x="108.6" y="369.3" class="st0" width="17.7" height="15.7"/>
					<path class="st1" d="M126.2,385.7h-17.6c-0.4,0-0.7-0.3-0.7-0.7v-15.7c0-0.4,0.3-0.7,0.7-0.7h17.7c0.4,0,0.7,0.3,0.7,0.7V385
						C126.9,385.4,126.6,385.7,126.2,385.7z M109.2,384.3h16.3V370h-16.3V384.3z"/>
				</g>
				<g>
					<rect x="101.2" y="369.3" class="st2" width="7.3" height="15.7"/>
					<path class="st1" d="M108.6,385.7h-7.3c-0.4,0-0.7-0.3-0.7-0.7v-15.7c0-0.4,0.3-0.7,0.7-0.7h7.3c0.4,0,0.7,0.3,0.7,0.7V385
						C109.2,385.4,108.9,385.7,108.6,385.7z M101.9,384.3h6V370h-6V384.3z"/>
				</g>
			</g>
			<g>
				<g>
					<g>
						<rect x="125.9" y="406.3" class="st2" width="3" height="5.2"/>
					</g>
					<g>
						<rect x="120.2" y="406.3" class="st2" width="3" height="5.2"/>
					</g>
					<g>
						<rect x="114.6" y="406.3" class="st2" width="3" height="5.2"/>
					</g>
					<g>
						<rect x="108.9" y="406.3" class="st2" width="3" height="5.2"/>
					</g>
				</g>
				<g>
					<g>
						<rect x="125.9" y="415.4" class="st2" width="3" height="5.2"/>
					</g>
					<g>
						<rect x="120.2" y="415.4" class="st2" width="3" height="5.2"/>
					</g>
					<g>
						<rect x="114.6" y="415.4" class="st2" width="3" height="5.2"/>
					</g>
					<g>
						<rect x="108.9" y="415.4" class="st2" width="3" height="5.2"/>
					</g>
				</g>
				<g>
					<g>
						<rect x="125.9" y="424.5" class="st2" width="3" height="5.2"/>
					</g>
					<g>
						<rect x="120.2" y="424.5" class="st2" width="3" height="5.2"/>
					</g>
					<g>
						<rect x="114.6" y="424.5" class="st2" width="3" height="5.2"/>
					</g>
					<g>
						<rect x="108.9" y="424.5" class="st2" width="3" height="5.2"/>
					</g>
				</g>
				<g>
					<g>
						<rect x="125.9" y="433.7" class="st2" width="3" height="5.2"/>
					</g>
					<g>
						<rect x="120.2" y="433.7" class="st2" width="3" height="5.2"/>
					</g>
					<g>
						<rect x="114.6" y="433.7" class="st2" width="3" height="5.2"/>
					</g>
					<g>
						<rect x="108.9" y="433.7" class="st2" width="3" height="5.2"/>
					</g>
				</g>
			</g>
			<g>
				<g>
					<g>
						<rect x="122.5" y="387" class="st2" width="3" height="5.2"/>
					</g>
					<g>
						<rect x="116.8" y="387" class="st2" width="3" height="5.2"/>
					</g>
					<g>
						<rect x="111.1" y="387" class="st2" width="3" height="5.2"/>
					</g>
				</g>
				<g>
					<g>
						<rect x="122.5" y="396.2" class="st2" width="3" height="5.2"/>
					</g>
					<g>
						<rect x="116.8" y="396.2" class="st2" width="3" height="5.2"/>
					</g>
					<g>
						<rect x="111.1" y="396.2" class="st2" width="3" height="5.2"/>
					</g>
				</g>
			</g>
			<g>
				<g>
					<g>
						<rect x="119.4" y="372.6" class="st2" width="3" height="3.7"/>
					</g>
					<g>
						<rect x="112.4" y="372.6" class="st2" width="3" height="3.7"/>
					</g>
				</g>
				<g>
					<g>
						<rect x="119.4" y="379.1" class="st2" width="3" height="3.7"/>
					</g>
					<g>
						<rect x="112.4" y="379.1" class="st2" width="3" height="3.7"/>
					</g>
				</g>
			</g>
			<g>
				<path class="st2" d="M113.7,362.7c-4.1,0-7.5,2.8-8.5,6.6h17C121.3,365.5,117.8,362.7,113.7,362.7z"/>
				<path class="st1" d="M122.3,370h-17c-0.2,0-0.4-0.1-0.5-0.3c-0.1-0.2-0.2-0.4-0.1-0.6c1.1-4.2,4.9-7.1,9.2-7.1
					c4.3,0,8.1,2.9,9.2,7.1c0.1,0.2,0,0.4-0.1,0.6C122.7,369.9,122.5,370,122.3,370z M106.1,368.6h15.2c-1.2-3.1-4.2-5.2-7.6-5.2
					C110.3,363.4,107.3,365.5,106.1,368.6z"/>
			</g>
			<g>
				<path class="st0" d="M115.5,362.9c-3.3,0.7-6,3.2-6.8,6.4h13.6C121.4,366.1,118.8,363.6,115.5,362.9z"/>
				<path class="st1" d="M122.3,370h-13.6c-0.2,0-0.4-0.1-0.5-0.3c-0.2-0.1-0.2-0.3-0.2-0.5c0.9-3.5,3.8-6.2,7.3-6.9
					c0.1,0,0.2,0,0.3,0c3.5,0.7,6.4,3.4,7.3,6.9c0.1,0.2,0,0.4-0.1,0.6C122.7,369.9,122.5,370,122.3,370z M109.6,368.6h11.7
					c-1-2.5-3.2-4.5-5.9-5C112.8,364.2,110.6,366.1,109.6,368.6z"/>
			</g>
		</g>
		<g>
			<g>
				<rect x="128.9" y="399.2" class="st0" width="26.3" height="43.8"/>
				<path class="st1" d="M155.1,443.7h-26.2c-0.4,0-0.7-0.3-0.7-0.7v-43.8c0-0.4,0.3-0.7,0.7-0.7h26.3c0.4,0,0.7,0.3,0.7,0.7V443
					C155.8,443.4,155.5,443.7,155.1,443.7z M129.6,442.3h24.9v-42.4h-24.9V442.3z"/>
			</g>
			<g>
				<rect x="118" y="399.2" class="st0" width="10.9" height="43.8"/>
				<path class="st1" d="M128.9,443.7H118c-0.4,0-0.7-0.3-0.7-0.7v-43.8c0-0.4,0.3-0.7,0.7-0.7h10.9c0.4,0,0.7,0.3,0.7,0.7V443
					C129.6,443.4,129.2,443.7,128.9,443.7z M118.7,442.3h9.5v-42.4h-9.5V442.3z"/>
			</g>
			<g>
				<g>
					<rect x="149.2" y="403.9" class="st2" width="3" height="5.4"/>
				</g>
				<g>
					<rect x="143.5" y="403.9" class="st2" width="3" height="5.4"/>
				</g>
				<g>
					<rect x="137.8" y="403.9" class="st2" width="3" height="5.4"/>
				</g>
				<g>
					<rect x="132.1" y="403.9" class="st2" width="3" height="5.4"/>
				</g>
			</g>
			<g>
				<g>
					<rect x="149.2" y="413.6" class="st2" width="3" height="5.4"/>
				</g>
				<g>
					<rect x="143.5" y="413.6" class="st2" width="3" height="5.4"/>
				</g>
				<g>
					<rect x="137.8" y="413.6" class="st2" width="3" height="5.4"/>
				</g>
				<g>
					<rect x="132.1" y="413.6" class="st2" width="3" height="5.4"/>
				</g>
			</g>
			<g>
				<g>
					<rect x="149.2" y="423.2" class="st2" width="3" height="5.4"/>
				</g>
				<g>
					<rect x="143.5" y="423.2" class="st2" width="3" height="5.4"/>
				</g>
				<g>
					<rect x="137.8" y="423.2" class="st2" width="3" height="5.4"/>
				</g>
				<g>
					<rect x="132.1" y="423.2" class="st2" width="3" height="5.4"/>
				</g>
			</g>
			<g>
				<g>
					<rect x="149.2" y="432.8" class="st2" width="3" height="5.4"/>
				</g>
				<g>
					<rect x="143.5" y="432.8" class="st2" width="3" height="5.4"/>
				</g>
				<g>
					<rect x="137.8" y="432.8" class="st2" width="3" height="5.4"/>
				</g>
				<g>
					<rect x="132.1" y="432.8" class="st2" width="3" height="5.4"/>
				</g>
			</g>
		</g>
		<g>
			<g>
				<rect x="91.4" y="420.2" class="st0" width="19.8" height="22.8"/>
				<path class="st1" d="M111.2,443.7H91.4c-0.4,0-0.7-0.3-0.7-0.7v-22.8c0-0.4,0.3-0.7,0.7-0.7h19.8c0.4,0,0.7,0.3,0.7,0.7V443
					C111.8,443.4,111.5,443.7,111.2,443.7z M92.1,442.3h18.4v-21.5H92.1V442.3z"/>
			</g>
			<g>
				<rect x="111.2" y="420.2" class="st2" width="10.9" height="22.8"/>
				<path class="st1" d="M122,443.7h-10.8c-0.4,0-0.7-0.3-0.7-0.7v-22.8c0-0.4,0.3-0.7,0.7-0.7H122c0.4,0,0.7,0.3,0.7,0.7V443
					C122.7,443.4,122.4,443.7,122,443.7z M111.8,442.3h9.5v-21.5h-9.5V442.3z"/>
			</g>
			<g>
				<g>
					<rect x="93.5" y="424.1" class="st2" width="3" height="5.4"/>
				</g>
				<g>
					<rect x="99.2" y="424.1" class="st2" width="3" height="5.4"/>
				</g>
				<g>
					<rect x="104.9" y="424.1" class="st2" width="3" height="5.4"/>
				</g>
			</g>
			<g>
				<g>
					<rect x="93.5" y="433.8" class="st2" width="3" height="5.4"/>
				</g>
				<g>
					<rect x="99.2" y="433.8" class="st2" width="3" height="5.4"/>
				</g>
				<g>
					<rect x="104.9" y="433.8" class="st2" width="3" height="5.4"/>
				</g>
			</g>
		</g>
		<g>
			<g>
				<g>
					<rect x="174.7" y="389.2" class="st0" width="13.3" height="53.8"/>
					<path class="st1" d="M188,443.7h-13.3c-0.4,0-0.7-0.3-0.7-0.7v-53.8c0-0.4,0.3-0.7,0.7-0.7H188c0.4,0,0.7,0.3,0.7,0.7V443
						C188.6,443.4,188.3,443.7,188,443.7z M175.4,442.3h11.9v-52.4h-11.9V442.3z"/>
				</g>
				<g>
					<polygon class="st0" points="152.6,369.3 174.7,389.2 188,389.2 165.9,369.3 					"/>
					<path class="st1" d="M188,389.9h-13.3c-0.2,0-0.3-0.1-0.5-0.2l-22-19.9c-0.2-0.2-0.3-0.5-0.2-0.8c0.1-0.3,0.4-0.4,0.6-0.4h13.3
						c0.2,0,0.3,0.1,0.5,0.2l22,19.9c0.2,0.2,0.3,0.5,0.2,0.7C188.5,389.7,188.2,389.9,188,389.9z M175,388.5h11.2L165.7,370h-11.3
						L175,388.5z"/>
				</g>
			</g>
			<g>
				<polygon class="st0" points="152.6,373.5 152.6,374.5 158.4,374.5 157.3,373.5 				"/>
				<rect x="152.6" y="418" class="st0" width="22" height="1"/>
				<rect x="152.6" y="414.6" class="st0" width="22" height="1"/>
				<polygon class="st0" points="152.6,376.9 152.6,377.9 162.2,377.9 161.1,376.9 				"/>
				<polygon class="st0" points="152.6,371 154.6,371 152.6,369.3 				"/>
				<rect x="152.6" y="400.9" class="st0" width="22" height="1"/>
				<rect x="152.6" y="394" class="st0" width="22" height="1"/>
				<rect x="152.6" y="407.7" class="st0" width="22" height="1"/>
				<rect x="152.6" y="411.2" class="st0" width="22" height="1"/>
				<rect x="152.6" y="397.5" class="st0" width="22" height="1"/>
				<rect x="152.6" y="438.6" class="st0" width="22" height="1"/>
				<polygon class="st0" points="152.6,387.2 152.6,388.2 173.6,388.2 172.5,387.2 				"/>
				<rect x="152.6" y="435.1" class="st0" width="22" height="1"/>
				<rect x="152.6" y="431.7" class="st0" width="22" height="1"/>
				<rect x="152.6" y="390.6" class="st0" width="22" height="1"/>
				<rect x="152.6" y="404.3" class="st0" width="22" height="1"/>
				<polygon class="st0" points="152.6,383.8 152.6,384.7 169.8,384.7 168.7,383.8 				"/>
				<rect x="152.6" y="421.4" class="st0" width="22" height="1"/>
				<polygon class="st0" points="152.6,443 160.7,443 174.7,443 174.7,442 152.6,442 				"/>
				<rect x="152.6" y="424.9" class="st0" width="22" height="1"/>
				<polygon class="st0" points="152.6,380.3 152.6,381.3 166,381.3 164.9,380.3 				"/>
				<rect x="152.6" y="428.3" class="st0" width="22" height="1"/>
				<polygon class="st2" points="152.6,371 152.6,373.5 157.3,373.5 154.6,371 				"/>
				<polygon class="st2" points="152.6,374.5 152.6,376.9 161.1,376.9 158.4,374.5 				"/>
				<polygon class="st2" points="152.6,377.9 152.6,380.3 164.9,380.3 162.2,377.9 				"/>
				<polygon class="st2" points="152.6,381.3 152.6,383.8 168.7,383.8 166,381.3 				"/>
				<polygon class="st2" points="152.6,384.7 152.6,387.2 172.5,387.2 169.8,384.7 				"/>
				<polygon class="st2" points="152.6,388.2 152.6,390.6 174.7,390.6 174.7,389.2 173.6,388.2 				"/>
				<rect x="152.6" y="391.6" class="st2" width="22" height="2.5"/>
				<rect x="152.6" y="395" class="st2" width="22" height="2.5"/>
				<rect x="152.6" y="398.4" class="st2" width="22" height="2.5"/>
				<rect x="152.6" y="401.9" class="st2" width="22" height="2.5"/>
				<rect x="152.6" y="405.3" class="st2" width="22" height="2.5"/>
				<rect x="152.6" y="408.7" class="st2" width="22" height="2.5"/>
				<rect x="152.6" y="412.1" class="st2" width="22" height="2.5"/>
				<rect x="152.6" y="415.6" class="st2" width="22" height="2.5"/>
				<rect x="152.6" y="419" class="st2" width="22" height="2.5"/>
				<rect x="152.6" y="422.4" class="st2" width="22" height="2.5"/>
				<rect x="152.6" y="425.8" class="st2" width="22" height="2.5"/>
				<rect x="152.6" y="429.3" class="st2" width="22" height="2.5"/>
				<rect x="152.6" y="432.7" class="st2" width="22" height="2.5"/>
				<rect x="152.6" y="436.1" class="st2" width="22" height="2.5"/>
				<rect x="152.6" y="439.5" class="st2" width="22" height="2.5"/>
			</g>
			<path class="st1" d="M174.7,443.7h-22c-0.4,0-0.7-0.3-0.7-0.7v-73.7c0-0.3,0.2-0.5,0.4-0.6c0.2-0.1,0.5-0.1,0.7,0.1l22,19.9
				c0.1,0.1,0.2,0.3,0.2,0.5V443C175.4,443.4,175.1,443.7,174.7,443.7z M153.3,442.3H174v-52.8l-20.7-18.7V442.3z"/>
		</g>
	</g>
	<g>
		<circle class="st2" cx="253.5" cy="388.3" r="16"/>
		<g>
			<g>
				<rect x="277.2" y="416.9" class="st0" width="3.2" height="26.1"/>
				<path class="st1" d="M280.3,443.7h-3.2c-0.4,0-0.7-0.3-0.7-0.7v-26.1c0-0.4,0.3-0.7,0.7-0.7h3.2c0.4,0,0.7,0.3,0.7,0.7V443
					C281,443.4,280.7,443.7,280.3,443.7z M277.8,442.3h1.8v-24.7h-1.8V442.3z"/>
			</g>
			<circle class="st2" cx="278.8" cy="403.9" r="15.8"/>
			<path class="st1" d="M280.3,423.3H279c-0.4,0-0.7-0.3-0.7-0.7s0.3-0.7,0.7-0.7h1.3c0.4,0,0.7,0.3,0.7,0.7
				S280.7,423.3,280.3,423.3z"/>
			<path class="st1" d="M278.5,426.9h-1.3c-0.4,0-0.7-0.3-0.7-0.7s0.3-0.7,0.7-0.7h1.3c0.4,0,0.7,0.3,0.7,0.7
				S278.9,426.9,278.5,426.9z"/>
			<path class="st1" d="M278.3,440h-1.1c-0.4,0-0.7-0.3-0.7-0.7c0-0.4,0.3-0.7,0.7-0.7h1.1c0.4,0,0.7,0.3,0.7,0.7
				C279,439.7,278.7,440,278.3,440z"/>
			<path class="st1" d="M280.2,435.1h-1.3c-0.4,0-0.7-0.3-0.7-0.7s0.3-0.7,0.7-0.7h1.3c0.4,0,0.7,0.3,0.7,0.7
				S280.6,435.1,280.2,435.1z"/>
			<path class="st1" d="M278.3,431.1h-0.9c-0.4,0-0.7-0.3-0.7-0.7s0.3-0.7,0.7-0.7h0.9c0.4,0,0.7,0.3,0.7,0.7
				S278.7,431.1,278.3,431.1z"/>
		</g>
		<g>
			<g>
				<rect x="229.8" y="407.9" class="st0" width="43.5" height="35.1"/>
				<path class="st1" d="M273.4,443.7h-43.5c-0.4,0-0.7-0.3-0.7-0.7v-35.1c0-0.4,0.3-0.7,0.7-0.7h43.5c0.4,0,0.7,0.3,0.7,0.7V443
					C274,443.4,273.7,443.7,273.4,443.7z M230.5,442.3h42.2v-33.7h-42.2V442.3z"/>
			</g>
			<g>
				<polygon class="st0" points="229.7,407.9 213.9,383.3 198.2,407.9 198.2,443 229.8,443 229.8,407.9 				"/>
				<path class="st1" d="M229.8,443.7h-31.6c-0.4,0-0.7-0.3-0.7-0.7v-35.1c0-0.1,0-0.2,0.1-0.4l15.7-24.7c0.1-0.2,0.3-0.3,0.6-0.3
					c0.2,0,0.4,0.1,0.6,0.3l15.6,24.4c0.3,0.1,0.5,0.3,0.5,0.6V443C230.5,443.4,230.2,443.7,229.8,443.7z M198.9,442.3h30.3v-34
					l-0.1-0.1l-15.2-23.8L198.8,408v34.3H198.9z"/>
			</g>
			<g>
				<polygon class="st0" points="273.4,407.9 257.6,383.3 213.9,383.3 229.7,407.9 				"/>
				<path class="st1" d="M273.4,408.6h-43.7c-0.2,0-0.4-0.1-0.6-0.3l-15.7-24.7c-0.1-0.2-0.1-0.5,0-0.7c0.1-0.2,0.3-0.3,0.6-0.3
					h43.7c0.2,0,0.4,0.1,0.6,0.3l15.7,24.7c0.1,0.2,0.1,0.5,0,0.7C273.8,408.5,273.6,408.6,273.4,408.6z M230,407.3h42.1l-14.9-23.4
					h-42.1L230,407.3z"/>
			</g>
			<path class="st1" d="M273.4,408.6h-43.5c-0.4,0-0.7-0.3-0.7-0.7s0.3-0.7,0.7-0.7h43.5c0.4,0,0.7,0.3,0.7,0.7
				S273.7,408.6,273.4,408.6z"/>
			<path class="st1" d="M273.4,437.8h-43.5c-0.4,0-0.7-0.3-0.7-0.7s0.3-0.7,0.7-0.7h43.5c0.4,0,0.7,0.3,0.7,0.7
				C274,437.5,273.7,437.8,273.4,437.8z"/>
			<path class="st1" d="M273.4,432h-43.5c-0.4,0-0.7-0.3-0.7-0.7c0-0.4,0.3-0.7,0.7-0.7h43.5c0.4,0,0.7,0.3,0.7,0.7
				C274,431.7,273.7,432,273.4,432z"/>
			<path class="st1" d="M273.4,426.1h-43.5c-0.4,0-0.7-0.3-0.7-0.7s0.3-0.7,0.7-0.7h43.5c0.4,0,0.7,0.3,0.7,0.7
				C274,425.8,273.7,426.1,273.4,426.1z"/>
			<path class="st1" d="M273.4,420.3h-43.5c-0.4,0-0.7-0.3-0.7-0.7s0.3-0.7,0.7-0.7h43.5c0.4,0,0.7,0.3,0.7,0.7
				C274,420,273.7,420.3,273.4,420.3z"/>
			<path class="st1" d="M273.4,414.5h-43.5c-0.4,0-0.7-0.3-0.7-0.7c0-0.4,0.3-0.7,0.7-0.7h43.5c0.4,0,0.7,0.3,0.7,0.7
				C274,414.2,273.7,414.5,273.4,414.5z"/>
			<path class="st1" d="M273.4,408.8h-43.5c-0.4,0-0.7-0.3-0.7-0.7s0.3-0.7,0.7-0.7h43.5c0.4,0,0.7,0.3,0.7,0.7
				S273.7,408.8,273.4,408.8z"/>
			<g>
				<g>
					<circle class="st2" cx="214" cy="399.2" r="5.4"/>
					<path class="st1" d="M214,405.3c-3.3,0-6-2.7-6-6c0-3.3,2.7-6,6-6s6,2.7,6,6C220.1,402.6,217.3,405.3,214,405.3z M214,394.5
						c-2.6,0-4.7,2.1-4.7,4.7c0,2.6,2.1,4.7,4.7,4.7c2.6,0,4.7-2.1,4.7-4.7C218.7,396.7,216.6,394.5,214,394.5z"/>
				</g>
				<path class="st1" d="M214,405.3c-0.4,0-0.7-0.3-0.7-0.7v-10.7c0-0.4,0.3-0.7,0.7-0.7s0.7,0.3,0.7,0.7v10.7
					C214.7,405,214.4,405.3,214,405.3z"/>
				<path class="st1" d="M219.4,399.9h-10.7c-0.4,0-0.7-0.3-0.7-0.7c0-0.4,0.3-0.7,0.7-0.7h10.7c0.4,0,0.7,0.3,0.7,0.7
					C220.1,399.6,219.8,399.9,219.4,399.9z"/>
			</g>
			<g>
				<rect x="237.2" y="421.7" class="st0" width="11.4" height="21.3"/>
				<path class="st1" d="M248.6,443.7h-11.4c-0.4,0-0.7-0.3-0.7-0.7v-21.3c0-0.4,0.3-0.7,0.7-0.7h11.4c0.4,0,0.7,0.3,0.7,0.7V443
					C249.3,443.4,249,443.7,248.6,443.7z M237.9,442.3H248v-20h-10.1V442.3z"/>
			</g>
			<rect x="238.5" y="422.9" class="st2" width="8.8" height="18.6"/>
			<g>
				<rect x="235.6" y="440" class="st2" width="14.7" height="3"/>
				<path class="st1" d="M250.3,443.7h-14.7c-0.4,0-0.7-0.3-0.7-0.7v-3c0-0.4,0.3-0.7,0.7-0.7h14.7c0.4,0,0.7,0.3,0.7,0.7v3
					C250.9,443.4,250.6,443.7,250.3,443.7z M236.2,442.3h13.4v-1.7h-13.4V442.3z"/>
			</g>
			<circle class="st1" cx="246.5" cy="431.1" r="0.6"/>
			<g>
				<g>
					<path class="st0" d="M264.4,429.7c-1.5-1.6-2.4-3.5-2.8-5.2c-0.3,1.7-1.3,3.6-2.8,5.2c-1.4,1.5-3,2.6-4.6,3.2v0.4H269v-0.4
						C267.4,432.4,265.7,431.3,264.4,429.7z"/>
					<path class="st0" d="M261.6,421.7L261.6,421.7L261.6,421.7L261.6,421.7z"/>
					<path class="st2" d="M261.6,421.7L261.6,421.7h-7.4V433c1.6-0.6,3.2-1.7,4.6-3.2c1.5-1.6,2.4-3.5,2.8-5.2
						c0.3,1.7,1.3,3.6,2.8,5.2c1.4,1.5,3,2.6,4.6,3.2v-11.3H261.6z"/>
				</g>
				<path class="st1" d="M269,434h-14.7c-0.4,0-0.7-0.3-0.7-0.7v-11.6c0-0.4,0.3-0.7,0.7-0.7H269c0.4,0,0.7,0.3,0.7,0.7v11.6
					C269.6,433.7,269.3,434,269,434z M254.9,432.6h13.4v-10.3h-13.4V432.6z"/>
			</g>
			<g>
				<path class="st1" d="M224,390.8c-2.4,0-4.3-1.9-4.3-4.3c0-0.4,0.3-0.7,0.7-0.7s0.7,0.3,0.7,0.7c0,1.7,1.4,3,3,3c1.7,0,3-1.4,3-3
					c0-0.4,0.3-0.7,0.7-0.7s0.7,0.3,0.7,0.7C228.4,388.8,226.4,390.8,224,390.8z"/>
				<path class="st1" d="M231.4,390.8c-2.4,0-4.3-1.9-4.3-4.3c0-0.4,0.3-0.7,0.7-0.7s0.7,0.3,0.7,0.7c0,1.7,1.4,3,3,3
					c1.7,0,3-1.4,3-3c0-0.4,0.3-0.7,0.7-0.7s0.7,0.3,0.7,0.7C235.7,388.8,233.8,390.8,231.4,390.8z"/>
				<path class="st1" d="M238.7,390.8c-2.4,0-4.3-1.9-4.3-4.3c0-0.4,0.3-0.7,0.7-0.7s0.7,0.3,0.7,0.7c0,1.7,1.4,3,3,3
					c1.7,0,3-1.4,3-3c0-0.4,0.3-0.7,0.7-0.7s0.7,0.3,0.7,0.7C243.1,388.8,241.1,390.8,238.7,390.8z"/>
				<path class="st1" d="M246.1,390.8c-2.4,0-4.3-1.9-4.3-4.3c0-0.4,0.3-0.7,0.7-0.7s0.7,0.3,0.7,0.7c0,1.7,1.4,3,3,3
					c1.7,0,3-1.4,3-3c0-0.4,0.3-0.7,0.7-0.7s0.7,0.3,0.7,0.7C250.5,388.8,248.5,390.8,246.1,390.8z"/>
				<path class="st1" d="M253.5,390.8c-2.4,0-4.3-1.9-4.3-4.3c0-0.4,0.3-0.7,0.7-0.7s0.7,0.3,0.7,0.7c0,1.7,1.4,3,3,3
					c1.7,0,3-1.4,3-3c0-0.4,0.3-0.7,0.7-0.7s0.7,0.3,0.7,0.7C257.8,388.8,255.9,390.8,253.5,390.8z"/>
			</g>
			<g>
				<path class="st1" d="M227.7,397.5c-2.4,0-4.3-1.9-4.3-4.3c0-0.4,0.3-0.7,0.7-0.7s0.7,0.3,0.7,0.7c0,1.7,1.4,3,3,3
					c1.7,0,3-1.4,3-3c0-0.4,0.3-0.7,0.7-0.7s0.7,0.3,0.7,0.7C232,395.5,230.1,397.5,227.7,397.5z"/>
				<path class="st1" d="M235.1,397.5c-2.4,0-4.3-1.9-4.3-4.3c0-0.4,0.3-0.7,0.7-0.7s0.7,0.3,0.7,0.7c0,1.7,1.4,3,3,3
					c1.7,0,3-1.4,3-3c0-0.4,0.3-0.7,0.7-0.7s0.7,0.3,0.7,0.7C239.4,395.5,237.5,397.5,235.1,397.5z"/>
				<path class="st1" d="M242.4,397.5c-2.4,0-4.3-1.9-4.3-4.3c0-0.4,0.3-0.7,0.7-0.7s0.7,0.3,0.7,0.7c0,1.7,1.4,3,3,3s3-1.4,3-3
					c0-0.4,0.3-0.7,0.7-0.7s0.7,0.3,0.7,0.7C246.8,395.5,244.8,397.5,242.4,397.5z"/>
				<path class="st1" d="M249.8,397.5c-2.4,0-4.3-1.9-4.3-4.3c0-0.4,0.3-0.7,0.7-0.7s0.7,0.3,0.7,0.7c0,1.7,1.4,3,3,3
					c1.7,0,3-1.4,3-3c0-0.4,0.3-0.7,0.7-0.7s0.7,0.3,0.7,0.7C254.1,395.5,252.2,397.5,249.8,397.5z"/>
				<path class="st1" d="M257.1,397.5c-2.4,0-4.3-1.9-4.3-4.3c0-0.4,0.3-0.7,0.7-0.7s0.7,0.3,0.7,0.7c0,1.7,1.4,3,3,3
					c1.7,0,3-1.4,3-3c0-0.4,0.3-0.7,0.7-0.7s0.7,0.3,0.7,0.7C261.5,395.5,259.5,397.5,257.1,397.5z"/>
			</g>
			<g>
				<path class="st1" d="M231.4,404.2c-2.4,0-4.3-1.9-4.3-4.3c0-0.4,0.3-0.7,0.7-0.7s0.7,0.3,0.7,0.7c0,1.7,1.4,3,3,3
					c1.7,0,3-1.4,3-3c0-0.4,0.3-0.7,0.7-0.7s0.7,0.3,0.7,0.7C235.7,402.3,233.8,404.2,231.4,404.2z"/>
				<path class="st1" d="M238.7,404.2c-2.4,0-4.3-1.9-4.3-4.3c0-0.4,0.3-0.7,0.7-0.7s0.7,0.3,0.7,0.7c0,1.7,1.4,3,3,3
					c1.7,0,3-1.4,3-3c0-0.4,0.3-0.7,0.7-0.7s0.7,0.3,0.7,0.7C243.1,402.3,241.1,404.2,238.7,404.2z"/>
				<path class="st1" d="M246.1,404.2c-2.4,0-4.3-1.9-4.3-4.3c0-0.4,0.3-0.7,0.7-0.7s0.7,0.3,0.7,0.7c0,1.7,1.4,3,3,3
					c1.7,0,3-1.4,3-3c0-0.4,0.3-0.7,0.7-0.7s0.7,0.3,0.7,0.7C250.5,402.3,248.5,404.2,246.1,404.2z"/>
				<path class="st1" d="M253.5,404.2c-2.4,0-4.3-1.9-4.3-4.3c0-0.4,0.3-0.7,0.7-0.7s0.7,0.3,0.7,0.7c0,1.7,1.4,3,3,3
					c1.7,0,3-1.4,3-3c0-0.4,0.3-0.7,0.7-0.7s0.7,0.3,0.7,0.7C257.8,402.3,255.9,404.2,253.5,404.2z"/>
				<path class="st1" d="M260.8,404.2c-2.4,0-4.3-1.9-4.3-4.3c0-0.4,0.3-0.7,0.7-0.7s0.7,0.3,0.7,0.7c0,1.7,1.4,3,3,3s3-1.4,3-3
					c0-0.4,0.3-0.7,0.7-0.7s0.7,0.3,0.7,0.7C265.2,402.3,263.2,404.2,260.8,404.2z"/>
			</g>
		</g>
		<g>
			<g>
				<rect x="196.6" y="425.2" class="st0" width="3.2" height="17.9"/>
				<path class="st1" d="M199.8,443.7h-3.2c-0.4,0-0.7-0.3-0.7-0.7v-17.8c0-0.4,0.3-0.7,0.7-0.7h3.2c0.4,0,0.7,0.3,0.7,0.7V443
					C200.4,443.4,200.1,443.7,199.8,443.7z M197.3,442.3h1.8v-16.5h-1.8V442.3z"/>
			</g>
			<circle class="st2" cx="198.2" cy="417.1" r="11"/>
			<path class="st1" d="M197.6,432.2h-1c-0.4,0-0.7-0.3-0.7-0.7s0.3-0.7,0.7-0.7h1c0.4,0,0.7,0.3,0.7,0.7S198,432.2,197.6,432.2z"/>
			<path class="st1" d="M199.2,436.7h-1c-0.4,0-0.7-0.3-0.7-0.7s0.3-0.7,0.7-0.7h1c0.4,0,0.7,0.3,0.7,0.7
				C199.9,436.4,199.6,436.7,199.2,436.7z"/>
			<path class="st1" d="M197.6,440.1h-1c-0.4,0-0.7-0.3-0.7-0.7s0.3-0.7,0.7-0.7h1c0.4,0,0.7,0.3,0.7,0.7S198,440.1,197.6,440.1z"/>
		</g>
	</g>
	<g>
		<g>
			<path class="st2" d="M311.4,371.2c-2.5,0.6-4.9,1.5-7.2,2.7c-0.3,0.2-0.5,0.6-0.3,0.9c0.1,0.2,0.4,0.4,0.6,0.4
				c0.1,0,0.2,0,0.3-0.1c2.2-1.1,4.5-2,6.8-2.6c0.4-0.1,0.6-0.5,0.5-0.8C312.2,371.3,311.8,371.1,311.4,371.2z"/>
			<path class="st2" d="M293.7,384.2c-0.3-0.2-0.7-0.1-0.9,0.2c-0.4,0.6-0.7,1.1-1,1.7c-0.2,0.3-0.1,0.7,0.3,0.9
				c0.1,0.1,0.2,0.1,0.3,0.1c0.2,0,0.5-0.1,0.6-0.3c0.3-0.5,0.6-1.1,1-1.6C294.1,384.8,294,384.4,293.7,384.2z"/>
			<path class="st2" d="M290.9,389.3c-0.4-0.1-0.8,0-0.9,0.4c-1.5,3.7-2.3,7.6-2.3,11.6c0,2.9,0.4,5.9,1.2,8.7
				c0.1,0.3,0.4,0.5,0.7,0.5c0.1,0,0.1,0,0.2,0c0.4-0.1,0.6-0.5,0.5-0.8c-0.8-2.7-1.2-5.5-1.2-8.3c0-3.8,0.7-7.6,2.2-11.1
				C291.4,389.8,291.2,389.4,290.9,389.3z"/>
			<path class="st2" d="M348.4,407.5c-0.4-0.1-0.7,0.1-0.8,0.5c-0.1,0.5-0.3,1.1-0.4,1.6c-0.1,0.4,0.1,0.7,0.5,0.8
				c0.1,0,0.1,0,0.2,0c0.3,0,0.6-0.2,0.7-0.5c0.2-0.5,0.3-1.1,0.4-1.7C349,408,348.8,407.6,348.4,407.5z"/>
			<path class="st2" d="M349.1,402.4c-0.4,0-0.7,0.3-0.7,0.6c0,0.6-0.1,1.1-0.1,1.7c0,0.4,0.2,0.7,0.6,0.8h0.1
				c0.3,0,0.6-0.3,0.7-0.6c0.1-0.6,0.1-1.2,0.2-1.8C349.7,402.8,349.4,402.4,349.1,402.4z"/>
			<path class="st2" d="M342.4,382.3c-0.3,0.2-0.4,0.7-0.1,1c3.6,4.7,5.7,10.2,6.1,16c0,0.4,0.3,0.6,0.7,0.6l0,0
				c0.4,0,0.7-0.4,0.6-0.7c-0.4-6.1-2.6-11.9-6.3-16.8C343.1,382.1,342.7,382.1,342.4,382.3z"/>
			<path class="st2" d="M334.3,374.5c-0.4-0.2-0.8-0.4-1.2-0.6c-0.3-0.2-0.7,0-0.9,0.3c-0.2,0.3,0,0.7,0.3,0.9
				c0.4,0.2,0.7,0.4,1.1,0.6c0.1,0.1,0.2,0.1,0.3,0.1c0.2,0,0.5-0.1,0.6-0.3C334.8,375.1,334.7,374.7,334.3,374.5z"/>
			<path class="st2" d="M329.9,372.3c-1.7-0.7-3.6-1.2-5.4-1.5c-0.4-0.1-0.7,0.2-0.8,0.5c-0.1,0.4,0.2,0.7,0.5,0.8
				c1.8,0.3,3.5,0.8,5.2,1.5c0.1,0,0.2,0,0.2,0c0.3,0,0.5-0.2,0.6-0.4C330.4,372.9,330.3,372.5,329.9,372.3z"/>
			<path class="st2" d="M309.6,380.1c-0.2,0.1-0.3,0.1-0.5,0.2c-0.3,0.2-0.5,0.6-0.3,0.9c0.1,0.3,0.4,0.4,0.6,0.4
				c0.1,0,0.2,0,0.3-0.1s0.3-0.1,0.4-0.2c0.3-0.1,0.5-0.6,0.4-0.9C310.4,380.1,310,380,309.6,380.1z"/>
			<path class="st2" d="M301,387.7c-0.3-0.2-0.7-0.2-1,0.2c-1.2,1.7-2.2,3.5-2.9,5.4c-0.1,0.4,0,0.7,0.4,0.9c0.1,0,0.2,0,0.2,0
				c0.3,0,0.5-0.2,0.6-0.4c0.7-1.8,1.6-3.5,2.7-5.1C301.4,388.4,301.3,387.9,301,387.7z"/>
			<path class="st2" d="M296.9,396.5c-0.4-0.1-0.7,0.2-0.8,0.5c-0.1,0.6-0.2,1.3-0.3,2c0,0.4,0.2,0.7,0.6,0.8c0,0,0,0,0.1,0
				c0.3,0,0.6-0.3,0.7-0.6c0.1-0.6,0.2-1.2,0.3-1.9C297.5,396.9,297.3,396.5,296.9,396.5z"/>
			<path class="st2" d="M297.1,402.3c0-0.4-0.3-0.7-0.7-0.7s-0.7,0.3-0.7,0.7c0,0.5,0.1,1.1,0.1,1.6c0,0.3,0.3,0.6,0.7,0.6h0.1
				c0.4,0,0.6-0.4,0.6-0.8C297.2,403.3,297.1,402.8,297.1,402.3z"/>
			<path class="st2" d="M340,394.3c-0.4,0.1-0.6,0.5-0.5,0.9c0.6,2,0.9,4,0.9,6.1c0,0.6,0,1.2-0.1,1.8c0,0.4,0.3,0.7,0.6,0.7
				c0,0,0,0,0.1,0c0.4,0,0.7-0.3,0.7-0.6c0.1-0.6,0.1-1.3,0.1-1.9c0-2.2-0.3-4.4-0.9-6.5C340.7,394.4,340.4,394.2,340,394.3z"/>
			<path class="st2" d="M337.4,387.8c-0.2-0.3-0.7-0.4-1-0.2c-0.3,0.2-0.4,0.7-0.2,1c0.8,1.1,1.5,2.2,2,3.4c0.1,0.2,0.4,0.4,0.6,0.4
				c0.1,0,0.2,0,0.3-0.1c0.3-0.2,0.5-0.6,0.3-0.9C339,390.2,338.3,389,337.4,387.8z"/>
			<path class="st2" d="M329.1,380.7c-0.8-0.4-1.5-0.7-2.3-1c-0.4-0.1-0.7,0-0.9,0.4c-0.1,0.4,0,0.7,0.4,0.9
				c0.7,0.3,1.5,0.6,2.2,0.9c0.1,0,0.2,0.1,0.3,0.1c0.3,0,0.5-0.1,0.6-0.4C329.5,381.3,329.4,380.9,329.1,380.7z"/>
			<path class="st2" d="M337.8,368.7c-3.5-2-7.2-3.5-11.1-4.3c-0.4-0.1-0.7,0.2-0.8,0.5c-0.1,0.4,0.2,0.7,0.5,0.8
				c3.8,0.8,7.4,2.2,10.7,4.2c0.1,0.1,0.2,0.1,0.3,0.1c0.2,0,0.5-0.1,0.6-0.3C338.3,369.3,338.2,368.9,337.8,368.7z"/>
			<path class="st2" d="M323.1,363.8c-0.7-0.1-1.3-0.1-2-0.2c-0.4,0-0.7,0.3-0.7,0.6c0,0.4,0.3,0.7,0.6,0.7c0.6,0,1.3,0.1,1.9,0.2
				h0.1c0.3,0,0.6-0.3,0.7-0.6C323.7,364.1,323.5,363.8,323.1,363.8z"/>
			<path class="st2" d="M316.7,363.6c-6,0.3-11.9,2.1-17.1,5.1c-0.3,0.2-0.4,0.6-0.2,0.9c0.1,0.2,0.4,0.3,0.6,0.3
				c0.1,0,0.2,0,0.3-0.1c5-2.9,10.7-4.6,16.4-5c0.4,0,0.7-0.3,0.6-0.7C317.4,363.8,317,363.5,316.7,363.6z"/>
			<path class="st2" d="M289,379.1c-0.3-0.2-0.7-0.2-1,0.2c-3,4.1-5,8.7-6.1,13.6c-0.1,0.4,0.1,0.7,0.5,0.8c0.1,0,0.1,0,0.2,0
				c0.3,0,0.6-0.2,0.7-0.5c1.1-4.7,3.1-9.1,5.9-13.1C289.4,379.7,289.3,379.3,289,379.1z"/>
			<path class="st2" d="M282,395.8c-0.4-0.1-0.7,0.2-0.8,0.6c-0.1,0.7-0.2,1.4-0.2,2.1c0,0.4,0.3,0.7,0.6,0.7c0,0,0,0,0.1,0
				c0.4,0,0.7-0.3,0.7-0.6c0-0.7,0.1-1.3,0.2-2C282.7,396.2,282.4,395.8,282,395.8z"/>
			<path class="st2" d="M282.4,403c0-0.4-0.3-0.7-0.7-0.7s-0.7,0.3-0.7,0.7c0.2,4.6,1.2,9.1,3.1,13.3c0.1,0.3,0.4,0.4,0.6,0.4
				c0.1,0,0.2,0,0.3-0.1c0.3-0.2,0.5-0.6,0.4-0.9C283.6,411.7,282.6,407.4,282.4,403z"/>
			<path class="st2" d="M287.6,420.2c-0.2-0.3-0.6-0.4-0.9-0.2s-0.4,0.6-0.2,0.9c1.5,2.5,3.3,4.8,5.3,6.8c0.1,0.1,0.3,0.2,0.5,0.2
				c0.2,0,0.3-0.1,0.5-0.2c0.3-0.3,0.3-0.7,0-1C290.8,424.8,289,422.5,287.6,420.2z"/>
			<path class="st2" d="M350.8,419.9c-0.3-0.2-0.7-0.1-0.9,0.2c-1.5,2.5-3.4,4.9-5.5,7c-0.3,0.3-0.3,0.7,0,1
				c0.1,0.1,0.3,0.2,0.5,0.2s0.3-0.1,0.5-0.2c2.2-2.2,4.1-4.6,5.7-7.3C351.3,420.5,351.2,420.1,350.8,419.9z"/>
			<path class="st2" d="M354.4,390.9c-0.4,0.1-0.6,0.5-0.5,0.8c0.8,3.1,1.3,6.3,1.3,9.6c0,5.3-1.1,10.3-3.3,15.1
				c-0.2,0.3,0,0.8,0.3,0.9c0.1,0,0.2,0.1,0.3,0.1c0.3,0,0.5-0.1,0.6-0.4c2.2-4.9,3.4-10.2,3.4-15.6c0-3.4-0.4-6.7-1.3-9.9
				C355.1,391,354.7,390.8,354.4,390.9z"/>
			<path class="st2" d="M353.4,386.2c-0.2-0.3-0.6-0.5-0.9-0.4c-0.3,0.2-0.5,0.6-0.4,0.9c0.3,0.6,0.5,1.2,0.7,1.8
				c0.1,0.3,0.4,0.4,0.6,0.4c0.1,0,0.2,0,0.2,0c0.4-0.1,0.5-0.5,0.4-0.9C353.9,387.5,353.7,386.8,353.4,386.2z"/>
			<path class="st2" d="M349.1,378.8c-0.2-0.3-0.7-0.4-1-0.1c-0.3,0.2-0.4,0.7-0.1,1c0.9,1.3,1.8,2.6,2.6,4c0.1,0.2,0.4,0.4,0.6,0.4
				c0.1,0,0.2,0,0.3-0.1c0.3-0.2,0.4-0.6,0.3-0.9C351,381.5,350.1,380.1,349.1,378.8z"/>
		</g>
		<g>
			<g>
				<g>
					<path class="st2" d="M336.4,396.8l-17.6-20.3l-17.6,20.3l0,0L291.1,443h20.5v-14.4l0,0c0-0.1,0-0.2,0-0.4c0-4,3.2-7.2,7.2-7.2
						s7.2,3.2,7.2,7.2c0,0.1,0,0.2,0,0.4l0,0V443h7.6h12.9L336.4,396.8L336.4,396.8z"/>
					<path class="st1" d="M337.1,396.7c0-0.1-0.1-0.3-0.2-0.4l-17.5-20.2c-0.3-0.3-0.8-0.3-1,0l-17.5,20.2c-0.1,0.1-0.2,0.2-0.2,0.4
						l-10.1,46.1c0,0.2,0,0.4,0.1,0.6c0.1,0.2,0.3,0.3,0.5,0.3h20.5c0.4,0,0.7-0.3,0.7-0.7v-14.2v-0.1v-0.1c0-0.1,0-0.2,0-0.2
						c0-3.6,2.9-6.5,6.5-6.5s6.5,2.9,6.5,6.5c0,0.1,0,0.2,0,0.3v0.1V443c0,0.4,0.3,0.7,0.7,0.7h20.5c0.2,0,0.4-0.1,0.5-0.3
						c0.1-0.2,0.2-0.4,0.1-0.6L337.1,396.7z M326.6,442.3v-13.7v-0.1c0-0.1,0-0.2,0-0.3c0-4.3-3.5-7.9-7.9-7.9
						c-4.3,0-7.9,3.5-7.9,7.9c0,0.1,0,0.2,0,0.3v0.1v13.7h-19l9.9-45.1l17-19.6l17,19.6l9.9,45.1
						C345.6,442.3,326.6,442.3,326.6,442.3z"/>
				</g>
			</g>
			<g>
				<g>
					<g>
						<polygon class="st0" points="290.7,419.7 297.6,426.6 318.1,402.9 314.4,399.2 						"/>
						<path class="st1" d="M314.9,398.7c-0.3-0.3-0.7-0.3-0.9,0l-23.7,20.5c-0.1,0.1-0.2,0.3-0.2,0.5c0,0.2,0.1,0.4,0.2,0.5l6.9,6.9
							c0.1,0.1,0.3,0.2,0.5,0.2l0,0c0.2,0,0.4-0.1,0.5-0.2l20.5-23.7c0.2-0.3,0.2-0.7,0-0.9L314.9,398.7z M297.6,425.6l-5.9-5.9
							l22.6-19.6l2.8,2.8L297.6,425.6z"/>
					</g>
					<path class="st1" d="M318.2,398.1l-2.5,2.5c-0.3,0.3-0.3,0.7,0,1c0.1,0.1,0.3,0.2,0.5,0.2c0.2,0,0.4-0.1,0.5-0.2l2.5-2.5
						c0.3-0.3,0.3-0.7,0-1C318.9,397.8,318.5,397.8,318.2,398.1z"/>
				</g>
				<g>
					<g>
						<polygon class="st0" points="319.4,402.9 339.9,426.6 346.8,419.7 323.1,399.2 						"/>
						<path class="st1" d="M323.6,398.7c-0.3-0.2-0.7-0.2-0.9,0l-3.7,3.7c-0.3,0.3-0.3,0.7,0,0.9l20.4,23.7c0.1,0.1,0.3,0.2,0.5,0.2
							l0,0c0.2,0,0.4-0.1,0.5-0.2l6.9-6.9c0.1-0.1,0.2-0.3,0.2-0.5c0-0.2-0.1-0.4-0.2-0.5L323.6,398.7z M339.9,425.6L320.3,403
							l2.8-2.8l22.6,19.6L339.9,425.6z"/>
					</g>
					<path class="st1" d="M319.3,398.1c-0.3-0.3-0.7-0.3-1,0c-0.3,0.3-0.3,0.7,0,1l2.5,2.5c0.1,0.1,0.3,0.2,0.5,0.2
						c0.2,0,0.4-0.1,0.5-0.2c0.3-0.3,0.3-0.7,0-1L319.3,398.1z"/>
				</g>
				<g>
					<g>
						<polygon class="st0" points="319.4,394.3 323.1,398 346.8,377.5 339.9,370.6 						"/>
						<path class="st1" d="M340.4,370.1c-0.1-0.1-0.3-0.2-0.5-0.2c-0.2,0-0.4,0.1-0.5,0.2l-20.5,23.7c-0.2,0.3-0.2,0.7,0,0.9
							l3.7,3.7c0.1,0.1,0.3,0.2,0.5,0.2c0.2,0,0.3-0.1,0.4-0.2l23.7-20.4c0.1-0.1,0.2-0.3,0.2-0.5s-0.1-0.4-0.2-0.5L340.4,370.1z
							 M323.1,397.1l-2.8-2.8l19.6-22.6l5.9,5.9L323.1,397.1z"/>
					</g>
					<path class="st1" d="M320.8,395.6l-2.5,2.5c-0.3,0.3-0.3,0.7,0,1c0.1,0.1,0.3,0.2,0.5,0.2c0.2,0,0.4-0.1,0.5-0.2l2.5-2.5
						c0.3-0.3,0.3-0.7,0-1C321.5,395.4,321,395.4,320.8,395.6z"/>
				</g>
				<g>
					<g>
						<polygon class="st0" points="290.7,377.5 314.4,398 318.1,394.3 297.6,370.6 						"/>
						<path class="st1" d="M298.2,370.1c-0.1-0.1-0.3-0.2-0.5-0.2c-0.2,0-0.4,0.1-0.5,0.2l-6.9,6.9c-0.1,0.1-0.2,0.3-0.2,0.5
							s0.1,0.4,0.2,0.5l23.7,20.5c0.1,0.1,0.3,0.2,0.4,0.2c0.2,0,0.4-0.1,0.5-0.2l3.7-3.7c0.3-0.3,0.3-0.7,0-0.9L298.2,370.1z
							 M314.4,397.1l-22.6-19.6l5.9-5.9l19.6,22.6L314.4,397.1z"/>
					</g>
					<path class="st1" d="M316.8,395.6c-0.3-0.3-0.7-0.3-1,0c-0.3,0.3-0.3,0.7,0,1l2.5,2.5c0.1,0.1,0.3,0.2,0.5,0.2
						c0.2,0,0.4-0.1,0.5-0.2c0.3-0.3,0.3-0.7,0-1L316.8,395.6z"/>
				</g>
				<circle class="st1" cx="318.7" cy="398.6" r="2"/>
			</g>
		</g>
	</g>
	<g>
		<g>
			<path class="st1" d="M380.1,383.3c-0.4,0-0.7,0.3-0.7,0.7v0.9c0,0.4,0.3,0.7,0.7,0.7c0.4,0,0.7-0.3,0.7-0.7V384
				C380.8,383.6,380.5,383.3,380.1,383.3z"/>
			<path class="st1" d="M380.1,386.9c-0.4,0-0.7,0.3-0.7,0.7v0.9c0,0.4,0.3,0.7,0.7,0.7c0.4,0,0.7-0.3,0.7-0.7v-0.9
				C380.8,387.2,380.5,386.9,380.1,386.9z"/>
			<path class="st1" d="M382.4,385.5h-0.9c-0.4,0-0.7,0.3-0.7,0.7c0,0.4,0.3,0.7,0.7,0.7h0.9c0.4,0,0.7-0.3,0.7-0.7
				C383,385.8,382.7,385.5,382.4,385.5z"/>
			<path class="st1" d="M378.7,385.5h-0.9c-0.4,0-0.7,0.3-0.7,0.7c0,0.4,0.3,0.7,0.7,0.7h0.9c0.4,0,0.7-0.3,0.7-0.7
				C379.4,385.8,379.1,385.5,378.7,385.5z"/>
		</g>
		<g>
			<path class="st1" d="M388,392.9c-0.4,0-0.7,0.3-0.7,0.7v0.9c0,0.4,0.3,0.7,0.7,0.7c0.4,0,0.7-0.3,0.7-0.7v-0.9
				C388.7,393.2,388.4,392.9,388,392.9z"/>
			<path class="st1" d="M388,396.5c-0.4,0-0.7,0.3-0.7,0.7v0.8c0,0.4,0.3,0.7,0.7,0.7c0.4,0,0.7-0.3,0.7-0.7v-0.9
				C388.7,396.8,388.4,396.5,388,396.5z"/>
			<path class="st1" d="M390.3,395.2h-0.9c-0.4,0-0.7,0.3-0.7,0.7s0.3,0.7,0.7,0.7h0.9c0.4,0,0.7-0.3,0.7-0.7
				C390.9,395.5,390.6,395.2,390.3,395.2z"/>
			<path class="st1" d="M386.7,395.2h-0.9c-0.4,0-0.7,0.3-0.7,0.7s0.3,0.7,0.7,0.7h0.9c0.4,0,0.7-0.3,0.7-0.7
				C387.4,395.5,387.1,395.2,386.7,395.2z"/>
		</g>
		<g>
			<circle class="st0" cx="416" cy="397" r="10.7"/>
			<path class="st1" d="M416,385.5c-6.3,0-11.4,5.1-11.4,11.4c0,6.3,5.1,11.4,11.4,11.4s11.4-5.1,11.4-11.4
				C427.4,390.7,422.3,385.5,416,385.5z M416,407c-5.5,0-10.1-4.5-10.1-10.1s4.5-10.1,10.1-10.1s10,4.6,10,10.2S421.5,407,416,407z"
				/>
		</g>
		<circle class="st2" cx="416" cy="397" r="8.5"/>
		<g>
			<rect x="359.5" y="440.2" class="st1" width="5.3" height="3.4"/>
			<polygon class="st2" points="374.2,428.2 368.5,418.4 371.8,418.4 362.2,401.7 352.6,418.4 355.8,418.4 350.2,428.2 354.1,428.2 
				347.2,440.2 377.2,440.2 370.3,428.2 			"/>
		</g>
		<g>
			<polygon class="st0" points="374.8,398.3 375.5,399.9 414.4,399.9 434,443 435.7,443 415.4,398.3 			"/>
			<path class="st1" d="M416,398.1c-0.1-0.2-0.4-0.4-0.6-0.4h-40.6c-0.4,0-0.7,0.3-0.7,0.7s0.3,0.7,0.7,0.7H415l19.7,43.3h-39.5
				c-0.4,0-0.7,0.3-0.7,0.7c0,0.4,0.3,0.7,0.7,0.7h40.6c0.2,0,0.5-0.1,0.6-0.3c0.1-0.2,0.1-0.4,0-0.7L416,398.1z"/>
			<g>
				<polygon class="st0" points="374.8,398.3 395.1,443 435.7,443 415.4,398.3 				"/>
				<path class="st1" d="M416,398.1c-0.1-0.2-0.4-0.4-0.6-0.4h-40.6c-0.4,0-0.7,0.3-0.7,0.7s0.3,0.7,0.7,0.7H415l19.7,43.3h-39.5
					c-0.4,0-0.7,0.3-0.7,0.7c0,0.4,0.3,0.7,0.7,0.7h40.6c0.2,0,0.5-0.1,0.6-0.3c0.1-0.2,0.1-0.4,0-0.7L416,398.1z"/>
			</g>
			<g>
				<polygon class="st0" points="354.5,443 395.1,443 374.8,398.3 				"/>
				<path class="st1" d="M375.4,398.1c-0.1-0.2-0.4-0.4-0.6-0.4c-0.3,0-0.5,0.2-0.6,0.4l-20.3,44.6c-0.1,0.2-0.1,0.5,0,0.7
					s0.3,0.3,0.6,0.3h40.6l0,0c0.4,0,0.7-0.3,0.7-0.7c0-0.1,0-0.3-0.1-0.4L375.4,398.1z M355.5,442.3l19.3-42.3l19.2,42.3H355.5z"/>
			</g>
			<path class="st2" d="M374.7,410.2c0,0-2.2,9.7-5.1,16.4c-2.7,6.1-5.6,11.3-8,14.2h13.1h13.1c-2.3-2.9-5.3-8-8-14.2
				C376.9,419.9,374.7,410.2,374.7,410.2z"/>
		</g>
		<g>
			<rect x="431.2" y="439.4" class="st1" width="6.5" height="4.2"/>
			<polygon class="st0" points="449.3,424.7 442.3,412.5 446.3,412.5 434.5,392 422.6,412.5 426.7,412.5 419.7,424.7 424.5,424.7 
				416,439.4 453,439.4 444.5,424.7 			"/>
			<polygon class="st2" points="446.5,424.7 449.3,424.7 442.3,412.5 444.3,412.5 446.3,412.5 435.5,393.8 424.7,412.5 426.7,412.5 
				428.7,412.5 421.7,424.7 424.5,424.7 426.6,424.7 418.1,439.4 453,439.4 444.5,424.7 			"/>
			<path class="st1" d="M445.7,425.3h3.6l0,0c0.4,0,0.7-0.3,0.7-0.7c0-0.2-0.1-0.3-0.1-0.4l-6.4-11h2.9l0,0c0.4,0,0.7-0.3,0.7-0.7
				c0-0.2-0.1-0.3-0.1-0.4l-11.8-20.5c-0.1-0.2-0.3-0.3-0.6-0.3c-0.2,0-0.5,0.1-0.6,0.3l-12,20.6c-0.1,0.2-0.1,0.5,0,0.7
				s0.3,0.3,0.6,0.3h2.9l-6.4,11.1c-0.1,0.2-0.1,0.5,0,0.7c0.1,0.2,0.3,0.3,0.6,0.3h3.6l-7.9,13.7c-0.1,0.2-0.1,0.5,0,0.7
				c0.1,0.2,0.3,0.3,0.6,0.3h37c0.2,0,0.5-0.1,0.6-0.3c0.1-0.2,0.1-0.5,0-0.7L445.7,425.3z M417.2,438.7l7.9-13.7
				c0.1-0.2,0.1-0.5,0-0.7c-0.1-0.2-0.3-0.3-0.6-0.3h-3.6l6.4-11.1c0.1-0.2,0.1-0.5,0-0.7c-0.1-0.2-0.3-0.3-0.6-0.3h-2.9l10.7-18.5
				l10.7,18.5h-2.9c-0.2,0-0.5,0.1-0.6,0.3c-0.1,0.2-0.1,0.5,0,0.7l6.4,11.1h-3.6c-0.2,0-0.5,0.1-0.6,0.3c-0.1,0.2-0.1,0.5,0,0.7
				l7.9,13.7H417.2z"/>
		</g>
		<g>
			<path class="st1" d="M367.2,393.3c-0.4,0-0.7,0.3-0.7,0.7v0.9c0,0.4,0.3,0.7,0.7,0.7c0.4,0,0.7-0.3,0.7-0.7V394
				C367.9,393.6,367.6,393.3,367.2,393.3z"/>
			<path class="st1" d="M367.2,397c-0.4,0-0.7,0.3-0.7,0.7v0.9c0,0.4,0.3,0.7,0.7,0.7c0.4,0,0.7-0.3,0.7-0.7v-0.9
				C367.9,397.3,367.6,397,367.2,397z"/>
			<path class="st1" d="M369.5,395.6h-0.9c-0.4,0-0.7,0.3-0.7,0.7c0,0.4,0.3,0.7,0.7,0.7h0.9c0.4,0,0.7-0.3,0.7-0.7
				C370.2,395.9,369.9,395.6,369.5,395.6z"/>
			<path class="st1" d="M365.9,395.6H365c-0.4,0-0.7,0.3-0.7,0.7c0,0.4,0.3,0.7,0.7,0.7h0.9c0.4,0,0.7-0.3,0.7-0.7
				C366.6,395.9,366.2,395.6,365.9,395.6z"/>
		</g>
		<g>
			<path class="st1" d="M399.8,387.3c-0.4,0-0.7,0.3-0.7,0.7v1.1c0,0.4,0.3,0.7,0.7,0.7c0.4,0,0.7-0.3,0.7-0.7V388
				C400.5,387.7,400.2,387.3,399.8,387.3z"/>
			<path class="st1" d="M399.8,391.7c-0.4,0-0.7,0.3-0.7,0.7v1.1c0,0.4,0.3,0.7,0.7,0.7c0.4,0,0.7-0.3,0.7-0.7v-1.1
				C400.5,392,400.2,391.7,399.8,391.7z"/>
			<path class="st1" d="M402.5,390h-1.1c-0.4,0-0.7,0.3-0.7,0.7c0,0.4,0.3,0.7,0.7,0.7h1.1c0.4,0,0.7-0.3,0.7-0.7
				C403.2,390.3,402.9,390,402.5,390z"/>
			<path class="st1" d="M398.2,390h-1.1c-0.4,0-0.7,0.3-0.7,0.7c0,0.4,0.3,0.7,0.7,0.7h1.1c0.4,0,0.7-0.3,0.7-0.7
				C398.9,390.3,398.6,390,398.2,390z"/>
		</g>
	</g>
	<g>
		<g>
			<polygon class="st2" points="487,443 540.5,443 513.8,387.2 			"/>
			<polygon class="st0" points="505.4,404.6 509.5,401.9 510.4,403.5 513.8,401.3 515.4,405.1 517.8,401.8 522.6,405.6 513.8,387.2 
							"/>
			<path class="st1" d="M514.4,386.9c-0.1-0.2-0.4-0.4-0.6-0.4s-0.5,0.2-0.6,0.4l-26.8,55.8c-0.1,0.2-0.1,0.5,0,0.7s0.3,0.3,0.6,0.3
				h53.5c0.2,0,0.5-0.1,0.6-0.3c0.1-0.2,0.1-0.4,0-0.7L514.4,386.9z M488.1,442.3l25.7-53.5l25.7,53.5H488.1z"/>
		</g>
		<g>
			<polygon class="st2" points="449.6,443 511.8,443 480.7,378.1 			"/>
			<polygon class="st0" points="468.7,402.4 475.2,396.6 477.9,399.3 480.7,393.5 482.9,396.1 484.8,393.5 490.4,398.3 480.7,378.1 
							"/>
			<path class="st1" d="M481.3,377.8c-0.1-0.2-0.4-0.4-0.6-0.4s-0.5,0.2-0.6,0.4L449,442.7c-0.1,0.2-0.1,0.5,0,0.7s0.3,0.3,0.6,0.3
				h62.3l0,0c0.4,0,0.7-0.3,0.7-0.7c0-0.1,0-0.3-0.1-0.4L481.3,377.8z M450.6,442.3l30-62.6l30,62.6H450.6z"/>
		</g>
	</g>
	<g>
		<path class="st1" d="M494.1,376.6c-0.4,0-0.7,0.3-0.7,0.7v2.7c0,0.4,0.3,0.7,0.7,0.7c0.4,0,0.7-0.3,0.7-0.7v-2.7
			C494.8,376.9,494.5,376.6,494.1,376.6z"/>
		<path class="st1" d="M494.1,382.5c-0.4,0-0.7,0.3-0.7,0.7v2.7c0,0.4,0.3,0.7,0.7,0.7c0.4,0,0.7-0.3,0.7-0.7v-2.7
			C494.8,382.8,494.5,382.5,494.1,382.5z"/>
		<path class="st1" d="M498.4,380.9h-2.7c-0.4,0-0.7,0.3-0.7,0.7s0.3,0.7,0.7,0.7h2.7c0.4,0,0.7-0.3,0.7-0.7
			S498.8,380.9,498.4,380.9z"/>
		<path class="st1" d="M492.5,380.9h-2.7c-0.4,0-0.7,0.3-0.7,0.7s0.3,0.7,0.7,0.7h2.7c0.4,0,0.7-0.3,0.7-0.7
			S492.9,380.9,492.5,380.9z"/>
	</g>
	<g>
		<path class="st1" d="M529.7,396.3c-0.4,0-0.7,0.3-0.7,0.7v2.1c0,0.4,0.3,0.7,0.7,0.7s0.7-0.3,0.7-0.7V397
			C530.3,396.7,530,396.3,529.7,396.3z"/>
		<path class="st1" d="M529.7,400.9c-0.4,0-0.7,0.3-0.7,0.7v2.1c0,0.4,0.3,0.7,0.7,0.7s0.7-0.3,0.7-0.7v-2.1
			C530.3,401.2,530,400.9,529.7,400.9z"/>
		<path class="st1" d="M532.9,399.6h-2.1c-0.4,0-0.7,0.3-0.7,0.7c0,0.4,0.3,0.7,0.7,0.7h2.1c0.4,0,0.7-0.3,0.7-0.7
			C533.6,399.9,533.3,399.6,532.9,399.6z"/>
		<path class="st1" d="M528.4,399.6h-2.1c-0.4,0-0.7,0.3-0.7,0.7c0,0.4,0.3,0.7,0.7,0.7h2.1c0.4,0,0.7-0.3,0.7-0.7
			C529.1,399.9,528.8,399.6,528.4,399.6z"/>
	</g>
	<g>
		<path class="st1" d="M462.3,392.4c-0.4,0-0.7,0.3-0.7,0.7v1.8c0,0.4,0.3,0.7,0.7,0.7c0.4,0,0.7-0.3,0.7-0.7v-1.8
			C463,392.7,462.7,392.4,462.3,392.4z"/>
		<path class="st1" d="M462.3,396.3c-0.4,0-0.7,0.3-0.7,0.7v1.8c0,0.4,0.3,0.7,0.7,0.7c0.4,0,0.7-0.3,0.7-0.7V397
			C463,396.7,462.7,396.3,462.3,396.3z"/>
		<path class="st1" d="M465.2,395.3h-1.8c-0.4,0-0.7,0.3-0.7,0.7s0.3,0.7,0.7,0.7h1.8c0.4,0,0.7-0.3,0.7-0.7
			C465.9,395.6,465.6,395.3,465.2,395.3z"/>
		<path class="st1" d="M461.3,395.3h-1.8c-0.4,0-0.7,0.3-0.7,0.7s0.3,0.7,0.7,0.7h1.8c0.4,0,0.7-0.3,0.7-0.7
			C461.9,395.6,461.6,395.3,461.3,395.3z"/>
	</g>
	<g>
		<path class="st1" d="M501.3,393.1c-0.4,0-0.7,0.3-0.7,0.7v0.7c0,0.4,0.3,0.7,0.7,0.7s0.7-0.3,0.7-0.7v-0.7
			C502,393.4,501.7,393.1,501.3,393.1z"/>
		<path class="st1" d="M501.3,396c-0.4,0-0.7,0.3-0.7,0.7v0.7c0,0.4,0.3,0.7,0.7,0.7s0.7-0.3,0.7-0.7v-0.7
			C502,396.3,501.7,396,501.3,396z"/>
		<path class="st1" d="M503.1,394.9h-0.7c-0.4,0-0.7,0.3-0.7,0.7s0.3,0.7,0.7,0.7h0.7c0.4,0,0.7-0.3,0.7-0.7
			C503.8,395.2,503.5,394.9,503.1,394.9z"/>
		<path class="st1" d="M500.2,394.9h-0.7c-0.4,0-0.7,0.3-0.7,0.7s0.3,0.7,0.7,0.7h0.7c0.4,0,0.7-0.3,0.7-0.7
			C500.9,395.2,500.6,394.9,500.2,394.9z"/>
	</g>
	<g>
		<path class="st1" d="M522.1,384.7c-0.4,0-0.7,0.3-0.7,0.7v0.8c0,0.4,0.3,0.7,0.7,0.7c0.4,0,0.7-0.3,0.7-0.7v-0.8
			C522.8,385,522.5,384.7,522.1,384.7z"/>
		<path class="st1" d="M522.1,388c-0.4,0-0.7,0.3-0.7,0.7v0.8c0,0.4,0.3,0.7,0.7,0.7c0.4,0,0.7-0.3,0.7-0.7v-0.8
			C522.8,388.3,522.5,388,522.1,388z"/>
		<path class="st1" d="M524.2,386.8h-0.8c-0.4,0-0.7,0.3-0.7,0.7s0.3,0.7,0.7,0.7h0.8c0.4,0,0.7-0.3,0.7-0.7
			C524.8,387.1,524.5,386.8,524.2,386.8z"/>
		<path class="st1" d="M520.9,386.8H520c-0.4,0-0.7,0.3-0.7,0.7s0.3,0.7,0.7,0.7h0.8c0.4,0,0.7-0.3,0.7-0.7
			C521.6,387.1,521.2,386.8,520.9,386.8z"/>
	</g>
	<g>
		<g>
			<rect x="552.2" y="377.5" class="st0" width="21.9" height="16.8"/>
			<path class="st1" d="M574.1,376.8h-21.9c-0.4,0-0.6,0.3-0.6,0.6v16.8c0,0.4,0.3,0.6,0.6,0.6h21.9c0.4,0,0.6-0.3,0.6-0.6v-16.7
				C574.7,377.1,574.5,376.8,574.1,376.8z M573.5,393.6h-20.6v-15.5h20.6V393.6z"/>
		</g>
		<g>
			<g>
				<polygon class="st0" points="550.8,404 549.9,410.8 576.5,410.8 575.5,404 				"/>
				<polygon class="st0" points="548.5,420.6 547.6,427.4 578.8,427.4 577.9,420.6 				"/>
				<polygon class="st2" points="547.6,427.4 546.2,437.1 562.2,437.1 564.2,437.1 580.2,437.1 578.8,427.4 				"/>
				<polygon class="st2" points="549.9,410.8 548.5,420.6 577.9,420.6 576.5,410.8 				"/>
				<polygon class="st2" points="564.2,394.2 562.2,394.2 552.2,394.2 550.8,404 575.5,404 574.2,394.2 				"/>
			</g>
			<path class="st1" d="M574.8,394.1c0-0.3-0.3-0.5-0.6-0.5h-22c-0.3,0-0.6,0.2-0.6,0.5l-6,42.9c0,0.2,0,0.4,0.1,0.5
				c0.1,0.1,0.3,0.2,0.5,0.2h34c0.2,0,0.4-0.1,0.5-0.2c0.1-0.1,0.2-0.3,0.1-0.5L574.8,394.1z M546.9,436.5l5.8-41.6h20.9l5.8,41.6
				H546.9z"/>
		</g>
		<g>
			<g>
				<polygon class="st2" points="552.2,394.2 574.2,394.2 575.9,390.2 550.4,390.2 				"/>
			</g>
			<path class="st1" d="M575.9,389.6h-25.5c-0.2,0-0.4,0.1-0.5,0.3c-0.1,0.2-0.1,0.4-0.1,0.6l1.8,4c0.1,0.2,0.3,0.4,0.6,0.4h22
				c0.3,0,0.5-0.1,0.6-0.4l1.8-4c0.1-0.2,0.1-0.4-0.1-0.6C576.4,389.7,576.2,389.6,575.9,389.6z M573.8,393.6h-21.1l-1.2-2.8H575
				L573.8,393.6z"/>
		</g>
		<g>
			<polygon class="st2" points="542.4,437.1 540.6,443 585.8,443 584,437.1 			"/>
			<path class="st1" d="M584.6,437c-0.1-0.3-0.3-0.4-0.6-0.4h-41.6c-0.3,0-0.5,0.2-0.6,0.4l-1.8,5.9c-0.1,0.2,0,0.4,0.1,0.6
				c0.1,0.2,0.3,0.3,0.5,0.3h45.2l0,0c0.4,0,0.6-0.3,0.6-0.6c0-0.1,0-0.2-0.1-0.3L584.6,437z M541.5,442.4l1.4-4.6h40.6l1.4,4.6
				H541.5z"/>
		</g>
		<g>
			<circle class="st0" cx="563.2" cy="384.5" r="3.3"/>
			<path class="st1" d="M563.2,380.5c-2.2,0-4,1.8-4,4s1.8,4,4,4s4-1.8,4-4C567.1,382.3,565.4,380.5,563.2,380.5z M563.2,387.2
				c-1.5,0-2.7-1.2-2.7-2.7s1.2-2.7,2.7-2.7s2.7,1.2,2.7,2.7S564.7,387.2,563.2,387.2z"/>
		</g>
		<g>
			<polygon class="st2" points="552.2,377.5 574.1,377.5 563.2,370.2 			"/>
			<path class="st1" d="M574.4,376.9l-10.9-7.2c-0.2-0.1-0.5-0.1-0.7,0l-10.9,7.2c-0.2,0.2-0.3,0.4-0.3,0.7c0.1,0.3,0.3,0.5,0.6,0.5
				h21.9l0,0c0.4,0,0.6-0.3,0.6-0.6S574.6,377,574.4,376.9z M554.3,376.8l8.8-5.9l8.8,5.9H554.3z"/>
		</g>
		<g>
			<circle class="st2" cx="563.2" cy="368.8" r="1.4"/>
			<path class="st1" d="M563.2,366.8c-1.1,0-2,0.9-2,2c0,1.1,0.9,2,2,2c1.1,0,2-0.9,2-2C565.2,367.7,564.3,366.8,563.2,366.8z
				 M563.2,369.6c-0.4,0-0.8-0.3-0.8-0.8c0-0.4,0.3-0.8,0.8-0.8s0.8,0.3,0.8,0.8C563.9,369.2,563.6,369.6,563.2,369.6z"/>
		</g>
		<g>
			<path class="st1" d="M591,374.9l-1,0.4c-0.3,0.1-0.5,0.5-0.3,0.8c0.1,0.2,0.3,0.4,0.6,0.4c0.1,0,0.2,0,0.2,0l1-0.4
				c0.3-0.1,0.5-0.5,0.3-0.8C591.7,374.9,591.3,374.8,591,374.9z"/>
			<path class="st1" d="M588.3,376l-0.7,0.3c-0.3,0.1-0.5,0.5-0.3,0.8c0.1,0.2,0.3,0.4,0.6,0.4c0.1,0,0.2,0,0.2,0l0.7-0.3
				c0.3-0.1,0.5-0.5,0.3-0.8C589,376.1,588.6,375.9,588.3,376z"/>
			<path class="st1" d="M585.8,377.1l-6.1,2.5c-0.3,0.1-0.5,0.5-0.3,0.8c0.1,0.2,0.3,0.4,0.6,0.4c0.1,0,0.2,0,0.2,0l6.1-2.5
				c0.3-0.1,0.5-0.5,0.3-0.8C586.5,377.1,586.1,377,585.8,377.1z"/>
			<path class="st1" d="M578.2,380.3l-1.8,0.8c-0.3,0.1-0.5,0.5-0.3,0.8c0.1,0.2,0.3,0.4,0.6,0.4c0.1,0,0.2,0,0.2,0l1.8-0.8
				c0.3-0.1,0.5-0.5,0.3-0.8C578.9,380.3,578.5,380.1,578.2,380.3z"/>
			<path class="st1" d="M580.1,388.1l-3.2-1.3c-0.3-0.1-0.7,0-0.8,0.3c-0.1,0.3,0,0.7,0.3,0.8l3.2,1.3c0.1,0,0.2,0,0.2,0
				c0.2,0,0.5-0.1,0.6-0.4C580.6,388.6,580.4,388.2,580.1,388.1z"/>
			<path class="st1" d="M582,388.8l-0.5-0.2c-0.3-0.1-0.7,0-0.8,0.3c-0.1,0.3,0,0.7,0.3,0.8l0.5,0.2c0.1,0,0.2,0,0.2,0
				c0.2,0,0.5-0.1,0.6-0.4C582.4,389.3,582.3,389,582,388.8z"/>
			<path class="st1" d="M584.7,390l-0.7-0.3c-0.3-0.1-0.7,0-0.8,0.3s0,0.7,0.3,0.8l0.7,0.3c0.1,0,0.2,0,0.2,0c0.2,0,0.5-0.1,0.6-0.4
				C585.1,390.5,585,390.1,584.7,390z"/>
			<path class="st1" d="M589.7,392.1l-3.4-1.4c-0.3-0.1-0.7,0-0.8,0.3c-0.1,0.3,0,0.7,0.3,0.8l3.4,1.4c0.1,0,0.2,0,0.2,0
				c0.2,0,0.5-0.1,0.6-0.4C590.2,392.6,590,392.2,589.7,392.1z"/>
			<path class="st1" d="M591.5,392.8l-0.4-0.2c-0.3-0.1-0.7,0-0.8,0.3c-0.1,0.3,0,0.7,0.3,0.8l0.4,0.3c0.1,0,0.2,0,0.2,0
				c0.2,0,0.5-0.1,0.6-0.4C592,393.3,591.8,393,591.5,392.8z"/>
			<path class="st1" d="M591.2,383.8h-3.5c-0.4,0-0.6,0.3-0.6,0.6c0,0.3,0.3,0.6,0.6,0.6h3.5c0.4,0,0.6-0.3,0.6-0.6
				C591.8,384.1,591.6,383.8,591.2,383.8z"/>
			<path class="st1" d="M585.9,383.8h-0.7c-0.4,0-0.6,0.3-0.6,0.6c0,0.3,0.3,0.6,0.6,0.6h0.7c0.4,0,0.6-0.3,0.6-0.6
				C586.5,384.1,586.2,383.8,585.9,383.8z"/>
			<path class="st1" d="M583.4,383.8h-4.8c-0.4,0-0.6,0.3-0.6,0.6c0,0.3,0.3,0.6,0.6,0.6h4.8c0.4,0,0.6-0.3,0.6-0.6
				C584,384.1,583.8,383.8,583.4,383.8z"/>
			<path class="st1" d="M577.1,383.8h-0.5c-0.4,0-0.6,0.3-0.6,0.6c0,0.3,0.3,0.6,0.6,0.6h0.5c0.4,0,0.6-0.3,0.6-0.6
				C577.7,384.1,577.4,383.8,577.1,383.8z"/>
		</g>
		<g>
			<path class="st1" d="M535.7,392.5l-0.9,0.4c-0.3,0.1-0.5,0.5-0.3,0.8c0.1,0.2,0.3,0.4,0.6,0.4c0.1,0,0.2,0,0.2,0l0.9-0.4
				c0.3-0.1,0.5-0.5,0.3-0.8C536.4,392.5,536,392.3,535.7,392.5z"/>
			<path class="st1" d="M538.8,391.2l-1.5,0.6c-0.3,0.1-0.5,0.5-0.3,0.8c0.1,0.2,0.3,0.4,0.6,0.4c0.1,0,0.2,0,0.2,0l1.5-0.6
				c0.3-0.1,0.5-0.5,0.3-0.8C539.5,391.2,539.1,391.1,538.8,391.2z"/>
			<path class="st1" d="M543.3,389.3l-3.1,1.3c-0.3,0.1-0.5,0.5-0.3,0.8c0.1,0.2,0.3,0.4,0.6,0.4c0.1,0,0.2,0,0.2,0l3.1-1.3
				c0.3-0.1,0.5-0.5,0.3-0.8C544,389.3,543.6,389.2,543.3,389.3z"/>
			<path class="st1" d="M547.5,387.5l-2.6,1.1c-0.3,0.1-0.5,0.5-0.3,0.8c0.1,0.2,0.3,0.4,0.6,0.4c0.1,0,0.2,0,0.2,0l2.6-1.1
				c0.3-0.1,0.5-0.5,0.3-0.8C548.2,387.6,547.8,387.4,547.5,387.5z"/>
			<path class="st1" d="M549.5,386.7l-0.4,0.2c-0.3,0.1-0.5,0.5-0.3,0.8c0.1,0.2,0.3,0.4,0.6,0.4c0.1,0,0.2,0,0.2,0l0.4-0.2
				c0.3-0.1,0.5-0.5,0.3-0.8C550.1,386.7,549.8,386.6,549.5,386.7z"/>
			<path class="st1" d="M549.9,381l-0.9-0.4c-0.3-0.1-0.7,0-0.8,0.3c-0.1,0.3,0,0.7,0.3,0.8l0.9,0.4c0.1,0,0.2,0,0.2,0
				c0.2,0,0.5-0.1,0.6-0.4C550.4,381.5,550.3,381.2,549.9,381z"/>
			<path class="st1" d="M547.3,379.9l-4.5-1.9c-0.3-0.1-0.7,0-0.8,0.3c-0.1,0.3,0,0.7,0.3,0.8l4.5,1.9c0.1,0,0.2,0,0.2,0
				c0.2,0,0.5-0.1,0.6-0.4C547.8,380.4,547.6,380.1,547.3,379.9z"/>
			<path class="st1" d="M541.3,377.4l-0.4-0.2c-0.3-0.1-0.7,0-0.8,0.3c-0.1,0.3,0,0.7,0.3,0.8l0.4,0.2c0.1,0,0.2,0,0.2,0
				c0.2,0,0.5-0.1,0.6-0.4C541.7,377.9,541.6,377.5,541.3,377.4z"/>
			<path class="st1" d="M539,376.5l-0.6-0.2c-0.3-0.1-0.7,0-0.8,0.3c-0.1,0.3,0,0.7,0.3,0.8l0.6,0.2c0.1,0,0.2,0,0.2,0
				c0.2,0,0.5-0.1,0.6-0.4C539.5,377,539.3,376.6,539,376.5z"/>
			<path class="st1" d="M537,375.6l-1.7-0.7c-0.3-0.1-0.7,0-0.8,0.3c-0.1,0.3,0,0.7,0.3,0.8l1.7,0.7c0.1,0,0.2,0,0.2,0
				c0.2,0,0.5-0.1,0.6-0.4C537.5,376.1,537.3,375.8,537,375.6z"/>
			<path class="st1" d="M535.7,383.8h-0.6c-0.4,0-0.6,0.3-0.6,0.6c0,0.3,0.3,0.6,0.6,0.6h0.6c0.4,0,0.6-0.3,0.6-0.6
				C536.3,384.1,536.1,383.8,535.7,383.8z"/>
			<path class="st1" d="M541.6,383.8h-4.1c-0.4,0-0.6,0.3-0.6,0.6c0,0.3,0.3,0.6,0.6,0.6h4.1c0.4,0,0.6-0.3,0.6-0.6
				C542.2,384.1,542,383.8,541.6,383.8z"/>
			<path class="st1" d="M544.1,383.8h-0.7c-0.4,0-0.6,0.3-0.6,0.6c0,0.3,0.3,0.6,0.6,0.6h0.7c0.4,0,0.6-0.3,0.6-0.6
				C544.7,384.1,544.5,383.8,544.1,383.8z"/>
			<path class="st1" d="M549.7,383.8h-4.1c-0.4,0-0.6,0.3-0.6,0.6c0,0.3,0.3,0.6,0.6,0.6h4.1c0.4,0,0.6-0.3,0.6-0.6
				C550.3,384.1,550,383.8,549.7,383.8z"/>
		</g>
	</g>
	<g>
		<g>
			<path class="st0" d="M641.6,428.3L641.6,428.3H633l-4.2-4.5c0-0.1-0.1-0.1-0.2-0.1h-4.9v-3.3c0-0.1-0.1-0.3-0.3-0.3h-9.3v-3.7
				c0-0.1-0.1-0.3-0.3-0.3h-10c-0.1,0-0.3,0.1-0.3,0.3v3.7h-1.9c-0.1,0-0.3,0.1-0.3,0.3v3.3h-2.8c-0.1,0-0.2,0-0.2,0.1l-4.8,7.3H591
				c-0.1,0-0.2,0-0.2,0.1c0,0.1-0.1,0.1,0,0.2l2.8,11.3c0,0.1,0.1,0.2,0.3,0.2h40.3c0.1,0,0.2-0.1,0.2-0.1l7.5-14.2
				c0-0.1,0-0.2,0-0.3C641.8,428.4,641.7,428.3,641.6,428.3z"/>
			<path class="st1" d="M641.6,427.7h-8.3l-4-4.3c-0.2-0.2-0.4-0.3-0.7-0.3h-4.2v-2.7c0-0.5-0.4-0.9-0.9-0.9h-8.6v-3
				c0-0.5-0.4-0.9-0.9-0.9h-10c-0.5,0-0.9,0.4-0.9,0.9v3h-1.3c-0.5,0-0.9,0.4-0.9,0.9v2.7h-2.1c-0.3,0-0.6,0.2-0.8,0.4l-4.6,7H591
				c-0.3,0-0.5,0.1-0.7,0.4c-0.2,0.2-0.2,0.5-0.2,0.8l2.8,11.3c0.1,0.4,0.5,0.7,0.9,0.7h40.3c0.3,0,0.7-0.2,0.8-0.5l7.5-14.2
				c0.1-0.3,0.1-0.6,0-0.9C642.2,427.8,641.9,427.7,641.6,427.7z M633.9,442.4h-39.7l-2.6-10.5h2.1c0.2,0,0.4-0.1,0.5-0.3l4.7-7.1
				h2.6c0.4,0,0.7-0.3,0.7-0.7v-2.9h1.6c0.4,0,0.7-0.3,0.7-0.7v-3.3h9.2v3.3c0,0.4,0.3,0.7,0.7,0.7h8.9v2.9c0,0.4,0.3,0.7,0.7,0.7
				h4.7l4.1,4.3c0.1,0.1,0.3,0.2,0.5,0.2l0,0h8L633.9,442.4z"/>
		</g>
		<path class="st2" d="M628.7,428.5h-28.8c-0.1,0-0.3,0.1-0.3,0.3v2.1c0,0.1,0.1,0.3,0.3,0.3h28.8c0.1,0,0.3-0.1,0.3-0.3v-2.1
			C629,428.7,628.9,428.5,628.7,428.5z"/>
		<path class="st2" d="M633.5,432.7h-37.8c-0.1,0-0.3,0.1-0.3,0.3v2.1c0,0.1,0.1,0.3,0.3,0.3h37.8c0.1,0,0.3-0.1,0.3-0.3V433
			C633.7,432.8,633.6,432.7,633.5,432.7z"/>
		<g>
			<path class="st2" d="M636.4,438.3h-43.6c-0.1,0-0.2,0-0.2,0.1s-0.1,0.1,0,0.2l1.1,4.2c0,0.1,0.1,0.2,0.3,0.2h40.3
				c0.1,0,0.2-0.1,0.2-0.1l2.2-4.2c0-0.1,0-0.2,0-0.3C636.6,438.3,636.5,438.3,636.4,438.3z"/>
			<path class="st1" d="M636.4,437.6h-43.6c-0.3,0-0.6,0.1-0.7,0.4c-0.2,0.2-0.2,0.5-0.2,0.8l1.1,4.2c0.1,0.4,0.5,0.7,0.9,0.7h40.3
				c0.3,0,0.7-0.2,0.8-0.5l2.2-4.2c0.1-0.3,0.1-0.6,0-0.9C637,437.8,636.7,437.6,636.4,437.6z M634,442.4h-39.8l-0.9-3.4h42.4
				L634,442.4z"/>
		</g>
		<g>
			<path class="st2" d="M635.1,440.6h-41.8c-0.1,0-0.2,0-0.2,0.1c0,0.1-0.1,0.1,0,0.2l0.5,1.9c0,0.1,0.1,0.2,0.3,0.2h40.3
				c0.1,0,0.2-0.1,0.2-0.1l0.9-1.9c0-0.1,0-0.2,0-0.3C635.3,440.6,635.2,440.6,635.1,440.6z"/>
			<path class="st1" d="M635.1,439.9h-41.8c-0.3,0-0.6,0.1-0.7,0.4c-0.2,0.2-0.2,0.5-0.2,0.8l0.6,1.9c0.1,0.4,0.5,0.7,0.9,0.7h40.3
				c0.4,0,0.7-0.2,0.8-0.5l0.9-1.9c0.1-0.3,0.1-0.6,0-0.9C635.7,440.1,635.4,439.9,635.1,439.9z M634,442.4h-39.8l-0.3-1.1h40.6
				L634,442.4z"/>
		</g>
	</g>
	<g>
		<path class="st1" d="M615.1,395.7c-0.4,0-0.6,0.3-0.6,0.6c0,0.3,0.3,0.6,0.6,0.6c3.1,0,5.7,2.8,5.7,6.3c0,0.4,0.3,0.6,0.6,0.6
			s0.6-0.3,0.6-0.6C622,399.1,618.9,395.7,615.1,395.7z"/>
		<path class="st1" d="M628.3,398.5c-4.2,0-7.6,2.1-7.6,4.8c0,0.4,0.3,0.6,0.6,0.6s0.6-0.3,0.6-0.6c0-1.9,2.9-3.5,6.3-3.5
			c0.4,0,0.6-0.3,0.6-0.6C629,398.8,628.7,398.5,628.3,398.5z"/>
	</g>
	<g>
		<g>
			<path class="st0" d="M842.3,367.4l22.1-0.2l-10.9,0.1l-11.2-15.2c-0.3-0.5-1-0.8-1.6-0.7l-1.7,0.1c-0.3,0-0.5,0.1-0.6,0.3l0,0
				c-0.2,0.2-0.3,0.6-0.2,1L842.3,367.4z"/>
			<path class="st1" d="M841.7,367.6c0.1,0.3,0.3,0.5,0.6,0.5l0,0l22.1-0.2c0.4,0,0.6-0.3,0.6-0.7c0-0.4-0.3-0.6-0.7-0.6l-10.6,0.1
				l-11.1-15c-0.4-0.6-1.3-1-2-1c-0.1,0-0.1,0-0.2,0l-1.7,0.1c-0.4,0-0.8,0.2-1,0.5c-0.4,0.4-0.6,1-0.4,1.6L841.7,367.6z
				 M838.8,352.2c0.1-0.1,0.1-0.1,0.2-0.1l1.7-0.1c0.4,0,0.8,0.2,1,0.5l10.5,14.3l-9.5,0.1l-4.1-14.3
				C838.7,352.4,838.7,352.3,838.8,352.2z"/>
		</g>
		<g>
			<path class="st0" d="M867.6,370.5C867.6,370.4,867.6,370.4,867.6,370.5C867.6,370.4,867.6,370.4,867.6,370.5L867.6,370.5
				L867.6,370.5z"/>
			<path class="st1" d="M867,370.5L867,370.5c0,0.4,0.3,0.7,0.6,0.7l0,0c0.3,0,0.6-0.3,0.6-0.6l0,0l0,0l0,0v-0.1v-0.1l0,0l0,0l0,0
				l0,0c0-0.4-0.3-0.6-0.6-0.6l0,0c-0.4,0-0.6,0.3-0.6,0.6l0,0C867,370.4,867,370.4,867,370.5L867,370.5L867,370.5z"/>
		</g>
		<g>
			<path class="st0" d="M839,389.4l1.7,0.1c0.6,0,1.3-0.3,1.6-0.7l11.3-15.3l-11.2-0.1l-4.2,14.7c-0.1,0.3,0,0.6,0.1,0.8
				C838.4,389.3,838.7,389.4,839,389.4z"/>
			<path class="st1" d="M838.9,390.1l1.7,0.1c0.8,0.1,1.7-0.4,2.2-1l11.3-15.2c0.1-0.2,0.2-0.5,0.1-0.7c-0.1-0.2-0.3-0.4-0.6-0.4
				l-11.2-0.1l0,0c-0.3,0-0.5,0.2-0.6,0.5l-4.3,14.7c-0.1,0.5-0.1,1,0.2,1.4S838.4,390,838.9,390.1z M838.7,388.4l4.1-14.3l9.5,0.1
				l-10.5,14.3c-0.2,0.3-0.6,0.5-1,0.5c0,0,0,0-0.1,0l-1.7-0.1c-0.1,0-0.2-0.1-0.3-0.1C838.7,388.6,838.7,388.5,838.7,388.4z"/>
		</g>
		<g>
			<path class="st0" d="M828.5,370.5l-2.3,8.2c-0.1,0.3-0.1,0.6,0.1,0.8c0.2,0.2,0.4,0.4,0.7,0.4h0.4c0.6,0,1.3-0.3,1.6-0.7l0,0
				l3.5-5.8h-0.2h-0.1C830.9,372.6,828.5,371.2,828.5,370.5c0-0.2,0.1-0.4,0.4-0.6l0,0c0.9-0.9,3.2-2.2,3.3-2.3h0.1h0.6h-0.5
				l-3.5-5.8l0,0c-0.4-0.4-1.1-0.8-1.6-0.7h-0.4c-0.3,0-0.5,0.1-0.6,0.3c-0.2,0.2-0.3,0.6-0.2,1L828.5,370.5z"/>
			<path class="st1" d="M825.8,379.9c0.3,0.4,0.7,0.7,1.2,0.7h0.4c0.8,0,1.7-0.4,2.2-1l0.1-0.1l3.5-5.8c0.1-0.2,0.1-0.4,0-0.6
				s-0.3-0.3-0.6-0.3h-0.1c-2.2-1.3-3.1-2-3.3-2.3c0,0,0.1-0.1,0.1-0.2c0.6-0.6,2.2-1.6,3.1-2.1h0.1l0,0h0.5c0.4,0,0.6-0.3,0.6-0.6
				l0,0c0-0.4-0.3-0.6-0.6-0.6l0,0h-0.1l-3.3-5.5c0,0,0-0.1-0.1-0.1c-0.5-0.6-1.3-1-2.1-1h-0.1h-0.4c-0.4,0-0.8,0.2-1,0.5
				c-0.4,0.4-0.5,1-0.3,1.6l2.2,8l-2.2,8C825.5,379,825.5,379.5,825.8,379.9z M826.9,362.1C826.9,362,826.8,362,826.9,362.1
				c0-0.1-0.1-0.2,0-0.3c0,0,0.1-0.1,0.2-0.1h0.4c0.3,0,0.8,0.2,1,0.5l3,5.1c-0.7,0.4-2,1.2-2.8,1.8L826.9,362.1z M826.8,378.9
				L826.8,378.9l2-7c0.5,0.5,1.4,1.1,2.8,1.9l-3,5.1c-0.2,0.3-0.7,0.5-1,0.5h-0.4c-0.1,0-0.2,0-0.2-0.1
				C826.8,379.1,826.8,379,826.8,378.9z"/>
		</g>
		<g>
			<path class="st0" d="M842.3,367.4l-9.3,0.1L842.3,367.4z"/>
			<path class="st1" d="M833,368.2L833,368.2l9.3-0.1c0.4,0,0.6-0.3,0.6-0.6l0,0c0-0.2-0.1-0.3-0.2-0.5c-0.1-0.1-0.3-0.2-0.5-0.2
				l0,0l-9.3,0.1l0,0c-0.4,0-0.6,0.3-0.6,0.7C832.4,367.9,832.6,368.2,833,368.2z"/>
		</g>
		<g>
			<polygon class="st0" points="832.5,373.4 842.3,373.4 842.3,373.4 			"/>
			<path class="st1" d="M832.5,374l9.8,0.1c0.3,0,0.5-0.2,0.6-0.4c0.1-0.2,0-0.4-0.1-0.6c-0.1-0.2-0.3-0.3-0.5-0.3l-9.8-0.1l0,0
				c-0.4,0-0.6,0.3-0.6,0.6C831.9,373.7,832.2,374,832.5,374z"/>
		</g>
		<g>
			<polygon class="st0" points="853.6,373.6 853.6,373.6 864.5,373.7 			"/>
			<path class="st1" d="M853.5,374.2l10.9,0.1l0,0c0.4,0,0.6-0.3,0.7-0.6l0,0l0,0c0-0.3-0.3-0.6-0.6-0.6l0,0l0,0l0,0l0,0l-10.9-0.1
				l0,0c-0.4,0-0.6,0.3-0.6,0.6C852.9,373.9,853.2,374.2,853.5,374.2z"/>
		</g>
		<g>
			<path class="st0" d="M832.2,373.3L832.2,373.3h0.3l0,0l9.8,0.1l0,0l11.2,0.1l0,0l10.9,0.1c0.9,0,1.7-0.3,2.3-0.9
				c0.6-0.6,0.9-1.4,0.9-2.2v-0.1v-0.1c0-0.8-0.3-1.6-0.9-2.2c-0.6-0.6-1.4-0.9-2.2-0.9l-22.1,0.2l0,0l-9.3,0.1h-0.6h-0.1
				c-0.1,0.1-2.5,1.4-3.3,2.3l0,0c-0.2,0.2-0.4,0.4-0.4,0.6C828.5,371.2,830.9,372.6,832.2,373.3z"/>
			<path class="st1" d="M831.9,373.9c0.1,0.1,0.3,0.1,0.4,0.1l9.9,0.1l0,0l22.1,0.2l0,0c1,0,2-0.4,2.7-1.1c0.7-0.7,1.1-1.6,1.1-2.6
				v-0.1v-0.1c0-1-0.4-2-1.1-2.7c-0.7-0.7-1.7-1.1-2.7-1.1l0,0l-22.1,0.2l0,0l-9.9,0.1c-0.2,0-0.3,0-0.4,0.1
				c-0.4,0.2-2.6,1.5-3.5,2.4c-0.2,0.2-0.6,0.6-0.6,1.1C827.9,370.8,827.9,371.6,831.9,373.9z M829.4,370.3c0.6-0.6,2.2-1.6,3.1-2.1
				l9.9-0.1l0,0l22.1-0.2v-0.6v0.6c0.7,0,1.3,0.3,1.8,0.7c0.5,0.5,0.7,1.1,0.7,1.8l0,0v0.1c0,0.7-0.3,1.3-0.7,1.7
				c-0.5,0.5-1.1,0.7-1.8,0.7l0,0l-22.1-0.2l0,0l-9.9-0.1c-2.2-1.3-3.1-2-3.3-2.3C829.2,370.4,829.3,370.4,829.4,370.3z"/>
		</g>
	</g>
	<g>
		<path class="st1" d="M807.4,365.7h13.4c0.2,0,0.4-0.2,0.4-0.4c0-0.2-0.2-0.4-0.4-0.4h-13.4c-0.2,0-0.4,0.2-0.4,0.4
			C807.1,365.5,807.2,365.7,807.4,365.7z"/>
		<path class="st1" d="M804.6,365.7h1c0.2,0,0.4-0.2,0.4-0.4c0-0.2-0.2-0.4-0.4-0.4h-1c-0.2,0-0.4,0.2-0.4,0.4
			C804.2,365.5,804.4,365.7,804.6,365.7z"/>
		<path class="st1" d="M808.8,369.6h4c0.2,0,0.4-0.2,0.4-0.4c0-0.2-0.2-0.4-0.4-0.4h-4c-0.2,0-0.4,0.2-0.4,0.4
			C808.4,369.4,808.6,369.6,808.8,369.6z"/>
		<path class="st1" d="M814.1,369.6h5.3c0.2,0,0.4-0.2,0.4-0.4c0-0.2-0.2-0.4-0.4-0.4h-5.3c-0.2,0-0.4,0.2-0.4,0.4
			C813.7,369.4,813.9,369.6,814.1,369.6z"/>
		<path class="st1" d="M811.2,373.5h9.5c0.2,0,0.4-0.2,0.4-0.4c0-0.2-0.2-0.4-0.4-0.4h-9.5c-0.2,0-0.4,0.2-0.4,0.4
			C810.8,373.3,811,373.5,811.2,373.5z"/>
		<path class="st1" d="M813.8,377.4h3c0.2,0,0.4-0.2,0.4-0.4s-0.2-0.4-0.4-0.4h-3c-0.2,0-0.4,0.2-0.4,0.4S813.6,377.4,813.8,377.4z"
			/>
		<path class="st1" d="M818.1,377.4h0.7c0.2,0,0.4-0.2,0.4-0.4s-0.2-0.4-0.4-0.4h-0.7c-0.2,0-0.4,0.2-0.4,0.4
			S817.9,377.4,818.1,377.4z"/>
	</g>
	<g>
		<path class="st1" d="M857.8,399.8c-3.5,0-6.3,3.1-6.3,6.9c0,0.4,0.4,0.8,0.8,0.8s0.8-0.4,0.8-0.8c0-2.9,2.1-5.2,4.7-5.2
			c0.4,0,0.8-0.4,0.8-0.8C858.6,400.3,858.3,399.8,857.8,399.8z"/>
		<path class="st1" d="M846.2,402.2c-0.4,0-0.8,0.4-0.8,0.8s0.4,0.8,0.8,0.8c3.1,0,5.2,1.5,5.2,2.8c0,0.4,0.4,0.8,0.8,0.8
			s0.8-0.4,0.8-0.8C853.1,404.1,850.1,402.2,846.2,402.2z"/>
	</g>
	<g>
		<g>
			<path class="st0" d="M695.7,415.8c-0.2,0-0.5,0-0.7,0s-0.4,0-0.5,0c-0.5,0-0.9,0-1.4,0s-0.9,0-1.4,0c-0.2,0-0.4,0-0.5,0
				c-0.2,0-0.5,0-0.7,0c-15.8,1.2-28.4,12.7-30.1,27.2h19.4h26.5h19.4C724.1,428.5,711.4,417,695.7,415.8z"/>
			<path class="st2" d="M695.7,418.2c-0.2,0-0.5,0-0.7,0s-0.4,0-0.5,0c-0.5,0-0.9,0-1.4,0s-0.9,0-1.4,0c-0.2,0-0.4,0-0.5,0
				c-0.2,0-0.5,0-0.7,0c-14.9,1.1-27,11.4-29.7,24.8h19h26.5h19C722.7,429.6,710.6,419.3,695.7,418.2z"/>
			<path class="st1" d="M695.7,415.2c-0.2,0-0.5,0-0.7,0s-0.4,0-0.5,0c-1.1,0-1.7,0-2.8,0c-0.2,0-0.4,0-0.5,0c-0.2,0-0.5,0-0.7,0
				c-16.1,1.2-29,12.9-30.7,27.8c0,0.2,0,0.4,0.2,0.5c0.1,0.1,0.3,0.2,0.5,0.2h65.3c0.2,0,0.4-0.1,0.5-0.2s0.2-0.3,0.2-0.5
				C724.7,428,711.8,416.3,695.7,415.2z M661.2,442.4c1.9-14,14.2-24.8,29.4-25.9c0.2,0,0.5,0,0.7,0s0.3,0,0.5,0c1,0,1.6,0,2.7,0
				c0.2,0,0.3,0,0.5,0s0.5,0,0.7,0c15.2,1.1,27.4,11.9,29.4,25.9H661.2z"/>
			<g>
				<g>
					<g>
						<path class="st0" d="M723.5,405c-1.1,0.2-2.3,0.5-3.6,1c-1.3,0.4-2.7,1-4.1,1.7c-1.4,0.7-2.9,1.6-4.3,2.6
							c-0.7,0.5-1.4,1-2.1,1.7c-0.3,0.3-0.7,0.6-1,0.9c-0.3,0.3-0.7,0.6-1,1c-0.5,0.5-1,1-1.5,1.6c-0.1,0.2-0.3,0.3-0.4,0.5
							c-0.3,0.4-0.6,0.7-0.9,1.1l-0.4,0.6c-0.1,0.2-0.3,0.4-0.4,0.6c-0.5,0.8-1.1,1.6-1.6,2.4c-0.2,0.4-0.5,0.8-0.7,1.2
							s-0.4,0.8-0.7,1.2c-0.2,0.4-0.4,0.8-0.6,1.2c-0.2,0.4-0.4,0.8-0.6,1.3c-0.2,0.4-0.4,0.8-0.6,1.3c-0.2,0.4-0.3,0.8-0.5,1.3
							c-0.2,0.4-0.3,0.8-0.5,1.2s-0.3,0.8-0.4,1.2c-0.1,0.4-0.3,0.8-0.4,1.2c-0.1,0.4-0.3,0.8-0.3,1.2c-0.2,0.8-0.4,1.6-0.6,2.3
							c0,0.2-0.1,0.4-0.1,0.6c0,0.2-0.1,0.4-0.1,0.5c-0.1,0.4-0.1,0.7-0.2,1.1c-0.1,0.7-0.3,1.4-0.4,2c-0.1,0.6-0.2,1.2-0.2,1.8
							c-0.1,0.6-0.1,1.1-0.2,1.6c0,0.1,0,0.2,0,0.3h9.4c0-0.4,0-0.9,0-1.4s0-1,0-1.6s0-1.2,0-1.8c0-0.3,0-0.6,0-0.9c0,0,0,0,0-0.1
							c0-0.3,0-0.7,0-0.9c0.1-0.7,0.1-1.3,0.2-2c0-0.4,0.1-0.7,0.1-1.1s0.1-0.7,0.1-1.1c0.1-0.4,0.1-0.7,0.2-1.1
							c0.1-0.4,0.1-0.7,0.2-1.1c0.1-0.4,0.1-0.8,0.2-1.1c0.1-0.4,0.2-0.7,0.3-1.1s0.2-0.8,0.3-1.1s0.2-0.5,0.3-0.8
							c0.2-0.5,0.3-1,0.5-1.5c0.2-0.4,0.3-0.7,0.5-1.1c0.3-0.8,0.7-1.5,1-2.2c0.1-0.2,0.2-0.4,0.3-0.5l0.3-0.5
							c0.2-0.4,0.4-0.7,0.6-1.1c0.2-0.3,0.4-0.7,0.7-1c0.2-0.3,0.4-0.7,0.7-1c0.2-0.3,0.5-0.6,0.7-1c0.2-0.3,0.5-0.6,0.8-0.9
							c0.5-0.6,1.1-1.2,1.6-1.7c1.1-1.1,2.3-2.1,3.5-2.9c1.2-0.8,2.4-1.6,3.5-2.1c1.1-0.6,2.2-1.1,3.2-1.4c0.9-0.4,1.8-0.6,2.5-0.8
							c-0.1-0.4-0.2-0.9-0.3-1.3C725.4,404.6,724.5,404.7,723.5,405z"/>
						<path class="st1" d="M726.8,404.4c-0.1-0.3-0.4-0.6-0.7-0.5c-0.9,0.1-1.9,0.3-2.8,0.4c-1.2,0.2-2.4,0.6-3.7,1
							c-1.3,0.4-2.6,1-4.2,1.7c-1.3,0.6-2.8,1.5-4.4,2.6l0,0c-0.2,0.2-0.4,0.3-0.6,0.5c-0.5,0.4-1,0.8-1.5,1.2
							c-0.1,0.1-0.2,0.2-0.3,0.3c-0.2,0.2-0.5,0.4-0.7,0.6l-1,1c-0.4,0.3-0.7,0.7-1,1c-0.2,0.2-0.3,0.4-0.5,0.6l-0.4,0.5l0,0
							l-1.3,1.7c-0.1,0.1-0.2,0.3-0.3,0.4c0,0.1-0.1,0.1-0.1,0.2L703,418c-0.5,0.7-0.9,1.3-1.3,2l-0.7,1.2c-0.2,0.3-0.3,0.6-0.4,0.8
							l-0.4,0.8c-0.2,0.3-0.3,0.6-0.5,0.9l-1.1,2.5l0,0l-0.9,2.5c-0.1,0.3-0.2,0.6-0.3,0.9c0,0.1-0.1,0.3-0.1,0.4l-0.5,1.5
							c-0.1,0.3-0.2,0.6-0.3,0.9l-0.6,2.3l-0.4,2.2c0,0.2-0.1,0.5-0.1,0.7c-0.1,0.5-0.2,0.9-0.2,1.3l-0.5,3.4v0.3
							c0,0.2,0,0.4,0.2,0.5c0.1,0.1,0.3,0.2,0.5,0.2h9.4c0.2,0,0.3-0.1,0.5-0.2c0.1-0.1,0.2-0.3,0.2-0.5l-0.1-3c0-0.3,0-0.7,0-1.1
							c0-0.2,0-0.4,0-0.7v-1c0-0.2,0-0.6,0-0.9l0.2-2.1c0-0.2,0-0.5,0.1-0.7l0.2-1.4c0-0.1,0-0.3,0.1-0.4c0-0.2,0.1-0.4,0.1-0.7
							l0.4-2.2l0.6-2.2l0.2-0.8c0.1-0.3,0.2-0.5,0.3-0.8c0.1-0.2,0.2-0.5,0.2-0.7l0.5-1.1c0.2-0.6,0.5-1.1,0.8-1.7
							c0.1-0.2,0.1-0.3,0.2-0.4c0-0.1,0.1-0.1,0.1-0.2s0.1-0.2,0.2-0.3l0.9-1.6l0.7-1c0.2-0.3,0.4-0.6,0.6-0.9l0.7-1
							c0.1-0.2,0.3-0.4,0.5-0.6c0.1-0.1,0.2-0.2,0.3-0.3c0.3-0.4,0.7-0.8,1-1.1c0.2-0.2,0.3-0.4,0.5-0.5c1.3-1.2,2.3-2.1,3.4-2.8
							c1.3-0.9,2.4-1.6,3.4-2.1c1.1-0.6,2.1-1,3.1-1.4c0.8-0.3,1.6-0.6,2.4-0.8c0.3-0.1,0.5-0.4,0.5-0.8
							C727,405.2,726.9,404.8,726.8,404.4z M723.7,406c-1,0.4-2.1,0.9-3.3,1.5c-1.1,0.5-2.3,1.3-3.6,2.2c-1.1,0.8-2.2,1.7-3.5,3l0,0
							c-0.2,0.2-0.3,0.4-0.5,0.5c-0.4,0.4-0.8,0.8-1.1,1.2c-0.1,0.1-0.2,0.2-0.3,0.3c-0.2,0.2-0.3,0.4-0.5,0.6l-0.7,1
							c-0.3,0.3-0.5,0.7-0.7,1l-0.7,1.1l0,0l-0.9,1.6c-0.1,0.1-0.1,0.3-0.2,0.4c0,0.1-0.1,0.1-0.1,0.2c-0.1,0.2-0.1,0.3-0.2,0.5
							c-0.3,0.6-0.6,1.2-0.8,1.8l-0.5,1.1c-0.1,0.2-0.2,0.5-0.2,0.7c-0.1,0.2-0.2,0.5-0.3,0.8l-0.3,0.8l0,0l-0.6,2.3l0,0l-0.4,2.2
							c-0.1,0.3-0.1,0.5-0.1,0.8c0,0.1,0,0.3-0.1,0.4l-0.2,1.4c0,0.3-0.1,0.5-0.1,0.8l-0.2,2.1c0,0.3,0,0.7-0.1,1v1
							c0,0.2,0,0.4,0,0.7c0,0.4,0,0.8,0,1.1l0.1,2.3h-8l0.4-3c0.1-0.4,0.1-0.8,0.2-1.3c0-0.2,0.1-0.5,0.1-0.7l0.3-1.6l0.7-2.9
							c0.1-0.3,0.1-0.5,0.2-0.8l0.5-1.5c0-0.1,0.1-0.3,0.1-0.4c0.1-0.3,0.2-0.5,0.3-0.8l0.9-2.5l1.1-2.5c0.1-0.3,0.3-0.6,0.4-0.8
							l0.4-0.8c0.1-0.3,0.3-0.5,0.4-0.8l0.7-1.2c0.4-0.7,0.8-1.3,1.3-1.9l0.3-0.4c0.1-0.1,0.1-0.1,0.2-0.2c0.1-0.1,0.2-0.2,0.2-0.3
							l1.3-1.7l0.4-0.5c0.2-0.2,0.4-0.4,0.5-0.6c0.3-0.3,0.6-0.7,0.9-1l1-1c0.2-0.2,0.4-0.4,0.7-0.6c0.1-0.1,0.2-0.2,0.4-0.3
							c0.5-0.4,1-0.8,1.5-1.1c0.2-0.2,0.4-0.3,0.6-0.5c1.6-1.1,3-1.9,4.2-2.5c1.5-0.7,2.8-1.3,4-1.7c1.2-0.4,2.4-0.7,3.5-1
							c0.7-0.1,1.4-0.3,2.1-0.4v0.1C725,405.5,724.4,405.8,723.7,406z"/>
					</g>
					<g>
						<path class="st0" d="M738.2,401c-2.4-0.8-4.9-0.7-7.1,0.1c-0.1-3.3-1.3-6.5-3.7-9.1c-5.3-5.7-14.2-6.1-19.9-0.8
							c-1.1,1-2,2.2-2.7,3.5c5-2.4,11.9-1.6,17.5,2.4c0.6,0.5,1.2,0.9,1.8,1.4c-0.6-0.4-1.3-0.7-2.1-0.9c-5.8-1.9-12.1,1.3-14,7.2
							c-0.4,1.1-0.5,2.3-0.5,3.4c2.5-3.6,7.5-5.7,13-5.1c2.2,0.2,4.2,0.9,5.9,1.8c-0.3,2.1-1.2,4.2-2.6,6.1c-3.1,4.2-8,6.4-12.3,6
							c0.9,0.7,1.8,1.3,3,1.7c5.6,2.2,12.2-0.2,14.6-5.5c0.3-0.6,0.5-1.3,0.7-2c0,0.7,0,1.4-0.1,2.1c-0.6,6.4-4.5,11.7-9.6,13.8
							c1.4,0.3,2.9,0.3,4.4,0.2c7.7-0.8,13.3-7.3,12.5-14.5c-0.4-3.3-2-6.1-4.5-8.2c1.4,0.3,2.7,0.9,4,1.6c4.8,2.7,7.6,7.3,7.6,11.7
							c0.7-0.9,1.2-2,1.6-3.1C747.3,409.1,744.1,402.9,738.2,401z"/>
						<path class="st1" d="M738.4,400.4c-2.2-0.7-4.5-0.7-6.7-0.1c-0.3-3.2-1.6-6.3-3.9-8.7c-2.8-3-6.7-4.7-10.9-4.7
							c-3.7,0-7.3,1.4-10,3.9c-1.1,1.1-2.1,2.3-2.9,3.6c-0.1,0.3-0.1,0.6,0.1,0.8c0.2,0.2,0.5,0.3,0.8,0.1c1.8-0.8,3.9-1.3,6-1.3
							c3.1,0,6.3,0.9,9.2,2.6c-0.5-0.1-1.1-0.1-1.6-0.1c-5.1,0-9.6,3.3-11.2,8.2c-0.4,1.2-0.6,2.4-0.6,3.6c0,0.3,0.2,0.5,0.5,0.6
							s0.6,0,0.7-0.2c2.2-3,6.2-4.9,10.6-4.9c0.6,0,1.2,0,1.8,0.1c1.9,0.2,3.6,0.7,5.2,1.5c-0.4,1.9-1.2,3.7-2.4,5.3
							c-2.6,3.6-6.8,5.8-10.8,5.8c-0.3,0-0.6,0-0.9,0c-0.3,0-0.6,0.1-0.7,0.4c-0.1,0.3,0,0.6,0.2,0.8c0.9,0.8,2,1.4,3.1,1.8
							c1.5,0.6,3,0.9,4.6,0.9c4,0,7.7-1.9,9.9-5c-1.1,5.2-4.5,9.5-9,11.3c-0.3,0.1-0.4,0.4-0.4,0.7c0,0.3,0.2,0.5,0.5,0.6
							c1,0.2,2,0.3,3,0.3c0.5,0,1.1,0,1.6-0.1c4.1-0.4,7.8-2.4,10.2-5.5c2.2-2.8,3.2-6.3,2.8-9.7c-0.3-2.4-1.2-4.7-2.8-6.6
							c0.5,0.2,0.9,0.4,1.4,0.7c4.4,2.5,7.3,6.8,7.2,11.1c0,0.3,0.2,0.5,0.5,0.6s0.6,0,0.7-0.2c0.7-1,1.3-2.1,1.7-3.3
							c1-3,0.7-6.2-0.8-9C743.9,403.4,741.4,401.3,738.4,400.4z M744.8,414.8c-0.1,0.4-0.3,0.8-0.5,1.2c-0.7-4-3.6-7.9-7.7-10.2
							c-1.3-0.7-2.7-1.3-4.2-1.7c-0.3-0.1-0.6,0.1-0.7,0.3c-0.1,0.3-0.1,0.6,0.2,0.8c2.4,2,3.9,4.8,4.2,7.7c0.4,3.1-0.5,6.2-2.6,8.8
							c-2.2,2.8-5.6,4.6-9.3,5c-0.7,0.1-1.4,0.1-2.1,0.1c4.4-2.7,7.5-7.7,8.1-13.3c0.1-0.7,0.1-1.4,0.1-2.2c0-0.3-0.3-0.6-0.6-0.6
							s-0.6,0.2-0.7,0.5c-0.1,0.6-0.3,1.2-0.6,1.8c-1.6,3.6-5.4,5.9-9.6,5.9c-1.4,0-2.8-0.3-4.1-0.8c-0.3-0.1-0.7-0.3-1-0.5
							c4-0.4,8.1-2.7,10.7-6.3c1.4-1.9,2.4-4.1,2.8-6.4c0-0.3-0.1-0.5-0.3-0.7c-1.9-1-3.9-1.7-6.1-1.9c-0.6-0.1-1.3-0.1-1.9-0.1
							c-4,0-7.7,1.4-10.3,3.9c0.1-0.4,0.2-0.8,0.3-1.3c1.4-4.3,5.4-7.2,9.9-7.2c1.1,0,2.2,0.2,3.2,0.5c0.7,0.2,1.3,0.5,1.9,0.9
							c0.3,0.2,0.7,0.1,0.9-0.2c0.2-0.3,0.2-0.7-0.1-0.9c-0.6-0.5-1.2-1-1.8-1.5c-3.5-2.5-7.6-3.9-11.6-3.9c-1.6,0-3.2,0.2-4.6,0.7
							c0.5-0.6,1-1.1,1.5-1.6c2.5-2.3,5.7-3.6,9.1-3.6c3.7,0,7.3,1.6,9.9,4.3c2.2,2.4,3.5,5.5,3.6,8.7c0,0.2,0.1,0.4,0.3,0.5
							s0.4,0.1,0.6,0.1c2.1-0.8,4.5-0.8,6.6-0.1c2.7,0.8,4.8,2.7,6.1,5.2C745.4,409.3,745.6,412.1,744.8,414.8z"/>
					</g>
				</g>
				<g>
					<g>
						<path class="st0" d="M691,441.1c-0.1-0.6-0.2-1.2-0.2-1.8c-0.1-0.6-0.2-1.3-0.4-2c-0.1-0.3-0.1-0.7-0.2-1.1
							c0-0.2-0.1-0.4-0.1-0.5c0-0.2-0.1-0.4-0.1-0.6c-0.2-0.7-0.4-1.5-0.6-2.3c-0.1-0.4-0.2-0.8-0.3-1.2s-0.2-0.8-0.4-1.2
							c-0.1-0.4-0.2-0.8-0.4-1.2c-0.2-0.4-0.3-0.8-0.5-1.2s-0.3-0.8-0.5-1.3c-0.2-0.4-0.4-0.8-0.6-1.3c-0.2-0.4-0.4-0.8-0.6-1.3
							c-0.2-0.4-0.4-0.8-0.6-1.2c-0.2-0.4-0.4-0.8-0.7-1.2c-0.2-0.4-0.5-0.8-0.7-1.2c-0.5-0.8-1-1.6-1.6-2.4
							c-0.1-0.2-0.3-0.4-0.4-0.6l-0.4-0.6c-0.3-0.4-0.6-0.7-0.9-1.1c-0.3-0.4-0.6-0.7-1-1.1c-0.3-0.3-0.6-0.7-1-1
							c-0.3-0.3-0.7-0.6-1-1c-0.3-0.3-0.7-0.6-1-0.9c-0.7-0.6-1.4-1.1-2.1-1.7c-1.5-1-2.9-1.9-4.3-2.6c-1.4-0.7-2.8-1.3-4.1-1.7
							s-2.5-0.8-3.6-1c-1-0.2-1.9-0.4-2.7-0.4c-0.1,0.4-0.2,0.9-0.3,1.3c0.7,0.2,1.5,0.5,2.5,0.8c1,0.4,2.1,0.8,3.2,1.4
							c1.1,0.6,2.3,1.3,3.5,2.1c1.2,0.8,2.3,1.8,3.5,2.9c0.5,0.6,1.1,1.1,1.6,1.7c0.3,0.3,0.5,0.6,0.8,0.9c0.2,0.3,0.5,0.6,0.7,1
							c0.2,0.3,0.5,0.7,0.7,1c0.2,0.3,0.4,0.7,0.7,1c0.2,0.4,0.4,0.7,0.6,1.1l0.3,0.5c0.1,0.2,0.2,0.4,0.3,0.5
							c0.4,0.7,0.7,1.5,1,2.2c0.2,0.4,0.3,0.7,0.5,1.1c0.1,0.4,0.3,0.8,0.4,1.1c0.1,0.4,0.2,0.8,0.4,1.1c0.1,0.4,0.2,0.8,0.3,1.1
							c0.1,0.4,0.2,0.8,0.3,1.1c0.1,0.4,0.1,0.8,0.2,1.1c0.1,0.4,0.1,0.7,0.2,1.1c0.1,0.4,0.1,0.7,0.2,1.1c0.1,0.4,0.1,0.7,0.1,1.1
							c0,0.4,0.1,0.7,0.1,1.1c0.1,0.7,0.1,1.4,0.2,2c0,0.2,0,0.3,0,0.5c0,0.2,0,0.3,0,0.5c0,0.3,0,0.6,0,0.9c0,0.6,0,1.2,0,1.8
							s0,1.1,0,1.6s0,1,0,1.4h9.4c0-0.1,0-0.2,0-0.3C691.1,442.2,691.1,441.7,691,441.1z"/>
						<path class="st1" d="M691.4,439.2c-0.1-0.4-0.1-0.9-0.2-1.3c0-0.2-0.1-0.5-0.1-0.7l-0.3-1.6l-0.7-2.8c-0.1-0.3-0.2-0.6-0.3-1
							l-0.5-1.5c0-0.1-0.1-0.3-0.1-0.4c-0.1-0.3-0.2-0.6-0.3-0.8l-0.9-2.5l0,0l-1.1-2.6c-0.1-0.3-0.3-0.6-0.4-0.9l-0.4-0.8
							c-0.1-0.3-0.3-0.6-0.5-0.9l-0.7-1.2c-0.4-0.7-0.9-1.4-1.3-2.1l-0.3-0.4c0-0.1-0.1-0.1-0.1-0.2c-0.1-0.1-0.2-0.3-0.3-0.4
							l-1.3-1.7l0,0l-1-1.1c-0.3-0.3-0.6-0.7-1-1l-1-1c-0.2-0.2-0.5-0.4-0.7-0.6c-0.1-0.1-0.2-0.2-0.3-0.3c-0.5-0.5-1-0.8-1.5-1.2
							c-0.2-0.2-0.4-0.3-0.6-0.5l0,0c-1.6-1.1-3.1-2-4.4-2.6c-1.6-0.8-2.9-1.3-4.2-1.7s-2.5-0.8-3.7-1c-0.9-0.2-1.9-0.3-2.8-0.5
							c-0.3,0-0.6,0.2-0.7,0.5c-0.1,0.4-0.2,0.8-0.3,1.3c-0.1,0.3,0.1,0.7,0.5,0.8c0.8,0.2,1.6,0.5,2.4,0.8c1,0.4,2,0.8,3.1,1.4
							c1,0.5,2.1,1.2,3.4,2.1c1,0.7,2.1,1.6,3.4,2.8c0.2,0.2,0.3,0.4,0.5,0.5c0.4,0.4,0.7,0.7,1.1,1.2c0.1,0.1,0.2,0.2,0.3,0.3
							c0.2,0.2,0.3,0.4,0.5,0.5l0.7,1c0.2,0.3,0.4,0.6,0.6,0.9l0.7,1l0.9,1.6c0.1,0.1,0.1,0.2,0.2,0.3c0,0.1,0.1,0.1,0.1,0.2
							c0.1,0.2,0.1,0.3,0.2,0.5c0.3,0.6,0.5,1.1,0.8,1.7l0.4,1.1c0.1,0.2,0.2,0.5,0.2,0.7c0,0.1,0.1,0.3,0.1,0.4l0.3,0.9l0.6,2.3
							l0.5,2.4c0,0.2,0.1,0.4,0.1,0.7c0,0.1,0,0.3,0.1,0.4l0.2,1.4c0,0.3,0.1,0.5,0.1,0.7l0.2,2.2c0,0.1,0,0.2,0,0.3v1.4
							c0,0.2,0,0.5,0,0.7c0,0.4,0,0.7,0,1.1l-0.1,3c0,0.2,0.1,0.3,0.2,0.5c0.1,0.1,0.3,0.2,0.5,0.2h9.4c0.2,0,0.4-0.1,0.5-0.2
							c0.1-0.1,0.2-0.3,0.2-0.5v-0.4L691.4,439.2z M682.5,442.4l0.1-2.3c0-0.4,0-0.7,0-1.1c0-0.2,0-0.4,0-0.7v-1.5
							c0-0.1,0-0.2,0-0.3l-0.2-2.2c0-0.3-0.1-0.6-0.1-0.8L682,432c0-0.1,0-0.3-0.1-0.4c0-0.2-0.1-0.5-0.1-0.8l-0.4-2.2l0,0l-0.6-2.3
							l0,0l-0.4-1.1c0-0.1-0.1-0.3-0.1-0.4c-0.1-0.2-0.2-0.5-0.3-0.8l-0.4-1.1c-0.2-0.6-0.5-1.2-0.8-1.8c-0.1-0.2-0.1-0.3-0.2-0.5
							c0-0.1-0.1-0.1-0.1-0.2c-0.1-0.1-0.1-0.3-0.2-0.4l-0.9-1.6l0,0l-0.7-1.1c-0.2-0.3-0.4-0.7-0.7-1l-0.7-1
							c-0.2-0.2-0.3-0.4-0.5-0.6c-0.1-0.1-0.2-0.2-0.3-0.3c-0.4-0.5-0.8-0.9-1.1-1.2c-0.2-0.2-0.3-0.3-0.5-0.5l0,0
							c-1.3-1.3-2.4-2.2-3.5-3c-1.3-0.9-2.5-1.6-3.6-2.2s-2.2-1.1-3.3-1.5c-0.6-0.2-1.3-0.5-2-0.7v-0.1c0.7,0.1,1.4,0.2,2.1,0.4
							c1.1,0.2,2.3,0.5,3.5,1c1.2,0.4,2.5,0.9,4,1.7c1.3,0.6,2.7,1.4,4.2,2.5c0.2,0.2,0.4,0.3,0.6,0.5c0.5,0.4,1,0.7,1.5,1.2
							c0.1,0.1,0.2,0.2,0.4,0.3c0.2,0.2,0.5,0.4,0.7,0.6l1,1c0.3,0.3,0.6,0.6,0.9,1l0.9,1l1.3,1.7c0.1,0.1,0.2,0.2,0.2,0.3
							c0.1,0.1,0.1,0.1,0.1,0.2l0.3,0.4c0.4,0.6,0.9,1.3,1.3,2l0.7,1.2c0.1,0.3,0.3,0.5,0.4,0.8l0.4,0.8c0.1,0.3,0.3,0.6,0.4,0.8
							l1.1,2.5l0.9,2.5c0.1,0.2,0.2,0.5,0.2,0.8c0,0.1,0.1,0.3,0.1,0.4l0.5,1.5c0.1,0.3,0.2,0.6,0.2,0.9l0.7,2.7l0.3,1.7
							c0,0.2,0.1,0.5,0.1,0.7c0.1,0.4,0.2,0.9,0.2,1.3l0.4,3h-7.6V442.4z"/>
					</g>
					<g>
						<path class="st0" d="M681.4,394.7c-0.7-1.3-1.6-2.4-2.7-3.5c-5.7-5.3-14.7-4.9-19.9,0.8c-2.4,2.6-3.6,5.9-3.7,9.1
							c-2.2-0.8-4.7-0.9-7.1-0.1c-5.8,1.9-9.1,8.1-7.2,14c0.4,1.1,0.9,2.2,1.6,3.1c0-4.4,2.8-9,7.6-11.7c1.3-0.7,2.7-1.3,4-1.6
							c-2.4,2.1-4.1,4.9-4.5,8.2c-0.9,7.2,4.7,13.7,12.5,14.5c1.5,0.2,3,0.1,4.4-0.2c-5.1-2.1-9-7.3-9.6-13.8
							c-0.1-0.7-0.1-1.4-0.1-2.1c0.1,0.7,0.4,1.3,0.7,2c2.4,5.2,8.9,7.7,14.6,5.5c1.1-0.4,2.1-1,3-1.7c-4.4,0.4-9.2-1.8-12.3-6
							c-1.4-1.9-2.3-4-2.6-6.1c1.7-0.9,3.7-1.6,5.9-1.8c5.4-0.6,10.4,1.5,13,5.1c0-1.1-0.2-2.3-0.5-3.4c-1.9-5.8-8.2-9-14-7.2
							c-0.7,0.2-1.4,0.5-2.1,0.9c0.6-0.5,1.2-1,1.8-1.4C669.5,393,676.4,392.3,681.4,394.7z"/>
						<path class="st1" d="M679.1,390.7c-2.7-2.5-6.3-3.9-10-3.9c-4.1,0-8.1,1.7-10.9,4.7c-2.2,2.4-3.6,5.5-3.9,8.7
							c-2.2-0.6-4.5-0.5-6.7,0.1c-6.2,2-9.6,8.6-7.6,14.8c0.4,1.2,0.9,2.3,1.7,3.3c0.1,0.2,0.3,0.3,0.5,0.3l0,0
							c0.4,0,0.7-0.3,0.7-0.7v-0.1c0-4.3,2.9-8.6,7.2-11c0.4-0.2,0.9-0.5,1.4-0.7c-1.5,1.9-2.5,4.2-2.8,6.6
							c-0.4,3.5,0.6,6.9,2.8,9.7c2.4,3.1,6.2,5,10.2,5.5c0.5,0.1,1.1,0.1,1.6,0.1c1,0,2-0.1,3-0.3c0.3-0.1,0.5-0.3,0.5-0.6
							c0-0.3-0.1-0.6-0.4-0.7c-4.5-1.8-7.9-6.2-9-11.3c2.1,3.1,5.8,5,9.9,5c1.6,0,3.1-0.3,4.6-0.9c1.1-0.4,2.2-1.1,3.1-1.8
							c0.2-0.2,0.3-0.5,0.2-0.8c-0.1-0.3-0.4-0.4-0.7-0.4s-0.6,0-0.9,0c-4,0-8.2-2.2-10.8-5.8c-1.2-1.6-2-3.5-2.4-5.3
							c1.6-0.8,3.4-1.3,5.2-1.5c0.6-0.1,1.2-0.1,1.8-0.1c4.4,0,8.4,1.9,10.6,4.9c0.2,0.2,0.5,0.3,0.7,0.2c0.3-0.1,0.5-0.3,0.5-0.6
							c0-1.2-0.2-2.5-0.6-3.6c-1.6-4.9-6.1-8.2-11.2-8.2c-0.5,0-1.1,0-1.6,0.1c2.9-1.7,6.1-2.6,9.2-2.6c2.2,0,4.2,0.4,6,1.3
							c0.1,0,0.2,0.1,0.3,0.1l0,0c0.4,0,0.7-0.3,0.7-0.7c0-0.1,0-0.3-0.1-0.4C681.2,393,680.3,391.8,679.1,390.7z M675.1,392.7
							c-4,0-8.1,1.4-11.6,3.9c-0.6,0.4-1.2,0.9-1.8,1.5c-0.3,0.2-0.3,0.6-0.1,0.9s0.6,0.4,0.9,0.2c0.6-0.4,1.3-0.6,1.9-0.9
							c1-0.3,2.1-0.5,3.2-0.5c4.5,0,8.5,2.9,9.9,7.2c0.1,0.4,0.2,0.8,0.3,1.3c-2.5-2.5-6.2-3.9-10.3-3.9c-0.6,0-1.3,0-1.9,0.1
							c-2.2,0.2-4.3,0.9-6.1,1.9c-0.2,0.1-0.4,0.4-0.3,0.7c0.4,2.2,1.3,4.4,2.8,6.4c2.6,3.5,6.6,5.9,10.7,6.3
							c-0.3,0.2-0.7,0.3-1,0.5c-1.3,0.5-2.7,0.8-4.1,0.8c-4.2,0-8-2.3-9.6-5.9c-0.3-0.6-0.5-1.2-0.6-1.8c-0.1-0.3-0.4-0.5-0.7-0.5
							s-0.6,0.3-0.6,0.6c0,0.7,0,1.5,0.1,2.2c0.6,5.6,3.6,10.6,8.1,13.3c-0.7,0-1.4,0-2.1-0.1c-3.7-0.4-7.1-2.2-9.3-5
							c-2-2.5-2.9-5.6-2.6-8.8c0.4-3,1.9-5.7,4.2-7.7c0.2-0.2,0.3-0.5,0.2-0.8c-0.1-0.2-0.3-0.4-0.6-0.4c-0.1,0-0.1,0-0.2,0
							c-1.5,0.4-2.9,0.9-4.2,1.7c-4.1,2.3-7,6.1-7.7,10.2c-0.2-0.4-0.3-0.8-0.5-1.2c-1.8-5.5,1.3-11.4,6.8-13.1
							c2.2-0.7,4.5-0.7,6.6,0.1c0.2,0.1,0.4,0,0.6-0.1c0.2-0.1,0.3-0.3,0.3-0.5c0.1-3.2,1.4-6.3,3.6-8.7c2.5-2.7,6.1-4.3,9.9-4.3
							c3.4,0,6.6,1.3,9.1,3.6c0.5,0.5,1.1,1.1,1.5,1.6C678.3,392.9,676.7,392.7,675.1,392.7z"/>
					</g>
				</g>
			</g>
			<g>
				<circle class="st0" cx="693.1" cy="391.7" r="5"/>
				<path class="st1" d="M693.1,386c-3.1,0-5.7,2.6-5.7,5.7c0,3.1,2.6,5.7,5.7,5.7c3.1,0,5.7-2.6,5.7-5.7
					C698.8,388.6,696.2,386,693.1,386z M693.1,396.1c-2.4,0-4.4-2-4.4-4.4c0-2.4,2-4.4,4.4-4.4s4.4,2,4.4,4.4
					C697.5,394.2,695.5,396.1,693.1,396.1z"/>
			</g>
		</g>
		<path class="st1" d="M659.7,431.1h-8.8c-0.4,0-0.7,0.3-0.7,0.7s0.3,0.7,0.7,0.7h8.8c0.4,0,0.7-0.3,0.7-0.7S660,431.1,659.7,431.1z
			"/>
		<path class="st1" d="M655.6,442.4h-6.9c-0.4,0-0.7,0.3-0.7,0.7s0.3,0.7,0.7,0.7h6.9c0.4,0,0.7-0.3,0.7-0.7
			C656.2,442.6,655.9,442.4,655.6,442.4z"/>
		<path class="st1" d="M737.6,436.9h-8.5c-0.4,0-0.7,0.3-0.7,0.7s0.3,0.7,0.7,0.7h8.5c0.4,0,0.7-0.3,0.7-0.7
			C738.2,437.2,737.9,436.9,737.6,436.9z"/>
		<path class="st1" d="M733.7,442.4h-4.6c-0.4,0-0.7,0.3-0.7,0.7s0.3,0.7,0.7,0.7h4.6c0.4,0,0.7-0.3,0.7-0.7
			C734.4,442.6,734.1,442.4,733.7,442.4z"/>
		<path class="st1" d="M736.6,425.4h-2.9c-0.4,0-0.7,0.3-0.7,0.7s0.3,0.7,0.7,0.7h2.9c0.4,0,0.7-0.3,0.7-0.7S737,425.4,736.6,425.4z
			"/>
		<g>
			<path class="st1" d="M650.8,436.7h-3.6c-0.4,0-0.7,0.3-0.7,0.7s0.3,0.7,0.7,0.7h3.6c0.4,0,0.7-0.3,0.7-0.7
				S651.2,436.7,650.8,436.7z"/>
			<path class="st1" d="M657.5,436.7h-3.7c-0.4,0-0.7,0.3-0.7,0.7s0.3,0.7,0.7,0.7h3.7c0.4,0,0.7-0.3,0.7-0.7
				S657.9,436.7,657.5,436.7z"/>
		</g>
		<path class="st1" d="M653.3,425.4h-1.7c-0.4,0-0.7,0.3-0.7,0.7s0.3,0.7,0.7,0.7h1.7c0.4,0,0.7-0.3,0.7-0.7
			S653.7,425.4,653.3,425.4z"/>
		<g>
			<path class="st1" d="M730.9,431.5h-3.7c-0.4,0-0.7,0.3-0.7,0.7c0,0.4,0.3,0.7,0.7,0.7h3.7c0.4,0,0.7-0.3,0.7-0.7
				C731.6,431.8,731.3,431.5,730.9,431.5z"/>
			<path class="st1" d="M735.8,431.5h-2.1c-0.4,0-0.7,0.3-0.7,0.7c0,0.4,0.3,0.7,0.7,0.7h2.1c0.4,0,0.7-0.3,0.7-0.7
				C736.4,431.8,736.2,431.5,735.8,431.5z"/>
		</g>
		<g>
			<path class="st1" d="M697.1,401c-0.4,0-0.7,0.3-0.7,0.7c0,0.4,0.3,0.7,0.7,0.7c1,0,1.9,1,1.9,2.2c0,0.4,0.3,0.7,0.7,0.7
				s0.7-0.3,0.7-0.7C700.4,402.6,698.9,401,697.1,401z"/>
			<path class="st1" d="M702.5,402.2c-1.9,0-3.5,1-3.5,2.3c0,0.4,0.3,0.7,0.7,0.7s0.7-0.3,0.7-0.7s0.8-1,2.2-1
				c0.4,0,0.7-0.3,0.7-0.7C703.2,402.5,702.9,402.2,702.5,402.2z"/>
		</g>
		<g>
			<path class="st1" d="M688,408.3c-1.5,0-2.8,1.3-2.8,3c0,0.4,0.3,0.7,0.7,0.7s0.7-0.3,0.7-0.7c0-0.9,0.6-1.7,1.4-1.7
				c0.4,0,0.7-0.3,0.7-0.7C688.7,408.6,688.4,408.3,688,408.3z"/>
			<path class="st1" d="M683.6,409.2c-0.4,0-0.7,0.3-0.7,0.7s0.3,0.7,0.7,0.7c1,0,1.7,0.5,1.7,0.7c0,0.4,0.3,0.7,0.7,0.7
				s0.7-0.3,0.7-0.7C686.6,410.1,685.3,409.2,683.6,409.2z"/>
		</g>
	</g>
	<g>
		<g>
			<g>
				<g>
					<g>
						<polygon class="st0" points="780.7,439.1 775.3,443 784.2,443 784.2,439.1 784.2,427 780.7,427 						"/>
						<path class="st1" d="M784.2,426.4h-3.5c-0.4,0-0.7,0.3-0.7,0.7v11.8l-5.1,3.7c-0.2,0.2-0.3,0.5-0.2,0.8
							c0.1,0.3,0.3,0.5,0.6,0.5h8.9c0.4,0,0.7-0.3,0.7-0.7V427C784.9,426.7,784.6,426.4,784.2,426.4z M783.5,442.3h-6.1l3.7-2.6
							c0.2-0.1,0.3-0.3,0.3-0.5v-11.5h2.2v14.6H783.5z"/>
					</g>
					<g>
						<polygon class="st0" points="779.1,408.8 779.1,408.8 789,408.8 789,408.8 781.4,408.8 						"/>
						<path class="st1" d="M789,408.1h-10c-0.4,0-0.7,0.3-0.7,0.7v0.1c0,0.4,0.3,0.7,0.7,0.7h10c0.4,0,0.7-0.3,0.7-0.7v-0.1
							C789.7,408.4,789.4,408.1,789,408.1z"/>
					</g>
					<g>
						<polygon class="st0" points="792.2,427 788.6,427 788.6,439.1 788.6,443 797.5,443 792.2,439.1 						"/>
						<path class="st1" d="M792.8,438.8V427c0-0.4-0.3-0.7-0.7-0.7h-3.5c-0.4,0-0.7,0.3-0.7,0.7v16c0,0.4,0.3,0.7,0.7,0.7h8.9
							c0.3,0,0.5-0.2,0.6-0.5c0.1-0.3,0-0.6-0.2-0.8L792.8,438.8z M789.3,442.3v-14.6h2.2v11.4c0,0.2,0.1,0.4,0.3,0.5l3.7,2.6
							L789.3,442.3L789.3,442.3z"/>
					</g>
					<g>
						<polygon class="st0" points="789,408.8 789,408.8 789,408.8 793.8,408.8 793.8,408.8 791.4,408.8 						"/>
						<path class="st1" d="M793.8,408.1H789c-0.4,0-0.7,0.3-0.7,0.7v0.1c0,0.4,0.3,0.7,0.7,0.7h4.7c0.4,0,0.7-0.3,0.7-0.7v-0.1
							C794.5,408.4,794.2,408.1,793.8,408.1z"/>
					</g>
					<g>
						<path class="st2" d="M789,408.8L789,408.8h-10v1.1v1.2v1.2v0.1c0,0,0,0,0,0.1l0,0V427h1.6h3.5h1.4v-12.2h1h0.5V427h1.4h3.5
							h1.6v-14.5l0,0c0,0,0,0,0-0.1v-3.6l0,0C793.5,408.8,789,408.8,789,408.8z"/>
						<path class="st1" d="M793.8,408.2h-14.7c-0.4,0-0.7,0.3-0.7,0.7v3.6l0,0l0,0V427c0,0.4,0.3,0.7,0.7,0.7h6.6
							c0.4,0,0.7-0.3,0.7-0.7v-11.6h0.2V427c0,0.4,0.3,0.7,0.7,0.7h6.6c0.4,0,0.7-0.3,0.7-0.7v-14.5l0,0l0,0v-3.6
							C794.5,408.5,794.2,408.2,793.8,408.2z M793.1,412.5v13.8h-5.2v-11.5c0-0.4-0.3-0.7-0.7-0.7h-1.6c-0.4,0-0.7,0.3-0.7,0.7v11.6
							h-5.2v-13.9c0,0,0,0,0-0.1v-2.9h13.4v2.9C793.1,412.4,793.1,412.4,793.1,412.5L793.1,412.5z"/>
					</g>
				</g>
				<path class="st1" d="M779.6,439.9c-0.2-0.3-0.6-0.4-0.9-0.2c-0.3,0.2-0.4,0.6-0.2,0.9l1.7,2.7c0.1,0.2,0.3,0.3,0.6,0.3
					c0.1,0,0.2,0,0.4-0.1c0.3-0.2,0.4-0.6,0.2-0.9L779.6,439.9z"/>
				<path class="st1" d="M794.2,439.7c-0.3-0.2-0.7-0.1-0.9,0.2l-1.7,2.7c-0.2,0.3-0.1,0.7,0.2,0.9c0.1,0.1,0.2,0.1,0.4,0.1
					s0.4-0.1,0.6-0.3l1.7-2.7C794.6,440.4,794.5,439.9,794.2,439.7z"/>
			</g>
			<g>
				<path class="st0" d="M793.5,383.6c-0.4-0.5-0.9-0.8-1.5-0.8c-0.2-0.1-0.4-0.1-0.6-0.1h-2.9v-9.2h-4.2v9.2h-2.9
					c-0.7,0-1.3,0.4-1.7,1c-0.1,0-0.1,0.1-0.2,0.1l-12.7,12.7c-0.8,0.8-0.8,2.2,0,3c0.4,0.4,1,0.6,1.5,0.6s1.1-0.2,1.5-0.6l9.2-9.2
					v4.9v10.7v3.1h2.4h10h2.4v-0.7c0.3-0.2,0.5-0.4,0.7-0.7l7-11.1c0.5-0.7,0.4-1.7-0.1-2.4L793.5,383.6z M793.8,400.6v-5.5V391l0,0
					l3.3,4.4L793.8,400.6z"/>
				<path class="st1" d="M794.1,383.1c-0.4-0.6-1.1-1-1.9-1.1c-0.3-0.1-0.5-0.1-0.8-0.1h-2.2v-8.5c0-0.4-0.3-0.7-0.7-0.7h-4.2
					c-0.4,0-0.7,0.3-0.7,0.7v8.5h-2.2c-0.8,0-1.6,0.4-2.2,1.2l-0.1,0.1l-12.7,12.7c-0.5,0.5-0.8,1.2-0.8,2c0,0.7,0.3,1.4,0.8,2
					c0.5,0.5,1.2,0.8,2,0.8c0.7,0,1.4-0.3,2-0.8l8.1-8.1v17c0,0.4,0.3,0.7,0.7,0.7h14.7c0.4,0,0.7-0.3,0.7-0.7v-0.4
					c0.2-0.2,0.4-0.4,0.6-0.7l7-11.1c0.6-1,0.6-2.2-0.1-3.2L794.1,383.1z M800.9,396.1l-7,11.1c-0.1,0.2-0.3,0.3-0.5,0.5
					c-0.2,0.1-0.3,0.3-0.3,0.6l0,0h-13.4v-18c0-0.3-0.2-0.5-0.4-0.6c-0.3-0.1-0.5,0-0.7,0.1l-9.2,9.2c-0.3,0.3-0.6,0.4-1,0.4
					s-0.8-0.2-1-0.4c-0.3-0.3-0.4-0.6-0.4-1s0.2-0.8,0.4-1l12.6-12.8l0,0c0,0,0.1,0,0.1-0.1l0.1-0.1c0.3-0.4,0.7-0.7,1.2-0.7h2.9
					c0.4,0,0.7-0.3,0.7-0.7v-8.5h2.8v8.5c0,0.4,0.3,0.7,0.7,0.7h2.9c0.1,0,0.3,0,0.4,0.1c0.1,0,0.1,0,0.2,0c0.4,0,0.8,0.2,1,0.6
					l7.8,10.5C801.2,394.9,801.2,395.6,800.9,396.1z"/>
				<path class="st1" d="M794.3,390.6c-0.2-0.2-0.5-0.3-0.7-0.2c-0.3,0.1-0.5,0.3-0.5,0.6v9.6c0,0.3,0.2,0.6,0.5,0.6
					c0.1,0,0.1,0,0.2,0c0.2,0,0.4-0.1,0.6-0.3l3.3-5.2c0.1-0.2,0.1-0.5,0-0.8L794.3,390.6z M794.5,398.3V393l1.8,2.4L794.5,398.3z"
					/>
			</g>
			<g>
				<path class="st0" d="M797.1,395.4l-6.2,9.8c-0.6,1-0.3,2.3,0.7,2.9c0.4,0.2,0.7,0.3,1.1,0.3c0.7,0,1.4-0.3,1.8-1l7-11.1
					c0.5-0.7,0.4-1.7-0.1-2.4L797.1,395.4z"/>
				<path class="st1" d="M801,393.5c-0.3,0.2-0.4,0.6-0.1,0.9c0.4,0.5,0.4,1.1,0.1,1.6l-7,11.1c-0.3,0.4-0.7,0.7-1.2,0.7
					c-0.3,0-0.5-0.1-0.8-0.2c-0.7-0.4-0.9-1.3-0.5-2l6.2-9.8c0.2-0.3,0.1-0.7-0.2-0.9c-0.3-0.2-0.7-0.1-0.9,0.2l-6.2,9.8
					c-0.8,1.3-0.4,3,0.9,3.9c0.4,0.3,1,0.4,1.5,0.4c1,0,1.8-0.5,2.4-1.3l7-11.1c0.6-1,0.6-2.2-0.1-3.2
					C801.7,393.3,801.3,393.3,801,393.5z"/>
			</g>
			<g>
				<path class="st0" d="M788.5,369.1V366c0-2.6-2.1-4.8-4.8-4.8H780c-2.3,0-4.2,1.7-4.7,3.9c-0.1,0.3-0.1,0.6-0.1,0.9v7.2
					c0,2.6,2.1,4.8,4.8,4.8h3.7c2.6,0,4.8-2.1,4.8-4.8v-1.9c0.3-0.3,0.5-0.7,0.5-1.1c0-0.2-0.1-0.4-0.1-0.6
					C788.8,369.4,788.7,369.3,788.5,369.1z"/>
				<path class="st1" d="M789.2,368.8V366c0-3-2.4-5.4-5.4-5.4H780c-2.6,0-4.8,1.9-5.3,4.4c-0.1,0.3-0.1,0.7-0.1,1v7.2
					c0,3,2.4,5.4,5.4,5.4h3.7c3,0,5.4-2.4,5.4-5.4v-1.6c0.3-0.4,0.5-0.9,0.5-1.4c0-0.3-0.1-0.6-0.2-0.9
					C789.4,369.1,789.3,369,789.2,368.8z M788.1,370.8c-0.2,0.1-0.3,0.3-0.3,0.5v1.9c0,2.2-1.8,4.1-4.1,4.1H780
					c-2.2,0-4.1-1.8-4.1-4.1V366c0-0.3,0-0.5,0.1-0.8c0.4-1.9,2.1-3.3,4-3.3h3.7c2.2,0,4.1,1.8,4.1,4.1v3.1c0,0.2,0.1,0.4,0.3,0.5
					c0.1,0.1,0.2,0.2,0.2,0.3s0.1,0.2,0.1,0.3C788.4,370.5,788.3,370.7,788.1,370.8z"/>
			</g>
			<g>
				<path class="st2" d="M790.3,363v-0.1c0-1.5-1.2-2.7-2.7-2.7c-0.1,0-0.1,0-0.2,0l0,0c-0.6-1.6-3-2.2-5.1-2.2c-0.9,0-2.1,0-3.4,0
					c-1.3,0.4-2.6,0.9-3.6,1.5c-1.3,0-1.8-0.8-1.8-0.8c-1.4,2.5,0.7,4,0.7,4l0,0c0.3,0.3,0.7,0.5,1.3,0.8c-0.1,0.5-0.1,1-0.1,1.5
					c0,0.1,0,0.1,0,0.2c0.1-0.5,0.3-1,0.6-1.5c1.2,0.5,2.8,0.7,4.5,0.7c2,0,3.9-0.4,5.1-1l1.1,5.8l0,0c0.3-0.2,0.6-0.4,1-0.4
					c0.5,0,0.9,0.2,1.2,0.6c0.3-0.6,0.6-1.2,0.8-1.9l0,0C789.6,367.6,790.5,365,790.3,363L790.3,363z"/>
				<path class="st1" d="M791,362.9c0-1.8-1.4-3.2-3.1-3.3c-1.2-2.1-4.5-2.2-5.5-2.2h-1.2c-0.6,0-1.4,0-2.2,0c-0.1,0-0.1,0-0.2,0
					c-1.3,0.4-2.6,0.9-3.6,1.4c-0.7-0.1-1-0.5-1-0.5c-0.1-0.2-0.3-0.3-0.6-0.3c-0.2,0-0.5,0.1-0.6,0.3c-1.4,2.5,0.2,4.2,0.7,4.7
					c0,0,0.1,0.1,0.2,0.1l0,0c0.3,0.2,0.6,0.4,1,0.6c0,0.4-0.1,0.7-0.1,1.1v0.1v0.1c0,0.3,0.3,0.6,0.6,0.7c0.3,0,0.7-0.2,0.7-0.5
					c0.1-0.3,0.1-0.5,0.2-0.8c1.2,0.4,2.7,0.6,4.2,0.6c1.7,0,3.3-0.3,4.6-0.7l0.9,5c0,0.2,0.2,0.4,0.5,0.5c0.2,0.1,0.5,0,0.7-0.2
					c0.3-0.3,0.9-0.3,1.1,0.1c0.1,0.2,0.3,0.3,0.6,0.3l0,0c0.2,0,0.4-0.1,0.6-0.3c0.4-0.6,0.7-1.3,0.9-2l0,0
					C790.3,367.7,791.1,365.1,791,362.9C791,363,791,362.9,791,362.9z M789,367.3C789,367.3,789,367.4,789,367.3
					c-0.1,0.4-0.2,0.8-0.4,1.1c-0.3-0.2-0.6-0.2-1-0.2c-0.2,0-0.3,0-0.5,0.1l-0.9-4.9c0-0.2-0.2-0.4-0.4-0.5s-0.4-0.1-0.6,0
					c-1.2,0.6-3,0.9-4.8,0.9c-1.6,0-3.1-0.2-4.3-0.7c-0.1,0-0.1,0-0.2,0c-0.1,0-0.1-0.1-0.2-0.1c-0.4-0.2-0.8-0.4-1.1-0.7l0,0
					c-0.1-0.1-1.2-1-0.9-2.4c0.4,0.2,0.9,0.4,1.5,0.4c0.1,0,0.2,0,0.3-0.1c0.9-0.5,2.1-1,3.3-1.4c0.8,0,1.5,0,2.1,0h1.2
					c1.7,0,3.9,0.5,4.4,1.8c0.1,0.3,0.4,0.4,0.7,0.4c0.1,0,0.1,0,0.2,0c1.1,0,2,0.9,2,2v0.1v0.1C789.8,364.8,789.1,367,789,367.3z"
					/>
			</g>
		</g>
		<g>
			<g>
				<path class="st2" d="M745.1,431.7c0.3,1.3,0.5,2.5,0.8,3.6l26-30.5c-0.1-1.4-0.3-2.7-0.4-4.1L745.1,431.7z"/>
				<path class="st2" d="M743.6,420.4c0.1,1.7,0.3,3.4,0.5,5l26.4-30.9c-0.3-1.5-0.6-3-1-4.4L743.6,420.4z"/>
				<path class="st2" d="M757.8,362.4c-2.5,0-12.5,21.3-14.2,43.1l22.7-26.6C763,369.2,759.2,362.4,757.8,362.4z"/>
				<path class="st2" d="M747.2,439.3c0.5,1.4,1.1,2.6,1.7,3.7h17.8c3.4-5.8,5.6-17.5,5.6-31.3c0-0.6,0-1.2,0-1.8L747.2,439.3z"/>
				<path class="st0" d="M743.6,405.5c-0.2,2.1-0.3,4.1-0.3,6.2c0,3,0.1,5.9,0.3,8.7l25.9-30.3c-0.9-4-2.1-7.8-3.2-11.2L743.6,405.5
					z"/>
				<path class="st0" d="M744.1,425.4c0.3,2.2,0.6,4.3,1,6.3l26.4-31c-0.3-2.1-0.6-4.2-1-6.3L744.1,425.4z"/>
				<path class="st0" d="M745.9,435.3c0.4,1.5,0.8,2.8,1.3,4l25.1-29.3c0-1.7-0.1-3.4-0.3-5.2L745.9,435.3z"/>
			</g>
			<path class="st1" d="M757.8,361.8c-2.5,0-6.9,10.6-8.9,16.2c-2.3,6.7-6.3,19.9-6.3,33.8c0,13.7,2.1,25.6,5.7,31.6
				c0.1,0.2,0.3,0.3,0.6,0.3h17.8c0.2,0,0.5-0.1,0.6-0.3c3.5-6.1,5.7-17.9,5.7-31.6c0-13.8-3.9-27.1-6.3-33.8
				C764.7,372.4,760.4,361.8,757.8,361.8z M766.3,442.3h-17c-3.3-5.9-5.3-17.5-5.3-30.6c0-13.4,3.8-26.3,6-32.9
				c3.4-9.9,6.8-15.4,7.8-15.7c1,0.4,4.4,5.9,7.8,15.7c2.2,6.5,6,19.4,6,32.9C771.6,424.8,769.6,436.4,766.3,442.3z"/>
		</g>
	</g>
	<g>
		<g>
			<path class="st1" d="M810.8,439.7h-1c-0.7,0-1.2,0.6-1.2,1.2v1.4c0,0.7,0.6,1.2,1.2,1.2h1c0.7,0,1.2-0.6,1.2-1.2V441
				C812.1,440.3,811.5,439.7,810.8,439.7z"/>
			<path class="st1" d="M824.9,439.7h-1c-0.7,0-1.2,0.6-1.2,1.2v1.4c0,0.7,0.6,1.2,1.2,1.2h1c0.7,0,1.2-0.6,1.2-1.2V441
				C826.1,440.3,825.6,439.7,824.9,439.7z"/>
		</g>
		<g>
			<g>
				<g>
					<path class="st2" d="M828.7,404.4h-22.6c-1.5,0-2.8,1.2-2.8,2.8v30.9c0,1.5,1.2,2.8,2.8,2.8h22.6c1.5,0,2.8-1.2,2.8-2.8v-30.9
						C831.4,405.7,830.2,404.4,828.7,404.4z"/>
					<path class="st1" d="M828.7,403.9h-22.6c-1.8,0-3.3,1.5-3.3,3.3v30.9c0,1.8,1.5,3.3,3.3,3.3h22.6c1.8,0,3.3-1.5,3.3-3.3v-30.9
						C831.9,405.4,830.5,403.9,828.7,403.9z M830.9,438.1c0,1.3-1,2.3-2.3,2.3H806c-1.3,0-2.3-1-2.3-2.3v-30.9c0-1.3,1-2.3,2.3-2.3
						h22.6c1.3,0,2.3,1,2.3,2.3V438.1z"/>
				</g>
			</g>
			<path class="st0" d="M806.1,404.4c-1.5,0-2.8,1.2-2.8,2.8v3.8c0.3,0.1,0.7,0.1,1,0.1c3.2,0,5.9-2.6,5.9-5.9c0-0.3,0-0.6-0.1-0.9
				h-4V404.4z"/>
			<path class="st0" d="M828.7,404.4h-4.1c0,0.3-0.1,0.6-0.1,0.9c0,3.2,2.6,5.9,5.9,5.9c0.4,0,0.7,0,1-0.1v-3.8
				C831.4,405.7,830.2,404.4,828.7,404.4z"/>
			<path class="st0" d="M804.3,434.2c-0.4,0-0.7,0-1,0.1v3.8c0,1.5,1.2,2.8,2.8,2.8h4.1c0-0.3,0.1-0.6,0.1-0.9
				C810.2,436.8,807.6,434.2,804.3,434.2z"/>
			<path class="st0" d="M824.5,440c0,0.3,0,0.6,0.1,0.9h4.1c1.5,0,2.8-1.2,2.8-2.8v-3.8c-0.3-0.1-0.7-0.1-1-0.1
				C827.2,434.2,824.5,436.8,824.5,440z"/>
			<g>
				<path class="st1" d="M828.7,403.9h-22.6c-1.8,0-3.3,1.5-3.3,3.3v30.9c0,1.8,1.5,3.3,3.3,3.3h22.6c1.8,0,3.3-1.5,3.3-3.3v-30.9
					C831.9,405.4,830.5,403.9,828.7,403.9z M830.9,438.1c0,1.3-1,2.3-2.3,2.3H806c-1.3,0-2.3-1-2.3-2.3v-30.9c0-1.3,1-2.3,2.3-2.3
					h22.6c1.3,0,2.3,1,2.3,2.3V438.1z"/>
			</g>
			<g>
				<path class="st1" d="M822.8,393h-10.9c-0.3,0-0.5,0.2-0.5,0.5v10.9c0,0.3,0.2,0.5,0.5,0.5h10.9c0.3,0,0.5-0.2,0.5-0.5v-10.9
					C823.3,393.3,823.1,393,822.8,393z M822.3,403.9h-9.9V394h9.9V403.9z"/>
				<rect x="811.9" y="392" class="st2" width="10.9" height="2.6"/>
				<rect x="811.9" y="392" class="st0" width="10.9" height="0.8"/>
				<path class="st1" d="M822.8,391.5h-10.9c-0.3,0-0.5,0.2-0.5,0.5v2.6c0,0.3,0.2,0.5,0.5,0.5h10.9c0.3,0,0.5-0.2,0.5-0.5V392
					C823.3,391.7,823.1,391.5,822.8,391.5z M822.3,394.1h-9.9v-1.6h9.9V394.1z"/>
			</g>
		</g>
	</g>
	<g>
		<path class="st1" d="M865.9,442.4h-64.5c-0.4,0-0.7,0.3-0.7,0.7s0.3,0.7,0.7,0.7h64.5c0.4,0,0.7-0.3,0.7-0.7
			C866.6,442.6,866.3,442.4,865.9,442.4z"/>
		<g>
			<g>
				<g>
					<circle class="st0" cx="854.7" cy="432.7" r="10.3"/>
					<path class="st1" d="M854.7,421.7c-6.1,0-11,4.9-11,11c0,6.1,4.9,11,11,11s11-4.9,11-11C865.7,426.6,860.7,421.7,854.7,421.7z
						 M854.7,442.4c-5.3,0-9.7-4.3-9.7-9.7c0-5.3,4.3-9.7,9.7-9.7c5.3,0,9.7,4.3,9.7,9.7C864.3,438,860,442.4,854.7,442.4z"/>
				</g>
				<g>
					<path class="st0" d="M854.7,422.3c-0.9,0-1.8,0.1-2.6,0.3c-2.1,3.5-2,8,0.6,11.5s7,4.9,10.9,3.8c0.9-1.6,1.5-3.4,1.5-5.3
						C865,427,860.4,422.3,854.7,422.3z"/>
					<path class="st1" d="M854.7,421.7c-0.9,0-1.9,0.1-2.8,0.4c-0.2,0-0.3,0.2-0.4,0.3c-2.3,3.8-2.1,8.6,0.6,12.2
						c2.1,2.8,5.4,4.4,8.8,4.4c0.9,0,1.9-0.1,2.8-0.4c0.2,0,0.3-0.2,0.4-0.3c1-1.7,1.6-3.7,1.6-5.7
						C865.7,426.6,860.7,421.7,854.7,421.7z M863.1,437.4c-0.7,0.2-1.5,0.3-2.2,0.3c-3.1,0-5.9-1.4-7.8-3.9
						c-2.3-3.1-2.5-7.2-0.7-10.5c0.7-0.2,1.5-0.3,2.2-0.3c5.3,0,9.7,4.3,9.7,9.7C864.3,434.3,863.9,436,863.1,437.4z"/>
				</g>
				<g>
					<g>
						<path class="st2" d="M853.3,429.1c-0.8,0.6-1.4,1.2-2,2c0.6,0,1.3,0.2,1.9,0.3c4.5,1.2,7.5,5.1,7.7,9.5
							c2.5-1.9,4.1-4.9,4.1-8.3c0-1.6-0.4-3.2-1.1-4.6C860.6,426.5,856.5,426.8,853.3,429.1z"/>
						<path class="st1" d="M864.2,427.5c-1.5-0.7-3.1-1.1-4.7-1.1c-2.4,0-4.6,0.8-6.5,2.2c-0.8,0.6-1.5,1.3-2.1,2.1
							c-0.1,0.2-0.2,0.5-0.1,0.7c0.1,0.2,0.3,0.4,0.6,0.4c0.6,0,1.2,0.1,1.8,0.3c4.1,1.1,7,4.7,7.2,8.9c0,0.2,0.2,0.5,0.4,0.6
							c0.1,0,0.2,0.1,0.3,0.1s0.3,0,0.4-0.1c2.8-2.1,4.4-5.3,4.4-8.8c0-1.7-0.4-3.4-1.1-4.9C864.4,427.7,864.3,427.6,864.2,427.5z
							 M861.4,439.6c-0.7-4.2-3.8-7.7-8-8.8c-0.3-0.1-0.5-0.1-0.8-0.2c0.3-0.3,0.7-0.7,1.1-0.9c1.7-1.2,3.7-1.9,5.8-1.9
							c1.4,0,2.7,0.3,4,0.8c0.6,1.3,0.9,2.7,0.9,4.1C864.3,435.3,863.3,437.8,861.4,439.6z"/>
					</g>
					<g>
						<path class="st2" d="M844.3,433.1c0.2,3.9,2.5,7.3,5.9,8.9c-1.8-3.6-1.3-7.8,1.1-10.9C848.8,430.9,846.3,431.7,844.3,433.1z"
							/>
						<path class="st1" d="M851.4,430.4c-2.6-0.2-5.3,0.6-7.4,2.2c-0.2,0.1-0.3,0.3-0.3,0.6c0.2,4.1,2.6,7.7,6.3,9.4
							c0.1,0,0.2,0.1,0.3,0.1c0.2,0,0.3-0.1,0.5-0.2c0.2-0.2,0.2-0.5,0.1-0.8c-1.6-3.3-1.2-7.3,1-10.2c0.1-0.2,0.2-0.5,0.1-0.7
							C851.8,430.6,851.6,430.5,851.4,430.4z M848.9,440.5c-2.2-1.6-3.7-4.2-3.9-7c1.5-1,3.2-1.6,5-1.7
							C848.5,434.4,848.1,437.5,848.9,440.5z"/>
					</g>
					<g>
						<path class="st0" d="M853.2,431.4c-0.6-0.2-1.3-0.3-1.9-0.3c-2.4,3.1-2.9,7.4-1.1,10.9c1.3,0.6,2.8,1,4.4,1
							c2.3,0,4.5-0.8,6.2-2.1C860.7,436.6,857.7,432.6,853.2,431.4z"/>
						<path class="st1" d="M853.4,430.8c-0.7-0.2-1.3-0.3-2-0.3c-0.2,0-0.4,0.1-0.6,0.3c-2.6,3.3-3,7.9-1.2,11.6
							c0.1,0.1,0.2,0.2,0.3,0.3c1.5,0.7,3.1,1.1,4.7,1.1c2.4,0,4.7-0.8,6.6-2.2c0.2-0.1,0.3-0.3,0.3-0.6
							C861.3,436.1,858,432,853.4,430.8z M854.7,442.4c-1.4,0-2.7-0.3-3.9-0.8c-1.5-3.1-1.1-6.9,0.9-9.7c0.5,0.1,1,0.1,1.4,0.3
							c4,1.1,6.8,4.5,7.1,8.6C858.6,441.8,856.7,442.4,854.7,442.4z"/>
					</g>
				</g>
			</g>
			<g>
				<path class="st2" d="M846.1,426.9c0.1,1.2,4,3.5,4,3.5l1,0.4l1.3-8.2C849.8,423.2,847.6,424.7,846.1,426.9z"/>
				<path class="st1" d="M852.3,421.9c-2.7,0.6-5.1,2.2-6.7,4.5c-0.1,0.1-0.1,0.3-0.1,0.4c0.1,1.4,3.1,3.3,4.3,4h0.1l1,0.4
					c0.1,0,0.2,0.1,0.3,0.1s0.2,0,0.3-0.1c0.2-0.1,0.3-0.3,0.3-0.5l1.3-8.2c0-0.2,0-0.4-0.2-0.6C852.7,422,852.5,421.9,852.3,421.9z
					 M850.6,429.8l-0.2-0.1c-1.6-1-3.2-2.2-3.5-2.8c1.2-1.6,2.9-2.8,4.8-3.5L850.6,429.8z"/>
			</g>
			<g>
				<circle class="st2" cx="851.1" cy="431.1" r="1"/>
				<path class="st1" d="M851.1,429.4c-0.9,0-1.7,0.8-1.7,1.7s0.8,1.7,1.7,1.7s1.7-0.8,1.7-1.7S852.1,429.4,851.1,429.4z
					 M851.1,431.5c-0.2,0-0.4-0.2-0.4-0.4c0-0.2,0.2-0.4,0.4-0.4s0.4,0.2,0.4,0.4C851.5,431.3,851.3,431.5,851.1,431.5z"/>
			</g>
		</g>
	</g>
</g>
</svg>
