<?xml version="1.0" encoding="utf-8"?>
<!-- Generator: Adobe Illustrator 19.0.1, SVG Export Plug-In . SVG Version: 6.00 Build 0)  -->
<svg version="1.1" id="Layer_1" xmlns="http://www.w3.org/2000/svg" xmlns:xlink="http://www.w3.org/1999/xlink" x="0px" y="0px"
	 viewBox="0 0 336.8 56.3" style="enable-background:new 0 0 336.8 56.3;" xml:space="preserve">
<style type="text/css">
	.st0{fill-rule:evenodd;clip-rule:evenodd;}
</style>
<g>
	<path d="M74.4,41c-2-1.7-3-3.9-3-6.8c0-2.8,1.1-5,3.2-6.7c2.2-1.7,4.9-2.5,8.1-2.5c3.6,0,6.9,0.9,10,2.7V25c0-4.6-3-6.9-9.1-6.9
		c-3.3,0-6.2,0.9-9,2.8v-4c2.7-1.7,6-2.5,9.9-2.5c7.4,0,12.4,3.6,12.4,10.3V36c0,2.1,1,3.4,2.6,3.4c0.6,0,1.1-0.1,1.6-0.3v3.2
		c-0.6,0.4-1.5,0.6-2.7,0.6c-2.7,0-4.8-1.4-5.2-4.4c-2.8,3.3-6.5,4.9-11.2,4.9C79,43.4,76.5,42.6,74.4,41z M92.7,35v-3.8
		c-2.8-1.8-5.8-2.7-9-2.7c-5,0-8.2,2.1-8.2,5.6c0,3.7,3.3,5.7,7.6,5.7C87,39.6,90.7,37.5,92.7,35z"/>
	<path d="M111.9,42.7h-4.1V15h4.1v4.2c2.9-3.3,6.6-4.9,11.1-4.9c6.9,0,10.5,4.2,10.5,11.5v16.8h-4.1V26.8c0-7.3-4.5-8.5-7.8-8.5
		c-1.9,0-3.7,0.6-5.6,1.8c-1.8,1.1-3.2,2.5-4.1,4V42.7z"/>
	<path d="M139.8,53.6v-3.8c1.2,0.6,2.5,0.9,3.8,0.9c3.4,0,5.6-2.7,8.2-9L139.5,15h4.6l9.8,21.8l9.5-21.8h4.5l-13.7,30.8
		c-2.5,5.7-5.8,8.6-9.9,8.6C142.2,54.4,140.8,54.1,139.8,53.6z"/>
	<path d="M194.4,14.1h8.1v25.3c0,10.5-8.5,15.1-16.6,15.1c-4.7,0-8.4-0.8-11.2-2.5v-7.3c3,1.8,6.5,2.7,10.4,2.7
		c4.4,0,9.3-1.7,9.3-7.7V38c-2.2,2.7-5.4,4.1-9.5,4.1c-3.9,0-7.1-1.4-9.6-4.1c-2.5-2.7-3.7-6.2-3.7-10.3c0-4.1,1.3-7.4,3.7-10.2
		s5.7-4.1,9.6-4.1c4.1,0,7.2,1.4,9.5,4.1V14.1z M194.4,31.2v-6.9c-1.3-2.2-4-3.9-7.1-3.9c-4.5,0-7.6,3.2-7.6,7.3s3.2,7.3,7.6,7.3
		C190.5,35.1,193.1,33.4,194.4,31.2z"/>
	<path d="M212.8,39.3c-3-2.7-4.6-6.4-4.6-10.9c0-4.2,1.4-7.8,4.1-10.7c2.7-2.9,6.4-4.4,10.8-4.4c4.2,0,7.4,1.5,9.9,4.4
		c2.5,2.9,3.7,6.5,3.7,10.7v2.1h-20.5c0.9,3.9,4.5,6,9.6,6c3.2,0,6.2-0.9,9.2-2.5v6.5c-2.6,1.9-6.2,2.9-10.9,2.9
		C219.6,43.4,215.8,42,212.8,39.3z M228.8,25.4c-0.2-3.2-2.4-5.7-6-5.7c-3.7,0-6.1,2.3-6.5,5.7H228.8z"/>
	<path d="M245.5,17.7c3-2.9,6.8-4.4,11.4-4.4c4.6,0,8.4,1.4,11.4,4.4c3,2.9,4.5,6.5,4.5,10.7c0,4.3-1.5,7.8-4.5,10.8
		c-3,2.9-6.8,4.3-11.4,4.3c-4.6,0-8.4-1.4-11.4-4.3c-3-2.9-4.5-6.5-4.5-10.8C241,24.1,242.5,20.6,245.5,17.7z M256.9,36.4
		c2.3,0,4.2-0.7,5.7-2.3c1.5-1.5,2.2-3.4,2.2-5.7c0-2.3-0.7-4.2-2.2-5.7c-1.5-1.5-3.4-2.3-5.7-2.3c-2.3,0-4.2,0.7-5.7,2.3
		c-1.5,1.5-2.2,3.4-2.2,5.7c0,2.3,0.7,4.2,2.2,5.7C252.7,35.6,254.6,36.4,256.9,36.4z"/>
	<path d="M282.7,39.1c2.1,1.9-1.2,5.2-3.1,3.1C277.5,40.3,280.8,37.1,282.7,39.1z"/>
	<path d="M292.7,42.7V15.4h2.6v5.7c2-3.5,6.2-6.4,11.1-6.4v2.6c-2.6,0-4.9,0.7-6.8,2.2c-1.9,1.4-3.4,3.2-4.2,5v18.1H292.7z"/>
	<path d="M334.2,15.4h2.6v27.3h-2.6v-4.8c-2.5,3-6.8,5.4-11.6,5.4c-6.9,0-10.6-4.1-10.6-11.4V15.4h2.6v16.1c0,3.9,1.2,6.6,3,7.8
		c1.9,1.2,3.6,1.7,5.7,1.7c2.1,0,4.2-0.6,6.2-1.9c2.1-1.3,3.6-2.8,4.6-4.5V15.4z"/>
</g>
<g>
	<g>
		<path class="st0" d="M24.9,35.2c-1.1,1.1-2.6,1.5-3.7,0.3l0,0c-1.1-1.1-0.7-2.5,0.4-3.6l15.8-16.7c1.1-1.1,2.9-1.1,4,0l0,0
			c1.1,1.1,1.1,2.9,0,4L24.9,35.2z"/>
		<g>
			<g>
				<polygon class="st0" points="16.4,16.5 35.6,20.5 29.6,25.7 14.5,17.9 				"/>
			</g>
			<g>
				<polygon class="st0" points="40.3,40.4 36.3,21.2 31.1,27.2 38.8,42.2 				"/>
			</g>
		</g>
		<g>
			<polygon class="st0" points="23.3,31.9 16,32.2 14.2,34.4 21.7,35.8 			"/>
			<polygon class="st0" points="24.8,33.4 24.5,40.8 22.4,42.5 21,35.1 			"/>
		</g>
	</g>
	<path d="M29.8,56.3c-4.1,0-8-1.2-11-4c-2.2-2-3.4-4.8-3.3-7.9c0.1-3.2,1.5-8.1,8-13.6l2.1,2.5c-5.6,4.8-6.8,8.7-6.8,11.2
		c0,2.1,0.8,4,2.3,5.4c6,5.6,17.4,3,23.6-2.9C50,41.8,53,35.2,53,28.5C53,14.8,42.1,3.2,28.2,3.3C14.5,3.4,3.5,12.8,2.3,28.5
		C1.6,38,7.3,47,7.3,47c-4.5-5.1-7-11.7-7-18.6c0-15.4,12.6-28,28-28s28,12.6,28,28c0,7.6-3.3,15.1-9.3,20.9
		C42.6,53.6,36,56.3,29.8,56.3z"/>
</g>
</svg>
