<!-- Generator: Adobe Illustrator 21.1.0, SVG Export Plug-In  -->
<svg version="1.1"
	 xmlns="http://www.w3.org/2000/svg" xmlns:xlink="http://www.w3.org/1999/xlink" xmlns:a="http://ns.adobe.com/AdobeSVGViewerExtensions/3.0/"
	 x="0px" y="0px" width="291.4px" height="291.4px" viewBox="0 0 291.4 291.4" style="enable-background:new 0 0 291.4 291.4;"
	 xml:space="preserve">
<style type="text/css">
	.st0{fill:#FFFFFF;}
	.st1{fill:none;}
	.st2{fill:#F7EC3D;}
	.st3{fill:#7CC360;}
	.st4{fill:#262A2C;}
	.st5{fill:#70CDE0;}
</style>
<defs>
</defs>
<circle class="st0" cx="145.7" cy="145.7" r="145.7"/>
<g>
	<path class="st1" d="M198.9,109.5c-0.3,0-1.5,1.4-1.5,4.3s1.2,4.3,1.5,4.3s1.5-1.4,1.5-4.3S199.2,109.5,198.9,109.5z"/>
	<path class="st1" d="M198.9,84.5c-0.3,0-1.5,1.4-1.5,4.3s1.2,4.3,1.5,4.3s1.5-1.4,1.5-4.3S199.2,84.5,198.9,84.5z"/>
	<path class="st1" d="M198.9,134.5c-0.3,0-1.5,1.4-1.5,4.3s1.2,4.3,1.5,4.3s1.5-1.4,1.5-4.3C200.4,136,199.2,134.5,198.9,134.5z"/>
	<path class="st1" d="M173.7,184.6c-0.3,0-1.5,1.4-1.5,4.3s1.2,4.3,1.5,4.3s1.5-1.4,1.5-4.3C175.2,186.1,174,184.6,173.7,184.6z"/>
	<path class="st1" d="M173.7,59.4c-0.3,0-1.5,1.4-1.5,4.3s1.2,4.3,1.5,4.3s1.5-1.4,1.5-4.3S174,59.4,173.7,59.4z"/>
	<path class="st1" d="M173.7,84.5L173.7,84.5c0.1,0.1,0.3,0.3,0.5,0.4C174,84.6,173.8,84.5,173.7,84.5z"/>
	<path class="st1" d="M98,84.5c-0.3,0-1.5,1.4-1.5,4.3s1.2,4.3,1.5,4.3s1.5-1.4,1.5-4.3S98.3,84.5,98,84.5z"/>
	<path class="st1" d="M173.7,168.2c0.3,0,1.4-1.3,1.5-3.9c-0.8,0.7-1.7,1.5-2.6,2.2C172.9,167.6,173.5,168.2,173.7,168.2z"/>
	<path class="st1" d="M98,159.6c-0.3,0-1.5,1.4-1.5,4.3s1.2,4.3,1.5,4.3s1.5-1.4,1.5-4.3C99.5,161,98.3,159.6,98,159.6z"/>
	<path class="st1" d="M198.9,59.4c-0.3,0-1.5,1.4-1.5,4.3s1.2,4.3,1.5,4.3s1.5-1.4,1.5-4.3S199.2,59.4,198.9,59.4z"/>
	<path class="st1" d="M173.7,34.4c-0.3,0-1.5,1.4-1.5,4.3s1.2,4.3,1.5,4.3s1.5-1.4,1.5-4.3S174,34.4,173.7,34.4z"/>
	<path class="st1" d="M47.6,159.6c-0.3,0-1.5,1.4-1.5,4.3s1.2,4.3,1.5,4.3s1.5-1.4,1.5-4.3C49.1,161,47.8,159.6,47.6,159.6z"/>
	<path class="st1" d="M198.9,159.6c-0.3,0-1.5,1.4-1.5,4.3s1.2,4.3,1.5,4.3s1.5-1.4,1.5-4.3C200.4,161,199.2,159.6,198.9,159.6z"/>
	<path class="st1" d="M123.2,59.4c-0.3,0-1.5,1.4-1.5,4.3s1.2,4.3,1.5,4.3s1.5-1.4,1.5-4.3S123.5,59.4,123.2,59.4z"/>
	<path class="st1" d="M123.2,34.4c-0.3,0-1.5,1.4-1.5,4.3s1.2,4.3,1.5,4.3s1.5-1.4,1.5-4.3S123.5,34.4,123.2,34.4z"/>
	<path class="st1" d="M47.6,134.5c-0.3,0-1.5,1.4-1.5,4.3s1.2,4.3,1.5,4.3s1.5-1.4,1.5-4.3C49.1,136,47.8,134.5,47.6,134.5z"/>
	<path class="st1" d="M123.2,209.7c-0.3,0-1.5,1.4-1.5,4.3s1.2,4.3,1.5,4.3s1.5-1.4,1.5-4.3S123.5,209.7,123.2,209.7z"/>
	<path class="st1" d="M98,184.6c-0.3,0-1.5,1.4-1.5,4.3s1.2,4.3,1.5,4.3s1.5-1.4,1.5-4.3C99.5,186.1,98.3,184.6,98,184.6z"/>
	<path class="st1" d="M98,59.4c-0.3,0-1.5,1.4-1.5,4.3S97.7,68,98,68s1.5-1.4,1.5-4.3S98.3,59.4,98,59.4z"/>
	<path class="st1" d="M72.8,134.5c-0.3,0-1.5,1.4-1.5,4.3s1.2,4.3,1.5,4.3s1.5-1.4,1.5-4.3C74.3,136,73.1,134.5,72.8,134.5z"/>
	<path class="st1" d="M72.8,159.6c-0.3,0-1.5,1.4-1.5,4.3s1.2,4.3,1.5,4.3s1.5-1.4,1.5-4.3C74.3,161,73.1,159.6,72.8,159.6z"/>
	<path class="st1" d="M224.1,84.5c-0.3,0-1.5,1.4-1.5,4.3s1.2,4.3,1.5,4.3s1.5-1.4,1.5-4.3S224.4,84.5,224.1,84.5z"/>
	<path class="st1" d="M123.2,184.6c-0.3,0-1.5,1.4-1.5,4.3s1.2,4.3,1.5,4.3s1.5-1.4,1.5-4.3C124.7,186.1,123.5,184.6,123.2,184.6z"
		/>
	<path class="st1" d="M72.8,59.4c-0.3,0-1.5,1.4-1.5,4.3s1.2,4.3,1.5,4.3s1.5-1.4,1.5-4.3S73.1,59.4,72.8,59.4z"/>
	<path class="st1" d="M72.8,84.5c-0.3,0-1.5,1.4-1.5,4.3s1.2,4.3,1.5,4.3s1.5-1.4,1.5-4.3S73.1,84.5,72.8,84.5z"/>
	<path class="st1" d="M98,209.7c-0.3,0-1.5,1.4-1.5,4.3s1.2,4.3,1.5,4.3s1.5-1.4,1.5-4.3S98.3,209.7,98,209.7z"/>
	<path class="st1" d="M72.8,109.5c-0.3,0-1.5,1.4-1.5,4.3s1.2,4.3,1.5,4.3s1.5-1.4,1.5-4.3S73.1,109.5,72.8,109.5z"/>
	<path class="st1" d="M224.1,109.5c-0.3,0-1.5,1.4-1.5,4.3s1.2,4.3,1.5,4.3s1.5-1.4,1.5-4.3S224.4,109.5,224.1,109.5z"/>
	<path class="st1" d="M148.5,59.4c-0.3,0-1.5,1.4-1.5,4.3s1.2,4.3,1.5,4.3s1.5-1.4,1.5-4.3S148.8,59.4,148.5,59.4z"/>
	<path class="st1" d="M72.8,184.6c-0.3,0-1.5,1.4-1.5,4.3s1.2,4.3,1.5,4.3s1.5-1.4,1.5-4.3C74.3,186.1,73.1,184.6,72.8,184.6z"/>
	<path class="st1" d="M148.5,184.6c-0.3,0-1.5,1.4-1.5,4.3s1.2,4.3,1.5,4.3s1.5-1.4,1.5-4.3C150,186.1,148.8,184.6,148.5,184.6z"/>
	<path class="st1" d="M148.5,209.7c-0.3,0-1.5,1.4-1.5,4.3s1.2,4.3,1.5,4.3s1.5-1.4,1.5-4.3S148.8,209.7,148.5,209.7z"/>
	<path class="st1" d="M224.1,134.5c-0.3,0-1.5,1.4-1.5,4.3s1.2,4.3,1.5,4.3s1.5-1.4,1.5-4.3C225.6,136,224.4,134.5,224.1,134.5z"/>
	<path class="st1" d="M148.5,34.4c-0.3,0-1.5,1.4-1.5,4.3s1.2,4.3,1.5,4.3s1.5-1.4,1.5-4.3S148.8,34.4,148.5,34.4z"/>
	<path class="st2" d="M72.8,55.7c-3,0-5.2,3.5-5.2,8s2.2,8,5.2,8s5.2-3.4,5.2-8S75.8,55.7,72.8,55.7z M72.8,68
		c-0.3,0-1.5-1.4-1.5-4.3s1.2-4.3,1.5-4.3s1.5,1.4,1.5,4.3C74.3,66.6,73.1,68,72.8,68z"/>
	<path class="st2" d="M85.4,55.9c-1,0-1.9,0.8-1.9,1.9v12.1c0,1,0.8,1.9,1.9,1.9c1,0,1.9-0.8,1.9-1.9V57.8
		C87.3,56.7,86.4,55.9,85.4,55.9z"/>
	<path class="st2" d="M98,55.7c-3,0-5.2,3.5-5.2,8s2.2,8,5.2,8s5.2-3.4,5.2-8S101,55.7,98,55.7z M98,68c-0.3,0-1.5-1.4-1.5-4.3
		s1.2-4.3,1.5-4.3s1.5,1.4,1.5,4.3C99.5,66.6,98.3,68,98,68z"/>
	<path class="st2" d="M110.6,55.9c-1,0-1.9,0.8-1.9,1.9v12.1c0,1,0.8,1.9,1.9,1.9c1,0,1.9-0.8,1.9-1.9V57.8
		C112.5,56.7,111.6,55.9,110.6,55.9z"/>
	<path class="st2" d="M123.2,55.7c-3,0-5.2,3.5-5.2,8s2.2,8,5.2,8s5.2-3.4,5.2-8S126.2,55.7,123.2,55.7z M123.2,68
		c-0.3,0-1.5-1.4-1.5-4.3s1.2-4.3,1.5-4.3s1.5,1.4,1.5,4.3C124.7,66.6,123.5,68,123.2,68z"/>
	<path class="st2" d="M135.9,55.9c-1,0-1.9,0.8-1.9,1.9v12.1c0,1,0.8,1.9,1.9,1.9s1.9-0.8,1.9-1.9V57.8
		C137.7,56.7,136.9,55.9,135.9,55.9z"/>
	<path class="st2" d="M148.5,55.7c-3,0-5.2,3.5-5.2,8s2.2,8,5.2,8s5.2-3.4,5.2-8S151.4,55.7,148.5,55.7z M148.5,68
		c-0.3,0-1.5-1.4-1.5-4.3s1.2-4.3,1.5-4.3s1.5,1.4,1.5,4.3C150,66.6,148.8,68,148.5,68z"/>
	<path class="st2" d="M161.1,55.9c-1,0-1.9,0.8-1.9,1.9v12.1c0,1,0.8,1.9,1.9,1.9s1.9-0.8,1.9-1.9V57.8
		C162.9,56.7,162.1,55.9,161.1,55.9z"/>
	<path class="st2" d="M173.7,55.7c-3,0-5.2,3.5-5.2,8s2.2,8,5.2,8s5.2-3.4,5.2-8S176.7,55.7,173.7,55.7z M173.7,68
		c-0.3,0-1.5-1.4-1.5-4.3s1.2-4.3,1.5-4.3s1.5,1.4,1.5,4.3C175.2,66.6,174,68,173.7,68z"/>
	<path class="st2" d="M186.3,55.9c-1,0-1.9,0.8-1.9,1.9v12.1c0,1,0.8,1.9,1.9,1.9s1.9-0.8,1.9-1.9V57.8
		C188.2,56.7,187.3,55.9,186.3,55.9z"/>
	<path class="st2" d="M198.9,55.7c-3,0-5.2,3.5-5.2,8s2.2,8,5.2,8s5.2-3.4,5.2-8S201.9,55.7,198.9,55.7z M198.9,68
		c-0.3,0-1.5-1.4-1.5-4.3s1.2-4.3,1.5-4.3s1.5,1.4,1.5,4.3C200.4,66.6,199.2,68,198.9,68z"/>
	<path class="st2" d="M211.5,55.9c-1,0-1.9,0.8-1.9,1.9v12.1c0,1,0.8,1.9,1.9,1.9c1,0,1.9-0.8,1.9-1.9V57.8
		C213.4,56.7,212.6,55.9,211.5,55.9z"/>
	<path class="st2" d="M110.6,30.8c-1,0-1.9,0.8-1.9,1.9v12.1c0,1,0.8,1.9,1.9,1.9c1,0,1.9-0.8,1.9-1.9V32.7
		C112.5,31.7,111.6,30.8,110.6,30.8z"/>
	<path class="st2" d="M123.2,30.7c-3,0-5.2,3.5-5.2,8s2.2,8,5.2,8s5.2-3.4,5.2-8S126.2,30.7,123.2,30.7z M123.2,43
		c-0.3,0-1.5-1.4-1.5-4.3s1.2-4.3,1.5-4.3s1.5,1.4,1.5,4.3C124.7,41.6,123.5,43,123.2,43z"/>
	<path class="st2" d="M135.9,30.8c-1,0-1.9,0.8-1.9,1.9v12.1c0,1,0.8,1.9,1.9,1.9s1.9-0.8,1.9-1.9V32.7
		C137.7,31.7,136.9,30.8,135.9,30.8z"/>
	<path class="st2" d="M148.5,30.7c-3,0-5.2,3.5-5.2,8s2.2,8,5.2,8s5.2-3.4,5.2-8S151.4,30.7,148.5,30.7z M148.5,43
		c-0.3,0-1.5-1.4-1.5-4.3s1.2-4.3,1.5-4.3s1.5,1.4,1.5,4.3C150,41.6,148.8,43,148.5,43z"/>
	<path class="st2" d="M161.1,30.8c-1,0-1.9,0.8-1.9,1.9v12.1c0,1,0.8,1.9,1.9,1.9s1.9-0.8,1.9-1.9V32.7
		C162.9,31.7,162.1,30.8,161.1,30.8z"/>
	<path class="st2" d="M173.7,30.7c-3,0-5.2,3.5-5.2,8s2.2,8,5.2,8s5.2-3.4,5.2-8S176.7,30.7,173.7,30.7z M173.7,43
		c-0.3,0-1.5-1.4-1.5-4.3s1.2-4.3,1.5-4.3s1.5,1.4,1.5,4.3C175.2,41.6,174,43,173.7,43z"/>
	<path class="st2" d="M72.8,80.7c-3,0-5.2,3.4-5.2,8s2.2,8,5.2,8s5.2-3.4,5.2-8C78,84.2,75.8,80.7,72.8,80.7z M72.8,93.1
		c-0.3,0-1.5-1.4-1.5-4.3s1.2-4.3,1.5-4.3s1.5,1.4,1.5,4.3C74.3,91.6,73.1,93.1,72.8,93.1z"/>
	<path class="st2" d="M85.4,80.9c-1,0-1.9,0.8-1.9,1.9v12.1c0,1,0.8,1.9,1.9,1.9c1,0,1.9-0.8,1.9-1.9V82.8
		C87.3,81.8,86.4,80.9,85.4,80.9z"/>
	<path class="st3" d="M98,80.7c-3,0-5.2,3.4-5.2,8c0,3.9,1.6,6.9,3.9,7.8c1.9-2.9,4.1-5.6,6.5-8.2C103.1,84,100.9,80.7,98,80.7z
		 M98,93.1c-0.3,0-1.5-1.4-1.5-4.3s1.2-4.3,1.5-4.3s1.5,1.4,1.5,4.3C99.5,91.6,98.3,93.1,98,93.1z"/>
	<path class="st3" d="M108.8,82.8v0.7c0.2-0.1,0.3-0.3,0.5-0.4c0.8-0.6,1.7-1.2,2.5-1.8c-0.3-0.3-0.7-0.4-1.1-0.4
		C109.6,80.9,108.8,81.8,108.8,82.8z"/>
	<path class="st3" d="M186.3,80.9c-1,0-1.9,0.8-1.9,1.9v12.1c0,1,0.8,1.9,1.9,1.9s1.9-0.8,1.9-1.9V82.8
		C188.2,81.8,187.3,80.9,186.3,80.9z"/>
	<path class="st2" d="M198.9,80.7c-3,0-5.2,3.4-5.2,8s2.2,8,5.2,8s5.2-3.4,5.2-8C204.1,84.2,201.9,80.7,198.9,80.7z M198.9,93.1
		c-0.3,0-1.5-1.4-1.5-4.3s1.2-4.3,1.5-4.3s1.5,1.4,1.5,4.3C200.4,91.6,199.2,93.1,198.9,93.1z"/>
	<path class="st2" d="M211.5,80.9c-1,0-1.9,0.8-1.9,1.9v12.1c0,1,0.8,1.9,1.9,1.9c1,0,1.9-0.8,1.9-1.9V82.8
		C213.4,81.8,212.6,80.9,211.5,80.9z"/>
	<path class="st2" d="M224.1,80.7c-3,0-5.2,3.4-5.2,8s2.2,8,5.2,8s5.2-3.4,5.2-8C229.4,84.2,227.1,80.7,224.1,80.7z M224.1,93.1
		c-0.3,0-1.5-1.4-1.5-4.3s1.2-4.3,1.5-4.3s1.5,1.4,1.5,4.3C225.6,91.6,224.4,93.1,224.1,93.1z"/>
	<path class="st2" d="M60.2,106c-1,0-1.9,0.8-1.9,1.9V120c0,1,0.8,1.9,1.9,1.9c1,0,1.9-0.8,1.9-1.9v-12.2
		C62,106.8,61.2,106,60.2,106z"/>
	<path class="st2" d="M72.8,105.8c-3,0-5.2,3.4-5.2,8s2.2,8,5.2,8s5.2-3.5,5.2-8S75.8,105.8,72.8,105.8z M72.8,118.1
		c-0.3,0-1.5-1.4-1.5-4.3s1.2-4.3,1.5-4.3s1.5,1.4,1.5,4.3S73.1,118.1,72.8,118.1z"/>
	<path class="st3" d="M85.4,106c-1,0-1.9,0.8-1.9,1.9V120c0,1,0.8,1.9,1.9,1.9c1,0,1.9-0.8,1.9-1.9v-12.2
		C87.3,106.8,86.4,106,85.4,106z"/>
	<path class="st3" d="M198.9,105.8c-3,0-5.2,3.4-5.2,8s2.2,8,5.2,8s5.2-3.5,5.2-8S201.9,105.8,198.9,105.8z M198.9,118.1
		c-0.3,0-1.5-1.4-1.5-4.3s1.2-4.3,1.5-4.3s1.5,1.4,1.5,4.3S199.2,118.1,198.9,118.1z"/>
	<path class="st2" d="M211.5,106c-1,0-1.9,0.8-1.9,1.9V120c0,1,0.8,1.9,1.9,1.9c1,0,1.9-0.8,1.9-1.9v-12.2
		C213.4,106.8,212.6,106,211.5,106z"/>
	<path class="st2" d="M224.1,105.8c-3,0-5.2,3.4-5.2,8s2.2,8,5.2,8s5.2-3.5,5.2-8S227.1,105.8,224.1,105.8z M224.1,118.1
		c-0.3,0-1.5-1.4-1.5-4.3s1.2-4.3,1.5-4.3s1.5,1.4,1.5,4.3S224.4,118.1,224.1,118.1z"/>
	<path class="st2" d="M47.6,130.8c-3,0-5.2,3.4-5.2,8s2.2,8,5.2,8s5.2-3.5,5.2-8S50.5,130.8,47.6,130.8z M47.6,143.2
		c-0.3,0-1.5-1.4-1.5-4.3s1.2-4.3,1.5-4.3s1.5,1.4,1.5,4.3C49.1,141.7,47.8,143.2,47.6,143.2z"/>
	<path class="st2" d="M60.2,131c-1,0-1.9,0.8-1.9,1.9V145c0,1,0.8,1.9,1.9,1.9c1,0,1.9-0.8,1.9-1.9v-12.1
		C62,131.9,61.2,131,60.2,131z"/>
	<path class="st2" d="M72.8,130.8c-3,0-5.2,3.4-5.2,8s2.2,8,5.2,8s5.2-3.5,5.2-8S75.8,130.8,72.8,130.8z M72.8,143.2
		c-0.3,0-1.5-1.4-1.5-4.3s1.2-4.3,1.5-4.3s1.5,1.4,1.5,4.3C74.3,141.7,73.1,143.2,72.8,143.2z"/>
	<path class="st3" d="M85.4,131c-1,0-1.9,0.8-1.9,1.9V145c0,1,0.8,1.9,1.9,1.9c1,0,1.9-0.8,1.9-1.9v-12.1
		C87.3,131.9,86.4,131,85.4,131z"/>
	<path class="st3" d="M198.9,130.8c-3,0-5.2,3.4-5.2,8s2.2,8,5.2,8s5.2-3.5,5.2-8S201.9,130.8,198.9,130.8z M198.9,143.2
		c-0.3,0-1.5-1.4-1.5-4.3s1.2-4.3,1.5-4.3s1.5,1.4,1.5,4.3C200.4,141.7,199.2,143.2,198.9,143.2z"/>
	<path class="st2" d="M211.5,131c-1,0-1.9,0.8-1.9,1.9V145c0,1,0.8,1.9,1.9,1.9c1,0,1.9-0.8,1.9-1.9v-12.1
		C213.4,131.9,212.6,131,211.5,131z"/>
	<path class="st2" d="M224.1,130.8c-3,0-5.2,3.4-5.2,8s2.2,8,5.2,8s5.2-3.5,5.2-8S227.1,130.8,224.1,130.8z M224.1,143.2
		c-0.3,0-1.5-1.4-1.5-4.3s1.2-4.3,1.5-4.3s1.5,1.4,1.5,4.3C225.6,141.7,224.4,143.2,224.1,143.2z"/>
	<path class="st2" d="M47.6,155.9c-3,0-5.2,3.4-5.2,8s2.2,8,5.2,8s5.2-3.4,5.2-8S50.5,155.9,47.6,155.9z M47.6,168.2
		c-0.3,0-1.5-1.4-1.5-4.3s1.2-4.3,1.5-4.3s1.5,1.4,1.5,4.3S47.8,168.2,47.6,168.2z"/>
	<path class="st2" d="M60.2,156.1c-1,0-1.9,0.8-1.9,1.9v12.1c0,1,0.8,1.9,1.9,1.9c1,0,1.9-0.8,1.9-1.9V158
		C62,156.9,61.2,156.1,60.2,156.1z"/>
	<path class="st2" d="M72.8,155.9c-3,0-5.2,3.4-5.2,8s2.2,8,5.2,8s5.2-3.4,5.2-8S75.8,155.9,72.8,155.9z M72.8,168.2
		c-0.3,0-1.5-1.4-1.5-4.3s1.2-4.3,1.5-4.3s1.5,1.4,1.5,4.3S73.1,168.2,72.8,168.2z"/>
	<path class="st2" d="M85.4,156.1c-1,0-1.9,0.8-1.9,1.9v12.1c0,1,0.8,1.9,1.9,1.9c1,0,1.9-0.8,1.9-1.9V158
		C87.3,156.9,86.4,156.1,85.4,156.1z"/>
	<path class="st3" d="M98.7,156.4c-0.1-0.2-0.2-0.3-0.3-0.5c-0.1,0-0.2,0-0.3,0c-3,0-5.2,3.4-5.2,8s2.2,8,5.2,8s5.2-3.4,5.2-8
		c0-0.9-0.1-1.7-0.2-2.5C101.5,159.9,100,158.2,98.7,156.4z M98,168.2c-0.3,0-1.5-1.4-1.5-4.3s1.2-4.3,1.5-4.3s1.5,1.4,1.5,4.3
		S98.3,168.2,98,168.2z"/>
	<path class="st3" d="M108.8,170.1c0,1,0.8,1.9,1.9,1.9c1,0,1.9-0.8,1.9-1.9v-0.9c-1.3-0.8-2.5-1.7-3.7-2.6L108.8,170.1L108.8,170.1
		z"/>
	<path class="st3" d="M175.2,164.3c-0.1,2.6-1.2,3.9-1.5,3.9c-0.2,0-0.7-0.6-1.1-1.7c-0.2,0.2-0.4,0.3-0.6,0.5
		c-0.8,0.6-1.6,1.2-2.5,1.7c0.9,2,2.4,3.2,4.2,3.2c3,0,5.2-3.4,5.2-8c0-1-0.1-2-0.3-2.9C177.5,162.2,176.4,163.3,175.2,164.3z"/>
	<path class="st3" d="M186.3,156.1c-1,0-1.9,0.8-1.9,1.9v12.1c0,1,0.8,1.9,1.9,1.9s1.9-0.8,1.9-1.9V158
		C188.2,156.9,187.3,156.1,186.3,156.1z"/>
	<path class="st2" d="M198.9,155.9c-3,0-5.2,3.4-5.2,8s2.2,8,5.2,8s5.2-3.4,5.2-8S201.9,155.9,198.9,155.9z M198.9,168.2
		c-0.3,0-1.5-1.4-1.5-4.3s1.2-4.3,1.5-4.3s1.5,1.4,1.5,4.3S199.2,168.2,198.9,168.2z"/>
	<path class="st2" d="M211.5,156.1c-1,0-1.9,0.8-1.9,1.9v12.1c0,1,0.8,1.9,1.9,1.9c1,0,1.9-0.8,1.9-1.9V158
		C213.4,156.9,212.6,156.1,211.5,156.1z"/>
	<path class="st2" d="M72.8,180.9c-3,0-5.2,3.4-5.2,8s2.2,8,5.2,8s5.2-3.5,5.2-8S75.8,180.9,72.8,180.9z M72.8,193.3
		c-0.3,0-1.5-1.4-1.5-4.3s1.2-4.3,1.5-4.3s1.5,1.4,1.5,4.3C74.3,191.8,73.1,193.3,72.8,193.3z"/>
	<path class="st2" d="M85.4,181.1c-1,0-1.9,0.8-1.9,1.9v12.1c0,1,0.8,1.9,1.9,1.9c1,0,1.9-0.8,1.9-1.9V183
		C87.3,181.9,86.4,181.1,85.4,181.1z"/>
	<path class="st2" d="M98,180.9c-3,0-5.2,3.4-5.2,8s2.2,8,5.2,8s5.2-3.5,5.2-8S101,180.9,98,180.9z M98,193.3
		c-0.3,0-1.5-1.4-1.5-4.3s1.2-4.3,1.5-4.3s1.5,1.4,1.5,4.3C99.5,191.8,98.3,193.3,98,193.3z"/>
	<path class="st2" d="M110.6,181.1c-1,0-1.9,0.8-1.9,1.9v12.1c0,1,0.8,1.9,1.9,1.9c1,0,1.9-0.8,1.9-1.9V183
		C112.5,181.9,111.6,181.1,110.6,181.1z"/>
	<path class="st2" d="M123.2,180.9c-3,0-5.2,3.4-5.2,8s2.2,8,5.2,8s5.2-3.5,5.2-8S126.2,180.9,123.2,180.9z M123.2,193.3
		c-0.3,0-1.5-1.4-1.5-4.3s1.2-4.3,1.5-4.3s1.5,1.4,1.5,4.3C124.7,191.8,123.5,193.3,123.2,193.3z"/>
	<path class="st2" d="M135.9,181.1c-1,0-1.9,0.8-1.9,1.9v12.1c0,1,0.8,1.9,1.9,1.9s1.9-0.8,1.9-1.9V183
		C137.7,181.9,136.9,181.1,135.9,181.1z"/>
	<path class="st2" d="M148.5,180.9c-3,0-5.2,3.4-5.2,8s2.2,8,5.2,8s5.2-3.5,5.2-8S151.4,180.9,148.5,180.9z M148.5,193.3
		c-0.3,0-1.5-1.4-1.5-4.3s1.2-4.3,1.5-4.3s1.5,1.4,1.5,4.3C150,191.8,148.8,193.3,148.5,193.3z"/>
	<path class="st2" d="M161.1,181.1c-1,0-1.9,0.8-1.9,1.9v12.1c0,1,0.8,1.9,1.9,1.9s1.9-0.8,1.9-1.9V183
		C162.9,181.9,162.1,181.1,161.1,181.1z"/>
	<path class="st2" d="M173.7,180.9c-3,0-5.2,3.4-5.2,8s2.2,8,5.2,8s5.2-3.5,5.2-8S176.7,180.9,173.7,180.9z M173.7,193.3
		c-0.3,0-1.5-1.4-1.5-4.3s1.2-4.3,1.5-4.3s1.5,1.4,1.5,4.3C175.2,191.8,174,193.3,173.7,193.3z"/>
	<path class="st3" d="M186.3,181.1c-1,0-1.9,0.8-1.9,1.9v12.1c0,1,0.8,1.9,1.9,1.9s1.9-0.8,1.9-1.9V183
		C188.2,181.9,187.3,181.1,186.3,181.1z"/>
	<path class="st2" d="M98,206c-3,0-5.2,3.5-5.2,8s2.2,8,5.2,8s5.2-3.4,5.2-8S101,206,98,206z M98,218.3c-0.3,0-1.5-1.4-1.5-4.3
		s1.2-4.3,1.5-4.3s1.5,1.4,1.5,4.3S98.3,218.3,98,218.3z"/>
	<path class="st2" d="M110.6,206.1c-1,0-1.9,0.8-1.9,1.9v12.1c0,1,0.8,1.9,1.9,1.9c1,0,1.9-0.8,1.9-1.9V208
		C112.5,207,111.6,206.1,110.6,206.1z"/>
	<path class="st2" d="M123.2,206c-3,0-5.2,3.5-5.2,8s2.2,8,5.2,8s5.2-3.4,5.2-8S126.2,206,123.2,206z M123.2,218.3
		c-0.3,0-1.5-1.4-1.5-4.3s1.2-4.3,1.5-4.3s1.5,1.4,1.5,4.3S123.5,218.3,123.2,218.3z"/>
	<path class="st2" d="M135.9,206.1c-1,0-1.9,0.8-1.9,1.9v12.1c0,1,0.8,1.9,1.9,1.9s1.9-0.8,1.9-1.9V208
		C137.7,207,136.9,206.1,135.9,206.1z"/>
	<path class="st2" d="M148.5,206c-3,0-5.2,3.5-5.2,8s2.2,8,5.2,8s5.2-3.4,5.2-8S151.4,206,148.5,206z M148.5,218.3
		c-0.3,0-1.5-1.4-1.5-4.3s1.2-4.3,1.5-4.3s1.5,1.4,1.5,4.3S148.8,218.3,148.5,218.3z"/>
	<path class="st2" d="M161.1,206.1c-1,0-1.9,0.8-1.9,1.9v12.1c0,1,0.8,1.9,1.9,1.9s1.9-0.8,1.9-1.9V208
		C162.9,207,162.1,206.1,161.1,206.1z"/>
	<path class="st1" d="M148.5,134.5c-0.3,0-1.5,1.4-1.5,4.3s1.2,4.3,1.5,4.3s1.5-1.4,1.5-4.3C150,136,148.8,134.5,148.5,134.5z"/>
	<path class="st1" d="M148.5,159.6c-0.3,0-1.5,1.4-1.5,4.3s1.2,4.3,1.5,4.3s1.5-1.4,1.5-4.3C150,161,148.8,159.6,148.5,159.6z"/>
	<path class="st1" d="M123.2,84.5c-0.3,0-1.5,1.4-1.5,4.3s1.2,4.3,1.5,4.3s1.5-1.4,1.5-4.3S123.5,84.5,123.2,84.5z"/>
	<path class="st1" d="M123.2,109.5c-0.3,0-1.5,1.4-1.5,4.3s1.2,4.3,1.5,4.3s1.5-1.4,1.5-4.3S123.5,109.5,123.2,109.5z"/>
	<path class="st1" d="M173.7,84.5c-0.3,0-1.5,1.5-1.5,4.3c0,2.9,1.2,4.3,1.5,4.3s1.5-1.4,1.5-4.3c0-2-0.6-3.3-1-3.9
		C174,84.7,173.8,84.6,173.7,84.5z"/>
	<path class="st1" d="M173.7,134.5c-0.3,0-1.5,1.4-1.5,4.3s1.2,4.3,1.5,4.3s1.5-1.4,1.5-4.3C175.2,136,174,134.5,173.7,134.5z"/>
	<path class="st1" d="M148.5,84.5c-0.3,0-1.5,1.4-1.5,4.3s1.2,4.3,1.5,4.3s1.5-1.4,1.5-4.3S148.8,84.5,148.5,84.5z"/>
	<path class="st1" d="M173.7,159.6c-0.3,0-1.5,1.4-1.5,4.3c0,1,0.2,1.9,0.4,2.6c0.9-0.7,1.8-1.4,2.6-2.2c0-0.1,0-0.3,0-0.4
		C175.2,161,174,159.6,173.7,159.6z"/>
	<path class="st1" d="M148.5,109.5c-0.3,0-1.5,1.4-1.5,4.3s1.2,4.3,1.5,4.3s1.5-1.4,1.5-4.3S148.8,109.5,148.5,109.5z"/>
	<path class="st1" d="M173.7,109.5c-0.3,0-1.5,1.4-1.5,4.3s1.2,4.3,1.5,4.3s1.5-1.4,1.5-4.3S174,109.5,173.7,109.5z"/>
	<path class="st1" d="M98,134.5c-0.3,0-1.5,1.4-1.5,4.3s1.2,4.3,1.5,4.3s1.5-1.4,1.5-4.3C99.5,136,98.3,134.5,98,134.5z"/>
	<path class="st1" d="M123.2,159.6c-0.3,0-1.5,1.4-1.5,4.3s1.2,4.3,1.5,4.3s1.5-1.4,1.5-4.3C124.7,161,123.5,159.6,123.2,159.6z"/>
	<path class="st1" d="M98,109.5c-0.3,0-1.5,1.4-1.5,4.3s1.2,4.3,1.5,4.3s1.5-1.4,1.5-4.3S98.3,109.5,98,109.5z"/>
	<path class="st1" d="M123.2,134.5c-0.3,0-1.5,1.4-1.5,4.3s1.2,4.3,1.5,4.3s1.5-1.4,1.5-4.3C124.7,136,123.5,134.5,123.2,134.5z"/>
	<path class="st1" d="M186.9,81.9c-0.2,5.2-2.8,9-6.3,9c-3.6,0-6.3-4.2-6.3-9.7c0-3.4,1-6.2,2.6-8c-20.8-14.6-49.2-15.6-71.2-1
		c0.5,0.4,0.9,1,0.9,1.8v14.7c0,1.2-1,2.2-2.2,2.2s-2.2-1-2.2-2.2V74.8c-2.4,1.8-4.7,3.8-6.7,5.9c0,0.2,0,0.3,0,0.5
		c0,5.5-2.7,9.7-6.3,9.7c-0.6,0-1.1-0.1-1.6-0.3c-13.9,21.4-13.9,50.1,2,71.8c2.7,0.2,4.9,2.9,5.7,6.7c2.2,2.3,4.5,4.3,7,6.2v-10.5
		c0-1.2,1-2.2,2.2-2.2s2.2,1,2.2,2.2v13.6c20.6,13.1,47.7,13.5,68.9-0.6c-0.8-1.6-1.2-3.6-1.2-5.8c0-5.5,2.7-9.7,6.3-9.7
		c2.8,0,5,2.5,5.9,6.2c20.8-22,23.5-56.4,4.8-81.5C189.9,85.3,188.5,83.5,186.9,81.9z M89.1,151.5c-3.6,0-6.3-4.2-6.3-9.7
		s2.7-9.7,6.3-9.7s6.3,4.2,6.3,9.7S92.7,151.5,89.1,151.5z M89.1,121.2c-3.6,0-6.3-4.2-6.3-9.7s2.7-9.7,6.3-9.7s6.3,4.2,6.3,9.7
		C95.4,117,92.7,121.2,89.1,121.2z M106.6,149.2c0,1.2-1,2.2-2.2,2.2s-2.2-1-2.2-2.2v-14.7c0-1.2,1-2.2,2.2-2.2s2.2,1,2.2,2.2V149.2
		z M106.6,118.9c0,1.2-1,2.2-2.2,2.2s-2.2-1-2.2-2.2v-14.7c0-1.2,1-2.2,2.2-2.2s2.2,1,2.2,2.2V118.9z M119.6,181.8
		c-3.6,0-6.3-4.2-6.3-9.7s2.7-9.7,6.3-9.7s6.3,4.2,6.3,9.7S123.2,181.8,119.6,181.8z M119.6,151.5c-3.6,0-6.3-4.2-6.3-9.7
		s2.7-9.7,6.3-9.7s6.3,4.2,6.3,9.7S123.2,151.5,119.6,151.5z M119.6,121.2c-3.6,0-6.3-4.2-6.3-9.7s2.7-9.7,6.3-9.7s6.3,4.2,6.3,9.7
		C125.9,117,123.2,121.2,119.6,121.2z M119.6,90.9c-3.6,0-6.3-4.2-6.3-9.7s2.7-9.7,6.3-9.7s6.3,4.2,6.3,9.7S123.2,90.9,119.6,90.9z
		 M137.1,179.5c0,1.2-1,2.2-2.2,2.2s-2.2-1-2.2-2.2v-14.7c0-1.2,1-2.2,2.2-2.2s2.2,1,2.2,2.2V179.5z M137.1,149.2
		c0,1.2-1,2.2-2.2,2.2s-2.2-1-2.2-2.2v-14.7c0-1.2,1-2.2,2.2-2.2s2.2,1,2.2,2.2V149.2z M137.1,118.9c0,1.2-1,2.2-2.2,2.2
		s-2.2-1-2.2-2.2v-14.7c0-1.2,1-2.2,2.2-2.2s2.2,1,2.2,2.2V118.9z M137.1,88.6c0,1.2-1,2.2-2.2,2.2s-2.2-1-2.2-2.2V73.9
		c0-1.2,1-2.2,2.2-2.2s2.2,1,2.2,2.2V88.6z M150.1,181.8c-3.6,0-6.3-4.2-6.3-9.7s2.7-9.7,6.3-9.7c3.6,0,6.3,4.2,6.3,9.7
		S153.7,181.8,150.1,181.8z M150.1,151.5c-3.6,0-6.3-4.2-6.3-9.7s2.7-9.7,6.3-9.7c3.6,0,6.3,4.2,6.3,9.7S153.7,151.5,150.1,151.5z
		 M150.1,121.2c-3.6,0-6.3-4.2-6.3-9.7s2.7-9.7,6.3-9.7c3.6,0,6.3,4.2,6.3,9.7C156.4,117,153.7,121.2,150.1,121.2z M150.1,90.9
		c-3.6,0-6.3-4.2-6.3-9.7s2.7-9.7,6.3-9.7c3.6,0,6.3,4.2,6.3,9.7S153.7,90.9,150.1,90.9z M167.6,179.5c0,1.2-1,2.2-2.2,2.2
		s-2.2-1-2.2-2.2v-14.7c0-1.2,1-2.2,2.2-2.2s2.2,1,2.2,2.2V179.5z M167.6,149.2c0,1.2-1,2.2-2.2,2.2s-2.2-1-2.2-2.2v-14.7
		c0-1.2,1-2.2,2.2-2.2s2.2,1,2.2,2.2V149.2z M167.6,118.9c0,1.2-1,2.2-2.2,2.2s-2.2-1-2.2-2.2v-14.7c0-1.2,1-2.2,2.2-2.2
		s2.2,1,2.2,2.2V118.9z M167.6,88.6c0,1.2-1,2.2-2.2,2.2s-2.2-1-2.2-2.2V73.9c0-1.2,1-2.2,2.2-2.2s2.2,1,2.2,2.2V88.6z M180.6,151.5
		c-3.6,0-6.3-4.2-6.3-9.7s2.7-9.7,6.3-9.7c3.6,0,6.3,4.2,6.3,9.7S184.2,151.5,180.6,151.5z M180.6,121.2c-3.6,0-6.3-4.2-6.3-9.7
		s2.7-9.7,6.3-9.7c3.6,0,6.3,4.2,6.3,9.7C186.9,117,184.2,121.2,180.6,121.2z M193.6,104.2c0-1.2,1-2.2,2.2-2.2s2.2,1,2.2,2.2v14.7
		c0,1.2-1,2.2-2.2,2.2s-2.2-1-2.2-2.2V104.2z M193.6,134.5c0-1.2,1-2.2,2.2-2.2s2.2,1,2.2,2.2v14.7c0,1.2-1,2.2-2.2,2.2
		s-2.2-1-2.2-2.2V134.5z"/>
	<path class="st3" d="M87.5,90.6c0.5,0.2,1.1,0.3,1.6,0.3c3.6,0,6.3-4.2,6.3-9.7c0-0.2,0-0.3,0-0.5C92.4,83.7,89.7,87.1,87.5,90.6z"
		/>
	<path class="st2" d="M105.7,72.2c-1,0.7-2.1,1.4-3.1,2.1c-0.2,0.1-0.4,0.3-0.6,0.5v13.9c0,1.2,1,2.2,2.2,2.2s2.2-1,2.2-2.2V74
		C106.6,73.2,106.2,72.6,105.7,72.2z"/>
	<path class="st2" d="M119.6,71.5c-3.6,0-6.3,4.2-6.3,9.7s2.7,9.7,6.3,9.7s6.3-4.2,6.3-9.7S123.2,71.5,119.6,71.5z M119.6,86.4
		c-0.3,0-1.8-1.7-1.8-5.2s1.5-5.2,1.8-5.2s1.8,1.7,1.8,5.2C121.4,84.6,119.9,86.4,119.6,86.4z"/>
	<path class="st2" d="M134.9,71.7c-1.2,0-2.2,1-2.2,2.2v14.7c0,1.2,1,2.2,2.2,2.2s2.2-1,2.2-2.2V73.9
		C137.1,72.7,136.1,71.7,134.9,71.7z"/>
	<path class="st2" d="M150.1,71.5c-3.6,0-6.3,4.2-6.3,9.7s2.7,9.7,6.3,9.7c3.6,0,6.3-4.2,6.3-9.7S153.7,71.5,150.1,71.5z
		 M150.1,86.4c-0.3,0-1.8-1.7-1.8-5.2s1.5-5.2,1.8-5.2s1.8,1.7,1.8,5.2C151.9,84.6,150.5,86.4,150.1,86.4z"/>
	<path class="st2" d="M165.4,71.7c-1.2,0-2.2,1-2.2,2.2v14.7c0,1.2,1,2.2,2.2,2.2s2.2-1,2.2-2.2V73.9
		C167.6,72.7,166.6,71.7,165.4,71.7z"/>
	<path class="st3" d="M181.2,76.5c0.6,0.7,1.3,2.3,1.3,4.7c0,3.5-1.5,5.2-1.8,5.2s-1.8-1.7-1.8-5.2c0-3.4,1.4-5.2,1.8-5.2
		c-1.2-1-2.4-1.9-3.7-2.8c-1.6,1.7-2.6,4.6-2.6,8c0,5.5,2.7,9.7,6.3,9.7c3.4,0,6.1-3.8,6.3-9C185.1,79.9,183.2,78.1,181.2,76.5z"/>
	<path class="st2" d="M89.1,101.8c-3.6,0-6.3,4.2-6.3,9.7s2.7,9.7,6.3,9.7s6.3-4.2,6.3-9.7C95.4,105.9,92.7,101.8,89.1,101.8z
		 M89.1,116.7c-0.3,0-1.8-1.7-1.8-5.2s1.5-5.2,1.8-5.2s1.8,1.7,1.8,5.2C90.9,114.9,89.4,116.7,89.1,116.7z"/>
	<path class="st2" d="M104.3,102c-1.2,0-2.2,1-2.2,2.2v14.7c0,1.2,1,2.2,2.2,2.2s2.2-1,2.2-2.2v-14.7C106.6,103,105.6,102,104.3,102
		z"/>
	<path class="st2" d="M119.6,101.8c-3.6,0-6.3,4.2-6.3,9.7s2.7,9.7,6.3,9.7s6.3-4.2,6.3-9.7C125.9,105.9,123.2,101.8,119.6,101.8z
		 M119.6,116.7c-0.3,0-1.8-1.7-1.8-5.2s1.5-5.2,1.8-5.2s1.8,1.7,1.8,5.2C121.4,114.9,119.9,116.7,119.6,116.7z"/>
	<path class="st2" d="M134.9,102c-1.2,0-2.2,1-2.2,2.2v14.7c0,1.2,1,2.2,2.2,2.2s2.2-1,2.2-2.2v-14.7C137.1,103,136.1,102,134.9,102
		z"/>
	<path class="st2" d="M150.1,101.8c-3.6,0-6.3,4.2-6.3,9.7s2.7,9.7,6.3,9.7c3.6,0,6.3-4.2,6.3-9.7
		C156.4,105.9,153.7,101.8,150.1,101.8z M150.1,116.7c-0.3,0-1.8-1.7-1.8-5.2s1.5-5.2,1.8-5.2s1.8,1.7,1.8,5.2
		C151.9,114.9,150.5,116.7,150.1,116.7z"/>
	<path class="st2" d="M165.4,102c-1.2,0-2.2,1-2.2,2.2v14.7c0,1.2,1,2.2,2.2,2.2s2.2-1,2.2-2.2v-14.7C167.6,103,166.6,102,165.4,102
		z"/>
	<path class="st2" d="M180.6,101.8c-3.6,0-6.3,4.2-6.3,9.7s2.7,9.7,6.3,9.7c3.6,0,6.3-4.2,6.3-9.7
		C186.9,105.9,184.2,101.8,180.6,101.8z M180.6,116.7c-0.3,0-1.8-1.7-1.8-5.2s1.5-5.2,1.8-5.2s1.8,1.7,1.8,5.2
		C182.5,114.9,181,116.7,180.6,116.7z"/>
	<path class="st3" d="M195.9,102c-1.2,0-2.2,1-2.2,2.2v14.7c0,1.2,1,2.2,2.2,2.2s2.2-1,2.2-2.2v-14.7C198.1,103,197.1,102,195.9,102
		z"/>
	<path class="st2" d="M89.1,132c-3.6,0-6.3,4.2-6.3,9.7s2.7,9.7,6.3,9.7s6.3-4.2,6.3-9.7C95.4,136.2,92.7,132,89.1,132z M89.1,147
		c-0.3,0-1.8-1.7-1.8-5.2s1.5-5.2,1.8-5.2s1.8,1.7,1.8,5.2C90.9,145.2,89.4,147,89.1,147z"/>
	<path class="st2" d="M104.3,132.3c-1.2,0-2.2,1-2.2,2.2v14.7c0,1.2,1,2.2,2.2,2.2s2.2-1,2.2-2.2v-14.7
		C106.6,133.3,105.6,132.3,104.3,132.3z"/>
	<path class="st2" d="M119.6,132c-3.6,0-6.3,4.2-6.3,9.7s2.7,9.7,6.3,9.7s6.3-4.2,6.3-9.7C125.9,136.2,123.2,132,119.6,132z
		 M119.6,147c-0.3,0-1.8-1.7-1.8-5.2s1.5-5.2,1.8-5.2s1.8,1.7,1.8,5.2C121.4,145.2,119.9,147,119.6,147z"/>
	<path class="st2" d="M134.9,132.3c-1.2,0-2.2,1-2.2,2.2v14.7c0,1.2,1,2.2,2.2,2.2s2.2-1,2.2-2.2v-14.7
		C137.1,133.3,136.1,132.3,134.9,132.3z"/>
	<path class="st2" d="M150.1,132c-3.6,0-6.3,4.2-6.3,9.7s2.7,9.7,6.3,9.7c3.6,0,6.3-4.2,6.3-9.7C156.4,136.2,153.7,132,150.1,132z
		 M150.1,147c-0.3,0-1.8-1.7-1.8-5.2s1.5-5.2,1.8-5.2s1.8,1.7,1.8,5.2C151.9,145.2,150.5,147,150.1,147z"/>
	<path class="st2" d="M165.4,132.3c-1.2,0-2.2,1-2.2,2.2v14.7c0,1.2,1,2.2,2.2,2.2s2.2-1,2.2-2.2v-14.7
		C167.6,133.3,166.6,132.3,165.4,132.3z"/>
	<path class="st2" d="M180.6,132c-3.6,0-6.3,4.2-6.3,9.7s2.7,9.7,6.3,9.7c3.6,0,6.3-4.2,6.3-9.7C186.9,136.2,184.2,132,180.6,132z
		 M180.6,147c-0.3,0-1.8-1.7-1.8-5.2s1.5-5.2,1.8-5.2s1.8,1.7,1.8,5.2C182.5,145.2,181,147,180.6,147z"/>
	<path class="st3" d="M195.9,132.3c-1.2,0-2.2,1-2.2,2.2v14.7c0,1.2,1,2.2,2.2,2.2s2.2-1,2.2-2.2v-14.7
		C198.1,133.3,197.1,132.3,195.9,132.3z"/>
	<path class="st3" d="M89.5,162.4c0.1,0.2,0.3,0.4,0.4,0.6c1.6,2.2,3.4,4.2,5.2,6.1C94.4,165.3,92.2,162.6,89.5,162.4z"/>
	<path class="st3" d="M104.3,162.6c-1.2,0-2.2,1-2.2,2.2v10.5c1.5,1.1,3,2.2,4.5,3.1v-13.6C106.6,163.6,105.6,162.6,104.3,162.6z"/>
	<path class="st2" d="M119.6,162.3c-3.6,0-6.3,4.2-6.3,9.7s2.7,9.7,6.3,9.7s6.3-4.2,6.3-9.7S123.2,162.3,119.6,162.3z M119.6,177.3
		c-0.3,0-1.8-1.7-1.8-5.2s1.5-5.2,1.8-5.2s1.8,1.7,1.8,5.2C121.4,175.5,119.9,177.3,119.6,177.3z"/>
	<path class="st2" d="M134.9,162.6c-1.2,0-2.2,1-2.2,2.2v14.7c0,1.2,1,2.2,2.2,2.2s2.2-1,2.2-2.2v-14.7
		C137.1,163.6,136.1,162.6,134.9,162.6z"/>
	<path class="st2" d="M150.1,162.3c-3.6,0-6.3,4.2-6.3,9.7s2.7,9.7,6.3,9.7c3.6,0,6.3-4.2,6.3-9.7S153.7,162.3,150.1,162.3z
		 M150.1,177.3c-0.3,0-1.8-1.7-1.8-5.2s1.5-5.2,1.8-5.2s1.8,1.7,1.8,5.2C151.9,175.5,150.5,177.3,150.1,177.3z"/>
	<path class="st2" d="M165.4,162.6c-1.2,0-2.2,1-2.2,2.2v14.7c0,1.2,1,2.2,2.2,2.2s2.2-1,2.2-2.2v-14.7
		C167.6,163.6,166.6,162.6,165.4,162.6z"/>
	<path class="st3" d="M180.6,162.3c-3.6,0-6.3,4.2-6.3,9.7c0,2.2,0.4,4.2,1.2,5.8c1-0.7,2-1.4,3-2.1c0.3-0.2,0.5-0.4,0.8-0.6
		c-0.3-0.8-0.5-1.8-0.5-3.1c0-3.5,1.5-5.2,1.8-5.2s1.8,1.7,1.8,5.2c0,0.2,0,0.3,0,0.5c1.4-1.3,2.8-2.6,4.1-4
		C185.7,164.9,183.4,162.3,180.6,162.3z"/>
	<g>
		<path class="st0" d="M194.3,84.9c-22.2-29.7-64.2-35.7-93.8-13.5C70.8,93.6,64.8,135.6,87,165.2c20.3,27.2,57.2,34.5,86.1,18.5
			l17.5,23.2l14.7-11l-17.5-23.2C211.2,149.6,214.6,112,194.3,84.9z M171.9,167c-23.1,17.3-56,12.5-73.3-10.6s-12.5-56,10.6-73.3
			c23.1-17.3,56-12.5,73.3,10.6C199.8,116.8,195.1,149.7,171.9,167z"/>
		<path class="st4" d="M184,92.6c-10.2-13.6-26.4-21.8-43.5-21.8c-11.8,0-23,3.7-32.4,10.8c-23.9,17.9-28.9,51.9-11,75.9
			c10.2,13.6,26.4,21.7,43.5,21.7c11.8,0,23-3.7,32.4-10.8C197,150.5,201.9,116.5,184,92.6z M170.8,165.5c-8.8,6.6-19.2,10-30.2,10
			c-16.1,0-30.9-7.4-40.5-20.2c-8.1-10.8-11.4-24.1-9.5-37.4c1.9-13.4,8.9-25.2,19.7-33.2c8.8-6.6,19.2-10,30.2-10
			c16.1,0,30.9,7.4,40.5,20.2C197.7,117.1,193.1,148.8,170.8,165.5z"/>
		<path class="st4" d="M195.8,83.8c-13.1-17.6-33.3-27.6-55.2-27.6c-15,0-29.2,4.7-41.2,13.7c-14.7,11-24.3,27.1-26.9,45.3
			c-2.6,18.2,2,36.4,13,51.1c13.1,17.6,33.3,27.6,55.2,27.6c11.1,0,22.1-2.7,31.9-7.8l16.5,21.9c0.4,0.5,0.9,0.7,1.5,0.7
			c0.4,0,0.8-0.1,1.1-0.4l14.7-11c0.4-0.3,0.7-0.7,0.7-1.2c0.1-0.5-0.1-1-0.4-1.4l-16.5-21.9C213.5,148.8,216,110.8,195.8,83.8z
			 M186.2,173.8l16.4,21.7l-11.7,8.8l-16.4-21.7c-0.4-0.5-0.9-0.7-1.5-0.7c-0.3,0-0.6,0.1-0.9,0.2c-9.6,5.3-20.5,8.1-31.5,8.1
			c-20.8,0-39.8-9.5-52.2-26.1C78,150.2,73.6,133,76.1,115.8c2.5-17.3,11.5-32.5,25.5-43c11.4-8.5,24.8-13,39-13
			c20.8,0,39.8,9.5,52.3,26.2c19.4,26,16.7,62.7-6.4,85.4C185.7,172,185.7,173.1,186.2,173.8z"/>
	</g>
	<g>
		<path class="st0" d="M185.9,210.3c-1.6,1.2-1.9,3.5-0.7,5l31.6,42.1c1.2,1.6,3.5,1.9,5,0.7l7.9-5.9l-35.9-47.9L185.9,210.3z"/>
		<path class="st0" d="M185.9,210.3c-1.6,1.2-1.9,3.5-0.7,5l31.6,42.1c1.2,1.6,3.5,1.9,5,0.7l7.9-5.9l-35.9-47.9L185.9,210.3z"/>
	</g>
	<path class="st4" d="M117.1,93.7c-12.1,9.1-17.9,24.5-14.9,39.3c0.2,0.9,1,1.5,1.8,1.5c0.1,0,0.3,0,0.4,0c1-0.2,1.7-1.2,1.4-2.2
		c-2.8-13.4,2.5-27.4,13.4-35.6c0.8-0.6,1-1.8,0.4-2.6C119.1,93.3,117.9,93.1,117.1,93.7z"/>
	<path class="st4" d="M109.9,142.7c-0.5-0.9-1.6-1.2-2.5-0.7s-1.2,1.7-0.7,2.5c0.8,1.4,1.7,2.7,2.6,4c0.4,0.5,0.9,0.7,1.5,0.7
		c0.4,0,0.8-0.1,1.1-0.4c0.8-0.6,1-1.8,0.4-2.6C111.4,145.1,110.6,143.9,109.9,142.7z"/>
	<path class="st5" d="M215,193c-1.2-1.6-3.5-1.9-5-0.7l-24,18c-1.6,1.2-1.9,3.5-0.7,5l31.6,42.1c1.2,1.6,3.5,1.9,5,0.7l24-18
		c1.6-1.2,1.9-3.5,0.7-5L215,193z"/>
	<path class="st2" d="M215,193c-1.2-1.6-3.5-1.9-5-0.7l-24,18c-1.6,1.2-1.9,3.5-0.7,5l31.6,42.1c1.2,1.6,3.5,1.9,5,0.7l24-18
		c1.6-1.2,1.9-3.5,0.7-5L215,193z"/>
	<path class="st0" d="M209.9,192.3l-24,18c-1.6,1.2-1.9,3.5-0.7,5l1.8,2.4l29.8-22.3L215,193C213.8,191.5,211.5,191.1,209.9,192.3z"
		/>
	<g>
		<path class="st0" d="M185.9,210.3c-1.6,1.2-1.9,3.5-0.7,5l31.6,42.1c1.2,1.6,3.5,1.9,5,0.7l2.9-2.2L188.8,208L185.9,210.3z"/>
		<path class="st0" d="M185.9,210.3c-1.6,1.2-1.9,3.5-0.7,5l31.6,42.1c1.2,1.6,3.5,1.9,5,0.7l2.9-2.2L188.8,208L185.9,210.3z"/>
	</g>
	<g>
		<path class="st4" d="M216.5,191.9c-1-1.4-2.7-2.2-4.4-2.2c-1.2,0-2.3,0.4-3.3,1.1l-24.1,18c-2.4,1.8-2.9,5.2-1.1,7.6l31.6,42.1
			c1,1.4,2.7,2.2,4.4,2.2c1.2,0,2.3-0.4,3.3-1.1l24.1-18c1.2-0.9,1.9-2.1,2.1-3.6c0.2-1.4-0.2-2.9-1-4L216.5,191.9z M244.7,238.7
			l-24.1,18c-0.4,0.3-0.8,0.3-1,0.3c-0.6,0-1.1-0.3-1.4-0.7l-31.6-42c-0.6-0.8-0.4-1.9,0.3-2.4l24.1-18c0.4-0.3,0.8-0.3,1-0.3
			c0.6,0,1.1,0.3,1.4,0.7l31.6,42.1C245.7,237,245.5,238.1,244.7,238.7z"/>
		<path class="st4" d="M216.5,191.9c-1-1.4-2.7-2.2-4.4-2.2c-1.2,0-2.3,0.4-3.3,1.1l-24.1,18c-2.4,1.8-2.9,5.2-1.1,7.6l31.6,42.1
			c1,1.4,2.7,2.2,4.4,2.2c1.2,0,2.3-0.4,3.3-1.1l24.1-18c1.2-0.9,1.9-2.1,2.1-3.6c0.2-1.4-0.2-2.9-1-4L216.5,191.9z M244.7,238.7
			l-24.1,18c-0.4,0.3-0.8,0.3-1,0.3c-0.6,0-1.1-0.3-1.4-0.7l-31.6-42c-0.6-0.8-0.4-1.9,0.3-2.4l24.1-18c0.4-0.3,0.8-0.3,1-0.3
			c0.6,0,1.1,0.3,1.4,0.7l31.6,42.1C245.7,237,245.5,238.1,244.7,238.7z"/>
	</g>
</g>
</svg>
