<!-- Generator: Adobe Illustrator 21.1.0, SVG Export Plug-In  -->
<svg version="1.1"
	 xmlns="http://www.w3.org/2000/svg" xmlns:xlink="http://www.w3.org/1999/xlink" xmlns:a="http://ns.adobe.com/AdobeSVGViewerExtensions/3.0/"
	 x="0px" y="0px" width="291.4px" height="291.4px" viewBox="0 0 291.4 291.4" style="enable-background:new 0 0 291.4 291.4;"
	 xml:space="preserve">
<style type="text/css">
	.st0{fill:#FFFFFF;}
	.st1{fill:#262A2C;}
	.st2{fill:#F7EC3D;}
	.st3{fill:#70CDE0;}
	.st4{fill:#7CC360;}
</style>
<defs>
</defs>
<circle class="st0" cx="145.7" cy="145.7" r="145.7"/>
<g>
	<path class="st0" d="M43.2,211.2L43.2,211.2c0.1,10.6,29.7,19.2,66.2,19.2s66.1-8.6,66.2-19.2l0,0V180H43.2V211.2z"/>
	<path class="st1" d="M175.7,178.3H43.2c-1,0-1.7,0.8-1.7,1.7v31.2v0.1c0.4,13.5,35.2,20.8,68,20.8s67.6-7.3,68-20.8v-0.1V180
		C177.4,179,176.6,178.3,175.7,178.3z M173.9,211.1C173.9,211.2,173.9,211.2,173.9,211.1c-0.1,8.3-26.6,17.5-64.5,17.5
		s-64.4-9.2-64.5-17.5V211v-29.4h129V211.1z"/>
	<ellipse class="st0" cx="109.4" cy="180" rx="66.2" ry="19.2"/>
	<path class="st1" d="M109.4,159c-33,0-68,7.4-68,21s35,21,68,21s68-7.4,68-21S142.4,159,109.4,159z M109.4,197.5
		c-38,0-64.5-9.2-64.5-17.5s26.5-17.5,64.5-17.5s64.5,9.2,64.5,17.5S147.4,197.5,109.4,197.5z"/>
	<path class="st2" d="M46.7,175.7L46.7,175.7c0.1,10,28.2,18.2,62.8,18.2s62.7-8.1,62.8-18.2l0,0v-13.3H46.7V175.7z"/>
	<path class="st1" d="M172.2,160.7H46.7c-1,0-1.7,0.8-1.7,1.7v13.3v0.1c0.4,12.8,33.5,19.8,64.5,19.8c31.1,0,64.2-6.9,64.5-19.8
		v-0.1v-13.3C174,161.4,173.2,160.7,172.2,160.7z M170.5,175.6L170.5,175.6c-0.1,7.9-25.2,16.5-61,16.5c-35.9,0-60.9-8.7-61-16.5
		v-0.1v-11.4h122.1v11.5H170.5z"/>
	<g>
		<ellipse class="st3" cx="109.4" cy="162.4" rx="62.8" ry="18.2"/>
		<path class="st1" d="M109.4,142.4c-31.3,0-64.5,7-64.5,20s33.2,20,64.5,20s64.5-7,64.5-20C174,149.4,140.7,142.4,109.4,142.4z
			 M109.4,178.9c-36,0-61-8.7-61-16.5s25.1-16.5,61-16.5s61,8.7,61,16.5C170.5,170.2,145.4,178.9,109.4,178.9z"/>
	</g>
	<path class="st0" d="M43.2,161.3L43.2,161.3c0.1,10.6,29.7,19.2,66.2,19.2s66.1-8.6,66.2-19.2l0,0v-31.2H43.2V161.3z"/>
	<path class="st1" d="M175.7,128.4H43.2c-1,0-1.7,0.8-1.7,1.7v31.2v0.1c0.4,13.5,35.2,20.8,68,20.8s67.6-7.3,68-20.8v-0.1v-31.2
		C177.4,129.2,176.6,128.4,175.7,128.4z M173.9,161.2C173.9,161.3,173.9,161.3,173.9,161.2c-0.1,8.3-26.6,17.5-64.5,17.5
		s-64.4-9.2-64.5-17.5v-0.1v-29.4h129V161.2z"/>
	<ellipse class="st0" cx="109.4" cy="130.1" rx="66.2" ry="19.2"/>
	<path class="st1" d="M109.4,109.1c-33,0-68,7.4-68,21s35,21,68,21s68-7.4,68-21S142.4,109.1,109.4,109.1z M109.4,147.6
		c-38,0-64.5-9.2-64.5-17.5s26.5-17.5,64.5-17.5s64.5,9.2,64.5,17.5S147.4,147.6,109.4,147.6z"/>
	<path class="st2" d="M46.7,125.8L46.7,125.8c0.1,10,28.2,18.2,62.8,18.2s62.7-8.1,62.8-18.2l0,0v-13.3H46.7V125.8z"/>
	<path class="st1" d="M172.2,110.8H46.7c-1,0-1.7,0.8-1.7,1.7v13.3v0.1c0.4,12.8,33.5,19.8,64.5,19.8c31.1,0,64.2-6.9,64.5-19.8
		v-0.1v-13.3C174,111.5,173.2,110.8,172.2,110.8z M170.5,125.7L170.5,125.7c-0.1,7.9-25.2,16.5-61,16.5c-35.9,0-60.9-8.7-61-16.5
		v-0.1v-11.4h122.1v11.5H170.5z"/>
	<g>
		<ellipse class="st4" cx="109.4" cy="112.5" rx="62.8" ry="18.2"/>
		<path class="st1" d="M109.4,92.5c-31.3,0-64.5,7-64.5,20s33.2,20,64.5,20s64.5-7,64.5-20C174,99.5,140.7,92.5,109.4,92.5z
			 M109.4,129c-36,0-61-8.7-61-16.5S73.5,96,109.4,96s61,8.7,61,16.5C170.5,120.3,145.4,129,109.4,129z"/>
	</g>
	<g>
		<path class="st0" d="M43.2,111.5L43.2,111.5c0.1,10.6,29.7,19.2,66.2,19.2s66.1-8.6,66.2-19.2l0,0V80.3H43.2V111.5z"/>
		<path class="st1" d="M175.7,78.5H43.2c-1,0-1.7,0.8-1.7,1.7v31.2v0.1c0.4,13.5,35.2,20.8,68,20.8s67.6-7.3,68-20.8v-0.1V80.2
			C177.4,79.3,176.6,78.5,175.7,78.5z M173.9,111.4L173.9,111.4c-0.1,8.3-26.6,17.5-64.5,17.5s-64.4-9.2-64.5-17.5v-0.1V81.9h129
			V111.4z"/>
	</g>
	<g>
		<ellipse class="st0" cx="109.4" cy="80.2" rx="66.2" ry="19.2"/>
		<path class="st1" d="M109.4,59.3c-33,0-68,7.4-68,21s35,21,68,21s68-7.4,68-21C177.4,66.6,142.4,59.3,109.4,59.3z M109.4,97.7
			c-38,0-64.5-9.2-64.5-17.5s26.5-17.5,64.5-17.5s64.5,9.2,64.5,17.5C173.9,88.5,147.4,97.7,109.4,97.7z"/>
	</g>
	<g>
		<rect x="201.5" y="66.7" class="st0" width="46.6" height="46.6"/>
		<path class="st1" d="M248.1,65h-46.6c-1,0-1.7,0.8-1.7,1.7v46.6c0,1,0.8,1.7,1.7,1.7h46.6c1,0,1.7-0.8,1.7-1.7V66.7
			C249.9,65.7,249.1,65,248.1,65z M246.4,111.5h-43.1V68.4h43.1V111.5z"/>
	</g>
	<path class="st2" d="M221.8,95.4l-8.4-7l-3.5,4.3l10.6,8.8c0.5,0.4,1.1,0.6,1.8,0.6c0.1,0,0.2,0,0.3,0c0.7-0.1,1.4-0.5,1.9-1.1
		l15.4-19.9l-4.4-3.4L221.8,95.4z"/>
	<g>
		<rect x="201.5" y="178.1" class="st0" width="46.6" height="46.6"/>
		<path class="st1" d="M248.1,176.4h-46.6c-1,0-1.7,0.8-1.7,1.7v46.6c0,1,0.8,1.7,1.7,1.7h46.6c1,0,1.7-0.8,1.7-1.7v-46.6
			C249.9,177.2,249.1,176.4,248.1,176.4z M246.4,223h-43.1v-43.1h43.1V223z"/>
	</g>
	<path class="st2" d="M235.6,198.4h-2.9v-2.9c0-4.3-3.5-7.9-7.8-7.9s-7.8,3.5-7.8,7.9v2.9h-2.9c-0.7,0-1.3,0.6-1.3,1.3v14.2
		c0,0.7,0.6,1.3,1.3,1.3h21.4c0.7,0,1.3-0.6,1.3-1.3v-14.2C236.9,199,236.3,198.4,235.6,198.4z M227.2,211.6h-4.6l1.2-4.3
		c-1-0.4-1.7-1.4-1.7-2.6c0-1.5,1.2-2.8,2.8-2.8c1.5,0,2.8,1.2,2.8,2.8c0,1.1-0.7,2.1-1.7,2.6L227.2,211.6z M230.7,198.9H219v-3.2
		c0-3.3,2.6-5.9,5.8-5.9c3.2,0,5.8,2.7,5.8,5.9v3.2H230.7z"/>
	<path class="st1" d="M224.8,117.9c-1,0-1.7,0.8-1.7,1.7v3.5c0,1,0.8,1.7,1.7,1.7s1.7-0.8,1.7-1.7v-3.5
		C226.6,118.6,225.8,117.9,224.8,117.9z"/>
	<path class="st1" d="M224.8,153.1c-1,0-1.7,0.8-1.7,1.7v6.3c0,1,0.8,1.7,1.7,1.7s1.7-0.8,1.7-1.7v-6.3
		C226.6,153.9,225.8,153.1,224.8,153.1z"/>
	<path class="st1" d="M224.8,140.4c-1,0-1.7,0.8-1.7,1.7v6.3c0,1,0.8,1.7,1.7,1.7s1.7-0.8,1.7-1.7v-6.3
		C226.6,141.2,225.8,140.4,224.8,140.4z"/>
	<path class="st1" d="M224.8,127.7c-1,0-1.7,0.8-1.7,1.7v6.3c0,1,0.8,1.7,1.7,1.7s1.7-0.8,1.7-1.7v-6.3
		C226.6,128.5,225.8,127.7,224.8,127.7z"/>
	<path class="st1" d="M224.8,165.8c-1,0-1.7,0.8-1.7,1.7v3.5c0,1,0.8,1.7,1.7,1.7s1.7-0.8,1.7-1.7v-3.5
		C226.6,166.6,225.8,165.8,224.8,165.8z"/>
</g>
</svg>
