<!-- Generator: Adobe Illustrator 21.1.0, SVG Export Plug-In  -->
<svg version="1.1"
	 xmlns="http://www.w3.org/2000/svg" xmlns:xlink="http://www.w3.org/1999/xlink" xmlns:a="http://ns.adobe.com/AdobeSVGViewerExtensions/3.0/"
	 x="0px" y="0px" width="101px" height="217px" viewBox="0 0 101 217" style="enable-background:new 0 0 101 217;"
	 xml:space="preserve">
<defs>
</defs>
<g>
	<path d="M48,147v58c0,7-6,12-12,12l0,0c-7,0-13-5-13-12c0-44,0-89,0-133h-3v59c0,10-20,13-20,0V61c0-5,4-13,9-13c28,0,55,0,83,0
		c5,0,9,8,9,13v70c0,13-20,10-20,0V72h-3c0,44,0,89,0,133c0,7-6,12-13,12l0,0c-6,0-12-5-12-12v-58H48z"/>
	<circle cx="50" cy="22" r="22"/>
</g>
</svg>
