<!-- Generator: Adobe Illustrator 21.1.0, SVG Export Plug-In  -->
<svg version="1.1"
	 xmlns="http://www.w3.org/2000/svg" xmlns:xlink="http://www.w3.org/1999/xlink" xmlns:a="http://ns.adobe.com/AdobeSVGViewerExtensions/3.0/"
	 x="0px" y="0px" width="276px" height="200.6px" viewBox="0 0 276 200.6" style="enable-background:new 0 0 276 200.6;"
	 xml:space="preserve">
<style type="text/css">
	.st0{fill:#262A2C;}
	.st1{fill:#FFFFFF;}
	.st2{fill:#F7EC3D;}
</style>
<defs>
</defs>
<path class="st0" d="M171,26.6c-1.1,0-2,0.9-2,2v37.9c0,6.1-5,11.1-11.1,11.1s-11.1-5-11.1-11.1v-6.2c0-10.7-8.7-19.4-19.4-19.4
	S108,49.6,108,60.3v40.3c0,1.1,0.9,2,2,2s2-0.9,2-2V60.3c0-8.5,6.9-15.4,15.4-15.4s15.4,6.9,15.4,15.4v6.2c0,8.3,6.8,15.1,15.1,15.1
	c8.3,0,15.1-6.8,15.1-15.1V28.6C173,27.5,172.1,26.6,171,26.6z"/>
<path class="st0" d="M189,10.4c-11,0-20,9-20,20c0,1.1,0.9,2,2,2s2-0.9,2-2c0-8.8,7.2-16,16-16s16,7.2,16,16v34.2c0,1.1,0.9,2,2,2
	s2-0.9,2-2V30.4C208.9,19.4,200,10.4,189,10.4z"/>
<path class="st0" d="M236,80.5c-1.1,0-2,0.9-2,2s0.9,2,2,2c8.8,0,16,7.2,16,16v16.8c0,1.1,0.9,2,2,2s2-0.9,2-2v-16.8
	C256,89.5,247,80.5,236,80.5z"/>
<path class="st0" d="M236,80.5h-11.1c-8.8,0-16-7.2-16-16c0-1.1-0.9-2-2-2s-2,0.9-2,2c0,11,9,20,20,20H236c1.1,0,2-0.9,2-2
	S237.1,80.5,236,80.5z"/>
<path class="st1" d="M209.6,98.9H10.4c-4.6,0-8.4,3.8-8.4,8.4v82.9c0,4.6,3.8,8.4,8.4,8.4h199.1c4.6,0,8.4-3.8,8.4-8.4v-82.9
	C218,102.7,214.2,98.9,209.6,98.9z"/>
<path class="st2" d="M209.6,98.9H10.4c-4.6,0-8.4,3.8-8.4,8.4v76.1c0,4.6,3.8,8.4,8.4,8.4h199.1c4.6,0,8.4-3.8,8.4-8.4v-76.1
	C218,102.7,214.2,98.9,209.6,98.9z"/>
<path class="st0" d="M209.6,96.9H10.4C4.6,96.9,0,101.6,0,107.3v82.9c0,5.8,4.7,10.4,10.4,10.4h199.1c5.8,0,10.4-4.7,10.4-10.4
	v-82.9C220,101.5,215.3,96.9,209.6,96.9z M216,190.2c0,3.5-2.9,6.4-6.4,6.4H10.4c-3.5,0-6.4-2.9-6.4-6.4v-82.9
	c0-3.5,2.9-6.4,6.4-6.4h199.1c3.5,0,6.4,2.9,6.4,6.4v82.9H216z"/>
<path class="st1" d="M23.6,113.4c-1.3,0-8.9,0-8.9,0s-1.3,0-2.5,0c-1.3,0-1.2,1.3-1.2,1.3v5.4v5.4c0,0,0,1.3,1.2,1.3
	c1.3,0,2.5,0,2.5,0s7.6,0,8.9,0c1.3,0,1.2-1.3,1.2-1.3v-5.4v-5.4C24.8,114.6,24.8,113.4,23.6,113.4z"/>
<path class="st1" d="M43.8,113.4c-1.3,0-8.9,0-8.9,0s-1.3,0-2.5,0c-1.3,0-1.2,1.3-1.2,1.3v5.4v5.4c0,0,0,1.3,1.2,1.3
	c1.3,0,2.5,0,2.5,0s7.6,0,8.9,0c1.3,0,1.2-1.3,1.2-1.3v-5.4v-5.4C45,114.6,45,113.4,43.8,113.4z"/>
<path class="st1" d="M64,113.4c-1.3,0-8.9,0-8.9,0s-1.3,0-2.5,0c-1.3,0-1.2,1.3-1.2,1.3v5.4v5.4c0,0,0,1.3,1.2,1.3
	c1.3,0,2.5,0,2.5,0s7.6,0,8.9,0c1.3,0,1.2-1.3,1.2-1.3v-5.4v-5.4C65.2,114.6,65.2,113.4,64,113.4z"/>
<path class="st1" d="M84.2,113.4c-1.3,0-8.9,0-8.9,0s-1.3,0-2.5,0c-1.3,0-1.2,1.3-1.2,1.3v5.4v5.4c0,0,0,1.3,1.2,1.3
	c1.3,0,2.5,0,2.5,0s7.6,0,8.9,0c1.3,0,1.2-1.3,1.2-1.3v-5.4v-5.4C85.4,114.6,85.4,113.4,84.2,113.4z"/>
<path class="st1" d="M104.4,113.4c-1.3,0-8.9,0-8.9,0s-1.3,0-2.5,0c-1.3,0-1.2,1.3-1.2,1.3v5.4v5.4c0,0,0,1.3,1.2,1.3
	c1.3,0,2.5,0,2.5,0s7.6,0,8.9,0s1.2-1.3,1.2-1.3v-5.4v-5.4C105.6,114.6,105.6,113.4,104.4,113.4z"/>
<path class="st1" d="M124.6,113.4c-1.3,0-8.9,0-8.9,0s-1.3,0-2.5,0c-1.3,0-1.2,1.3-1.2,1.3v5.4v5.4c0,0,0,1.3,1.2,1.3
	c1.3,0,2.5,0,2.5,0s7.6,0,8.9,0s1.2-1.3,1.2-1.3v-5.4v-5.4C125.8,114.6,125.8,113.4,124.6,113.4z"/>
<path class="st1" d="M144.8,113.4c-1.3,0-8.9,0-8.9,0s-1.3,0-2.5,0c-1.3,0-1.2,1.3-1.2,1.3v5.4v5.4c0,0,0,1.3,1.2,1.3
	c1.3,0,2.5,0,2.5,0s7.6,0,8.9,0s1.2-1.3,1.2-1.3v-5.4v-5.4C146,114.6,146,113.4,144.8,113.4z"/>
<path class="st1" d="M165,113.4c-1.3,0-8.9,0-8.9,0s-1.3,0-2.5,0c-1.3,0-1.2,1.3-1.2,1.3v5.4v5.4c0,0,0,1.3,1.2,1.3
	c1.3,0,2.5,0,2.5,0s7.6,0,8.9,0s1.2-1.3,1.2-1.3v-5.4v-5.4C166.2,114.6,166.2,113.4,165,113.4z"/>
<path class="st1" d="M185.2,113.4c-1.3,0-8.9,0-8.9,0s-1.3,0-2.5,0c-1.3,0-1.2,1.3-1.2,1.3v5.4v5.4c0,0,0,1.3,1.2,1.3
	c1.3,0,2.5,0,2.5,0s7.6,0,8.9,0s1.2-1.3,1.2-1.3v-5.4v-5.4C186.4,114.6,186.4,113.4,185.2,113.4z"/>
<path class="st1" d="M205.4,113.4c-1.3,0-8.9,0-8.9,0s-1.3,0-2.5,0c-1.3,0-1.2,1.3-1.2,1.3v5.4v5.4c0,0,0,1.3,1.2,1.3
	c1.3,0,2.5,0,2.5,0s7.6,0,8.9,0s1.2-1.3,1.2-1.3v-5.4v-5.4C206.6,114.6,206.6,113.4,205.4,113.4z"/>
<path class="st1" d="M23.6,131c-1.3,0-8.9,0-8.9,0s-1.3,0-2.5,0c-1.3,0-1.2,1.3-1.2,1.3v5.4v5.4c0,0,0,1.3,1.2,1.3
	c1.3,0,2.5,0,2.5,0s7.6,0,8.9,0c1.3,0,1.2-1.3,1.2-1.3v-5.4v-5.4C24.8,132.3,24.8,131,23.6,131z"/>
<path class="st1" d="M43.8,131c-1.3,0-8.9,0-8.9,0s-1.3,0-2.5,0c-1.3,0-1.2,1.3-1.2,1.3v5.4v5.4c0,0,0,1.3,1.2,1.3
	c1.3,0,2.5,0,2.5,0s7.6,0,8.9,0c1.3,0,1.2-1.3,1.2-1.3v-5.4v-5.4C45,132.3,45,131,43.8,131z"/>
<path class="st1" d="M64,131c-1.3,0-8.9,0-8.9,0s-1.3,0-2.5,0c-1.3,0-1.2,1.3-1.2,1.3v5.4v5.4c0,0,0,1.3,1.2,1.3c1.3,0,2.5,0,2.5,0
	s7.6,0,8.9,0c1.3,0,1.2-1.3,1.2-1.3v-5.4v-5.4C65.2,132.3,65.2,131,64,131z"/>
<path class="st1" d="M84.2,131c-1.3,0-8.9,0-8.9,0s-1.3,0-2.5,0c-1.3,0-1.2,1.3-1.2,1.3v5.4v5.4c0,0,0,1.3,1.2,1.3
	c1.3,0,2.5,0,2.5,0s7.6,0,8.9,0c1.3,0,1.2-1.3,1.2-1.3v-5.4v-5.4C85.4,132.3,85.4,131,84.2,131z"/>
<path class="st1" d="M104.4,131c-1.3,0-8.9,0-8.9,0s-1.3,0-2.5,0c-1.3,0-1.2,1.3-1.2,1.3v5.4v5.4c0,0,0,1.3,1.2,1.3
	c1.3,0,2.5,0,2.5,0s7.6,0,8.9,0s1.2-1.3,1.2-1.3v-5.4v-5.4C105.6,132.3,105.6,131,104.4,131z"/>
<path class="st1" d="M124.6,131c-1.3,0-8.9,0-8.9,0s-1.3,0-2.5,0c-1.3,0-1.2,1.3-1.2,1.3v5.4v5.4c0,0,0,1.3,1.2,1.3
	c1.3,0,2.5,0,2.5,0s7.6,0,8.9,0s1.2-1.3,1.2-1.3v-5.4v-5.4C125.8,132.3,125.8,131,124.6,131z"/>
<path class="st1" d="M144.8,131c-1.3,0-8.9,0-8.9,0s-1.3,0-2.5,0c-1.3,0-1.2,1.3-1.2,1.3v5.4v5.4c0,0,0,1.3,1.2,1.3
	c1.3,0,2.5,0,2.5,0s7.6,0,8.9,0s1.2-1.3,1.2-1.3v-5.4v-5.4C146,132.3,146,131,144.8,131z"/>
<path class="st1" d="M165,131c-1.3,0-8.9,0-8.9,0s-1.3,0-2.5,0c-1.3,0-1.2,1.3-1.2,1.3v5.4v5.4c0,0,0,1.3,1.2,1.3c1.3,0,2.5,0,2.5,0
	s7.6,0,8.9,0s1.2-1.3,1.2-1.3v-5.4v-5.4C166.2,132.3,166.2,131,165,131z"/>
<path class="st1" d="M185.2,131c-1.3,0-8.9,0-8.9,0s-1.3,0-2.5,0c-1.3,0-1.2,1.3-1.2,1.3v5.4v5.4c0,0,0,1.3,1.2,1.3
	c1.3,0,2.5,0,2.5,0s7.6,0,8.9,0s1.2-1.3,1.2-1.3v-5.4v-5.4C186.4,132.3,186.4,131,185.2,131z"/>
<path class="st1" d="M205.4,131c-1.3,0-8.9,0-8.9,0s-1.3,0-2.5,0c-1.3,0-1.2,1.3-1.2,1.3v5.4v5.4c0,0,0,1.3,1.2,1.3
	c1.3,0,2.5,0,2.5,0s7.6,0,8.9,0s1.2-1.3,1.2-1.3v-5.4v-5.4C206.6,132.3,206.6,131,205.4,131z"/>
<path class="st1" d="M23.6,148.3c-1.3,0-8.9,0-8.9,0s-1.3,0-2.5,0c-1.3,0-1.2,1.3-1.2,1.3v5.4v5.4c0,0,0,1.3,1.2,1.3
	c1.3,0,2.5,0,2.5,0s7.6,0,8.9,0c1.3,0,1.2-1.3,1.2-1.3V155v-5.4C24.8,149.6,24.8,148.3,23.6,148.3z"/>
<path class="st1" d="M43.8,148.3c-1.3,0-8.9,0-8.9,0s-1.3,0-2.5,0c-1.3,0-1.2,1.3-1.2,1.3v5.4v5.4c0,0,0,1.3,1.2,1.3
	c1.3,0,2.5,0,2.5,0s7.6,0,8.9,0c1.3,0,1.2-1.3,1.2-1.3V155v-5.4C45,149.6,45,148.3,43.8,148.3z"/>
<path class="st1" d="M64,148.3c-1.3,0-8.9,0-8.9,0s-1.3,0-2.5,0c-1.3,0-1.2,1.3-1.2,1.3v5.4v5.4c0,0,0,1.3,1.2,1.3
	c1.3,0,2.5,0,2.5,0s7.6,0,8.9,0c1.3,0,1.2-1.3,1.2-1.3V155v-5.4C65.2,149.6,65.2,148.3,64,148.3z"/>
<path class="st1" d="M84.2,148.3c-1.3,0-8.9,0-8.9,0s-1.3,0-2.5,0c-1.3,0-1.2,1.3-1.2,1.3v5.4v5.4c0,0,0,1.3,1.2,1.3
	c1.3,0,2.5,0,2.5,0s7.6,0,8.9,0c1.3,0,1.2-1.3,1.2-1.3V155v-5.4C85.4,149.6,85.4,148.3,84.2,148.3z"/>
<path class="st1" d="M104.4,148.3c-1.3,0-8.9,0-8.9,0s-1.3,0-2.5,0c-1.3,0-1.2,1.3-1.2,1.3v5.4v5.4c0,0,0,1.3,1.2,1.3
	c1.3,0,2.5,0,2.5,0s7.6,0,8.9,0s1.2-1.3,1.2-1.3V155v-5.4C105.6,149.6,105.6,148.3,104.4,148.3z"/>
<path class="st1" d="M124.6,148.3c-1.3,0-8.9,0-8.9,0s-1.3,0-2.5,0c-1.3,0-1.2,1.3-1.2,1.3v5.4v5.4c0,0,0,1.3,1.2,1.3
	c1.3,0,2.5,0,2.5,0s7.6,0,8.9,0s1.2-1.3,1.2-1.3V155v-5.4C125.8,149.6,125.8,148.3,124.6,148.3z"/>
<path class="st1" d="M144.8,148.3c-1.3,0-8.9,0-8.9,0s-1.3,0-2.5,0c-1.3,0-1.2,1.3-1.2,1.3v5.4v5.4c0,0,0,1.3,1.2,1.3
	c1.3,0,2.5,0,2.5,0s7.6,0,8.9,0s1.2-1.3,1.2-1.3V155v-5.4C146,149.6,146,148.3,144.8,148.3z"/>
<path class="st1" d="M165,148.3c-1.3,0-8.9,0-8.9,0s-1.3,0-2.5,0c-1.3,0-1.2,1.3-1.2,1.3v5.4v5.4c0,0,0,1.3,1.2,1.3
	c1.3,0,2.5,0,2.5,0s7.6,0,8.9,0s1.2-1.3,1.2-1.3V155v-5.4C166.2,149.6,166.2,148.3,165,148.3z"/>
<path class="st1" d="M185.2,148.3c-1.3,0-8.9,0-8.9,0s-1.3,0-2.5,0c-1.3,0-1.2,1.3-1.2,1.3v5.4v5.4c0,0,0,1.3,1.2,1.3
	c1.3,0,2.5,0,2.5,0s7.6,0,8.9,0s1.2-1.3,1.2-1.3V155v-5.4C186.4,149.6,186.4,148.3,185.2,148.3z"/>
<path class="st1" d="M205.4,148.3c-1.3,0-8.9,0-8.9,0s-1.3,0-2.5,0c-1.3,0-1.2,1.3-1.2,1.3v5.4v5.4c0,0,0,1.3,1.2,1.3
	c1.3,0,2.5,0,2.5,0s7.6,0,8.9,0s1.2-1.3,1.2-1.3V155v-5.4C206.6,149.6,206.6,148.3,205.4,148.3z"/>
<path class="st1" d="M23.6,165.6c-1.3,0-8.9,0-8.9,0s-1.3,0-2.5,0c-1.3,0-1.2,1.3-1.2,1.3v5.4v5.4c0,0,0,1.3,1.2,1.3
	c1.3,0,2.5,0,2.5,0s7.6,0,8.9,0c1.3,0,1.2-1.3,1.2-1.3v-5.4v-5.4C24.8,166.9,24.8,165.6,23.6,165.6z"/>
<path class="st1" d="M43.8,165.6c-1.3,0-8.9,0-8.9,0s-1.3,0-2.5,0c-1.3,0-1.2,1.3-1.2,1.3v5.4v5.4c0,0,0,1.3,1.2,1.3
	c1.3,0,2.5,0,2.5,0s7.6,0,8.9,0c1.3,0,1.2-1.3,1.2-1.3v-5.4v-5.4C45,166.9,45,165.6,43.8,165.6z"/>
<path class="st1" d="M64,165.6c-1.3,0-8.9,0-8.9,0s-1.3,0-2.5,0c-1.3,0-1.2,1.3-1.2,1.3v5.4v5.4c0,0,0,1.3,1.2,1.3
	c1.3,0,2.5,0,2.5,0s7.6,0,8.9,0c1.3,0,1.2-1.3,1.2-1.3v-5.4v-5.4C65.2,166.9,65.2,165.6,64,165.6z"/>
<path class="st1" d="M144.8,165.6c-1.3,0-69.5,0-69.5,0s-1.3,0-2.5,0c-1.3,0-1.2,1.3-1.2,1.3v5.4v5.4c0,0,0,1.3,1.2,1.3
	c1.3,0,2.5,0,2.5,0s68.3,0,69.5,0c1.3,0,1.2-1.3,1.2-1.3v-5.4v-5.4C146,166.9,146,165.6,144.8,165.6z"/>
<path class="st1" d="M165,165.6c-1.3,0-8.9,0-8.9,0s-1.3,0-2.5,0c-1.3,0-1.2,1.3-1.2,1.3v5.4v5.4c0,0,0,1.3,1.2,1.3
	c1.3,0,2.5,0,2.5,0s7.6,0,8.9,0s1.2-1.3,1.2-1.3v-5.4v-5.4C166.2,166.9,166.2,165.6,165,165.6z"/>
<path class="st1" d="M185.2,165.6c-1.3,0-8.9,0-8.9,0s-1.3,0-2.5,0c-1.3,0-1.2,1.3-1.2,1.3v5.4v5.4c0,0,0,1.3,1.2,1.3
	c1.3,0,2.5,0,2.5,0s7.6,0,8.9,0s1.2-1.3,1.2-1.3v-5.4v-5.4C186.4,166.9,186.4,165.6,185.2,165.6z"/>
<path class="st1" d="M205.4,165.6c-1.3,0-8.9,0-8.9,0s-1.3,0-2.5,0c-1.3,0-1.2,1.3-1.2,1.3v5.4v5.4c0,0,0,1.3,1.2,1.3
	c1.3,0,2.5,0,2.5,0s7.6,0,8.9,0s1.2-1.3,1.2-1.3v-5.4v-5.4C206.6,166.9,206.6,165.6,205.4,165.6z"/>
<path class="st1" d="M254,117.4c-11,0-20,9.8-20,21.8v21.1c0,12,9,21.8,20,21.8s20-9.8,20-21.8v-21.1C274,127.2,265,117.4,254,117.4
	z"/>
<path class="st2" d="M254,117.4c-11,0-20,9.8-20,21.8v14.4c0,12,9,21.8,20,21.8s20-9.8,20-21.8v-14.4C274,127.2,265,117.4,254,117.4
	z"/>
<ellipse class="st1" cx="254" cy="134.3" rx="3.4" ry="3.8"/>
<path class="st0" d="M254,115.4c-12.2,0-22,10.7-22,23.8v21.1c0,13.1,9.9,23.8,22,23.8c12.2,0,22-10.7,22-23.8v-21.1
	C276,126,266.1,115.4,254,115.4z M272,160.3c0,10.9-8.1,19.8-18,19.8s-18-8.9-18-19.8v-21.1c0-10.9,8.1-19.8,18-19.8s18,8.9,18,19.8
	V160.3z"/>
<g>
	<path d="M46,49.3c-1.1,0-2,0.9-2,2v5.4c0,1.1,0.9,2,2,2s2-0.9,2-2v-5.4C48,50.2,47.1,49.3,46,49.3z"/>
	<path d="M46,70.5c-1.1,0-2,0.9-2,2v5.4c0,1.1,0.9,2,2,2s2-0.9,2-2v-5.4C48,71.4,47.1,70.5,46,70.5z"/>
	<path d="M59.2,62.6h-5.4c-1.1,0-2,0.9-2,2s0.9,2,2,2h5.4c1.1,0,2-0.9,2-2S60.3,62.6,59.2,62.6z"/>
	<path d="M38,62.6h-5.4c-1.1,0-2,0.9-2,2s0.9,2,2,2H38c1.1,0,2-0.9,2-2S39.1,62.6,38,62.6z"/>
</g>
<g>
	<path d="M89.5,74c-1.1,0-2,0.9-2,2v2.7c0,1.1,0.9,2,2,2s2-0.9,2-2V76C91.5,74.9,90.6,74,89.5,74z"/>
	<path d="M89.5,84.5c-1.1,0-2,0.9-2,2v2.7c0,1.1,0.9,2,2,2s2-0.9,2-2v-2.7C91.5,85.4,90.6,84.5,89.5,84.5z"/>
	<path d="M96,80.5h-2.6c-1.1,0-2,0.9-2,2s0.9,2,2,2h2.7c1.1,0,2-0.9,2-2C98,81.4,97.1,80.5,96,80.5z"/>
	<path d="M85.5,80.5h-2.7c-1.1,0-2,0.9-2,2s0.9,2,2,2h2.7c1.1,0,2-0.9,2-2S86.6,80.5,85.5,80.5z"/>
</g>
<g>
	<path d="M102.6,0c-1.1,0-2,0.9-2,2v4.2c0,1.1,0.9,2,2,2s2-0.9,2-2V2C104.6,0.9,103.7,0,102.6,0z"/>
	<path d="M102.6,16.5c-1.1,0-2,0.9-2,2v4.2c0,1.1,0.9,2,2,2s2-0.9,2-2v-4.2C104.6,17.4,103.7,16.5,102.6,16.5z"/>
	<path d="M112.9,10.3h-4.2c-1.1,0-2,0.9-2,2s0.9,2,2,2h4.2c1.1,0,2-0.9,2-2C114.9,11.2,114,10.3,112.9,10.3z"/>
	<path d="M96.5,10.3h-4.2c-1.1,0-2,0.9-2,2s0.9,2,2,2h4.2c1.1,0,2-0.9,2-2C98.5,11.2,97.6,10.3,96.5,10.3z"/>
</g>
<g>
	<path d="M189.1,67.3c-1.1,0-2,0.9-2,2v3.4c0,1.1,0.9,2,2,2s2-0.9,2-2v-3.4C191.1,68.2,190.2,67.3,189.1,67.3z"/>
	<path d="M189.1,80.7c-1.1,0-2,0.9-2,2v3.4c0,1.1,0.9,2,2,2s2-0.9,2-2v-3.4C191.1,81.6,190.2,80.7,189.1,80.7z"/>
	<path d="M197.5,75.7h-3.4c-1.1,0-2,0.9-2,2s0.9,2,2,2h3.4c1.1,0,2-0.9,2-2S198.6,75.7,197.5,75.7z"/>
	<path d="M184.1,75.7h-3.4c-1.1,0-2,0.9-2,2s0.9,2,2,2h3.4c1.1,0,2-0.9,2-2S185.2,75.7,184.1,75.7z"/>
</g>
</svg>
