<!-- Generator: Adobe Illustrator 21.1.0, SVG Export Plug-In  -->
<svg version="1.1"
	 xmlns="http://www.w3.org/2000/svg" xmlns:xlink="http://www.w3.org/1999/xlink" xmlns:a="http://ns.adobe.com/AdobeSVGViewerExtensions/3.0/"
	 x="0px" y="0px" width="243.6px" height="213.7px" viewBox="0 0 243.6 213.7" style="enable-background:new 0 0 243.6 213.7;"
	 xml:space="preserve">
<style type="text/css">
	.st0{fill:#262A2C;}
	.st1{fill:#F7EC3D;}
	.st2{fill:#FFFFFF;}
</style>
<defs>
</defs>
<g>
	<g>
		<path class="st0" d="M241.6,48.6h-5.5c-1.7-7.4-8.3-12.9-16-13.2c-3.5-10-13-16.9-23.7-16.9c-9.2,0-17.7,5.1-22.1,13.1
			c-0.4,0-0.7,0-1,0c-10.8,0-19.7,8.1-20.8,18.8c-0.1,1.1,0.7,2.1,1.8,2.2c0.1,0,0.1,0,0.2,0c1,0,1.9-0.8,2-1.8
			c0.9-8.6,8.1-15.2,16.8-15.2c0.6,0,1.2,0,2,0.1c0.9,0.1,1.7-0.4,2-1.1c3.5-7.4,11-12.1,19.1-12.1c9.5,0,17.8,6.4,20.4,15.5
			c0.3,0.9,1.1,1.5,2,1.5h0.2c0.2,0,0.3,0,0.5,0c6.6,0,12.2,4.9,13,11.4c0.1,1,1,1.7,2,1.7h7.1c1.1,0,2-0.9,2-2
			C243.6,49.5,242.7,48.6,241.6,48.6z"/>
	</g>
	<ellipse class="st1" cx="123" cy="186.7" rx="109.1" ry="27"/>
	<g>
		<path class="st1" d="M72.5,2L72.5,2c-0.1,0-0.3,0-0.4,0s-0.3,0-0.4,0l0,0C33,2.6,1.8,34.1,1.8,72.9c0,7,2.3,15.7,6.1,25.1
			c15.7,39.2,64,101.4,64.2,101.2c0.1,0.2,48.5-62.1,64.2-101.2c3.8-9.4,6.1-18,6.1-25.1C142.4,34.1,111.2,2.6,72.5,2z M112.4,74
			c-1.6,21-18.9,37.6-40.2,37.9C50.9,111.6,33.6,95,32,74c-0.1-1-0.2-2.1-0.2-3.1c0-22.4,18-40.7,40.4-41
			c22.4,0.4,40.4,18.6,40.4,41C112.5,71.9,112.5,73,112.4,74z"/>
	</g>
	<g>
		<path class="st0" d="M72.9,0c-0.2,0-0.4,0-0.6,0h-0.1h-0.1c-0.2,0-0.4,0-0.6,0C52.4,0.4,34.4,8,21,21.7C7.5,35.4,0,53.6,0,72.9
			c0,6.8,2.1,15.5,6.2,25.8c8.2,20.5,25.2,47,38,65.7c7.5,10.8,14.1,20,18.4,25.7c8.3,11.1,8.3,11.1,9.5,11.1h0.1
			c1.1,0,1.5-0.4,9.4-11.1c4.3-5.7,11-14.9,18.4-25.7c12.8-18.7,29.9-45.2,38-65.7c4.1-10.3,6.2-19,6.2-25.8
			c0-19.3-7.5-37.5-21-51.2C109.9,8.1,92,0.4,72.9,0z M134.5,97.2c-13.8,34.6-53.9,88.2-62.3,98.8c-8.4-10.6-48.5-64.3-62.3-98.8
			C6,87.4,4,79.2,4,72.9C4,35.5,34.5,4.6,71.9,4C72,4,72,4,72.1,4h0.2h0.1c0.1,0,0.1,0,0.2,0c37.4,0.5,67.9,31.4,67.9,68.9
			C140.4,79.2,138.4,87.4,134.5,97.2z"/>
		<path class="st0" d="M72.2,27.9L72.2,27.9c-23.4,0.4-42.4,19.7-42.4,43c0,1.1,0.1,2.2,0.2,3.3c1.7,22.3,19.8,39.4,42.2,39.8
			c22.4-0.4,40.5-17.5,42.2-39.8c0.1-1,0.2-2.1,0.2-3.2C114.5,47.5,95.5,28.2,72.2,27.9z M110.4,73.9c-1.5,20.2-18,35.7-38.2,36.1
			c-20.3-0.3-36.7-15.8-38.3-36.1c-0.1-1-0.1-2-0.1-2.9c0-21.2,17.2-38.7,38.4-39c21.2,0.4,38.4,17.9,38.4,39
			C110.5,71.8,110.5,72.8,110.4,73.9z"/>
	</g>
	<g>
		<path class="st2" d="M16.9,86.6c-0.4-1-1.5-1.6-2.5-1.3c-1,0.4-1.6,1.5-1.3,2.5c0.6,1.9,1.4,3.9,2.2,6c0.3,0.8,1.1,1.3,1.9,1.3
			c0.2,0,0.5,0,0.7-0.1c1-0.4,1.5-1.6,1.1-2.6C18.2,90.4,17.5,88.4,16.9,86.6z"/>
		<path class="st2" d="M13.9,57.2c-1.1-0.2-2.2,0.4-2.4,1.5c-0.9,3.9-1.4,7.9-1.5,11.9c-0.1,3,0.3,6.5,1.2,10.3
			c0.2,0.9,1,1.6,1.9,1.6c0.1,0,0.3,0,0.4,0c1.1-0.2,1.8-1.3,1.5-2.4c-0.8-3.5-1.1-6.6-1.1-9.3c0.1-3.7,0.6-7.5,1.4-11.1
			C15.7,58.5,15,57.4,13.9,57.2z"/>
		<path class="st2" d="M32.9,24.5c-8.7,7.3-15.3,16.4-19.1,26.6c-0.4,1,0.1,2.2,1.2,2.6c0.2,0.1,0.5,0.1,0.7,0.1
			c0.8,0,1.6-0.5,1.9-1.3c3.6-9.5,9.8-18.1,17.9-24.9c0.8-0.7,1-2,0.3-2.8C35.1,23.9,33.8,23.7,32.9,24.5z"/>
		<path class="st2" d="M50.4,13.7c-4.1,1.8-8,3.9-11.6,6.3c-0.9,0.6-1.2,1.9-0.5,2.8c0.4,0.6,1,0.9,1.7,0.9c0.4,0,0.8-0.1,1.1-0.3
			c3.4-2.3,7.1-4.3,11-6c1-0.4,1.5-1.6,1-2.6C52.6,13.7,51.4,13.3,50.4,13.7z"/>
		<path class="st2" d="M61.8,9.8c-1.3,0.3-2.5,0.7-3.8,1.1c-1.1,0.3-1.6,1.4-1.3,2.5c0.3,0.9,1.1,1.4,1.9,1.4c0.2,0,0.4,0,0.6-0.1
			c1.2-0.4,2.4-0.7,3.6-1c1.1-0.3,1.7-1.4,1.5-2.4C63.9,10.2,62.8,9.6,61.8,9.8z"/>
	</g>
	<g>
		<g>
			<g>
				<path class="st2" d="M192.4,84.3L192.4,84.3c-0.1,0-0.1,0-0.2,0s-0.1,0-0.2,0l0,0c-17.6,0.3-31.9,14.6-31.9,32.3
					c0,3.2,1.1,7.1,2.8,11.4c7.1,17.9,29.2,46.3,29.3,46.2c0.1,0.1,22.1-28.3,29.3-46.2c1.7-4.3,2.8-8.2,2.8-11.4
					C224.3,98.9,210.1,84.6,192.4,84.3z M210.6,117.1c-0.7,9.6-8.6,17.1-18.3,17.3c-9.7-0.2-17.6-7.7-18.3-17.3
					c0-0.5-0.1-0.9-0.1-1.4c0-10.2,8.2-18.6,18.4-18.7c10.2,0.2,18.4,8.5,18.4,18.7C210.7,116.2,210.6,116.7,210.6,117.1z"/>
			</g>
			<g>
				<path class="st0" d="M192.7,82.3c-0.1,0-0.2,0-0.3,0h-0.1h-0.1c-0.1,0-0.2,0-0.3,0c-18.6,0.4-33.6,15.7-33.6,34.3
					c0,3.3,1,7.3,2.9,12.2c3.8,9.4,11.6,21.6,17.5,30.2c3.4,5,6.5,9.1,8.4,11.8c4.1,5.5,4.1,5.5,5.2,5.5c0.1,0,0.1,0,0.2,0
					c1,0,1.2-0.3,5.1-5.5c2-2.6,5-6.8,8.4-11.8c5.9-8.6,13.7-20.7,17.5-30.2c2-4.9,2.9-8.9,2.9-12.2C226.3,98,211.2,82.7,192.7,82.3
					z M219.7,127.3c-5.9,14.7-22.3,37.1-27.4,43.7c-5.1-6.7-21.5-29-27.4-43.7c-1.7-4.4-2.6-8-2.6-10.7c0-16.5,13.4-30.1,29.9-30.3
					h0.1c0,0,0,0,0.1,0h0.1c16.5,0.2,29.9,13.8,29.9,30.3C222.3,119.4,221.4,123,219.7,127.3z"/>
				<path class="st0" d="M192.3,95C192.3,95,192.2,95,192.3,95c-11.3,0.2-20.5,9.5-20.5,20.7c0,0.5,0,1,0.1,1.6
					c0.8,10.7,9.5,19,20.4,19.1c10.8-0.2,19.5-8.4,20.3-19.2c0-0.5,0.1-1,0.1-1.5C212.7,104.5,203.5,95.2,192.3,95z M208.6,117
					c-0.7,8.7-7.7,15.3-16.3,15.4c-8.7-0.1-15.7-6.8-16.4-15.5c0-0.4-0.1-0.8-0.1-1.2c0-9.1,7.4-16.6,16.4-16.7
					c9.1,0.2,16.4,7.7,16.4,16.7C208.7,116.1,208.6,116.6,208.6,117z"/>
			</g>
		</g>
	</g>
</g>
</svg>
