<!-- Generator: Adobe Illustrator 21.1.0, SVG Export Plug-In  -->
<svg version="1.1"
	 xmlns="http://www.w3.org/2000/svg" xmlns:xlink="http://www.w3.org/1999/xlink" xmlns:a="http://ns.adobe.com/AdobeSVGViewerExtensions/3.0/"
	 x="0px" y="0px" width="198px" height="198.1px" viewBox="0 0 198 198.1" style="enable-background:new 0 0 198 198.1;"
	 xml:space="preserve">
<style type="text/css">
	.st0{fill:#262A2C;}
	.st1{fill:#FFFFFF;}
	.st2{fill:#F7EC3D;}
	.st3{fill:#F7EC3C;}
</style>
<defs>
</defs>
<g>
	<path class="st0" d="M99,160.3c-1.1,0-2,0.9-2,2v10.6c0,1.1,0.9,2,2,2s2-0.9,2-2v-10.6C101,161.2,100.1,160.3,99,160.3z"/>
	<path class="st0" d="M99,183.4c-1.1,0-2,0.9-2,2V196c0,1.1,0.9,2,2,2s2-0.9,2-2v-10.6C101,184.3,100.1,183.4,99,183.4z"/>
	<path class="st0" d="M115.9,177.1h-10.6c-1.1,0-2,0.9-2,2s0.9,2,2,2h10.6c1.1,0,2-0.9,2-2S117,177.1,115.9,177.1z"/>
	<path class="st0" d="M92.7,177.1H82.1c-1.1,0-2,0.9-2,2s0.9,2,2,2h10.6c1.1,0,2-0.9,2-2S93.8,177.1,92.7,177.1z"/>
</g>
<g>
	<path class="st0" d="M99,0.1c-1.1,0-2,0.9-2,2v10.6c0,1.1,0.9,2,2,2s2-0.9,2-2V2.1C101,1,100.1,0.1,99,0.1z"/>
	<path class="st0" d="M99,23.3c-1.1,0-2,0.9-2,2v10.6c0,1.1,0.9,2,2,2s2-0.9,2-2V25.3C101,24.2,100.1,23.3,99,23.3z"/>
	<path class="st0" d="M115.9,17h-10.6c-1.1,0-2,0.9-2,2s0.9,2,2,2h10.6c1.1,0,2-0.9,2-2S117,17,115.9,17z"/>
	<path class="st0" d="M92.7,17H82.1c-1.1,0-2,0.9-2,2s0.9,2,2,2h10.6c1.1,0,2-0.9,2-2S93.8,17,92.7,17z"/>
</g>
<g>
	<path class="st0" d="M177.6,77.4c-1.1,0-2,0.9-2,2V90c0,1.1,0.9,2,2,2s2-0.9,2-2V79.4C179.6,78.3,178.7,77.4,177.6,77.4z"/>
	<path class="st0" d="M177.6,100.5c-1.1,0-2,0.9-2,2v10.6c0,1.1,0.9,2,2,2s2-0.9,2-2v-10.6C179.6,101.4,178.7,100.5,177.6,100.5z"/>
	<path class="st0" d="M194.5,94.2h-10.6c-1.1,0-2,0.9-2,2s0.9,2,2,2h10.6c1.1,0,2-0.9,2-2S195.6,94.2,194.5,94.2z"/>
	<path class="st0" d="M171.3,94.2h-10.6c-1.1,0-2,0.9-2,2s0.9,2,2,2h10.6c1.1,0,2-0.9,2-2S172.4,94.2,171.3,94.2z"/>
</g>
<g>
	<path class="st0" d="M20.4,77.4c-1.1,0-2,0.9-2,2V90c0,1.1,0.9,2,2,2s2-0.9,2-2V79.4C22.4,78.3,21.5,77.4,20.4,77.4z"/>
	<path class="st0" d="M20.4,100.5c-1.1,0-2,0.9-2,2v10.6c0,1.1,0.9,2,2,2s2-0.9,2-2v-10.6C22.4,101.4,21.5,100.5,20.4,100.5z"/>
	<path class="st0" d="M37.3,94.2H26.7c-1.1,0-2,0.9-2,2s0.9,2,2,2h10.6c1.1,0,2-0.9,2-2S38.4,94.2,37.3,94.2z"/>
	<path class="st0" d="M14.2,94.2H3.6c-1.1,0-2,0.9-2,2s0.9,2,2,2h10.6c1.1,0,2-0.9,2-2S15.3,94.2,14.2,94.2z"/>
</g>
<g>
	<path class="st1" d="M178,34.1c-1.8,1.8-4.6,1.8-6.4,0l-7.7-7.7c-1.8-1.8-1.8-4.6,0-6.4L180,3.9c-9.2-3.8-20.2-1.9-27.7,5.6
		c-7.2,7.2-9.2,17.6-6,26.6L36.2,146.3c-9-3.2-19.4-1.2-26.6,6C2.1,159.8,0.2,170.8,4,180l16.1-16.1c1.8-1.8,4.6-1.8,6.4,0l7.7,7.7
		c1.8,1.8,1.8,4.6,0,6.4l-16.1,16.1c9.2,3.8,20.2,1.9,27.7-5.6c7.2-7.2,9.2-17.6,6-26.6L162,51.7c9,3.2,19.4,1.2,26.6-6
		c7.5-7.5,9.4-18.5,5.6-27.7L178,34.1z"/>
	<path class="st0" d="M194.5,16.1c-0.7-0.1-1.3,0.1-1.8,0.5l-16.1,16.1c-0.9,0.9-2.6,0.9-3.5,0l-7.7-7.7c-0.5-0.5-0.7-1.1-0.7-1.8
		c0-0.7,0.3-1.3,0.7-1.8l16.1-16.1c0.5-0.5,0.7-1.2,0.5-1.8c-0.1-0.7-0.6-1.2-1.2-1.5c-3.3-1.3-6.8-2-10.4-2
		c-7.4,0-14.3,2.9-19.5,8.1c-7.2,7.2-9.8,17.8-6.9,27.4L35.6,144.1c-2.6-0.8-5.3-1.2-8-1.2c-7.4,0-14.3,2.9-19.5,8.1
		c-7.9,7.9-10.2,19.6-6,29.9c0.3,0.6,0.8,1.1,1.5,1.2s1.3-0.1,1.8-0.5l16.1-16.1c0.9-0.9,2.6-0.9,3.5,0l7.7,7.7c1,1,1,2.6,0,3.5
		l-16.1,16.1c-0.5,0.5-0.7,1.2-0.5,1.8c0.1,0.7,0.6,1.2,1.2,1.5c3.3,1.3,6.8,2,10.4,2l0,0c7.4,0,14.3-2.9,19.5-8.1
		c7.2-7.2,9.8-17.8,6.9-27.4L162.5,54.2c2.6,0.8,5.3,1.2,8,1.2c7.4,0,14.3-2.9,19.5-8.1c7.9-7.9,10.2-19.6,6-29.9
		C195.7,16.7,195.1,16.2,194.5,16.1z M187.1,44.3c-4.4,4.4-10.4,6.9-16.6,6.9c-2.7,0-5.3-0.5-7.8-1.3c-0.7-0.3-1.5-0.1-2.1,0.5
		L50.3,160.5c-0.5,0.5-0.7,1.4-0.5,2.1c3,8.5,0.8,18.1-5.6,24.5c-4.4,4.4-10.4,6.9-16.6,6.9c-2,0-4-0.3-5.9-0.8l13.8-13.8
		c2.5-2.5,2.5-6.7,0-9.2l-7.7-7.7c-1.2-1.2-2.9-1.9-4.6-1.9c-1.7,0-3.4,0.7-4.6,1.9L4.9,176.4c-2.1-8,0.2-16.6,6.1-22.6
		c4.4-4.4,10.4-6.9,16.6-6.9c2.7,0,5.3,0.5,7.8,1.3c0.7,0.3,1.5,0.1,2.1-0.5L147.7,37.5c0.5-0.5,0.7-1.4,0.5-2.1
		c-3-8.5-0.8-18.1,5.6-24.5c4.4-4.4,10.4-6.9,16.6-6.9c2,0,4,0.3,5.9,0.8l-13.8,13.8c-1.2,1.2-1.9,2.9-1.9,4.6s0.7,3.4,1.9,4.6
		l7.7,7.7c1.2,1.2,2.9,1.9,4.6,1.9s3.4-0.7,4.6-1.9l13.8-13.8C195.3,29.8,193,38.3,187.1,44.3z"/>
</g>
<path class="st0" d="M144.3,45.1l-32.5,32.5c-0.8,0.8-0.8,2,0,2.8c0.4,0.4,0.9,0.6,1.4,0.6s1-0.2,1.4-0.6l32.5-32.5
	c0.8-0.8,0.8-2,0-2.8C146.4,44.3,145.1,44.3,144.3,45.1z"/>
<path class="st0" d="M102.8,86.7l-8.5,8.5c-0.8,0.8-0.8,2,0,2.8c0.4,0.4,0.9,0.6,1.4,0.6s1-0.2,1.4-0.6l8.5-8.5c0.8-0.8,0.8-2,0-2.8
	S103.5,85.9,102.8,86.7z"/>
<path class="st0" d="M84.2,105.2l-22.4,22.4c-0.8,0.8-0.8,2,0,2.8c0.4,0.4,0.9,0.6,1.4,0.6s1-0.2,1.4-0.6L87,108
	c0.8-0.8,0.8-2,0-2.8C86.3,104.4,85,104.4,84.2,105.2z"/>
<path class="st2" d="M123.5,105.3l-19,19l64.1,64.1c4.5,4.5,12.5,4,17.7-1.3c5.2-5.2,5.8-13.2,1.3-17.7L123.5,105.3z"/>
<rect x="102.5" y="113.9" transform="matrix(0.7071 -0.7071 0.7071 0.7071 -48.5951 116.1867)" class="st1" width="26.9" height="5.7"/>
<path class="st1" d="M104.5,124.3l64.1,64.1c2.8,2.8,6.8,3.6,10.8,2.7l-70.8-70.8L104.5,124.3z"/>
<g>
	<polygon class="st1" points="49.3,42.1 38.2,26.5 38.2,26.5 38.1,26.4 38,26.3 38,26.3 15.3,5.9 5.1,16.2 25.5,38.8 25.5,38.8
		25.6,38.9 25.7,39 25.7,39 41.3,50.1 106.4,115.2 114.3,107.2 49.3,42.2 	"/>
	<path class="st0" d="M51.1,41.1c0-0.1-0.1-0.1-0.1-0.2L40.1,25.6c-0.1-0.3-0.3-0.5-0.5-0.7l0,0c-0.1-0.1-0.2-0.2-0.3-0.3L16.7,4.4
		c-0.8-0.7-2-0.7-2.8,0.1L3.6,14.8c-0.8,0.8-0.8,2-0.1,2.8l20.4,22.7l0.1,0.1l0.1,0.1c0.2,0.2,0.4,0.4,0.6,0.5l15.2,10.9l64.9,64.9
		c0.4,0.4,0.9,0.6,1.4,0.6s1-0.2,1.4-0.6l8-8c0.4-0.4,0.6-0.9,0.6-1.4s-0.2-1-0.6-1.4L51.1,41.1z M106.4,112.4L42.8,48.8
		c-0.1-0.1-0.2-0.1-0.3-0.2L26.9,37.4L7.8,16.3l7.6-7.6l21.1,19.1L47.3,43c0.1,0.3,0.3,0.5,0.5,0.7l63.6,63.6L106.4,112.4z"/>
</g>
<g>

		<rect x="92.5" y="106.1" transform="matrix(0.7071 -0.7071 0.7071 0.7071 -46.3306 110.5746)" class="st3" width="35.7" height="10.2"/>
	<path class="st0" d="M120.8,93.5c-0.8-0.8-2-0.8-2.8,0l-25.2,25.2c-0.4,0.4-0.6,0.9-0.6,1.4s0.2,1,0.6,1.4l7.2,7.2
		c0.4,0.4,0.9,0.6,1.4,0.6s1-0.2,1.4-0.6l25.2-25.2c0.4-0.4,0.6-0.9,0.6-1.4s-0.2-1-0.6-1.4L120.8,93.5z M101.4,124.6l-4.4-4.4
		l22.4-22.4l4.4,4.4L101.4,124.6z"/>
</g>
<path class="st0" d="M124.9,103.9c-0.8-0.8-2.1-0.8-2.8,0l-19,19c-0.8,0.8-0.8,2,0,2.8l64.1,64.1c2.3,2.3,5.6,3.6,9.1,3.6l0,0
	c4.1,0,8.3-1.8,11.4-4.9c2.9-2.9,4.6-6.6,4.9-10.4c0.3-3.9-1-7.5-3.6-10.1L124.9,103.9z M188.6,177.8c-0.2,2.9-1.5,5.7-3.7,7.8
	c-2.4,2.4-5.5,3.8-8.6,3.8l0,0c-2.4,0-4.7-0.9-6.3-2.5l-62.7-62.6l16.2-16.2l62.7,62.7C187.9,172.6,188.8,175.1,188.6,177.8z"/>
</svg>
