<!-- Generator: Adobe Illustrator 21.1.0, SVG Export Plug-In  -->
<svg version="1.1"
	 xmlns="http://www.w3.org/2000/svg" xmlns:xlink="http://www.w3.org/1999/xlink" xmlns:a="http://ns.adobe.com/AdobeSVGViewerExtensions/3.0/"
	 x="0px" y="0px" width="328.7px" height="293.8px" viewBox="0 0 328.7 293.8" style="enable-background:new 0 0 328.7 293.8;"
	 xml:space="preserve">
<style type="text/css">
	.st0{fill:#FBF6B1;}
	.st1{fill:#F7EC3D;}
	.st2{fill:#262A2C;}
	.st3{fill:#FFFFFF;}
	.st4{fill:#48BB8C;}
	.st5{fill:#C2C3C3;}
</style>
<defs>
</defs>
<circle class="st0" cx="146.9" cy="146.9" r="146.9"/>
<path class="st1" d="M146,209.9c-36.6,0-68.1,23.2-80.9,55.7c23.1,15.6,50.9,24.7,80.9,24.7s57.8-9.1,80.9-24.7
	C214.1,233.1,182.6,209.9,146,209.9z"/>
<path class="st2" d="M146,207.1c-36.5,0-70,23.1-83.5,57.5c-0.5,1.2,0,2.6,1,3.4c24.4,16.5,52.9,25.2,82.5,25.2s58.1-8.7,82.5-25.2
	c1.1-0.7,1.5-2.1,1-3.4C216,230.2,182.5,207.1,146,207.1z M146,287.5c-27.7,0-54.4-7.9-77.4-23c13.2-31.1,44-51.8,77.4-51.8
	s64.2,20.7,77.4,51.8C200.4,279.6,173.7,287.5,146,287.5z"/>
<polygon class="st3" points="145.7,291.3 170.1,250.4 121.3,250.4 "/>
<g>
	<rect x="112.3" y="213.1" class="st4" width="66.8" height="9.6"/>
	<path class="st2" d="M179.1,210.3h-66.8c-1.6,0-2.8,1.3-2.8,2.8v9.6c0,1.6,1.3,2.8,2.8,2.8h66.8c1.6,0,2.8-1.3,2.8-2.8v-9.6
		C181.9,211.6,180.7,210.3,179.1,210.3z M176.3,219.9h-61.1V216h61.1V219.9z"/>
</g>
<g>
	<circle class="st3" cx="88.7" cy="120.7" r="10.6"/>
	<path class="st2" d="M88.7,107.2c-7.4,0-13.4,6-13.4,13.4s6,13.4,13.4,13.4s13.4-6,13.4-13.4C102.1,113.3,96.1,107.2,88.7,107.2z
		 M88.7,128.5c-4.3,0-7.8-3.5-7.8-7.8s3.5-7.8,7.8-7.8s7.8,3.5,7.8,7.8S93,128.5,88.7,128.5z"/>
</g>
<g>
	<path class="st3" d="M146,26.5c-34.6,0-62.7,25.9-62.7,57.8c0,9.3,2.4,18,6.6,25.8l112.2,0.1c4.2-7.8,6.6-16.6,6.6-25.9
		C208.7,52.4,180.6,26.5,146,26.5z"/>
	<path class="st2" d="M146,23.7c-36.1,0-65.5,27.2-65.5,60.7c0,9.5,2.3,18.7,6.9,27.1c0.7,1.4,2.5,1.9,3.8,1.1
		c1.4-0.7,1.9-2.5,1.1-3.8c-4.1-7.6-6.2-15.9-6.2-24.5c0-30.3,26.8-55,59.8-55s59.8,24.7,59.8,55c0,8.6-2.1,16.9-6.3,24.5
		c-0.7,1.4-0.2,3.1,1.1,3.8c0.4,0.2,0.9,0.3,1.3,0.3c1,0,2-0.5,2.5-1.5c4.6-8.5,7-17.7,7-27.2C211.5,50.9,182.1,23.7,146,23.7z"/>
</g>
<path class="st1" d="M146,26.5c-26.4,0-48.9,15-58.2,36.3c11.6-14.5,30.6-24,51.9-24c35.4,0,64,25.9,64,57.8c0,4.7-0.6,9.3-1.8,13.7
	c4.3-7.8,6.7-16.6,6.7-26C208.7,52.4,180.6,26.5,146,26.5z"/>
<g>
	<path class="st3" d="M119.1,233.2c0,9.7,12,17.5,26.9,17.5c14.8,0,26.9-7.9,26.9-17.5v-62h-53.7L119.1,233.2L119.1,233.2z"/>
	<path class="st2" d="M172.9,168.4h-53.7c-1.6,0-2.8,1.3-2.8,2.8v62c0,11.4,13,20.4,29.7,20.4s29.7-8.9,29.7-20.4v-62
		C175.7,169.7,174.4,168.4,172.9,168.4z M170,233.2c0,8-11,14.7-24,14.7s-24-6.7-24-14.7V174h48.1v59.2H170z"/>
</g>
<g>
	<path class="st3" d="M148.4,49.1h-4.8c-30.2,0-55,24.7-55,55v42c0,30.2,24.7,55,55,55h4.8c30.2,0,55-24.7,55-55v-42
		C203.3,73.9,178.6,49.1,148.4,49.1z"/>
	<g>
		<path class="st3" d="M88.7,146.1c0,30.2,24.7,55,55,55h4.8c30.2,0,55-24.7,55-55v-42H88.7V146.1z"/>
		<path class="st2" d="M203.3,101.3c-1.6,0-2.8,1.3-2.8,2.8v42c0,28.7-23.4,52.1-52.1,52.1h-4.8c-28.7,0-52.1-23.4-52.1-52.1v-42
			c0-1.6-1.3-2.8-2.8-2.8c-1.6,0-2.8,1.3-2.8,2.8v42c0,31.9,25.9,57.8,57.8,57.8h4.8c31.9,0,57.8-25.9,57.8-57.8v-42
			C206.2,102.5,204.9,101.3,203.3,101.3z"/>
	</g>
</g>
<g>
	<g>
		<path class="st3" d="M72.3,71.2c0,15.2,25.1,27.5,56.1,27.5s56.1-12.3,56.1-27.5l-83.6-1.7C96.1,75.1,72.3,71.2,72.3,71.2z"/>
		<path class="st2" d="M184.6,68.4c-1.6,0-2.8,1.3-2.8,2.8c0,13.4-24.4,24.7-53.3,24.7c-26.5,0-49.2-9.5-52.8-21.4
			c8.1,1,22.9,2.1,27.5-3.2c1-1.2,0.9-3-0.3-4s-3-0.9-4,0.3c-2.4,2.7-15.4,2.5-26.1,0.8c-0.8-0.1-1.7,0.1-2.3,0.6s-1,1.3-1,2.1
			c0,17,25.9,30.4,59,30.4s59-13.3,59-30.4C187.4,69.7,186.2,68.4,184.6,68.4z"/>
	</g>
</g>
<path class="st5" d="M75,74.5c2,14.3,25.2,23.1,54.4,23.1c21,0,40.4-8.7,49.7-17.3c-10.7,6.5-28.6,12.3-47.4,12.3
	C103.6,92.6,82.9,82.9,75,74.5z"/>
<path class="st2" d="M161.8,142.9h-31.6c-1.6,0-2.8,1.3-2.8,2.8c0,10.3,8.3,18.6,18.6,18.6s18.6-8.3,18.6-18.6
	C164.6,144.2,163.3,142.9,161.8,142.9z M146,158.7c-6.2,0-11.4-4.3-12.7-10.1h25.3C157.4,154.4,152.2,158.7,146,158.7z"/>
<g>
	<path class="st3" d="M203.3,102.1l-21.8-21.8C181.5,92.4,191.3,102.1,203.3,102.1z"/>
	<path class="st2" d="M203.3,99.3c-10.5,0-19-8.5-19-19c0-1.6-1.3-2.8-2.8-2.8c-1.6,0-2.8,1.3-2.8,2.8c0,13.6,11.1,24.7,24.7,24.7
		c1.6,0,2.8-1.3,2.8-2.8C206.2,100.6,204.9,99.3,203.3,99.3z"/>
</g>
<g>
	<path class="st3" d="M102.8,96.7l-14.5,5.5C93.9,102.1,99,100.1,102.8,96.7z"/>
	<path class="st2" d="M101,94.5c-3.5,3.1-8,4.8-12.6,4.8c-1.6,0-2.8,1.3-2.8,2.8c0,1.6,1.3,2.8,2.8,2.8c6,0,11.8-2.2,16.3-6.2
		c1.2-1,1.3-2.8,0.2-4C103.9,93.6,102.1,93.5,101,94.5z"/>
</g>
<g>
	<path class="st2" d="M184.6,68.4c-1.6,0-2.8,1.3-2.8,2.8c0,13.4-24.4,24.7-53.3,24.7c-26.5,0-49.2-9.5-52.8-21.4
		c8.1,1,22.9,2.1,27.5-3.2c1-1.2,0.9-3-0.3-4s-3-0.9-4,0.3c-2.4,2.7-15.4,2.5-26.1,0.8c-0.8-0.1-1.7,0.1-2.3,0.6s-1,1.3-1,2.1
		c0,17,25.9,30.4,59,30.4s59-13.3,59-30.4C187.4,69.7,186.2,68.4,184.6,68.4z"/>
</g>
<path class="st2" d="M146,23.7c-31,0-57.9,20.4-64.2,48.4c-0.3,1.5,0.6,3,2.1,3.4c1.5,0.3,3-0.6,3.4-2.1c5.6-25.5,30.3-44,58.6-44
	c33,0,59.8,24.7,59.8,55c0,6.1-1.1,12.1-3.2,17.8c-0.5,1.5,0.2,3.1,1.7,3.6c0.3,0.1,0.7,0.2,1,0.2c1.1,0,2.2-0.7,2.6-1.8
	c2.4-6.3,3.6-13,3.6-19.8C211.5,50.9,182.1,23.7,146,23.7z"/>
<g>
	<circle class="st2" cx="118.8" cy="120.8" r="5.7"/>
	<circle class="st2" cx="173.2" cy="120.8" r="5.7"/>
</g>
<g>
	<path class="st3" d="M203.8,110v21.2c5.9,0,10.6-4.8,10.6-10.6C214.4,114.8,209.7,110,203.8,110z"/>
	<path class="st2" d="M203.8,107.2c-1.6,0-2.8,1.3-2.8,2.8v21.2c0,1.6,1.3,2.8,2.8,2.8c7.4,0,13.4-6,13.4-13.4
		C217.3,113.3,211.2,107.2,203.8,107.2z M206.6,127.9v-14.5c2.9,1.1,5,4,5,7.3S209.6,126.8,206.6,127.9z"/>
</g>
<path class="st1" d="M154.2,247.3h-16.5c-3.6,0-5.1,3.4-3.3,6.5l5.7,10h11.6l5.7-10C159.4,250.7,157.9,247.3,154.2,247.3z"/>
<path class="st2" d="M154.2,244.5h-16.5c-2.6,0-4.8,1.2-6,3.3c-1.3,2.2-1.2,5,0.3,7.5l5.7,10c0.5,0.9,1.4,1.4,2.4,1.4h11.6
	c1,0,1.9-0.5,2.4-1.4l5.7-10c1.4-2.5,1.5-5.3,0.3-7.5C159.1,245.7,156.9,244.5,154.2,244.5z M155.1,252.5l-4.9,8.5h-8.3l-4.9-8.5
	c-0.5-0.9-0.5-1.5-0.3-1.9s0.7-0.4,1.1-0.4h16.5c0.4,0,0.9,0.1,1.1,0.4C155.6,250.9,155.6,251.6,155.1,252.5z"/>
<path class="st1" d="M140.2,263.8l-2.3,24.7c2.7,0.2,5.4,0.3,8.1,0.3s5.4-0.1,8-0.3l-2.3-24.7H140.2z"/>
<path class="st2" d="M151.7,261h-11.5c-1.5,0-2.7,1.1-2.8,2.6l-2.3,24.7c-0.1,0.8,0.2,1.5,0.7,2.1s1.2,0.9,2,1
	c2.8,0.2,5.6,0.3,8.3,0.3c2.6,0,5.4-0.1,8.2-0.3c0.8-0.1,1.5-0.4,2-1s0.7-1.3,0.7-2.1l-2.3-24.7C154.4,262.1,153.2,261,151.7,261z
	 M141,285.9l1.8-19.2h6.4l1.8,19.2C147.5,286,144.4,286,141,285.9z"/>
<g>
	<polygon class="st3" points="105.5,229.6 131.3,264 145.8,247.3 115.1,222.7 	"/>
	<path class="st2" d="M147.6,245.1l-30.7-24.6c-1-0.8-2.4-0.8-3.4-0.1l-9.6,6.9c-0.6,0.4-1,1.1-1.1,1.9s0.1,1.5,0.5,2.1l25.8,34.4
		c0.5,0.7,1.3,1.1,2.2,1.1h0.1c0.8,0,1.6-0.4,2.1-1l14.5-16.7c0.5-0.6,0.8-1.3,0.7-2.1C148.5,246.3,148.2,245.6,147.6,245.1z
		 M131.5,259.5l-22-29.3l5.5-3.9l26.8,21.4L131.5,259.5z"/>
</g>
<g>
	<polygon class="st3" points="146.2,247.3 160.7,264 186.5,229.6 176.9,222.7 	"/>
	<path class="st2" d="M188.2,227.3l-9.6-6.9c-1-0.7-2.4-0.7-3.4,0.1l-30.7,24.6c-0.6,0.5-1,1.2-1,2c-0.1,0.8,0.2,1.5,0.7,2.1
		l14.5,16.7c0.5,0.6,1.3,1,2.1,1h0.1c0.9,0,1.6-0.4,2.2-1.1l25.8-34.4c0.5-0.6,0.6-1.4,0.5-2.1C189.2,228.4,188.8,227.7,188.2,227.3
		z M160.5,259.5l-10.2-11.8l26.8-21.4l5.5,3.9L160.5,259.5z"/>
</g>
<path class="st1" d="M112.3,213.1l-10.5,4.9L99,234.6l9.9,4.8l-7.5,11.9l32.2,36c2.4,0.2,4.8,0.3,7.2,0.4l-17.2-45.2L112.3,213.1z"
	/>
<path class="st2" d="M115,212.1c-0.3-0.7-0.8-1.3-1.6-1.6c-0.7-0.3-1.5-0.3-2.3,0.1l-10.5,4.9c-0.8,0.4-1.4,1.2-1.6,2.1l-2.8,16.6
	c-0.2,1.2,0.4,2.5,1.6,3l7,3.4l-5.8,9.2c-0.7,1.1-0.6,2.5,0.3,3.4l32.2,36c0.5,0.5,1.2,0.9,1.9,0.9c2.3,0.2,4.8,0.3,7.3,0.4h0.1
	c0.9,0,1.8-0.4,2.3-1.2c0.6-0.8,0.7-1.8,0.3-2.6L115,212.1z M134.9,284.5l-30-33.5l6.4-10.1c0.4-0.7,0.5-1.5,0.3-2.3
	s-0.8-1.4-1.5-1.8l-8-3.9l2.2-13l6.4-3l25.8,67.6C136,284.6,135.4,284.5,134.9,284.5z"/>
<path class="st1" d="M190.2,218.1L190.2,218.1l-10.5-4.9l-11.1,29.1l-17.3,45.3c2.4-0.1,4.8-0.2,7.2-0.4l32.2-36l-7.5-11.9l9.9-4.8
	L190.2,218.1z"/>
<path class="st2" d="M193,217.6c-0.2-0.9-0.8-1.7-1.6-2.1l-10.5-4.9c-0.7-0.3-1.5-0.3-2.3-0.1c-0.7,0.3-1.3,0.9-1.6,1.6l-28.4,74.5
	c-0.3,0.9-0.2,1.9,0.3,2.6c0.5,0.7,1.4,1.2,2.3,1.2h0.1c2.5-0.1,4.9-0.2,7.3-0.4c0.7-0.1,1.4-0.4,1.9-0.9l32.2-36
	c0.8-0.9,1-2.3,0.3-3.4l-5.8-9.2l7-3.4c1.1-0.5,1.8-1.8,1.6-3L193,217.6z M181.9,236.8c-0.7,0.4-1.3,1-1.5,1.8s-0.1,1.6,0.3,2.3
	l6.4,10.1l-30,33.5c-0.5,0-1.1,0.1-1.6,0.1l25.8-67.6l6.4,3l2.2,13L181.9,236.8z"/>
<g>
	<path class="st3" d="M321.2,44.1h-86.3c-2.6,0-4.7,2.1-4.7,4.7v70.7c0,2.6,2.1,4.7,4.7,4.7h14.2l-20.7,23.7l60.8-23.7h32
		c2.6,0,4.7-2.1,4.7-4.7V48.8C325.9,46.2,323.8,44.1,321.2,44.1z"/>
	<path class="st2" d="M321.2,41.3h-86.3c-4.1,0-7.5,3.4-7.5,7.5v70.7c0,4.1,3.4,7.5,7.5,7.5h8l-16.6,19c-0.9,1-0.9,2.4-0.2,3.5
		c0.5,0.8,1.4,1.2,2.3,1.2c0.3,0,0.7-0.1,1-0.2l60.3-23.5h31.5c4.1,0,7.5-3.4,7.5-7.5V48.8C328.7,44.7,325.4,41.3,321.2,41.3z
		 M323.1,119.5c0,1-0.8,1.9-1.9,1.9h-32c-0.4,0-0.7,0.1-1,0.2l-50.1,19.5l13.1-15c0.7-0.8,0.9-2,0.4-3s-1.5-1.7-2.6-1.7h-14.2
		c-1,0-1.9-0.8-1.9-1.9V48.8c0-1,0.8-1.9,1.9-1.9h86.3c1,0,1.9,0.8,1.9,1.9v70.7H323.1z"/>
</g>
<g>
	<path d="M288.6,82.7c-1-0.9-2.1-1.6-3.3-2.1c-1.2-0.5-2.9-1-5-1.6V68.4c2.1,0.7,3.5,2.1,4,4.2c0.5,1.8,1.6,2.7,3.2,2.7
		c0.9,0,1.6-0.3,2.2-0.9s0.9-1.4,0.9-2.2c0-0.8-0.2-1.6-0.6-2.5s-1-1.8-1.8-2.7c-1-1.1-2.1-2-3.4-2.5c-1.3-0.6-2.8-0.9-4.7-1.1v-2.7
		c0-1.4-0.5-2.1-1.6-2.1s-1.6,0.7-1.6,2.1v2.7c-3.5,0.3-6.2,1.4-8,3.3c-1.9,1.9-2.8,4.3-2.8,7.2c0,2.2,0.5,4.1,1.4,5.5
		s2.2,2.5,3.7,3.3s3.4,1.5,5.7,2.1v11.8c-1.1-0.3-2-0.8-2.7-1.4s-1.2-1.3-1.5-2s-0.7-1.8-1.2-3.2c-0.2-0.6-0.6-1.1-1.1-1.5
		s-1.2-0.5-1.9-0.5c-0.9,0-1.7,0.3-2.4,1c-0.6,0.7-1,1.4-1,2.2c0,1.1,0.2,2.2,0.7,3.4c0.5,1.1,1.2,2.2,2.2,3.3
		c1,1.1,2.2,1.9,3.7,2.7c1.5,0.7,3.2,1.2,5.2,1.4v6.9c0,0.8,0.1,1.4,0.4,1.7c0.2,0.4,0.7,0.6,1.3,0.6c0.7,0,1.1-0.2,1.3-0.7
		c0.2-0.5,0.3-1.2,0.3-2.2V102c2.4-0.2,4.5-0.8,6.3-1.9s3.1-2.4,4-4.1s1.4-3.5,1.4-5.4c0-1.5-0.3-3-0.9-4.3
		C290.5,84.8,289.7,83.7,288.6,82.7z M277.1,78.2c-1.5-0.6-2.7-1.2-3.4-1.9c-0.7-0.7-1.1-1.7-1.1-3c0-1.4,0.4-2.5,1.2-3.1
		c0.8-0.7,1.9-1.3,3.3-1.7V78.2z M284.3,94.8c-0.9,1-2.3,1.7-4,2.1V85.7c1.8,0.6,3.1,1.2,4,2s1.4,1.9,1.4,3.4
		C285.6,92.5,285.2,93.7,284.3,94.8z"/>
</g>
</svg>
