<!-- Generator: Adobe Illustrator 21.1.0, SVG Export Plug-In  -->
<svg version="1.1"
	 xmlns="http://www.w3.org/2000/svg" xmlns:xlink="http://www.w3.org/1999/xlink" xmlns:a="http://ns.adobe.com/AdobeSVGViewerExtensions/3.0/"
	 x="0px" y="0px" width="291.4px" height="291.4px" viewBox="0 0 291.4 291.4" style="enable-background:new 0 0 291.4 291.4;"
	 xml:space="preserve">
<style type="text/css">
	.st0{fill:#FBF6B1;}
	.st1{fill:#F7EC3D;}
	.st2{fill:#262A2C;}
	.st3{fill:#FFFFFF;}
	.st4{fill:#48BB8C;}
</style>
<defs>
</defs>
<circle class="st0" cx="145.7" cy="145.7" r="145.7"/>
<circle class="st1" cx="142.7" cy="56.1" r="19.1"/>
<path class="st2" d="M142.7,34.9c-11.6,0-21.1,9.5-21.1,21.1s9.5,21.1,21.1,21.1s21.1-9.5,21.1-21.1
	C163.9,44.4,154.4,34.9,142.7,34.9z M142.7,73.2c-9.4,0-17.1-7.7-17.1-17.1S133.3,39,142.7,39s17.1,7.7,17.1,17.1
	C159.9,65.5,152.2,73.2,142.7,73.2z"/>
<circle class="st3" cx="142.7" cy="56.1" r="12"/>
<g>
	<path d="M146.1,55.4c-0.3-0.3-0.7-0.5-1.1-0.7s-1-0.3-1.7-0.5v-3.5c0.7,0.2,1.2,0.7,1.3,1.4c0.2,0.6,0.5,0.9,1.1,0.9
		c0.3,0,0.5-0.1,0.8-0.3c0.2-0.2,0.3-0.5,0.3-0.7c0-0.3-0.1-0.5-0.2-0.8s-0.3-0.6-0.6-0.9c-0.3-0.4-0.7-0.7-1.1-0.8
		c-0.4-0.2-1-0.3-1.6-0.4v-0.9c0-0.5-0.2-0.7-0.5-0.7c-0.4,0-0.5,0.2-0.5,0.7v0.9c-1.2,0.1-2.1,0.5-2.7,1.1s-0.9,1.4-0.9,2.4
		c0,0.7,0.2,1.4,0.5,1.8c0.3,0.5,0.7,0.8,1.2,1.1c0.5,0.3,1.1,0.5,1.9,0.7v3.9c-0.4-0.1-0.7-0.3-0.9-0.5c-0.2-0.2-0.4-0.4-0.5-0.7
		c-0.1-0.2-0.2-0.6-0.4-1.1c-0.1-0.2-0.2-0.4-0.4-0.5c-0.2-0.1-0.4-0.2-0.6-0.2c-0.3,0-0.6,0.1-0.8,0.3c-0.2,0.2-0.3,0.5-0.3,0.7
		c0,0.4,0.1,0.7,0.2,1.1c0.2,0.4,0.4,0.7,0.7,1.1c0.3,0.4,0.7,0.6,1.2,0.9c0.5,0.2,1.1,0.4,1.7,0.5V64c0,0.3,0,0.5,0.1,0.6
		s0.2,0.2,0.4,0.2c0.2,0,0.4-0.1,0.4-0.2c0.1-0.2,0.1-0.4,0.1-0.7v-2.1c0.8-0.1,1.5-0.3,2.1-0.6c0.6-0.4,1-0.8,1.3-1.4
		s0.5-1.2,0.5-1.8c0-0.5-0.1-1-0.3-1.4C146.7,56.1,146.4,55.7,146.1,55.4z M142.2,53.8c-0.5-0.2-0.9-0.4-1.1-0.6s-0.4-0.6-0.4-1
		c0-0.5,0.1-0.8,0.4-1.1c0.3-0.2,0.6-0.4,1.1-0.6V53.8z M144.6,59.4c-0.3,0.3-0.8,0.6-1.3,0.7v-3.7c0.6,0.2,1,0.4,1.3,0.7
		c0.3,0.3,0.5,0.6,0.5,1.1C145.1,58.6,144.9,59.1,144.6,59.4z"/>
</g>
<path class="st4" d="M233.7,168.7c0-40.5-41.3-73.4-92-73.4c-12.6,0-24.9,2-36.4,6c0,0-7-12.1-30.9-16.3c6.6,20.7-0.2,33.9-0.2,33.9
	c-8.6,7.4-15.1,16-19.2,25.4l-1.8,4.2h-5.9c-4.9,0-8.9,4-8.9,8.9v22.7c0,4.9,4,8.9,8.9,8.9h5.8l1.8,4.2c3.7,8.3,9.2,16,16.4,22.9
	l3.1,3l-7.2,24.1c-0.3,0.9,0,1.7,0.2,2.1s0.7,1.1,1.6,1.3l26.9,8c1.4,0.4,3-0.5,3.4-1.9l4.9-16.5l6.6,1.9c9.8,2.8,20.1,4.2,30.5,4.2
	c9.7,0,19.2-1.2,28.4-3.6l6.5-1.7l4.7,15.7c0.4,1.4,2,2.3,3.5,1.9l26.9-8c0.9-0.3,1.4-1,1.6-1.3c0.2-0.4,0.5-1.2,0.2-2.1l-6.7-22.4
	l3.3-3C225.4,204.1,233.7,186.7,233.7,168.7z"/>
<path class="st1" d="M233.7,168.7c0-40.5-41.3-73.4-92-73.4c-12.6,0-24.9,2-36.4,6c0,0-7-12.1-30.9-16.3c6.6,20.7-0.2,33.9-0.2,33.9
	c-8.6,7.4-15.1,16-19.2,25.4l-1.8,4.2h-5.9c-4.9,0-8.9,4-8.9,8.9v22.7c0,4.9,4,8.9,8.9,8.9h5.8l1.8,4.2c3.7,8.3,9.2,16,16.4,22.9
	l3.1,3l-7.2,24.1c-0.3,0.9,0,1.7,0.2,2.1s0.7,1.1,1.6,1.3l26.9,8c1.4,0.4,3-0.5,3.4-1.9l4.9-16.5l6.6,1.9c9.8,2.8,20.1,4.2,30.5,4.2
	c9.7,0,19.2-1.2,28.4-3.6l6.5-1.7l4.7,15.7c0.4,1.4,2,2.3,3.5,1.9l26.9-8c0.9-0.3,1.4-1,1.6-1.3c0.2-0.4,0.5-1.2,0.2-2.1l-6.7-22.4
	l3.3-3C225.4,204.1,233.7,186.7,233.7,168.7z"/>
<g>
	<path class="st3" d="M233.7,168.7c0-40.5-41.3-73.4-92-73.4c-2.4,0-4.8,0.1-7.2,0.2c47.2,3.1,84.5,34.7,84.5,73.2
		c0,18.1-8.3,35.4-23.4,48.9l-3.3,3l10.5,28.5l8.9-2.7c0.9-0.3,1.4-1,1.6-1.3c0.2-0.4,0.5-1.2,0.2-2.1l-6.7-22.4l3.3-3
		C225.4,204.1,233.7,186.7,233.7,168.7z"/>
</g>
<path class="st2" d="M157.5,105.8c-10.1-1.9-20.7-2-30.7-0.1c-1.1,0.2-1.8,1.2-1.6,2.3c0.2,1.1,1.2,1.8,2.3,1.6
	c9.5-1.7,19.7-1.7,29.2,0.1c0.1,0,0.3,0,0.4,0c0.9,0,1.8-0.7,2-1.6C159.3,107,158.6,106,157.5,105.8z"/>
<path class="st2" d="M252.5,163c1.7-2.3,2.6-4.6,2.5-6.9c-0.1-3.1-2.1-5.8-4.8-6.6c-2.5-0.7-5.3,0.4-7.5,2.8
	c-3.5,3.8-4.4,9.5-2.4,14.2l0,0c-1.3,0.3-2.5,0.5-3.8,0.5c-0.2,0-0.4,0-0.5-0.1c-0.2-0.8-0.9-1.4-1.8-1.5c-1.1-0.1-2.1,0.8-2.1,1.9
	c-0.1,0.9,0.2,1.7,0.8,2.3c1.2,1.3,3,1.4,3.6,1.4c2.1,0,4.2-0.3,6.2-1c2.5,2.7,6,4.4,9.7,4.4l0,0c1.1,0,2-0.9,2-2s-0.9-2-2-2
	c-2.1,0-4.2-0.8-5.8-2.2C248.9,166.9,250.9,165.1,252.5,163z M249.2,160.6c-1.4,1.9-3.2,3.4-5.2,4.5c0-0.1,0-0.1-0.1-0.2
	c-1.4-3.2-0.7-7.3,1.6-9.9c0.7-0.8,1.9-1.7,3-1.7c0.2,0,0.3,0,0.5,0.1c1,0.3,1.8,1.5,1.8,2.8C251,157.5,250.4,159,249.2,160.6z"/>
<circle class="st2" cx="72.6" cy="146.2" r="3.1"/>
<path class="st2" d="M172.2,209.1c-5.7,4.6-16.1,7.7-27.7,8.3c-1.1,0.1-1.9,1-1.9,2.1c0.1,1.1,0.9,1.9,2,1.9h0.1
	c12.6-0.7,23.5-4,30-9.2c0.9-0.7,1-1.9,0.3-2.8C174.4,208.6,173.1,208.4,172.2,209.1z"/>
<path class="st2" d="M136.1,217.4c-7-0.3-13.7-1.6-19.2-3.6c-1-0.4-2.2,0.2-2.6,1.2s0.2,2.2,1.2,2.6c5.9,2.1,13,3.4,20.4,3.8h0.1
	c1.1,0,1.9-0.8,2-1.9S137.2,217.5,136.1,217.4z"/>
<path class="st2" d="M111,211.2c-1.1-0.7-2.2-1.4-3.1-2.1s-2.1-0.5-2.8,0.3c-0.7,0.9-0.5,2.1,0.3,2.8c1.1,0.8,2.3,1.7,3.6,2.4
	c0.3,0.2,0.7,0.3,1,0.3c0.7,0,1.4-0.4,1.7-1C112.3,213,111.9,211.7,111,211.2z"/>
<path class="st2" d="M235.7,168.7c0-41.6-42.1-75.4-94-75.4c-12.3,0-24.3,1.9-35.7,5.7c-2.7-3.4-11.3-12.4-31.3-15.9
	c-0.7-0.1-1.4,0.1-1.9,0.7c-0.5,0.5-0.6,1.3-0.4,1.9c5.6,17.9,1,30,0.1,32.1c-8.7,7.6-15.2,16.2-19.4,25.8l-1.3,3h-4.5
	c-6,0-10.9,4.9-10.9,10.9v22.7c0,6,4.9,10.9,10.9,10.9h4.5l1.3,3c3.8,8.6,9.5,16.5,16.9,23.5l2.2,2.1l-6.8,22.9
	c-0.5,1.6,0,3,0.4,3.6c0.4,0.7,1.2,1.8,2.8,2.3l26.9,8c0.4,0.1,0.9,0.2,1.3,0.2c2.1,0,4-1.4,4.6-3.4l4.3-14.6l4.7,1.3
	c10,2.8,20.4,4.2,31.1,4.2c9.8,0,19.6-1.2,28.9-3.7l4.7-1.2l4.1,13.9c0.6,2,2.5,3.4,4.6,3.4l0,0c0.4,0,0.9-0.1,1.3-0.2l26.9-8
	c1.6-0.5,2.5-1.7,2.8-2.3c0.4-0.7,0.9-2,0.4-3.6l-6.3-21.2l2.4-2.1C227.1,205.2,235.7,187.3,235.7,168.7z M205,221.1l6.7,22.4
	c0.1,0.2,0,0.4-0.1,0.6c-0.1,0.1-0.2,0.3-0.4,0.4l-26.9,8c-0.4,0.1-0.9-0.2-1-0.5l-4.7-15.7c-0.3-0.9-1.1-1.4-1.9-1.4
	c-0.2,0-0.3,0-0.5,0.1l-6.5,1.7c-9,2.3-18.4,3.5-27.9,3.5c-10.3,0-20.3-1.4-30-4.1l-6.6-1.9c-1.1-0.3-2.1,0.3-2.5,1.4l-4.9,16.5
	c-0.1,0.4-0.6,0.6-1,0.5l-26.9-8c-0.2-0.1-0.4-0.2-0.5-0.4c-0.1-0.1-0.1-0.3-0.1-0.6l7.2-24.1c0.2-0.7,0-1.5-0.5-2l-3.1-3
	c-7-6.7-12.4-14.1-16-22.2l-1.8-4.2c-0.3-0.7-1-1.2-1.8-1.2h-6c-3.8,0-6.9-3.1-6.9-6.9v-22.7c0-3.8,3.1-6.9,6.9-6.9h5.8
	c0.8,0,1.5-0.5,1.8-1.2l1.8-4.2c4.1-9.2,10.4-17.5,18.7-24.7c0.2-0.2,0.4-0.4,0.5-0.6c0.3-0.5,6.3-12.8,1.2-32.2
	c20,4.4,26.2,14.6,26.3,14.7c0.5,0.8,1.5,1.2,2.4,0.9c11.3-3.9,23.4-5.9,35.8-5.9c49.6,0,90,32,90,71.4c0,17.5-8.1,34.3-22.8,47.4
	l-3.3,3C205,219.6,204.8,220.4,205,221.1z"/>
</svg>
