<!-- Generator: Adobe Illustrator 21.1.0, SVG Export Plug-In  -->
<svg version="1.1"
	 xmlns="http://www.w3.org/2000/svg" xmlns:xlink="http://www.w3.org/1999/xlink" xmlns:a="http://ns.adobe.com/AdobeSVGViewerExtensions/3.0/"
	 x="0px" y="0px" width="270.5px" height="162.1px" viewBox="0 0 270.5 162.1" style="enable-background:new 0 0 270.5 162.1;"
	 xml:space="preserve">
<style type="text/css">
	.st0{fill:#FFFFFF;}
	.st1{fill:#262A2C;}
	.st2{fill:#F7EC3D;}
</style>
<defs>
</defs>
<g>
	<path class="st0" d="M237.3,2h-204c-2.8,0-5,2.3-5,5v132.7c0,2.8,2.3,5,5,5h204c2.8,0,5-2.3,5-5V7C242.3,4.3,240,2,237.3,2z"/>
	<path class="st1" d="M237.3,0h-204c-3.9,0-7,3.1-7,7v132.7c0,3.9,3.1,7,7,7h204c3.9,0,7-3.1,7-7V7C244.3,3.1,241.2,0,237.3,0z
		 M240.3,139.7c0,1.7-1.3,3-3,3h-204c-1.7,0-3-1.3-3-3V7c0-1.7,1.3-3,3-3h204c1.7,0,3,1.3,3,3V139.7z"/>
</g>
<g>
	<rect x="37.4" y="10.9" class="st0" width="195.8" height="124.9"/>
	<path class="st1" d="M233.2,8.9H37.4c-1.1,0-2,0.9-2,2v124.9c0,1.1,0.9,2,2,2h195.8c1.1,0,2-0.9,2-2V10.9
		C235.2,9.8,234.3,8.9,233.2,8.9z M231.2,133.8H39.4V12.9h191.8L231.2,133.8L231.2,133.8z"/>
</g>
<rect x="44.8" y="27.5" class="st2" width="180.9" height="91.7"/>
<g>
	<g>
		<path class="st0" d="M2,146.2c0,7.6,6.3,13.9,13.9,13.9h238.7c7.6,0,13.9-6.3,13.9-13.9v-1.9H2V146.2z"/>
		<path class="st1" d="M268.5,142.3H2c-1.1,0-2,0.9-2,2v1.9c0,8.8,7.1,15.9,15.9,15.9h238.7c8.8,0,15.9-7.1,15.9-15.9v-1.9
			C270.5,143.2,269.6,142.3,268.5,142.3z M254.7,158.1H15.9c-6.5,0-11.8-5.3-11.9-11.7h262.5C266.5,152.8,261.2,158.1,254.7,158.1z"
			/>
	</g>
	<path class="st1" d="M268.5,142.3H2c-1.1,0-2,0.9-2,2v1.9c0,8.8,7.1,15.9,15.9,15.9h238.7c8.8,0,15.9-7.1,15.9-15.9v-1.9
		C270.5,143.2,269.6,142.3,268.5,142.3z M254.7,158.1H15.9c-6.5,0-11.8-5.3-11.9-11.7h262.5C266.5,152.8,261.2,158.1,254.7,158.1z"
		/>
</g>
<g>
	<path class="st0" d="M135.3,46c-15.1,0-27.4,12.3-27.4,27.4s12.3,27.4,27.4,27.4s27.4-12.3,27.4-27.4C162.6,58.3,150.4,46,135.3,46
		z M135.3,96.7c-12.9,0-23.4-10.5-23.4-23.4s10.5-23.4,23.4-23.4s23.4,10.5,23.4,23.4C158.6,86.2,148.2,96.7,135.3,96.7z"/>
	<path class="st0" d="M146.7,72.3l-17.3-10c-1-0.5-1.7-0.1-1.7,1v19.9c0,1.1,0.8,1.5,1.7,1l17.3-10
		C147.6,73.8,147.6,72.9,146.7,72.3z"/>
</g>
<path class="st1" d="M225.7,124.5h-51.5c-1.1,0-2,0.9-2,2s0.9,2,2,2h51.5c1.1,0,2-0.9,2-2S226.8,124.5,225.7,124.5z"/>
<rect x="44.8" y="124.5" class="st2" width="129.4" height="4"/>
<circle class="st2" cx="174.2" cy="126.5" r="4.6"/>
<path class="st1" d="M100.5,107.9h-11c-1.1,0-2,0.9-2,2s0.9,2,2,2h11c1.1,0,2,0.9,2,2v24.9c0,1.1-0.9,2-2,2h-11c-1.1,0-2,0.9-2,2
	s0.9,2,2,2h11c3.3,0,6-2.7,6-6v-24.9C106.5,110.6,103.8,107.9,100.5,107.9z"/>
<g>
	<path class="st0" d="M50.7,100.6h-7.5v7.5V136v16.5c0,4.1,3.4,7.5,7.5,7.5h30.8c4.1,0,7.5-3.4,7.5-7.5V136v-27.9v-7.5h-7.5H50.7z"
		/>
	<path class="st1" d="M89.1,98.6H43.3c-1.1,0-2,0.9-2,2v51.9c0,5.3,4.3,9.5,9.5,9.5h30.8c5.2,0,9.5-4.3,9.5-9.5v-51.9
		C91.1,99.5,90.2,98.6,89.1,98.6z M87.1,152.5c0,3-2.5,5.5-5.5,5.5H50.8c-3,0-5.5-2.5-5.5-5.5v-49.9h41.8V152.5z"/>
</g>
<path class="st2" d="M48.2,149.2c0,3.2,2.7,5.9,5.9,5.9h24.1c3.2,0,5.9-2.7,5.9-5.9v-24.9H48.2V149.2z"/>
<path class="st1" d="M48.2,80.2c-1.1,0-2,0.9-2,2v8.1c0,1.1,0.9,2,2,2s2-0.9,2-2v-8.1C50.2,81.1,49.3,80.2,48.2,80.2z"/>
<path class="st1" d="M48.2,63.3c-1.1,0-2,0.9-2,2v5.3c0,1.1,0.9,2,2,2s2-0.9,2-2v-5.3C50.2,64.2,49.3,63.3,48.2,63.3z"/>
<path class="st1" d="M84.8,76.8c-1.1,0-2,0.9-2,2v5.5c0,1.1,0.9,2,2,2s2-0.9,2-2v-5.5C86.8,77.7,85.9,76.8,84.8,76.8z"/>
<path class="st1" d="M84.8,63.6c-1.1,0-2,0.9-2,2v2.8c0,1.1,0.9,2,2,2s2-0.9,2-2v-2.8C86.8,64.5,85.9,63.6,84.8,63.6z"/>
<path class="st1" d="M60.2,70.2c-1.1,0-2,0.9-2,2v12.1c0,1.1,0.9,2,2,2s2-0.9,2-2V72.2C62.2,71.1,61.3,70.2,60.2,70.2z"/>
<path class="st1" d="M60.2,40.8c-1.1,0-2,0.9-2,2v7.3c0,1.1,0.9,2,2,2s2-0.9,2-2v-7.3C62.2,41.7,61.3,40.8,60.2,40.8z"/>
<path class="st1" d="M72.1,82.3c-1.1,0-2,0.9-2,2v6c0,1.1,0.9,2,2,2s2-0.9,2-2v-6C74.1,83.2,73.2,82.3,72.1,82.3z"/>
<path class="st1" d="M72.1,57.1c-1.1,0-2,0.9-2,2v8c0,1.1,0.9,2,2,2s2-0.9,2-2v-8C74.1,58,73.2,57.1,72.1,57.1z"/>
</svg>
