<!-- Generator: Adobe Illustrator 21.1.0, SVG Export Plug-In  -->
<svg version="1.1"
	 xmlns="http://www.w3.org/2000/svg" xmlns:xlink="http://www.w3.org/1999/xlink" xmlns:a="http://ns.adobe.com/AdobeSVGViewerExtensions/3.0/"
	 x="0px" y="0px" width="291.4px" height="291.4px" viewBox="0 0 291.4 291.4" style="enable-background:new 0 0 291.4 291.4;"
	 xml:space="preserve">
<style type="text/css">
	.st0{fill:#FBF6B1;}
	.st1{fill:#FFFFFF;}
	.st2{fill:#F7EC3D;}
	.st3{fill:#262A2C;}
</style>
<defs>
</defs>
<circle class="st0" cx="145.7" cy="145.7" r="145.7"/>
<g>
	<path class="st1" d="M134.7,198.7h-1.1c0,0-16.9-6.6-16.9-14c0-4.1,0-24,0-24h-6h-1.8h-6c0,0,0,19.9,0,24c0,7.4-16.9,14-16.9,14
		h-1.1c-1,0-1.7,0.8-1.7,1.7v0.4c0,1,0.8,1.7,1.7,1.7h49.8c1,0,1.7-0.8,1.7-1.7v-0.4C136.4,199.5,135.6,198.7,134.7,198.7z"/>
	<path class="st2" d="M108.9,160.8h-6c0,0,0,3.5,0,7.9c2.3,0.5,4.6,0.7,6.9,0.7s4.7-0.3,6.9-0.7c0-4.4,0-7.9,0-7.9h-6H108.9z"/>
	<path class="st3" d="M172.4,71.2c-5.7-3.6-13.5-3.1-19.8,1.2c-0.8,0.5-1,1.6-0.5,2.4s1.6,1,2.4,0.5c5.1-3.5,11.4-3.9,16-1.1
		c4.7,2.9,6.7,8.8,5.7,16.2c-1.9,13.2-18.4,26.9-25.4,32.1l0,0c-2.8,1.7-4.8,4.4-5.6,7.6c-0.8,3.3-0.3,6.7,1.4,9.6
		c2.4,4,6.6,6.2,10.9,6.2c2.2,0,4.4-0.6,6.4-1.8c0.8-0.5,1.1-1.6,0.6-2.4s-1.6-1.1-2.4-0.6c-4.3,2.6-9.9,1.1-12.5-3.2
		c-2.6-4.3-1.1-9.9,3.2-12.5c0.1-0.1,0.2-0.1,0.3-0.2c9.2-6.9,24.6-20.4,26.6-34.3C180.9,82.1,178.2,74.9,172.4,71.2z"/>
	<path class="st3" d="M68.8,122.5L68.8,122.5c-7-5.3-23.5-18.9-25.4-32.2c-1.1-7.4,1-13.3,5.7-16.2c4.6-2.8,10.8-2.4,16,1.1
		c0.8,0.5,1.9,0.3,2.4-0.5s0.3-1.9-0.5-2.4c-6.3-4.3-14-4.8-19.8-1.2c-5.9,3.7-8.5,10.8-7.3,19.6c2,13.9,17.4,27.4,26.6,34.3
		c0.1,0.1,0.2,0.2,0.3,0.2c4.3,2.6,5.8,8.2,3.2,12.5c-1.2,2.1-3.2,3.6-5.6,4.2c-2.4,0.6-4.8,0.2-6.9-1c-0.8-0.5-1.9-0.2-2.4,0.6
		c-0.5,0.8-0.2,1.9,0.6,2.4c2,1.2,4.2,1.8,6.4,1.8c1,0,2.1-0.1,3.1-0.4c3.3-0.8,6-2.9,7.7-5.8s2.2-6.3,1.4-9.6
		C73.6,126.9,71.6,124.2,68.8,122.5z"/>
	<polygon class="st2" points="80,202.6 75.1,228.7 144.5,228.7 139.6,202.6 	"/>
	<polygon class="st1" points="81,201.9 76.1,228 78.7,228 82.8,205.9 141.3,205.9 140.6,201.9 	"/>
	<path class="st3" d="M134.7,197h-0.8c-6.1-2.4-15.5-7.8-15.5-12.2v-24c0-1-0.8-1.7-1.7-1.7h-13.8c-1,0-1.7,0.8-1.7,1.7v24
		c0,4.4-9.4,9.8-15.5,12.2h-0.8c-1.9,0-3.5,1.6-3.5,3.5v0.4c0,1.9,1.6,3.5,3.5,3.5h49.8c1.9,0,3.5-1.6,3.5-3.5v-0.4
		C138.2,198.6,136.6,197,134.7,197z M134.7,200.9H84.9v-0.4H86c0.2,0,0.4,0,0.6-0.1c1.8-0.7,18-7.3,18-15.6v-22.2H115v22.2
		c0,8.3,16.2,14.9,18,15.6c0.2,0.1,0.4,0.1,0.6,0.1h1.1V200.9z M134.7,202.6v-1.7V202.6z"/>
	<path class="st1" d="M153.6,64.3h-5.1c-3.4,0-20.9,0-38.7,0s-35.3,0-38.7,0H66c-0.7,0-1.1,0.5-1,1.2l4.6,36.8l3.7,29.4
		c2.2,17.9,18.7,32.6,36.6,32.6s34.4-14.6,36.6-32.6l0.1-0.6l0,0l8.2-65.6C154.7,64.8,154.2,64.3,153.6,64.3z"/>
	<path class="st2" d="M153.6,64.3H66c-0.7,0-1.1,0.5-1,1.2l0.6,5.1H154l0.6-5.1C154.7,64.8,154.2,64.3,153.6,64.3z"/>
	<path class="st2" d="M145.6,228.7H73.9c-1,0-1.7,0.8-1.7,1.7v2.2c0,1,0.8,1.7,1.7,1.7h71.7c1,0,1.7-0.8,1.7-1.7v-2.2
		C147.3,229.5,146.6,228.7,145.6,228.7z"/>
	<path class="st3" d="M145.6,227H73.9c-1.9,0-3.5,1.6-3.5,3.5v2.2c0,1.9,1.6,3.5,3.5,3.5h71.7c1.9,0,3.5-1.6,3.5-3.5v-2.2
		C149.1,228.6,147.5,227,145.6,227z M145.6,234.5v-1.7V234.5z M145.6,232.7H74v-2.2h71.6V232.7z"/>
	<path class="st2" d="M128.2,100.5L117.7,99c-0.9-0.1-2.1-1-2.5-1.8l-4.7-9.5c-0.4-0.9-1.1-0.9-1.5,0l-4.7,9.5
		c-0.4,0.9-1.5,1.7-2.5,1.8l-10.5,1.5c-0.9,0.1-1.2,0.8-0.5,1.5l7.6,7.4c0.7,0.7,1.1,2,1,2.9l-1.8,10.4c-0.2,0.9,0.4,1.4,1.2,0.9
		l9.4-4.9c0.8-0.4,2.2-0.4,3.1,0l9.4,4.9c0.8,0.4,1.4,0,1.2-0.9l-1.8-10.4c-0.2-0.9,0.3-2.3,1-2.9l7.6-7.4
		C129.3,101.3,129.1,100.6,128.2,100.5z"/>
	<path class="st3" d="M153.6,62.5H66c-0.8,0-1.6,0.3-2.1,0.9s-0.8,1.4-0.7,2.2l8.2,66.2c2.3,18.8,19.5,34.1,38.3,34.1
		s36-15.3,38.3-34.1l8.2-66.2c0.1-0.8-0.1-1.6-0.7-2.2C155.2,62.9,154.4,62.5,153.6,62.5z M144.7,131.4c-2.1,17.1-17.8,31-34.9,31
		s-32.8-13.9-34.9-31L66.8,66h86L144.7,131.4z"/>
	<path class="st2" d="M153.5,56.9H66c-2.4,0-4.4,2-4.4,4.4v0.5c0,2.4,2,4.4,4.4,4.4h87.5c2.4,0,4.4-2,4.4-4.4v-0.5
		C157.9,58.9,155.9,56.9,153.5,56.9z"/>
	<path class="st3" d="M153.5,55.2H66c-3.4,0-6.1,2.7-6.1,6.1v0.5c0,3.4,2.7,6.1,6.1,6.1h87.5c3.4,0,6.1-2.7,6.1-6.1v-0.5
		C159.6,57.9,156.9,55.2,153.5,55.2z M156.2,61.8c0,1.4-1.2,2.6-2.6,2.6H66.1c-1.4,0-2.6-1.2-2.6-2.6v-0.5c0-1.4,1.2-2.6,2.6-2.6
		h87.5c1.4,0,2.6,1.2,2.6,2.6V61.8z"/>
	<path class="st3" d="M141.3,202.3c-0.2-0.8-0.9-1.4-1.7-1.4H80c-0.8,0-1.6,0.6-1.7,1.4l-4.9,26.1c-0.1,0.5,0,1,0.4,1.4
		c0.3,0.4,0.8,0.6,1.3,0.6h69.4l0,0c1,0,1.7-0.8,1.7-1.7c0-0.2,0-0.4-0.1-0.6L141.3,202.3z M77.2,227l4.2-22.6h56.7l4.2,22.6H77.2z"
		/>
	<path class="st2" d="M231.6,161.5c-0.2-0.5-0.6-0.8-1-1c-0.5-0.1-1-0.1-1.4,0.2c-0.8,0.5-1.7,0.8-2.4,0.8h-2.4
		c-2.2,0-5.4,0.9-7.3,1.9l-2.1,1.2c-0.4,0.2-1,0.4-1.6,0.5c-0.2,0-0.4,0.1-0.6,0.2c-0.2-0.1-0.4-0.2-0.6-0.2
		c-0.6-0.1-1.2-0.2-1.6-0.5l-2.1-1.2c-1.9-1.1-5.1-1.9-7.3-1.9h-2.4c-0.7,0-1.6-0.3-2.4-0.8c-0.4-0.3-0.9-0.3-1.4-0.2
		c-0.5,0.1-0.8,0.5-1,1l-18.3,45.7c-0.3,0.7-0.1,1.5,0.5,1.9s1.4,0.4,2,0l11.2-8.8l2,14.1c0.1,0.7,0.7,1.3,1.4,1.4
		c0.1,0,0.1,0,0.2,0c0.7,0,1.3-0.4,1.5-1l18.2-45.5l18.2,45.5c0.2,0.6,0.9,1,1.5,1c0.1,0,0.1,0,0.2,0c0.7-0.1,1.3-0.7,1.4-1.4
		l2-14.1l11.2,8.8c0.6,0.5,1.4,0.5,2,0c0.6-0.4,0.8-1.2,0.5-1.9L231.6,161.5z"/>
	<path class="st3" d="M233.3,160.8c-0.4-0.9-1.2-1.7-2.1-2c-1-0.3-2-0.1-2.9,0.4c-0.6,0.4-1.2,0.6-1.5,0.6h-2.4
		c-2.5,0-6,0.9-8.1,2.2l-2.1,1.2c-0.1,0.1-0.5,0.2-0.9,0.2c-0.1,0-0.3,0-0.4,0.1c-0.1,0-0.3-0.1-0.4-0.1c-0.4,0-0.7-0.2-0.9-0.2
		l-2.1-1.2c-2.2-1.2-5.7-2.2-8.1-2.2H199c-0.3,0-0.9-0.2-1.5-0.6c-0.8-0.5-1.9-0.7-2.9-0.4c-1,0.3-1.7,1-2.1,2l-18.3,45.7
		c-0.6,1.4-0.1,3,1.1,4c1.2,0.9,2.9,0.9,4.1,0l8.8-6.9l1.6,11.1c0.2,1.5,1.4,2.7,2.9,2.9c1.5,0.2,3-0.7,3.5-2.1l16.6-41.4l16.6,41.4
		c0.5,1.3,1.7,2.1,3.1,2.1c0.1,0,0.3,0,0.4,0c1.5-0.2,2.7-1.4,2.9-2.9l1.6-11.1l8.8,6.9c0.6,0.5,1.3,0.7,2.1,0.7l0,0
		c0.7,0,1.4-0.2,2-0.7c1.2-0.9,1.7-2.5,1.1-4L233.3,160.8z M237.3,198.9c-0.5-0.4-1.1-0.5-1.7-0.2c-0.6,0.2-1,0.8-1.1,1.4l-2,13.7
		l-18-45.2c-0.3-0.7-0.9-1.1-1.6-1.1s-1.4,0.4-1.6,1.1l-18.1,45.1l-2-13.7c-0.1-0.6-0.5-1.1-1.1-1.4c-0.2-0.1-0.4-0.1-0.6-0.1
		c-0.4,0-0.8,0.1-1.1,0.4l-10.8,8.5l18.1-45.2c1.1,0.7,2.2,1.1,3.3,1.1h2.4c1.9,0,4.8,0.8,6.4,1.7l2.1,1.2c0.6,0.4,1.4,0.6,2.2,0.7
		c0.5,0.3,1.1,0.3,1.6,0c0.9-0.1,1.6-0.3,2.3-0.7l2.1-1.2c1.6-0.9,4.5-1.7,6.4-1.7h2.4c1,0,2.2-0.4,3.3-1.1l18.1,45.2L237.3,198.9z"
		/>
	<path class="st2" d="M246.1,127.2c-0.8-1.4-1.5-4-1.5-5.6v-2.4c0-2.5-1.7-5.4-3.8-6.6l-2.1-1.2c-1.4-0.8-3.3-2.7-4.1-4.1l-1.2-2.1
		c-1.2-2.1-4.1-3.8-6.6-3.8h-2.4c-1.6,0-4.2-0.7-5.6-1.5l-2.1-1.2c-1-0.6-2.4-0.9-3.8-0.9s-2.8,0.3-3.8,0.9l-2.1,1.2
		c-1.4,0.8-4,1.5-5.6,1.5H199c-2.5,0-5.4,1.7-6.6,3.8l-1.2,2.1c-0.8,1.4-2.7,3.3-4.1,4.1l-2.1,1.2c-2.1,1.2-3.8,4.1-3.8,6.6v2.4
		c0,1.6-0.7,4.2-1.5,5.6l-1.2,2.1c-1.2,2.1-1.2,5.5,0,7.6l1.2,2.1c0.8,1.4,1.5,4,1.5,5.6v2.4c0,2.5,1.7,5.4,3.8,6.6l2.1,1.2
		c1.4,0.8,3.3,2.7,4.1,4.1l1.2,2.1c0.5,0.9,1.3,1.7,2.4,2.4c1.4,0.9,2.8,1.4,4.2,1.4h2.4c1.6,0,4.2,0.7,5.6,1.5l2.1,1.2
		c0.8,0.5,1.8,0.8,2.9,0.9c0.3,0,0.6,0.1,0.9,0.1s0.6,0,0.9-0.1c1.1-0.1,2.1-0.4,2.9-0.9l2.1-1.2c1.4-0.8,4-1.5,5.6-1.5h2.4
		c1.4,0,2.9-0.5,4.2-1.4c1-0.7,1.9-1.5,2.4-2.4l1.2-2.1c0.8-1.4,2.7-3.3,4.1-4.1l2.1-1.2c2.1-1.2,3.8-4.1,3.8-6.6v-2.4
		c0-1.6,0.7-4.2,1.5-5.6l1.2-2.1c1.2-2.1,1.2-5.5,0-7.6L246.1,127.2z"/>
	<path class="st3" d="M247.7,126.3c-0.7-1.1-1.3-3.5-1.3-4.8v-2.4c0-3.1-2-6.6-4.7-8.1l-2.1-1.2c-1.1-0.7-2.8-2.4-3.5-3.5l-1.2-2.1
		c-1.5-2.7-5-4.7-8.1-4.7h-2.4c-1.3,0-3.6-0.6-4.8-1.3l-2.1-1.2c-1.3-0.8-3-1.2-4.7-1.2s-3.4,0.4-4.7,1.2l-2.1,1.2
		c-1.1,0.7-3.5,1.3-4.8,1.3h-2.4c-3.1,0-6.6,2-8.1,4.7l-1.2,2.1c-0.7,1.1-2.4,2.8-3.5,3.5l-2.1,1.2c-2.7,1.5-4.7,5-4.7,8.1v2.4
		c0,1.3-0.6,3.6-1.3,4.8l-1.2,2.1c-1.5,2.7-1.5,6.7,0,9.4l1.2,2.1c0.7,1.1,1.3,3.5,1.3,4.8v2.4c0,3.1,2,6.6,4.7,8.1l2.1,1.2
		c1.1,0.7,2.8,2.4,3.5,3.5l1.2,2.1c0.7,1.1,1.7,2.2,2.9,3c1.6,1.1,3.5,1.7,5.2,1.7h2.4c1.3,0,3.6,0.6,4.8,1.3l2.1,1.2
		c1,0.6,2.2,1,3.5,1.1c0.4,0,0.8,0.1,1.1,0.1c0.4,0,0.8,0,1.1-0.1c1.3-0.1,2.5-0.5,3.6-1.1l2.1-1.2c1.1-0.7,3.5-1.3,4.8-1.3h2.4
		c1.7,0,3.5-0.6,5.2-1.7c1.3-0.8,2.3-1.9,3-3l1.2-2.1c0.7-1.1,2.4-2.8,3.5-3.5l2.1-1.2c2.7-1.5,4.7-5,4.7-8.1v-2.5
		c0-1.3,0.6-3.6,1.3-4.8l1.2-2.1c1.5-2.7,1.5-6.7,0-9.4L247.7,126.3z M245.8,136l-1.2,2.1c-1,1.7-1.7,4.6-1.7,6.5v2.4
		c0,1.8-1.3,4.2-2.9,5.1l-2.1,1.2c-1.7,1-3.8,3.1-4.8,4.8l-1.2,2.1c-0.4,0.7-1,1.3-1.8,1.8c-1.1,0.7-2.2,1.1-3.2,1.1h-2.4
		c-1.9,0-4.8,0.8-6.5,1.7l-2.1,1.2c-0.6,0.3-1.3,0.6-2.2,0.7c-0.5,0.1-1,0.1-1.5,0c-0.8-0.1-1.6-0.3-2.2-0.7l-2.1-1.2
		c-1.7-1-4.6-1.7-6.5-1.7H199c-1,0-2.2-0.4-3.2-1.1c-0.8-0.5-1.5-1.2-1.8-1.8l-1.2-2.1c-1-1.7-3.1-3.8-4.8-4.8l-2.1-1.2
		c-1.6-0.9-2.9-3.3-2.9-5.1v-2.4c0-1.9-0.8-4.8-1.7-6.5l-1.2-2.1c-0.9-1.6-0.9-4.3,0-5.9l1.2-2.1c1-1.7,1.7-4.6,1.7-6.5v-2.4
		c0-1.8,1.3-4.2,2.9-5.1l2.1-1.2c1.7-1,3.8-3.1,4.8-4.8l1.2-2.1c0.9-1.6,3.3-2.9,5.1-2.9h2.4c1.9,0,4.8-0.8,6.5-1.7l2.1-1.2
		c1.5-0.9,4.3-0.9,5.9,0l2.1,1.2c1.7,1,4.6,1.7,6.5,1.7h2.4c1.8,0,4.2,1.3,5.1,2.9l1.2,2.1c1,1.7,3.1,3.8,4.8,4.8l2.1,1.2
		c1.6,0.9,2.9,3.3,2.9,5.1v2.4c0,1.9,0.8,4.8,1.7,6.5l1.2,2.1C246.8,131.7,246.8,134.4,245.8,136z"/>
	<path class="st1" d="M212.9,111.8c-11.7,0-21.2,9.5-21.2,21.2s9.5,21.2,21.2,21.2s21.2-9.5,21.2-21.2
		C234.1,121.4,224.6,111.8,212.9,111.8z"/>
</g>
</svg>
