<!-- Generator: Adobe Illustrator 21.1.0, SVG Export Plug-In  -->
<svg version="1.1"
	 xmlns="http://www.w3.org/2000/svg" xmlns:xlink="http://www.w3.org/1999/xlink" xmlns:a="http://ns.adobe.com/AdobeSVGViewerExtensions/3.0/"
	 x="0px" y="0px" width="291.4px" height="291.4px" viewBox="0 0 291.4 291.4" style="enable-background:new 0 0 291.4 291.4;"
	 xml:space="preserve">
<style type="text/css">
	.st0{fill:#FBF6B1;}
	.st1{fill:#FFFFFF;}
	.st2{fill:#F7EC3D;}
	.st3{fill:#262A2C;}
</style>
<defs>
</defs>
<circle class="st0" cx="145.7" cy="145.7" r="145.7"/>
<g>
	<path class="st1" d="M261.5,98.1h-3.4h-78.8h-9.6v9.6v117v9.6h9.6h78.8h3.4c5.3,0,9.6-4.3,9.6-9.6v-117
		C271.1,102.4,266.8,98.1,261.5,98.1z"/>
	<path class="st2" d="M256.4,102.8H253h-78.8h-4.4v4.9v117v9.6h9.6h78.8h3.4c1.2,0,2.3-0.2,3.3-0.6c0.6-1.3,1-2.7,1-4.3v-117
		C265.9,107.1,261.6,102.8,256.4,102.8z"/>
	<path class="st3" d="M261.5,96.1h-91.7c-1.1,0-2,0.9-2,2v136.2c0,1.1,0.9,2,2,2h91.7c6.4,0,11.6-5.2,11.6-11.6v-117
		C273.1,101.3,267.9,96.1,261.5,96.1z M269.1,224.7c0,4.2-3.4,7.6-7.6,7.6h-89.7V100.1h89.7c4.2,0,7.6,3.4,7.6,7.6V224.7
		L269.1,224.7z"/>
	<path class="st1" d="M244,133.4c-4.8-5.7-11.6-9.6-19.4-10.7c-1.1-0.1-2.2-0.2-3.3-0.3c-0.3,0-0.6,0-0.9,0c-0.5,0-1,0-1.5,0
		c-1.2,0.1-2.3,0.2-3.4,0.4c-7.5,1.2-14,5.1-18.7,10.6c-0.4,0.5-0.8,1-1.2,1.6c-3.8,5.1-6,11.5-6,18.3s2.2,13.1,5.9,18.2
		c0.4,0.5,0.8,1.1,1.2,1.6c4.7,5.6,11.3,9.5,18.8,10.7c1.1,0.2,2.2,0.3,3.4,0.4c0.5,0,1,0,1.5,0c0.3,0,0.6,0,0.9,0
		c1.1,0,2.2-0.1,3.3-0.3c7.8-1.1,14.7-5.1,19.5-10.8c0.4-0.5,0.8-1,1.2-1.6c3.7-5.1,5.9-11.4,5.9-18.2c0-6.9-2.2-13.2-6-18.3
		C244.9,134.4,244.5,133.9,244,133.4z M242.3,134.5c-2.5,1.5-5.2,2.7-8,3.6c-1.7-4.9-4.2-9.3-7.3-13
		C233.1,126.6,238.4,129.9,242.3,134.5z M205.5,152.3c0.1-4.2,0.7-8.1,1.8-11.8c4.1,1.2,8.5,1.8,13.1,1.8c4.4,0,8.6-0.6,12.5-1.7
		c1.1,3.7,1.7,7.6,1.8,11.7H205.5z M234.8,154.3c-0.1,4-0.7,7.9-1.7,11.5c-3.9-1.1-8.2-1.7-12.6-1.7c-4.6,0-9,0.7-13.1,1.9
		c-1.1-3.6-1.7-7.6-1.8-11.7L234.8,154.3L234.8,154.3z M216.5,124.7c1.3-0.2,2.6-0.3,4-0.3c1.1,0,2.2,0.1,3.3,0.2
		c3.7,3.7,6.7,8.5,8.6,14.1c-3.7,1-7.8,1.6-11.9,1.6c-4.4,0-8.6-0.6-12.5-1.7C209.9,133.1,212.8,128.4,216.5,124.7z M213.2,125.3
		c-3,3.5-5.4,7.8-7.1,12.6c-2.7-0.9-5.2-2.1-7.5-3.5C202.3,130.1,207.4,126.8,213.2,125.3z M197.3,136c2.5,1.5,5.2,2.8,8.2,3.8
		c-1.2,3.9-1.8,8.1-1.9,12.4h-11.9C191.8,146.2,193.9,140.6,197.3,136z M191.6,154.3h11.9c0.1,4.3,0.7,8.4,1.9,12.3
		c-2.9,1-5.7,2.3-8.2,3.8C193.9,165.8,191.8,160.3,191.6,154.3z M198.5,172c2.3-1.4,4.9-2.6,7.6-3.5c1.7,4.9,4.1,9.2,7.2,12.8
		C207.4,179.7,202.2,176.4,198.5,172z M223.8,182c-1.1,0.1-2.2,0.2-3.3,0.2c-1.3,0-2.7-0.1-4-0.3c-3.7-3.7-6.6-8.5-8.5-14
		c3.9-1.1,8.1-1.8,12.5-1.8c4.2,0,8.2,0.6,12,1.6C230.5,173.3,227.5,178.2,223.8,182z M227,181.4c3.1-3.7,5.7-8.1,7.4-13.1
		c2.9,1,5.6,2.2,8.1,3.7C238.5,176.6,233.1,180,227,181.4z M243.7,170.4c-2.7-1.6-5.6-3-8.7-4c1.1-3.8,1.7-7.9,1.8-12.1h12.5
		C249.1,160.3,247,165.8,243.7,170.4z M236.8,152.3c-0.1-4.3-0.7-8.4-1.9-12.3c3.1-1,6-2.4,8.7-4c3.4,4.6,5.5,10.2,5.7,16.2
		L236.8,152.3L236.8,152.3z"/>
	<path class="st1" d="M189.9,63.2H27.7c-4,0-7.4,3.3-7.4,7.4v79.8c0,4,3.3,7.4,7.4,7.4h162.2c4,0,7.4-3.3,7.4-7.4V70.6
		C197.2,66.5,193.9,63.2,189.9,63.2z"/>
	<path class="st2" d="M183.2,63.2H34.4c-3.7,0-6.8,3.3-6.8,7.4v79.8c0,4,3,7.4,6.8,7.4h148.8c3.7,0,6.8-3.3,6.8-7.4V70.6
		C190,66.5,186.9,63.2,183.2,63.2z"/>
	<path class="st1" d="M189.9,63.2H27.7c-4,0-7.4,3.3-7.4,7.4v11.6h176.9V70.6C197.2,66.5,193.9,63.2,189.9,63.2z"/>
	<path class="st1" d="M20.4,150.4c0,4,3.3,7.4,7.4,7.4h162.1c4,0,7.4-3.3,7.4-7.4v-11.6H20.4V150.4z"/>
	<g>
		<path class="st1" d="M181.5,98.7L181.5,98.7c-0.8-0.8-2-0.8-2.8,0l-5.2,5.3l-12.7-1.9c-0.3,0-0.7,0.1-0.9,0.4l-0.7,0.9
			c-0.2,0.2-0.1,0.6,0.1,0.7l9.2,5.1l-4.9,5l-4.5-1.1c-0.3,0-0.7,0.1-1,0.4l-0.2,0.2c-0.2,0.2-0.1,0.5,0.1,0.7l5.1,2.8l2.9,5
			c0.1,0.3,0.4,0.3,0.7,0.1l0.2-0.2c0.2-0.2,0.4-0.6,0.4-1l-1.1-4.5l4.9-4.9l5.1,9.2c0.2,0.3,0.5,0.3,0.7,0.1l0.9-0.7
			c0.2-0.2,0.4-0.6,0.4-0.9l-1.9-12.7l5.3-5.2C182.3,100.7,182.3,99.5,181.5,98.7C181.6,98.8,181.5,98.7,181.5,98.7z"/>
	</g>
	<g>
		<path class="st3" d="M149.8,61.2c-1.1,0-2,0.9-2,2v2c0,1.1,0.9,2,2,2s2-0.9,2-2v-2C151.8,62.1,150.9,61.2,149.8,61.2z"/>
		<path class="st3" d="M149.8,72.8c-1.1,0-2,0.9-2,2v3.9c0,1.1,0.9,2,2,2s2-0.9,2-2v-3.9C151.8,73.7,150.9,72.8,149.8,72.8z"/>
		<path class="st3" d="M149.8,126.7c-1.1,0-2,0.9-2,2v3.9c0,1.1,0.9,2,2,2s2-0.9,2-2v-3.9C151.8,127.6,150.9,126.7,149.8,126.7z"/>
		<path class="st3" d="M149.8,140.2c-1.1,0-2,0.9-2,2v3.9c0,1.1,0.9,2,2,2s2-0.9,2-2v-3.9C151.8,141.1,150.9,140.2,149.8,140.2z"/>
		<path class="st3" d="M149.8,113.3c-1.1,0-2,0.9-2,2v3.9c0,1.1,0.9,2,2,2s2-0.9,2-2v-3.9C151.8,114.2,150.9,113.3,149.8,113.3z"/>
		<path class="st3" d="M149.8,86.3c-1.1,0-2,0.9-2,2v3.9c0,1.1,0.9,2,2,2s2-0.9,2-2v-3.9C151.8,87.2,150.9,86.3,149.8,86.3z"/>
		<path class="st3" d="M149.8,99.8c-1.1,0-2,0.9-2,2v3.9c0,1.1,0.9,2,2,2s2-0.9,2-2v-3.9C151.8,100.7,150.9,99.8,149.8,99.8z"/>
		<path class="st3" d="M149.8,153.7c-1.1,0-2,0.9-2,2v2c0,1.1,0.9,2,2,2s2-0.9,2-2v-2C151.8,154.6,150.9,153.7,149.8,153.7z"/>
	</g>
	<path class="st3" d="M189.9,61.2H27.7c-5.2,0-9.4,4.2-9.4,9.4v79.8c0,5.2,4.2,9.4,9.4,9.4h162.2c5.2,0,9.4-4.2,9.4-9.4V70.6
		C199.2,65.4,195,61.2,189.9,61.2z M195.2,150.4c0,3-2.4,5.4-5.4,5.4H27.7c-3,0-5.4-2.4-5.4-5.4V70.6c0-3,2.4-5.4,5.4-5.4h162.2
		c3,0,5.4,2.4,5.4,5.4v79.8H195.2z"/>
	<g>
		<path class="st3" d="M137.2,123.6H83.3c-1.1,0-2,0.9-2,2s0.9,2,2,2h53.9c1.1,0,2-0.9,2-2C139.2,124.5,138.3,123.6,137.2,123.6z"/>
		<path class="st3" d="M77,123.6H50.8c-1.1,0-2,0.9-2,2s0.9,2,2,2H77c1.1,0,2-0.9,2-2C79,124.5,78.1,123.6,77,123.6z"/>
		<path class="st3" d="M44.6,123.6h-8.1c-1.1,0-2,0.9-2,2s0.9,2,2,2h8.1c1.1,0,2-0.9,2-2C46.6,124.5,45.7,123.6,44.6,123.6z"/>
		<path class="st3" d="M105.9,93.3H36.5c-1.1,0-2,0.9-2,2s0.9,2,2,2h69.4c1.1,0,2-0.9,2-2S107,93.3,105.9,93.3z"/>
		<path class="st3" d="M137.2,93.3h-24.1c-1.1,0-2,0.9-2,2s0.9,2,2,2h24.1c1.1,0,2-0.9,2-2S138.3,93.3,137.2,93.3z"/>
		<path class="st3" d="M68.2,108.4H36.5c-1.1,0-2,0.9-2,2s0.9,2,2,2h31.7c1.1,0,2-0.9,2-2S69.3,108.4,68.2,108.4z"/>
		<path class="st3" d="M89.4,108.4H74.5c-1.1,0-2,0.9-2,2s0.9,2,2,2h14.9c1.1,0,2-0.9,2-2S90.5,108.4,89.4,108.4z"/>
		<path class="st3" d="M137.2,108.4H95.8c-1.1,0-2,0.9-2,2s0.9,2,2,2h41.4c1.1,0,2-0.9,2-2S138.3,108.4,137.2,108.4z"/>
	</g>
	<g>
		<path class="st3" d="M142.4,176.9H61.5c-1.1,0-2,0.9-2,2s0.9,2,2,2h80.9c1.1,0,2-0.9,2-2S143.6,176.9,142.4,176.9z"/>
		<path class="st3" d="M50.9,176.9h-6.3c-1.1,0-2,0.9-2,2s0.9,2,2,2h6.3c1.1,0,2-0.9,2-2S52,176.9,50.9,176.9z"/>
		<path class="st3" d="M93.6,200.5H69.7c-1.1,0-2,0.9-2,2s0.9,2,2,2h23.9c1.1,0,2-0.9,2-2S94.7,200.5,93.6,200.5z"/>
		<path class="st3" d="M134.2,200.5h-32.3c-1.1,0-2,0.9-2,2s0.9,2,2,2h32.3c1.1,0,2-0.9,2-2S135.3,200.5,134.2,200.5z"/>
		<path class="st3" d="M142.3,224.2H84.6c-1.1,0-2,0.9-2,2s0.9,2,2,2h57.7c1.1,0,2-0.9,2-2S143.4,224.2,142.3,224.2z"/>
	</g>
</g>
</svg>
