<!-- Generator: Adobe Illustrator 21.1.0, SVG Export Plug-In  -->
<svg version="1.1"
	 xmlns="http://www.w3.org/2000/svg" xmlns:xlink="http://www.w3.org/1999/xlink" xmlns:a="http://ns.adobe.com/AdobeSVGViewerExtensions/3.0/"
	 x="0px" y="0px" width="250px" height="250px" viewBox="0 0 250 250" style="enable-background:new 0 0 250 250;"
	 xml:space="preserve">
<defs>
</defs>
<path d="M125,20c57.9,0,105,47.1,105,105s-47.1,105-105,105S20,182.9,20,125S67.1,20,125,20 M125,0C56,0,0,56,0,125s56,125,125,125
	s125-56,125-125S194,0,125,0L125,0z"/>
<circle cx="125" cy="173.6" r="14"/>
<g>
	<path d="M133.6,140.2h-19c-0.1-2.7-0.1-4.4-0.1-5c0-6.2,1-10.2,3.1-14.2c2-4,6.1-8.5,12.2-13.4c6.1-5,9.8-8.2,11-9.8
		c1.8-2.4,2.8-5.1,2.8-8.1c0-4.1-1.6-7.6-4.9-10.5s-7.6-4.4-13.2-4.4c-5.3,0-9.8,1.5-13.4,4.6c-3.6,3-6,7.7-7.4,13.9l-19.3-2.4
		c0.5-8.9,4.3-16.5,11.4-22.7c7-6.2,16.3-9.3,27.7-9.3c12,0,21.6,3.1,28.7,9.4s10.7,13.6,10.7,22c0,4.6-1.3,9-3.9,13.1
		c-2.6,4.1-8.2,9.8-16.8,16.9c-4.4,3.7-7.2,6.6-8.2,8.9S133.5,134.5,133.6,140.2z"/>
</g>
</svg>
