<!-- Generator: Adobe Illustrator 21.1.0, SVG Export Plug-In  -->
<svg version="1.1"
	 xmlns="http://www.w3.org/2000/svg" xmlns:xlink="http://www.w3.org/1999/xlink" xmlns:a="http://ns.adobe.com/AdobeSVGViewerExtensions/3.0/"
	 x="0px" y="0px" width="48.4px" height="56.2px" viewBox="0 0 48.4 56.2" style="enable-background:new 0 0 48.4 56.2;"
	 xml:space="preserve">
<defs>
</defs>
<g>
	<path d="M46.2,39V9c0-5-4-9-9-9h-26c-5,0-9,4-9,9v30c0,3.7,2.2,6.8,5.4,8.2L0,54.8l1.4,1.4l8.3-8.3c0.5,0.1,1,0.1,1.5,0.1h26
		c0.5,0,1-0.1,1.5-0.1l8.3,8.3l1.4-1.4l-7.6-7.6C44,45.8,46.2,42.7,46.2,39z M11.2,46c-3.9,0-7-3.1-7-7V9c0-3.9,3.1-7,7-7h26
		c3.9,0,7,3.1,7,7v30c0,3.9-3.1,7-7,7H11.2z"/>
	<path d="M42.2,11h-36v15h36V11z M40.2,24h-32V13h32V24z"/>
	<path d="M24.2,9c1.4,0,2.5-1.1,2.5-2.5S25.6,4,24.2,4s-2.5,1.1-2.5,2.5S22.8,9,24.2,9z M24.2,6c0.3,0,0.5,0.2,0.5,0.5
		S24.5,7,24.2,7s-0.5-0.2-0.5-0.5S23.9,6,24.2,6z"/>
	<path d="M12.2,33c-2.2,0-4,1.8-4,4s1.8,4,4,4s4-1.8,4-4S14.4,33,12.2,33z M12.2,39c-1.1,0-2-0.9-2-2s0.9-2,2-2s2,0.9,2,2
		S13.3,39,12.2,39z"/>
	<path d="M36.2,33c-2.2,0-4,1.8-4,4s1.8,4,4,4s4-1.8,4-4S38.4,33,36.2,33z M36.2,39c-1.1,0-2-0.9-2-2s0.9-2,2-2s2,0.9,2,2
		S37.3,39,36.2,39z"/>
</g>
</svg>
