<!-- Generator: Adobe Illustrator 21.1.0, SVG Export Plug-In  -->
<svg version="1.1"
	 xmlns="http://www.w3.org/2000/svg" xmlns:xlink="http://www.w3.org/1999/xlink" xmlns:a="http://ns.adobe.com/AdobeSVGViewerExtensions/3.0/"
	 x="0px" y="0px" width="61.7px" height="61.7px" viewBox="0 0 61.7 61.7" style="enable-background:new 0 0 61.7 61.7;"
	 xml:space="preserve">
<defs>
</defs>
<path d="M2.5,30.8L0.3,33c-0.4,0.4-0.4,1,0,1.4l0.1,0.1l11,8.8l-0.7,0.8c-1.5,1.7-1.7,4.1-0.5,6l-1.4,1.4c-0.4,0.4-0.5,1-0.1,1.4
	s1,0.5,1.4,0.1l0.1-0.1l1.4-1.4c1.9,1.2,4.3,1,6-0.5l0.8-0.7l8.8,11c0.2,0.2,0.4,0.4,0.7,0.4H28c0.3,0,0.5-0.1,0.7-0.3l2.1-2.3
	c0.3-0.3,0.4-0.6,0.3-1l-4.4-15.4l8.6-7.9L52,55.7c0.2,0.2,0.4,0.4,0.7,0.4h0.1c0.3,0,0.5-0.1,0.7-0.3l4-4c0.3-0.3,0.4-0.6,0.3-1
	l-8.2-29l9.7-8.9c3-2.8,3.2-7.5,0.4-10.5S52.2-0.8,49.2,2c-0.1,0.1-0.3,0.3-0.4,0.4L40,12L10.9,3.7c-0.4-0.1-0.7,0-1,0.3l-4,4
	c-0.4,0.4-0.4,1,0,1.4L6,9.5l21,16.8l-7.9,8.6L3.6,30.5C3.2,30.5,2.8,30.6,2.5,30.8z M29,58.1l-1,1l-8.1-10.2l5.2-4.7L29,58.1z
	 M55.6,50.7l-2.8,2.8l-16.1-20l11.1-10.1L55.6,50.7z M50.2,3.8c2.1-2.2,5.5-2.3,7.7-0.2c2.2,2.1,2.3,5.5,0.2,7.7
	c-0.1,0.1-0.2,0.2-0.3,0.3l-41.6,38c-0.9,0.8-2.1,1-3.2,0.5l8.2-8.2c0.4-0.4,0.3-1.1-0.1-1.4c-0.4-0.3-0.9-0.3-1.3,0l-8.2,8.2
	c-0.5-1.1-0.3-2.3,0.5-3.2L50.2,3.8z M8,8.7l2.8-2.8l27.6,7.9L28.2,25L8,8.7z M17.5,36.6l-4.8,5.2L2.6,33.6l1-1L17.5,36.6z"/>
</svg>
