<!-- Generator: Adobe Illustrator 21.1.0, SVG Export Plug-In  -->
<svg version="1.1"
	 xmlns="http://www.w3.org/2000/svg" xmlns:xlink="http://www.w3.org/1999/xlink" xmlns:a="http://ns.adobe.com/AdobeSVGViewerExtensions/3.0/"
	 x="0px" y="0px" width="89.8px" height="88.8px" viewBox="0 0 89.8 88.8" style="enable-background:new 0 0 89.8 88.8;"
	 xml:space="preserve">
<style type="text/css">
	.st0{fill:#010101;}
</style>
<defs>
</defs>
<g>
	<path class="st0" d="M68.6,57.7c-4.4,0-8,3.6-8,8s3.6,8,8,8s8-3.6,8-8S73,57.7,68.6,57.7z M68.6,70c-2.4,0-4.3-1.9-4.3-4.3
		s1.9-4.3,4.3-4.3c2.4,0,4.3,1.9,4.3,4.3C72.9,68,71,70,68.6,70z"/>
	<path class="st0" d="M21.4,57.7c-4.4,0-8,3.6-8,8s3.6,8,8,8s8-3.6,8-8S25.8,57.7,21.4,57.7z M21.4,70c-2.4,0-4.3-1.9-4.3-4.3
		s1.9-4.3,4.3-4.3c2.4,0,4.3,1.9,4.3,4.3C25.7,68,23.7,70,21.4,70z"/>
	<path class="st0" d="M86.4,21h-2.8v-5.2c0-7.7-1-15.8-12.3-15.8h-49C10.8,0,6.5,3.8,6.5,14.1V21H3.6c-2,0-3.6,1.6-3.6,3.6v14
		c0,2,1.6,3.6,3.6,3.6h2.9v29.7c0,2.5,0.8,4.3,1.9,5.6c-0.1,0.2-0.2,0.5-0.2,0.8v5.2c0,2.9,2.4,5.3,5.3,5.3h7c2.9,0,5.3-2.4,5.3-5.3
		v-2.8h38.3v2.8c0,2.9,2.4,5.3,5.3,5.3h7c2.9,0,5.3-2.4,5.3-5.3v-5.2c0-0.3-0.1-0.6-0.2-0.8c1.2-1.3,1.9-3.1,1.9-5.6V42.1h2.8
		c2,0,3.6-1.6,3.6-3.6v-14C90,22.6,88.4,21,86.4,21z M6.4,38.5l-2.8,0.1v-14h2.9L6.4,38.5L6.4,38.5z M22.2,83.5
		c0,0.9-0.7,1.7-1.7,1.7h-7c-0.9,0-1.7-0.7-1.7-1.7v-3.8c2.6,1,5.5,1,6.9,1h3.4L22.2,83.5L22.2,83.5z M78.2,83.5
		c0,0.9-0.7,1.7-1.7,1.7h-7c-0.9,0-1.7-0.7-1.7-1.7v-2.8h3.4c1.5,0,4.3,0,6.9-1L78.2,83.5L78.2,83.5z M79.9,71.8
		c0,3.1-1.5,5.2-8.7,5.2H18.8c-7.2,0-8.7-2.1-8.7-5.2V14.1c0-8.2,2.6-10.4,12.2-10.4h49C78,3.7,80,6.4,80,15.9L79.9,71.8L79.9,71.8z
		 M83.6,38.5V24.6l2.8-0.1l0.1,13.9h-2.9L83.6,38.5L83.6,38.5z"/>
	<path class="st0" d="M27.5,12.5h36.7c1,0,1.8-0.8,1.8-1.8s-0.8-1.8-1.8-1.8H27.5c-1,0-1.8,0.8-1.8,1.8S26.5,12.5,27.5,12.5z"/>
	<path class="st0" d="M69.5,17.5h-49c-4.5,0-7.1,2.6-7.1,7.1v21c0,4.5,2.6,7.1,7.1,7.1l49-0.1c2.9,0,7.1-2.5,7.1-6.9v-21
		C76.6,20.1,74,17.5,69.5,17.5z M72.9,45.6c0,2.3-2.4,3.3-3.4,3.3l0,0l-49,0.1c-2.5,0-3.4-0.9-3.4-3.4v-21c0-2.5,0.9-3.4,3.4-3.4h49
		c2.5,0,3.4,0.9,3.4,3.4V45.6z"/>
</g>
</svg>
