<!-- Generator: Adobe Illustrator 21.1.0, SVG Export Plug-In  -->
<svg version="1.1"
	 xmlns="http://www.w3.org/2000/svg" xmlns:xlink="http://www.w3.org/1999/xlink" xmlns:a="http://ns.adobe.com/AdobeSVGViewerExtensions/3.0/"
	 x="0px" y="0px" width="490px" height="612px" viewBox="0 0 490 612" style="enable-background:new 0 0 490 612;"
	 xml:space="preserve">
<defs>
</defs>
<g>
	<g>
		<path d="M245,326c90.6,0,123.1-90.7,131.7-165.2C387.2,69.1,343.8,0,245,0c-98.8,0-142.2,69.1-131.7,160.8
			C121.9,235.3,154.5,326,245,326z"/>
		<path d="M490,541.9c-1-28.9-4.4-57.9-9.4-86.4c-6.1-34.5-13.9-85-44-107.5c-17.4-13-39.9-17.2-59.9-25.1
			c-9.7-3.8-18.4-7.6-26.5-11.9c-27.5,30.2-63.4,46-105.2,46c-41.8,0-77.7-15.8-105.2-46c-8.2,4.3-16.8,8.1-26.5,11.9
			c-19.9,7.8-42.5,12.1-59.9,25.1c-30.1,22.5-37.9,73-44,107.5C4.4,484,1,513,0,541.9c-0.8,22.4,10.3,25.5,29,32.3
			c23.5,8.5,47.7,14.7,72,19.9c47.1,9.9,95.6,17.6,143.9,17.9c48.3-0.3,96.8-8,143.9-17.9c24.4-5.1,48.6-11.4,72-19.9
			C479.7,567.4,490.8,564.3,490,541.9z"/>
	</g>
</g>
</svg>
