<!-- Generator: Adobe Illustrator 21.1.0, SVG Export Plug-In  -->
<svg version="1.1"
	 xmlns="http://www.w3.org/2000/svg" xmlns:xlink="http://www.w3.org/1999/xlink" xmlns:a="http://ns.adobe.com/AdobeSVGViewerExtensions/3.0/"
	 x="0px" y="0px" width="90px" height="90px" viewBox="0 0 90 90" style="enable-background:new 0 0 90 90;" xml:space="preserve">
<defs>
</defs>
<path d="M45,0C20.1,0,0,20.1,0,45s20.1,45,45,45s45-20.1,45-45S69.9,0,45,0z M20.2,75.6c12.6-13.7,34-14.6,47.6-1.9
	c0.7,0.6,1.3,1.3,1.9,1.9C55.4,87.3,34.6,87.3,20.2,75.6z M73.9,71.7c-14.7-16-39.6-16.9-55.6-2.2c-0.8,0.7-1.5,1.4-2.2,2.2
	C1.3,55.7,2.3,30.8,18.2,16c16-14.8,40.9-13.8,55.7,2.1C87.9,33.3,87.9,56.6,73.9,71.7z"/>
<path d="M45,16.9c-10.9,0-19.7,8.8-19.7,19.7S34.1,56.3,45,56.3s19.7-8.8,19.7-19.7l0,0C64.7,25.7,55.9,16.9,45,16.9z M45,50.6
	c-7.8,0-14.1-6.3-14.1-14.1c0-7.8,6.3-14.1,14.1-14.1s14.1,6.3,14.1,14C59.1,44.3,52.8,50.6,45,50.6z"/>
</svg>
