<!-- Generator: Adobe Illustrator 21.1.0, SVG Export Plug-In  -->
<svg version="1.1"
	 xmlns="http://www.w3.org/2000/svg" xmlns:xlink="http://www.w3.org/1999/xlink" xmlns:a="http://ns.adobe.com/AdobeSVGViewerExtensions/3.0/"
	 x="0px" y="0px" width="79px" height="79px" viewBox="0 0 79 79" style="enable-background:new 0 0 79 79;" xml:space="preserve">
<defs>
</defs>
<g>
	<path d="M39.5,79C61.3,79,79,61.3,79,39.5S61.3,0,39.5,0S0,17.7,0,39.5S17.7,79,39.5,79z M39.5,7C57.4,7,72,21.6,72,39.5
		S57.4,72,39.5,72S7,57.4,7,39.5S21.6,7,39.5,7z"/>
	<path d="M39,47c1.9,0,3.5-1.6,3.5-3.5v-19c0-1.9-1.6-3.5-3.5-3.5s-3.5,1.6-3.5,3.5v19C35.5,45.4,37.1,47,39,47z"/>
	<path d="M39,59c1.9,0,3.5-1.6,3.5-3.5v-3c0-1.9-1.6-3.5-3.5-3.5s-3.5,1.6-3.5,3.5v3C35.5,57.4,37.1,59,39,59z"/>
</g>
</svg>
