<?xml version="1.0" encoding="UTF-8"?><!DOCTYPE svg PUBLIC "-//W3C//DTD SVG 1.1//EN" "http://www.w3.org/Graphics/SVG/1.1/DTD/svg11.dtd"><svg xmlns="http://www.w3.org/2000/svg"><symbol id="ico-drop-arrow" viewBox="0 0 257.6 451.8">
    <path d="M248.3 248.3L54 442.6c-12.4 12.4-32.4 12.4-44.8 0-12.4-12.4-12.4-32.4 0-44.7L181.1 226 9.3 54C-3.1 41.7-3.1 21.6 9.3 9.3 21.6-3.1 41.7-3.1 54 9.3l194.3 194.3c6.2 6.2 9.3 14.3 9.3 22.4 0 8-3.1 16.1-9.3 22.3z"/>
</symbol><symbol id="ico-user" viewBox="0 0 490 612">
    <path d="M245 326c90.6 0 123.1-90.7 131.7-165.2C387.2 69.1 343.8 0 245 0c-98.8 0-142.2 69.1-131.7 160.8C121.9 235.3 154.5 326 245 326z"/>
    <path d="M490 541.9c-1-28.9-4.4-57.9-9.4-86.4-6.1-34.5-13.9-85-44-107.5-17.4-13-39.9-17.2-59.9-25.1-9.7-3.8-18.4-7.6-26.5-11.9-27.5 30.2-63.4 46-105.2 46-41.8 0-77.7-15.8-105.2-46-8.2 4.3-16.8 8.1-26.5 11.9-19.9 7.8-42.5 12.1-59.9 25.1-30.1 22.5-37.9 73-44 107.5C4.4 484 1 513 0 541.9c-.8 22.4 10.3 25.5 29 32.3 23.5 8.5 47.7 14.7 72 19.9 47.1 9.9 95.6 17.6 143.9 17.9 48.3-.3 96.8-8 143.9-17.9 24.4-5.1 48.6-11.4 72-19.9 18.9-6.8 30-9.9 29.2-32.3z"/>
</symbol></svg>